<svg width="219" height="68" viewBox="0 0 219 68" fill="none" xmlns="http://www.w3.org/2000/svg">
<path d="M0 33H219V55C219 60.5228 214.523 65 209 65H10C4.47715 65 0 60.5228 0 55V33Z" fill="#A5A5A5"/>
<rect x="64" y="36" width="92" height="26" rx="5" fill="white"/>
<path d="M134.564 42.668V48.709H134.886C134.984 48.709 135.066 48.695 135.131 48.667C135.197 48.639 135.264 48.583 135.334 48.499L137.462 46.154C137.528 46.0653 137.6 46 137.679 45.958C137.759 45.9113 137.859 45.888 137.98 45.888H139.226L136.713 48.639C136.578 48.8117 136.433 48.9447 136.279 49.038C136.368 49.0987 136.445 49.1687 136.51 49.248C136.58 49.3273 136.648 49.4137 136.713 49.507L139.387 53H138.162C138.05 53 137.952 52.9813 137.868 52.944C137.789 52.9067 137.717 52.839 137.651 52.741L135.453 49.885C135.383 49.7777 135.313 49.71 135.243 49.682C135.173 49.6493 135.068 49.633 134.928 49.633H134.564V53H133.199V42.668H134.564ZM142.903 49.451C143.146 49.451 143.358 49.4183 143.54 49.353C143.727 49.2877 143.881 49.1967 144.002 49.08C144.128 48.9587 144.222 48.814 144.282 48.646C144.348 48.478 144.38 48.2937 144.38 48.093C144.38 47.6823 144.254 47.3557 144.002 47.113C143.755 46.8657 143.389 46.742 142.903 46.742C142.423 46.742 142.056 46.8657 141.804 47.113C141.557 47.3557 141.433 47.6823 141.433 48.093C141.433 48.2937 141.464 48.478 141.524 48.646C141.59 48.8093 141.683 48.9517 141.804 49.073C141.93 49.1897 142.084 49.283 142.266 49.353C142.453 49.4183 142.665 49.451 142.903 49.451ZM145.08 53.371C145.08 53.203 145.034 53.07 144.94 52.972C144.847 52.8693 144.719 52.79 144.555 52.734C144.397 52.6733 144.21 52.6313 143.995 52.608C143.781 52.58 143.554 52.559 143.316 52.545C143.083 52.531 142.843 52.5193 142.595 52.51C142.348 52.496 142.11 52.4727 141.881 52.44C141.639 52.5613 141.438 52.7083 141.279 52.881C141.125 53.0537 141.048 53.2567 141.048 53.49C141.048 53.6393 141.086 53.7793 141.16 53.91C141.24 54.0407 141.359 54.1527 141.517 54.246C141.681 54.344 141.884 54.4187 142.126 54.47C142.374 54.526 142.668 54.554 143.008 54.554C143.344 54.554 143.641 54.5237 143.897 54.463C144.154 54.407 144.369 54.3253 144.541 54.218C144.719 54.1153 144.852 53.9917 144.94 53.847C145.034 53.7023 145.08 53.5437 145.08 53.371ZM146.466 46.154V46.665C146.466 46.833 146.361 46.938 146.151 46.98L145.388 47.092C145.454 47.2367 145.505 47.3907 145.542 47.554C145.58 47.7127 145.598 47.8807 145.598 48.058C145.598 48.408 145.531 48.7253 145.395 49.01C145.26 49.29 145.073 49.5303 144.835 49.731C144.597 49.9317 144.313 50.0857 143.981 50.193C143.655 50.3003 143.295 50.354 142.903 50.354C142.581 50.354 142.28 50.319 142 50.249C141.86 50.333 141.753 50.4263 141.678 50.529C141.608 50.627 141.573 50.725 141.573 50.823C141.573 50.9863 141.641 51.1077 141.776 51.187C141.916 51.2663 142.096 51.3247 142.315 51.362C142.539 51.3947 142.794 51.4157 143.078 51.425C143.368 51.4343 143.659 51.4507 143.953 51.474C144.252 51.4927 144.544 51.53 144.828 51.586C145.118 51.6373 145.372 51.7237 145.591 51.845C145.815 51.9617 145.995 52.125 146.13 52.335C146.27 52.5403 146.34 52.8087 146.34 53.14C146.34 53.448 146.263 53.7467 146.109 54.036C145.96 54.3253 145.741 54.582 145.451 54.806C145.162 55.03 144.81 55.2097 144.394 55.345C143.979 55.4803 143.508 55.548 142.98 55.548C142.453 55.548 141.993 55.4967 141.601 55.394C141.214 55.2913 140.89 55.1537 140.628 54.981C140.372 54.8083 140.178 54.6077 140.047 54.379C139.921 54.1503 139.858 53.9123 139.858 53.665C139.858 53.3197 139.966 53.028 140.18 52.79C140.395 52.5473 140.691 52.3583 141.069 52.223C140.864 52.1297 140.701 52.0037 140.579 51.845C140.458 51.6817 140.397 51.467 140.397 51.201C140.397 51.0983 140.416 50.9933 140.453 50.886C140.491 50.774 140.547 50.6643 140.621 50.557C140.701 50.445 140.796 50.34 140.908 50.242C141.025 50.144 141.158 50.0553 141.307 49.976C140.957 49.78 140.682 49.521 140.481 49.199C140.281 48.8723 140.18 48.492 140.18 48.058C140.18 47.708 140.248 47.393 140.383 47.113C140.519 46.833 140.705 46.5927 140.943 46.392C141.186 46.1913 141.473 46.0373 141.804 45.93C142.14 45.8227 142.507 45.769 142.903 45.769C143.519 45.769 144.049 45.8973 144.492 46.154H146.466Z" fill="#DBDBDB"/>
<rect x="67.25" y="39.25" width="48.5" height="19.5" rx="4.75" stroke="#DBDBDB" stroke-width="0.5"/>
<path d="M200 65H208C208 66.6569 206.657 68 205 68H203C201.343 68 200 66.6569 200 65Z" fill="white"/>
<path d="M11 65H19C19 66.6569 17.6569 68 16 68H14C12.3431 68 11 66.6569 11 65Z" fill="white"/>
<path d="M15 0H204L219 33H0L15 0Z" fill="#DBDBDB"/>
</svg>
