<svg width="24" height="24" viewBox="0 0 24 24" fill="none" xmlns="http://www.w3.org/2000/svg">
<g id="bread(1) 1">
<path id="Vector" fill-rule="evenodd" clip-rule="evenodd" d="M12.0794 1.76081C11.2833 2.07255 10.4313 2.63718 9.55842 3.38384C7.81261 4.87721 5.98857 7.10688 4.5698 9.56384C3.15117 12.021 2.13159 14.716 1.71117 16.9746C1.50098 18.1039 1.43811 19.1235 1.56616 19.9687C1.69421 20.814 2.02632 21.5196 2.65381 21.8818C3.2813 22.2441 4.02361 22.1217 4.70311 21.7251C5.38261 21.3285 6.06492 20.6654 6.76925 19.8252C7.9355 18.434 9.15076 16.539 10.331 14.5523C10.4277 14.7146 10.5001 14.8889 10.5001 14.9999V21.3749C10.5001 21.9916 11.0084 22.4999 11.6251 22.4999H19.8751C20.4919 22.4999 21.0001 21.9916 21.0001 21.3749V14.9999C21.0001 14.7985 21.2301 14.3825 21.4337 14.2242C22.0922 13.7124 22.5 13.0717 22.5001 12.3749C22.5001 11.3314 21.6391 10.4884 20.4193 9.91392C19.1995 9.33945 17.5602 8.99903 15.7502 8.99986C14.8784 9.00027 14.0476 9.08074 13.2827 9.22691C13.7875 8.21084 14.2295 7.23284 14.5556 6.33824C14.9311 5.30819 15.1642 4.38648 15.1679 3.59973C15.1716 2.81298 14.9062 2.10899 14.2788 1.74671C13.6019 1.34733 12.7567 1.49304 12.0794 1.76081ZM13.9038 2.39583C14.2623 2.6028 14.421 2.96009 14.418 3.59628C14.415 4.23247 14.2106 5.09527 13.8511 6.08141C13.4808 7.09732 12.9363 8.25404 12.316 9.46008C11.8711 9.58902 11.4545 9.73985 11.0812 9.91563C9.8615 10.4899 9.00035 11.3325 9.00035 12.3751C9.00047 12.969 9.2984 13.5213 9.79355 13.9886C8.58714 16.0275 7.3451 17.9715 6.19449 19.344C5.5202 20.1483 4.87482 20.7562 4.32537 21.0769C3.77592 21.3976 3.38746 21.4391 3.029 21.2322C2.67053 21.0252 2.41711 20.575 2.30829 19.8567C2.19948 19.1384 2.24895 18.1859 2.44891 17.1116C2.64539 16.0559 2.98704 14.8819 3.44499 13.678L5.10537 14.6367C5.63949 14.9451 6.33361 14.7585 6.64197 14.2244C6.95035 13.6902 6.76449 12.9961 6.23037 12.6877L4.34442 11.5986C4.56154 11.15 4.7942 10.7057 5.03874 10.2671L6.98037 11.3884C7.51449 11.6968 8.20861 11.5109 8.51697 10.9768C8.82534 10.4426 8.63949 9.74852 8.10537 9.44012L6.21867 8.351C6.50442 7.93014 6.80045 7.52293 7.1027 7.12858L8.85537 8.14078C9.38949 8.44916 10.0836 8.26329 10.392 7.72914C10.7004 7.19499 10.5145 6.5009 9.98037 6.1925L8.57487 5.38097C9.06717 4.85184 9.56161 4.36745 10.0455 3.95349C10.876 3.24313 11.6762 2.72424 12.3527 2.45934C12.8982 2.23085 13.5135 2.15697 13.9038 2.39583ZM8.0606 5.95027L9.60526 6.84236C9.79079 6.94948 9.84934 7.16879 9.74222 7.35431C9.63511 7.53984 9.4158 7.59912 9.23027 7.492L7.56917 6.53328C7.73184 6.33362 7.89581 6.14002 8.0606 5.95027ZM5.80404 8.97809L7.7303 10.0899C7.91583 10.197 7.97438 10.4163 7.86726 10.6018C7.76014 10.7874 7.54083 10.8467 7.35531 10.7395L5.41296 9.61821C5.54134 9.40335 5.66967 9.18869 5.80404 8.97809ZM15.7502 9.75007C17.4647 9.74928 19.0127 10.0806 20.0994 10.5924C21.1862 11.1041 21.7503 11.7617 21.7503 12.3751C21.7502 12.7796 21.514 13.2123 20.9732 13.6326C20.5738 13.943 20.2503 14.4369 20.2503 15.0001V21.3751C20.2503 21.5893 20.0896 21.7501 19.8753 21.7501H11.6253C11.4111 21.7501 11.2503 21.5893 11.2503 21.3751V15.0001C11.2503 14.4369 10.9268 13.943 10.5274 13.6326C9.98661 13.2123 9.75043 12.7796 9.75036 12.3751C9.75035 11.7631 10.3145 11.1062 11.4012 10.5946C12.4879 10.0829 14.0353 9.75086 15.7502 9.75007ZM4.02729 12.2821L5.85537 13.3375C6.04091 13.4446 6.09945 13.6639 5.99234 13.8495C5.88522 14.035 5.66591 14.0943 5.48039 13.9872L3.727 12.975C3.82283 12.7439 3.92338 12.5134 4.02729 12.2821Z" fill="#3656BB"/>
<path id="Vector_2" fill-rule="evenodd" clip-rule="evenodd" d="M15.7464 10.502C14.8415 10.5024 13.9784 10.5888 13.1903 10.7459C13.0928 10.7653 13.007 10.8227 12.9518 10.9054C12.8966 10.988 12.8765 11.0893 12.8959 11.1868C12.9153 11.2843 12.9727 11.3701 13.0554 11.4253C13.1381 11.4805 13.2393 11.5006 13.3368 11.4812C14.0737 11.3344 14.8891 11.2524 15.7464 11.252C16.6037 11.2516 17.4193 11.3333 18.1568 11.4797C18.2543 11.4991 18.3556 11.479 18.4383 11.4238C18.5209 11.3686 18.5783 11.2828 18.5978 11.1853C18.6172 11.0878 18.597 10.9866 18.5418 10.9039C18.4866 10.8212 18.4008 10.7638 18.3033 10.7444C17.5144 10.5877 16.6514 10.5015 15.7464 10.502Z" fill="#3656BB"/>
</g>
</svg>
