<svg width="24" height="24" viewBox="0 0 24 24" fill="none" xmlns="http://www.w3.org/2000/svg">
<g id="calendar(1) 1" clip-path="url(#clip0_2_647)">
<path id="Vector" d="M23.633 7.28315H0.367159C0.35656 7.31136 0.353027 7.34314 0.353027 7.37491V21.3373C0.353027 22.6184 1.39421 23.6596 2.67185 23.6596H21.3248C22.606 23.6596 23.6471 22.6184 23.6471 21.3373V7.37491C23.6471 7.34314 23.6436 7.31136 23.633 7.28315ZM5.87303 20.9808C5.87303 21.1749 5.7142 21.3337 5.52009 21.3337H3.5295C3.33538 21.3337 3.17656 21.1749 3.17656 20.9808V18.9902C3.17656 18.7926 3.33538 18.6373 3.5295 18.6373H5.52009C5.7142 18.6373 5.87303 18.7926 5.87303 18.9902V20.9808ZM5.87303 16.3361C5.87303 16.5302 5.7142 16.689 5.52009 16.689H3.5295C3.33538 16.689 3.17656 16.5302 3.17656 16.3361V14.3455C3.17656 14.1514 3.33538 13.9926 3.5295 13.9926H5.52009C5.7142 13.9926 5.87303 14.1514 5.87303 14.3455V16.3361ZM10.8566 20.9808C10.8566 21.1749 10.6977 21.3337 10.5036 21.3337H8.51303C8.31891 21.3337 8.16009 21.1749 8.16009 20.9808V18.9902C8.16009 18.7926 8.31891 18.6373 8.51303 18.6373H10.5036C10.6977 18.6373 10.8566 18.7926 10.8566 18.9902V20.9808ZM10.8566 16.3361C10.8566 16.5302 10.6977 16.689 10.5036 16.689H8.51303C8.31891 16.689 8.16009 16.5302 8.16009 16.3361V14.3455C8.16009 14.1514 8.31891 13.9926 8.51303 13.9926H10.5036C10.6977 13.9926 10.8566 14.1514 10.8566 14.3455V16.3361ZM15.8401 20.9808C15.8401 21.1749 15.6813 21.3337 15.4871 21.3337H13.4966C13.2989 21.3337 13.1436 21.1749 13.1436 20.9808V18.9902C13.1436 18.7926 13.2989 18.6373 13.4966 18.6373H15.4871C15.6813 18.6373 15.8401 18.7926 15.8401 18.9902V20.9808ZM15.8401 16.3361C15.8401 16.5302 15.6813 16.689 15.4871 16.689H13.4966C13.2989 16.689 13.1436 16.5302 13.1436 16.3361V14.3455C13.1436 14.1514 13.2989 13.9926 13.4966 13.9926H15.4871C15.6813 13.9926 15.8401 14.1514 15.8401 14.3455V16.3361ZM15.8401 11.6914C15.8401 11.8855 15.6813 12.0443 15.4871 12.0443H13.4966C13.2989 12.0443 13.1436 11.8855 13.1436 11.6914V9.70079C13.1436 9.50667 13.2989 9.34785 13.4966 9.34785H15.4871C15.6813 9.34785 15.8401 9.50667 15.8401 9.70079V11.6914ZM20.8236 20.9808C20.8236 21.1749 20.6648 21.3337 20.4707 21.3337H18.4801C18.2825 21.3337 18.1272 21.1749 18.1272 20.9808V18.9902C18.1272 18.7926 18.2825 18.6373 18.4801 18.6373H20.4707C20.6648 18.6373 20.8236 18.7926 20.8236 18.9902V20.9808ZM20.8236 16.3361C20.8236 16.5302 20.6648 16.689 20.4707 16.689H18.4801C18.2825 16.689 18.1272 16.5302 18.1272 16.3361V14.3455C18.1272 14.1514 18.2825 13.9926 18.4801 13.9926H20.4707C20.6648 13.9926 20.8236 14.1514 20.8236 14.3455V16.3361ZM20.8236 11.6914C20.8236 11.8855 20.6648 12.0443 20.4707 12.0443H18.4801C18.2825 12.0443 18.1272 11.8855 18.1272 11.6914V9.70079C18.1272 9.50667 18.2825 9.34785 18.4801 9.34785H20.4707C20.6648 9.34785 20.8236 9.50667 20.8236 9.70079V11.6914ZM21.3248 1.54785H19.1577V3.77491C19.3554 4.01491 19.4754 4.32197 19.4754 4.65726C19.4754 5.41607 18.8577 6.03372 18.0989 6.03372C17.3366 6.03372 16.7189 5.41607 16.7189 4.65726C16.7189 4.32197 16.8389 4.01491 17.0401 3.77491V1.54785H6.9601V3.77491C7.15774 4.01491 7.27773 4.32197 7.27773 4.65726C7.27773 5.41607 6.66362 6.03372 5.90127 6.03372C5.14244 6.03372 4.5248 5.41607 4.5248 4.65726C4.5248 4.32197 4.64481 4.01491 4.84245 3.77491V1.54785H2.67185C1.39421 1.54785 0.353027 2.58903 0.353027 3.87019V6.57726H23.6471V3.87019C23.6471 2.58903 22.606 1.54785 21.3248 1.54785ZM10.9864 5.0085H9.35236C9.15728 5.0085 8.99942 4.85047 8.99942 4.65556C8.99942 4.46065 9.15728 4.30262 9.35236 4.30262H10.9864C11.1815 4.30262 11.3394 4.46065 11.3394 4.65556C11.3394 4.85047 11.1815 5.0085 10.9864 5.0085ZM14.6465 5.0085H12.6753C12.4802 5.0085 12.3224 4.85047 12.3224 4.65556C12.3224 4.46065 12.4802 4.30262 12.6753 4.30262H14.6465C14.8416 4.30262 14.9994 4.46065 14.9994 4.65556C14.9994 4.85047 14.8416 5.0085 14.6465 5.0085Z" fill="#191E3A"/>
<path id="Vector_2" d="M5.90153 5.00821C6.09661 5.00821 6.25447 4.85018 6.25447 4.65527V0.692785C6.25447 0.497873 6.09661 0.339844 5.90153 0.339844C5.70644 0.339844 5.54858 0.497873 5.54858 0.692785V4.65527C5.54858 4.85018 5.70644 5.00821 5.90153 5.00821ZM18.0973 5.00821C18.2924 5.00821 18.4502 4.85018 18.4502 4.65527V0.692785C18.4502 0.497873 18.2924 0.339844 18.0973 0.339844C17.9022 0.339844 17.7444 0.497873 17.7444 0.692785V4.65527C17.7444 4.85018 17.9022 5.00821 18.0973 5.00821Z" fill="#191E3A"/>
</g>
<defs>
<clipPath id="clip0_2_647">
<rect width="24" height="24" fill="white"/>
</clipPath>
</defs>
</svg>
