<svg width="24" height="24" viewBox="0 0 24 24" fill="none" xmlns="http://www.w3.org/2000/svg">
<g id="camera(1) 1">
<path id="Vector" d="M12.0001 16.5509C13.5998 16.5509 14.8967 15.2541 14.8967 13.6544C14.8967 12.0546 13.5998 10.7578 12.0001 10.7578C10.4004 10.7578 9.10352 12.0546 9.10352 13.6544C9.10352 15.2541 10.4004 16.5509 12.0001 16.5509Z" fill="white"/>
<path id="Vector_2" d="M20.6929 6.62338H17.9792C17.8054 6.62343 17.6361 6.56877 17.4951 6.46717C17.3541 6.36557 17.2487 6.22218 17.1938 6.05731L16.9323 5.27194C16.8223 4.94237 16.6114 4.65576 16.3295 4.45272C16.0476 4.24967 15.7089 4.14048 15.3615 4.14063H8.64393C8.29654 4.14072 7.95798 4.2501 7.67622 4.45329C7.39445 4.65648 7.18376 4.94318 7.07398 5.27276L6.81246 6.05731C6.75755 6.22218 6.65214 6.36557 6.51118 6.46717C6.37021 6.56877 6.20084 6.62343 6.02707 6.62338H3.31339C2.87441 6.62338 2.4534 6.79777 2.143 7.10817C1.83259 7.41858 1.6582 7.83958 1.6582 8.27856V18.2096C1.6582 18.6486 1.83259 19.0696 2.143 19.38C2.4534 19.6904 2.87441 19.8648 3.31339 19.8648H20.6929C21.1319 19.8648 21.5529 19.6904 21.8633 19.38C22.1737 19.0696 22.3481 18.6486 22.3481 18.2096V8.27856C22.3481 7.83958 22.1737 7.41858 21.8633 7.10817C21.5529 6.79777 21.1319 6.62338 20.6929 6.62338ZM12.0031 18.2096C9.49387 18.2096 7.45136 16.1671 7.45136 13.6579C7.45136 11.1486 9.49387 9.10614 12.0031 9.10614C14.5124 9.10614 16.5549 11.1486 16.5549 13.6579C16.5549 16.1671 14.5124 18.2096 12.0031 18.2096ZM16.9687 9.93373C16.7492 9.93373 16.5387 9.84654 16.3835 9.69133C16.2283 9.53613 16.1411 9.32563 16.1411 9.10614C16.1411 8.88665 16.2283 8.67615 16.3835 8.52095C16.5387 8.36575 16.7492 8.27856 16.9687 8.27856C17.1882 8.27856 17.3987 8.36575 17.5539 8.52095C17.7091 8.67615 17.7963 8.88665 17.7963 9.10614C17.7963 9.32563 17.7091 9.53613 17.5539 9.69133C17.3987 9.84654 17.1882 9.93373 16.9687 9.93373Z" fill="white"/>
<path id="Vector_3" d="M4.55336 5.79243H2.89817C2.78843 5.79243 2.68318 5.74883 2.60557 5.67123C2.52797 5.59363 2.48438 5.48838 2.48438 5.37864C2.48438 5.26889 2.52797 5.16364 2.60557 5.08604C2.68318 5.00844 2.78843 4.96484 2.89817 4.96484H4.55336C4.66311 4.96484 4.76836 5.00844 4.84596 5.08604C4.92356 5.16364 4.96716 5.26889 4.96716 5.37864C4.96716 5.48838 4.92356 5.59363 4.84596 5.67123C4.76836 5.74883 4.66311 5.79243 4.55336 5.79243Z" fill="white"/>
</g>
</svg>
