<svg width="21" height="21" viewBox="0 0 21 21" fill="none" xmlns="http://www.w3.org/2000/svg">
<g id="Frame">
<path id="Vector" d="M1.96875 16.4062C6.63741 16.4024 11.2858 17.0207 15.7911 18.2446C16.4273 18.4179 17.0625 17.9454 17.0625 17.2856V16.4062M3.28125 3.9375V4.59375C3.28125 4.7678 3.21211 4.93472 3.08904 5.05779C2.96597 5.18086 2.79905 5.25 2.625 5.25H1.96875M1.96875 5.25V4.92188C1.96875 4.3785 2.40975 3.9375 2.95312 3.9375H17.7188M1.96875 5.25V13.125M17.7188 3.9375V4.59375C17.7188 4.956 18.0127 5.25 18.375 5.25H19.0312M17.7188 3.9375H18.0469C18.5902 3.9375 19.0312 4.3785 19.0312 4.92188V13.4531C19.0312 13.9965 18.5902 14.4375 18.0469 14.4375H17.7188M1.96875 13.125V13.4531C1.96875 13.7142 2.07246 13.9646 2.25707 14.1492C2.44167 14.3338 2.69205 14.4375 2.95312 14.4375H3.28125M1.96875 13.125H2.625C2.79905 13.125 2.96597 13.1941 3.08904 13.3172C3.21211 13.4403 3.28125 13.6072 3.28125 13.7812V14.4375M17.7188 14.4375V13.7812C17.7188 13.6072 17.7879 13.4403 17.911 13.3172C18.034 13.1941 18.201 13.125 18.375 13.125H19.0312M17.7188 14.4375H3.28125M13.125 9.1875C13.125 9.88369 12.8484 10.5514 12.3562 11.0437C11.8639 11.5359 11.1962 11.8125 10.5 11.8125C9.80381 11.8125 9.13613 11.5359 8.64384 11.0437C8.15156 10.5514 7.875 9.88369 7.875 9.1875C7.875 8.49131 8.15156 7.82363 8.64384 7.33134C9.13613 6.83906 9.80381 6.5625 10.5 6.5625C11.1962 6.5625 11.8639 6.83906 12.3562 7.33134C12.8484 7.82363 13.125 8.49131 13.125 9.1875ZM15.75 9.1875H15.757V9.1945H15.75V9.1875ZM5.25 9.1875H5.257V9.1945H5.25V9.1875Z" stroke="#A5A5A5" stroke-width="1.3125" stroke-linecap="round" stroke-linejoin="round"/>
</g>
</svg>
