<svg width="24" height="24" viewBox="0 0 24 24" fill="none" xmlns="http://www.w3.org/2000/svg">
<g id="comments-2">
<path id="Icon" fill-rule="evenodd" clip-rule="evenodd" d="M18.3562 5.64338C16.0159 1.72939 11.7066 0.70665 8.04946 1.75442C4.39451 2.80157 1.25 5.95571 1.25 10.5005C1.25 11.8858 1.5553 13.2018 2.10266 14.3834L2.78203 14.0687L2.10266 14.3834L2.11145 14.4024C2.52822 15.302 2.74338 15.7665 2.55804 16.4114L3.27886 16.6186L2.55804 16.4114C2.52215 16.5363 2.46778 16.6541 2.38763 16.8278L2.38762 16.8278L2.38761 16.8278C2.36323 16.8807 2.33648 16.9386 2.30713 17.0036C2.19944 17.2418 2.05615 17.5787 2.02488 17.9594C1.93956 18.9982 2.85435 19.8399 3.88246 19.6686L3.7592 18.9289L3.88246 19.6686C4.44257 19.5753 4.92649 19.3251 5.26584 19.1496L5.26585 19.1496L5.26592 19.1495C5.34682 19.1077 5.41951 19.0701 5.48304 19.0399C5.83146 18.8743 6.10656 18.7944 6.525 18.8928L6.52562 18.893L6.53122 18.8944L6.55003 18.8997C6.56658 18.9045 6.58846 18.9112 6.61679 18.9203C6.67381 18.9386 6.7489 18.964 6.84652 18.9978C7.042 19.0657 7.31124 19.162 7.67722 19.2929L7.92983 18.5867L7.67723 19.2929C8.01079 19.4122 8.35395 19.5082 8.71103 19.5808C8.9893 19.6374 9.27567 19.532 9.45083 19.3084C9.62599 19.0849 9.65989 18.7817 9.53842 18.525C9.03304 17.4571 8.75 16.2629 8.75 15.0005C8.75 10.2563 12.9375 6.40661 17.6539 6.77597C17.9335 6.79787 18.202 6.66189 18.3499 6.42349C18.4977 6.18509 18.5001 5.88413 18.3562 5.64338ZM10.25 15.0005C10.25 11.2726 13.2721 8.25048 17 8.25048C20.7279 8.25048 23.75 11.2726 23.75 15.0005C23.75 16.011 23.5272 16.9716 23.1277 17.8341C22.8219 18.4942 22.7129 18.7458 22.8181 19.112C22.8384 19.1828 22.8681 19.2472 22.9215 19.3629L22.9215 19.363L22.9218 19.3636L22.9219 19.3638C22.9398 19.4027 22.9604 19.4474 22.9842 19.5C23.061 19.6699 23.1768 19.9378 23.2023 20.2476C23.2743 21.124 22.5024 21.8342 21.635 21.6897C21.1999 21.6172 20.8151 21.4173 20.5791 21.2947C20.5275 21.2679 20.483 21.2448 20.4467 21.2275C20.226 21.1227 20.0851 21.0854 19.8565 21.1392L19.8576 21.1389C19.8576 21.1389 19.8572 21.139 19.8565 21.1392C19.8526 21.1403 19.8382 21.1444 19.8085 21.154C19.7706 21.1661 19.7195 21.1833 19.6512 21.207C19.5145 21.2545 19.3256 21.322 19.0668 21.4146C18.4313 21.6419 17.7583 21.7505 17 21.7505C13.2721 21.7505 10.25 18.7284 10.25 15.0005Z" fill="#DCDCDC"/>
</g>
</svg>
