<svg width="32" height="32" viewBox="0 0 32 32" fill="none" xmlns="http://www.w3.org/2000/svg">
<g id="19231915431637642834">
<path id="Vector" d="M30 25H29.5V24C29.5 23.45 29.05 23 28.5 23H27.5C27.5 22.45 27.05 22 26.5 22H25.5C24.95 22 24.5 22.45 24.5 23V25H23V4.5C23 4.2 22.8 4 22.5 4H20.5C20.5 3.45 20.05 3 19.5 3H14.45C14.2 1.85 13.2 1 12 1C10.8 1 9.8 1.85 9.55 3H4.5C3.95 3 3.5 3.45 3.5 4H1.5C1.2 4 1 4.2 1 4.5V30.5C1 30.8 1.2 31 1.5 31H13.5V30H2V5H3.5V6C3.5 6.3 3.7 6.5 4 6.5H20C20.3 6.5 20.5 6.3 20.5 6V5H22V25H19.5V23C19.5 22.45 19.05 22 18.5 22H17.5C16.95 22 16.5 22.45 16.5 23H15.5C14.95 23 14.5 23.45 14.5 24V25H14C13.45 25 13 25.45 13 26V27C13 27.55 13.45 28 14 28H14.5V29C14.5 29.55 14.95 30 15.5 30H16.5C16.5 30.55 16.95 31 17.5 31H18.5C19.05 31 19.5 30.55 19.5 30V28H22V30H20V31H22.5C22.8 31 23 30.8 23 30.5V28H24.5V30C24.5 30.55 24.95 31 25.5 31H26.5C27.05 31 27.5 30.55 27.5 30H28.5C29.05 30 29.5 29.55 29.5 29V28H30C30.55 28 31 27.55 31 27V26C31 25.45 30.55 25 30 25ZM19.5 5.5H4.5V4.5V4H10C10.3 4 10.5 3.8 10.5 3.5C10.5 2.65 11.15 2 12 2C12.85 2 13.5 2.65 13.5 3.5C13.5 3.8 13.7 4 14 4H19.5V4.5V5.5ZM14 27V26H14.5V27H14ZM15.5 29V24H16.5V29H15.5ZM18.5 30H17.5V29V24V23H18.5V25.5V27.5V30ZM22.5 27H19.5V26H22.5H24.5V27H22.5ZM25.5 30V27.5V25.5V23H26.5V24V29V30H25.5ZM27.5 29V24H28.5V29H27.5ZM30 27H29.5V26H30V27Z" fill="#191E3A"/>
<path id="Vector_2" d="M3 7.5V28.5C3 28.8 3.2 29 3.5 29H12.5V28H4V7.5H3Z" fill="#191E3A"/>
<path id="Vector_3" d="M21 7.5H20V21.5H21V7.5Z" fill="#191E3A"/>
<path id="Vector_4" d="M7.99844 12.5004C8.14844 12.5004 8.24844 12.4504 8.34844 12.3504L10.8484 9.85039L10.1484 9.15039L7.99844 11.3004L7.34844 10.6504L6.64844 11.3504L7.64844 12.3504C7.74844 12.4504 7.84844 12.5004 7.99844 12.5004Z" fill="#191E3A"/>
<path id="Vector_5" d="M7.64844 16.3504C7.74844 16.4504 7.89844 16.5004 7.99844 16.5004C8.09844 16.5004 8.24844 16.4504 8.34844 16.3504L10.8484 13.8504L10.1484 13.1504L7.99844 15.3004L7.34844 14.6504L6.64844 15.3504L7.64844 16.3504Z" fill="#191E3A"/>
<path id="Vector_6" d="M7.64844 20.3504C7.74844 20.4504 7.89844 20.5004 7.99844 20.5004C8.09844 20.5004 8.24844 20.4504 8.34844 20.3504L10.8484 17.8504L10.1484 17.1504L7.99844 19.3004L7.34844 18.6504L6.64844 19.3504L7.64844 20.3504Z" fill="#191E3A"/>
<path id="Vector_7" d="M7.64844 24.3504C7.74844 24.4504 7.89844 24.5004 7.99844 24.5004C8.09844 24.5004 8.24844 24.4504 8.34844 24.3504L10.8484 21.8504L10.1484 21.1504L7.99844 23.3004L7.34844 22.6504L6.64844 23.3504L7.64844 24.3504Z" fill="#191E3A"/>
</g>
</svg>
