<svg width="21" height="21" viewBox="0 0 21 21" fill="none" xmlns="http://www.w3.org/2000/svg">
<path d="M10.5 1.09375C12.0005 1.09375 13.4205 1.44602 14.6807 2.07227L14.793 2.14258C15.0337 2.33034 15.1175 2.66711 14.9766 2.95117C14.8153 3.27574 14.4212 3.40837 14.0967 3.24707C13.014 2.70904 11.7933 2.40625 10.5 2.40625C6.02995 2.40625 2.40625 6.02995 2.40625 10.5C2.40625 14.9701 6.02995 18.5938 10.5 18.5938C14.9701 18.5937 18.5937 14.9701 18.5938 10.5C18.5938 10.3479 18.5893 10.1968 18.5811 10.0469L18.5439 9.59961L18.543 9.4668C18.571 9.16308 18.8091 8.91103 19.124 8.87598C19.4391 8.84115 19.7275 9.0349 19.8213 9.3252L19.8486 9.45605L19.8916 9.97461C19.9012 10.1486 19.9062 10.3238 19.9062 10.5C19.9062 15.6949 15.6949 19.9062 10.5 19.9062C5.30507 19.9062 1.09375 15.6949 1.09375 10.5C1.09375 5.30507 5.30507 1.09375 10.5 1.09375ZM18.8887 2.95215C19.1434 2.78375 19.4895 2.8118 19.7139 3.03613C19.9382 3.26047 19.9663 3.60658 19.7979 3.86133L19.7139 3.96387L10.9639 12.7139C10.7076 12.9701 10.2924 12.9701 10.0361 12.7139L7.41113 10.0889L7.32715 9.98633C7.15875 9.73158 7.1868 9.38547 7.41113 9.16113C7.63547 8.9368 7.98158 8.90875 8.23633 9.07715L8.33887 9.16113L10.5 11.3223L18.7861 3.03613L18.8887 2.95215Z" fill="#27AE60"/>
</svg>
