<svg width="18" height="19" viewBox="0 0 18 19" fill="none" xmlns="http://www.w3.org/2000/svg">
<path d="M9.00006 0.515625C13.9705 0.515716 18 4.54514 18.0001 9.51562C18 14.4861 13.9705 18.5155 9.00006 18.5156C4.02959 18.5156 7.65948e-05 14.4862 6.10352e-05 9.51562C7.3405e-05 4.54509 4.02959 0.515625 9.00006 0.515625ZM9.00006 5.53809C8.65328 5.53809 8.37213 5.81924 8.37213 6.16602V9.51465C8.37219 9.72439 8.47699 9.92066 8.65143 10.0371L11.1631 11.7119L11.2755 11.7715C11.546 11.8815 11.8659 11.7895 12.0342 11.5371C12.2022 11.2848 12.1633 10.9554 11.9581 10.748L11.8604 10.667L9.62799 9.17773V6.16602C9.62799 5.81928 9.34678 5.53816 9.00006 5.53809Z" fill="#3656BB"/>
</svg>
