<svg width="24" height="24" viewBox="0 0 24 24" fill="none" xmlns="http://www.w3.org/2000/svg">
<g id="2659755471582962168 1">
<path id="Vector" d="M12.5504 12.0405V10.0995C12.5501 9.95334 12.4919 9.81328 12.3885 9.71005C12.285 9.60681 12.1449 9.54883 11.9987 9.54883C11.8526 9.54883 11.7124 9.60681 11.609 9.71005C11.5056 9.81328 11.4473 9.95334 11.4471 10.0995V12.0405C11.079 12.1706 10.7688 12.4267 10.5712 12.7634C10.3737 13.1001 10.3016 13.4959 10.3676 13.8806C10.4336 14.2654 10.6335 14.6145 10.932 14.8661C11.2305 15.1177 11.6083 15.2558 11.9987 15.2558C12.3891 15.2558 12.767 15.1177 13.0655 14.8661C13.3639 14.6145 13.5639 14.2654 13.6299 13.8806C13.6959 13.4959 13.6238 13.1001 13.4262 12.7634C13.2287 12.4267 12.9185 12.1706 12.5504 12.0405Z" fill="#3656BB"/>
<path id="Vector_2" d="M19.8277 7.3187L20.8567 6.28968C21.1251 6.02074 21.2758 5.65623 21.2756 5.27625C21.2754 4.89627 21.1244 4.5319 20.8557 4.26322C20.587 3.99453 20.2227 3.84351 19.8427 3.84333C19.4627 3.84315 19.0982 3.99383 18.8293 4.26227L17.7305 5.36058C16.5834 4.56188 15.282 4.01164 13.9099 3.74514L13.2885 3.65568V2.50964H14.5788V1.27549C14.5785 1.03364 14.4823 0.801773 14.3113 0.63076C14.1403 0.459747 13.9084 0.363553 13.6666 0.363281H10.3297C10.0878 0.363553 9.85597 0.459747 9.68496 0.63076C9.51395 0.801773 9.41775 1.03364 9.41748 1.27549V2.50964H10.7077V3.65568L10.0864 3.74514C8.71402 4.01155 7.41249 4.56179 6.26523 5.36058L5.16694 4.26227C4.89809 3.99335 4.53343 3.84225 4.15317 3.84221C3.77291 3.84216 3.40821 3.99317 3.13929 4.26203C2.87038 4.53088 2.71927 4.89554 2.71923 5.2758C2.71918 5.65606 2.8702 6.02076 3.13905 6.28968L4.16807 7.3187C2.98453 8.79439 2.24212 10.5745 2.02641 12.4538C1.8107 14.3332 2.13048 16.2352 2.94888 17.9407C3.76728 19.6461 5.05099 21.0856 6.65201 22.0931C8.25303 23.1007 10.1062 23.6353 11.9979 23.6353C13.8895 23.6353 15.7427 23.1007 17.3437 22.0931C18.9447 21.0856 20.2284 19.6461 21.0468 17.9407C21.8652 16.2352 22.185 14.3332 21.9693 12.4538C21.7536 10.5745 21.0112 8.79439 19.8277 7.3187ZM18.9617 14.3549H19.2718C19.1277 15.7681 18.5715 17.1078 17.6722 18.2075L17.4552 17.991C17.3136 17.8496 17.1217 17.7702 16.9216 17.7702C16.7215 17.7702 16.5295 17.8496 16.3879 17.991C16.3178 18.061 16.2622 18.1441 16.2242 18.2356C16.1862 18.327 16.1667 18.4251 16.1667 18.5242C16.1667 18.6232 16.1862 18.7213 16.2242 18.8128C16.2622 18.9043 16.3178 18.9874 16.3879 19.0573L16.6049 19.2743C15.5053 20.1734 14.1655 20.7292 12.7523 20.8725V20.5638C12.7523 20.3637 12.6728 20.1719 12.5314 20.0305C12.3899 19.889 12.1981 19.8096 11.9981 19.8096C11.7981 19.8096 11.6063 19.889 11.4648 20.0305C11.3234 20.1719 11.2439 20.3637 11.2439 20.5638V20.8725C9.83079 20.729 8.49102 20.1732 7.39127 19.2743L7.60779 19.0573C7.71318 18.9518 7.78494 18.8174 7.81398 18.6711C7.84303 18.5248 7.82807 18.3732 7.77099 18.2354C7.71391 18.0976 7.61727 17.9799 7.49328 17.897C7.3693 17.8141 7.22353 17.7698 7.07439 17.7697H7.0739C6.97484 17.7694 6.8767 17.7888 6.78522 17.8268C6.69373 17.8648 6.61072 17.9206 6.54103 17.991L6.32355 18.207C5.42435 17.1075 4.86823 15.7679 4.72438 14.3549H5.03455C5.23464 14.3547 5.42649 14.2751 5.56798 14.1337C5.70947 13.9922 5.78903 13.8003 5.78921 13.6002V13.583C5.78903 13.3829 5.70947 13.1911 5.56798 13.0496C5.42649 12.9081 5.23464 12.8285 5.03455 12.8283H4.72438C4.86824 11.4153 5.42435 10.0757 6.32355 8.97619L6.54055 9.19219C6.61036 9.26257 6.69346 9.31838 6.78502 9.35637C6.87658 9.39436 6.97477 9.41378 7.0739 9.4135H7.07438C7.22355 9.41348 7.36936 9.36923 7.49338 9.28635C7.6174 9.20347 7.71407 9.08568 7.77115 8.94787C7.82824 8.81007 7.84319 8.65843 7.81412 8.51212C7.78504 8.36582 7.71324 8.23142 7.60779 8.12592L7.39127 7.90895C8.49091 7.00981 9.83074 6.454 11.2439 6.31072V6.61947C11.2439 6.81949 11.3234 7.01132 11.4648 7.15275C11.6063 7.29419 11.7981 7.37365 11.9981 7.37365C12.1981 7.37365 12.39 7.29419 12.5314 7.15275C12.6728 7.01132 12.7523 6.81949 12.7523 6.61947V6.31072C14.1655 6.454 15.5053 7.00981 16.6049 7.90895L16.3879 8.12592C16.3177 8.19595 16.262 8.27914 16.2239 8.37073C16.1859 8.46233 16.1663 8.56052 16.1662 8.6597C16.1662 8.75888 16.1857 8.8571 16.2236 8.94873C16.2616 9.04036 16.3172 9.12361 16.3874 9.19371C16.4576 9.26381 16.5409 9.31938 16.6325 9.35725C16.7242 9.39512 16.8224 9.41454 16.9216 9.4144C17.0208 9.41426 17.119 9.39456 17.2105 9.35643C17.3021 9.3183 17.3852 9.26249 17.4552 9.1922L17.6722 8.97571C18.5715 10.0754 19.1277 11.4151 19.2718 12.8283H18.9617C18.7616 12.8285 18.5697 12.9081 18.4282 13.0496C18.2867 13.1911 18.2072 13.3829 18.207 13.583V13.6002C18.2072 13.8003 18.2867 13.9922 18.4282 14.1337C18.5697 14.2752 18.7616 14.3547 18.9617 14.3549Z" fill="#3656BB"/>
</g>
</svg>
