<svg width="24" height="24" viewBox="0 0 24 24" fill="none" xmlns="http://www.w3.org/2000/svg">
<g id="comment-2-text">
<path id="Icon" d="M12 1.25C17.9371 1.25 22.75 6.06294 22.75 12C22.75 17.9371 17.9371 22.75 12 22.75C10.9378 22.75 9.99061 22.6171 9.10156 22.3447L8.72363 22.2197C8.27699 22.06 7.96211 21.9476 7.74512 21.8721L7.35352 21.7441C6.8215 21.6191 6.46588 21.7249 6.04102 21.9268C5.68524 22.0958 5.1436 22.4265 4.4834 22.5947L4.19336 22.6553C3.0689 22.8426 2.06787 21.9223 2.16113 20.7861L2.17969 20.6299C2.23524 20.27 2.37097 19.9495 2.48145 19.7051C2.62585 19.3856 2.72563 19.194 2.78418 18.9902L2.82227 18.8398C2.94032 18.2938 2.82044 17.8333 2.56641 17.2334L2.24121 16.5127C1.60516 15.1397 1.25 13.6102 1.25 12C1.25 6.06294 6.06294 1.25 12 1.25ZM12 2.75C6.89137 2.75 2.75 6.89137 2.75 12C2.75 13.3877 3.0552 14.7023 3.60156 15.8818L3.94434 16.6309C4.25129 17.351 4.49401 18.1702 4.29199 19.1377L4.22559 19.4053C4.12747 19.7466 3.95132 20.0961 3.84863 20.3232C3.758 20.5238 3.70132 20.6716 3.67383 20.7939L3.65625 20.9092C3.64314 21.0713 3.78578 21.2025 3.94629 21.1758L4.13184 21.1377C4.54739 21.0329 4.85955 20.8279 5.39746 20.5723C5.99377 20.2889 6.71177 20.0524 7.69727 20.2842L7.91309 20.3467C8.18196 20.432 8.6125 20.5863 9.22852 20.8066L9.53906 20.9102C10.2706 21.1345 11.0686 21.25 12 21.25C17.1086 21.25 21.25 17.1086 21.25 12C21.25 6.89137 17.1086 2.75 12 2.75ZM12 13.25C12.4142 13.25 12.75 13.5858 12.75 14C12.75 14.4142 12.4142 14.75 12 14.75H8C7.58579 14.75 7.25 14.4142 7.25 14C7.25 13.5858 7.58579 13.25 8 13.25H12ZM16 9.25C16.4142 9.25 16.75 9.58579 16.75 10C16.75 10.4142 16.4142 10.75 16 10.75H8C7.58579 10.75 7.25 10.4142 7.25 10C7.25 9.58579 7.58579 9.25 8 9.25H16Z" fill="#8E8E93"/>
</g>
</svg>
