<svg width="52" height="52" viewBox="0 0 52 52" fill="none" xmlns="http://www.w3.org/2000/svg">
<rect width="51.2727" height="51.2727" rx="25.6364" fill="#3656BB" fill-opacity="0.1"/>
<path d="M18.1357 15.5098C17.2626 15.5098 16.4746 15.7394 15.9247 16.2921C15.372 16.842 15.1367 17.6356 15.1367 18.5115V29.7618C15.1367 30.6376 15.372 31.4314 15.9247 31.9813C16.4746 32.534 17.2626 32.7636 18.1357 32.7636H26.1262L29.6694 35.5981C29.7568 35.6684 29.8588 35.7181 29.9679 35.7438C30.0771 35.7695 30.1906 35.7704 30.3002 35.7465C30.4097 35.7226 30.5125 35.6744 30.601 35.6056C30.6895 35.5367 30.7615 35.4489 30.8117 35.3486L32.0986 32.7636H33.136C34.009 32.7636 34.8027 32.534 35.3554 31.9813C35.9082 31.4314 36.1378 30.6376 36.1378 29.7618V18.5115C36.1378 17.6356 35.9082 16.842 35.3554 16.2921C34.8027 15.7394 34.009 15.5098 33.136 15.5098H18.1357ZM30.8712 20.0053C31.0217 20.0012 31.17 20.0423 31.2969 20.1235C31.4237 20.2047 31.5232 20.3221 31.5825 20.4605C31.6418 20.5989 31.6581 20.752 31.6293 20.8998C31.6005 21.0476 31.528 21.1833 31.4211 21.2894L25.4176 27.293C25.2769 27.4323 25.0869 27.5104 24.8889 27.5104C24.6909 27.5104 24.501 27.4323 24.3603 27.293L21.3585 24.2911C21.2812 24.2235 21.2186 24.1408 21.1746 24.0481C21.1306 23.9553 21.106 23.8545 21.1024 23.7519C21.0989 23.6492 21.1164 23.5469 21.1539 23.4514C21.1914 23.3558 21.2482 23.2689 21.3206 23.1961C21.393 23.1233 21.4796 23.0661 21.575 23.0281C21.6703 22.9901 21.7725 22.972 21.8751 22.975C21.9778 22.978 22.0787 23.002 22.1717 23.0456C22.2647 23.0891 22.3478 23.1513 22.4158 23.2282L24.8875 25.7028L30.3582 20.2321C30.4928 20.0937 30.6783 20.0126 30.8712 20.0053Z" fill="#3656BB"/>
</svg>
