<svg width="18" height="18" viewBox="0 0 18 18" fill="none" xmlns="http://www.w3.org/2000/svg">
<g id="country-flag 1">
<path id="Vector" d="M1.6875 16.875C1.83668 16.875 1.97976 16.8157 2.08525 16.7102C2.19074 16.6048 2.25 16.4617 2.25 16.3125V9H8.4375V10.6875C8.4375 10.8367 8.49676 10.9798 8.60225 11.0852C8.70774 11.1907 8.85082 11.25 9 11.25H9.5625V1.6875C9.5625 1.53832 9.50324 1.39524 9.39775 1.28975C9.29226 1.18426 9.14918 1.125 9 1.125H1.6875C1.53832 1.125 1.39524 1.18426 1.28975 1.28975C1.18426 1.39524 1.125 1.53832 1.125 1.6875V16.3125C1.125 16.4617 1.18426 16.6048 1.28975 16.7102C1.39524 16.8157 1.53832 16.875 1.6875 16.875ZM16.8075 10.9519C16.8569 10.8664 16.8829 10.7694 16.8829 10.6706C16.8829 10.5719 16.8569 10.4749 16.8075 10.3894L14.7375 7.3125L16.7794 4.24688C16.8351 4.16228 16.8669 4.0642 16.8715 3.96301C16.8761 3.86181 16.8533 3.76126 16.8055 3.67196C16.7577 3.58266 16.6866 3.50793 16.5998 3.45566C16.5131 3.40339 16.4138 3.37552 16.3125 3.375H10.125V11.25H16.3125C16.4143 11.2497 16.514 11.2219 16.6012 11.1694C16.6884 11.1169 16.7597 11.0417 16.8075 10.9519Z" fill="white"/>
</g>
</svg>
