<svg width="15" height="14" viewBox="0 0 15 14" fill="none" xmlns="http://www.w3.org/2000/svg">
<g id="country-flag 1">
<path id="Vector" d="M1.8125 13.125C1.92853 13.125 2.03981 13.0789 2.12186 12.9969C2.20391 12.9148 2.25 12.8035 2.25 12.6875V7H7.0625V8.3125C7.0625 8.42853 7.10859 8.53981 7.19064 8.62186C7.27269 8.70391 7.38397 8.75 7.5 8.75H7.9375V1.3125C7.9375 1.19647 7.89141 1.08519 7.80936 1.00314C7.72731 0.921094 7.61603 0.875 7.5 0.875H1.8125C1.69647 0.875 1.58519 0.921094 1.50314 1.00314C1.42109 1.08519 1.375 1.19647 1.375 1.3125V12.6875C1.375 12.8035 1.42109 12.9148 1.50314 12.9969C1.58519 13.0789 1.69647 13.125 1.8125 13.125ZM13.5725 8.51812C13.6109 8.45162 13.6311 8.37617 13.6311 8.29937C13.6311 8.22258 13.6109 8.14713 13.5725 8.08062L11.9625 5.6875L13.5506 3.30313C13.594 3.23733 13.6187 3.16105 13.6223 3.08234C13.6259 3.00363 13.6081 2.92542 13.5709 2.85597C13.5337 2.78651 13.4785 2.72839 13.411 2.68773C13.3435 2.64708 13.2663 2.62541 13.1875 2.625H8.375V8.75H13.1875C13.2666 8.74979 13.3443 8.72811 13.4121 8.68728C13.4798 8.64644 13.5353 8.58798 13.5725 8.51812Z" fill="#FC5921"/>
</g>
</svg>
