<svg width="156" height="156" viewBox="0 0 156 156" fill="none" xmlns="http://www.w3.org/2000/svg">
<g id="cup">
<path id="Vector" d="M78 148C111.689 148 139 140.837 139 132C139 123.163 111.689 116 78 116C44.3106 116 17 123.163 17 132C17 140.837 44.3106 148 78 148Z" fill="#191E3A" fill-opacity="0.1"/>
<path id="Vector_2" d="M102.375 134.062H53.625V112.125C53.625 110.784 54.7219 109.688 56.0625 109.688H99.9375C101.278 109.688 102.375 110.784 102.375 112.125V134.062Z" fill="#0CAFE8"/>
<path id="Vector_3" d="M106.031 137.719H49.9688L51.1875 134.062H104.812L106.031 137.719Z" fill="#0B90D3"/>
<path id="Vector_4" d="M87.75 129.188H68.25C65.5687 129.188 63.375 126.994 63.375 124.312V120.656C63.375 117.975 65.5687 115.781 68.25 115.781H87.75C90.4312 115.781 92.625 117.975 92.625 120.656V124.312C92.625 126.994 90.4312 129.188 87.75 129.188Z" fill="white"/>
<path id="Vector_5" d="M71.6641 83.4844H84.4609V103.594H71.6641V83.4844Z" fill="#F9A74E"/>
<path id="Vector_6" opacity="0.2" d="M80.6797 83.4844H84.3359V103.594H80.6797V83.4844Z" fill="#382673"/>
<path id="Vector_7" d="M88.9688 102.375H67.0312C63.0094 102.375 59.7188 105.666 59.7188 109.688H96.2812C96.2812 105.666 92.9906 102.375 88.9688 102.375Z" fill="#FFDE39"/>
<path id="Vector_8" d="M88.9688 102.375H82.875C86.8969 102.375 90.1875 105.666 90.1875 109.688H96.2812C96.2812 105.666 92.9906 102.375 88.9688 102.375Z" fill="#FEC632"/>
<path id="Vector_9" d="M84.2156 93.8438H71.7844C68.4938 93.8438 65.8125 91.1625 65.8125 87.8719V86.5312H90.1875V87.8719C90.1875 91.1625 87.5062 93.8438 84.2156 93.8438Z" fill="#FFDE39"/>
<path id="Vector_10" d="M85.3117 86.5312V87.8719C85.3117 91.1625 83.8492 93.8438 80.5586 93.8438H84.2148C87.5055 93.8438 90.1867 91.1625 90.1867 87.8719V86.5312H85.3117Z" fill="#FEC632"/>
<path id="Vector_11" d="M98.7188 109.688H57.2812C57.2812 108.347 58.3781 107.25 59.7188 107.25H96.2812C97.6219 107.25 98.7188 108.347 98.7188 109.688Z" fill="#F9A74E"/>
<path id="Vector_12" opacity="0.2" d="M96.2812 107.25H90.1875C91.5281 107.25 92.625 108.347 92.625 109.688H98.7188C98.7188 108.347 97.6219 107.25 96.2812 107.25Z" fill="#382673"/>
<path id="Vector_13" d="M92.625 84.0938H63.375V87.75C63.375 89.0906 64.4719 90.1875 65.8125 90.1875H90.1875C91.5281 90.1875 92.625 89.0906 92.625 87.75V84.0938Z" fill="#F9A74E"/>
<path id="Vector_14" d="M92.625 84.0938H63.375V87.75C63.375 89.0906 64.4719 90.1875 65.8125 90.1875H90.1875C91.5281 90.1875 92.625 89.0906 92.625 87.75V84.0938Z" fill="#F9A74E"/>
<path id="Vector_15" opacity="0.2" d="M86.5312 84.0938L84.0938 87.75C85.3125 87.75 85.4344 90.1875 84.0938 90.1875H90.1875C91.5281 90.1875 92.625 89.0906 92.625 87.75V84.0938H86.5312Z" fill="#382673"/>
<path id="Vector_16" d="M95.0625 45.0938H118.219V46.3125C118.219 59.1094 107.859 69.4688 95.0625 69.4688" stroke="#F9A74E" stroke-width="3.28125" stroke-miterlimit="10" stroke-linecap="round" stroke-linejoin="round"/>
<path id="Vector_17" d="M60.9375 45.0938H37.7812V46.3125C37.7812 59.1094 48.1406 69.4688 60.9375 69.4688" stroke="#FEC632" stroke-width="3.28125" stroke-miterlimit="10" stroke-linecap="round" stroke-linejoin="round"/>
<path id="Vector_18" d="M88.3594 87.75H67.6406C59.8406 87.75 53.625 81.5344 53.625 73.7344V35.3438H102.375V73.7344C102.375 81.5344 96.1594 87.75 88.3594 87.75Z" fill="#FFDE39"/>
<path id="Vector_19" opacity="0.3" d="M60.9375 39V63.375" stroke="white" stroke-width="1.64062" stroke-miterlimit="10" stroke-linecap="round" stroke-linejoin="round"/>
<path id="Vector_20" d="M96.2812 35.3438V73.7344C96.2812 81.5344 90.0656 87.75 82.2656 87.75H88.3594C96.1594 87.75 102.375 81.5344 102.375 73.7344V35.3438H96.2812Z" fill="#FEC632"/>
<path id="Vector_21" d="M106.031 35.3438H49.9688L53.625 39H102.375L106.031 35.3438Z" fill="#F9A74E"/>
<path id="Vector_22" opacity="0.2" d="M98.7188 35.3438L96.2812 39H102.375L106.031 35.3438H98.7188Z" fill="#382673"/>
<path id="Vector_23" d="M107.25 30.4688H48.75C47.4094 30.4688 46.3125 31.5656 46.3125 32.9062C46.3125 34.2469 47.4094 35.3438 48.75 35.3438H107.25C108.591 35.3438 109.688 34.2469 109.688 32.9062C109.688 31.5656 108.591 30.4688 107.25 30.4688Z" fill="#FFDE39"/>
<path id="Vector_24" d="M107.25 30.4688H99.9375C101.278 30.4688 102.375 31.5656 102.375 32.9062C102.375 34.2469 101.278 35.3438 99.9375 35.3438H107.25C108.591 35.3438 109.688 34.2469 109.688 32.9062C109.688 31.5656 108.591 30.4688 107.25 30.4688Z" fill="#FEC632"/>
<path id="Vector_25" opacity="0.3" d="M60.9375 68.7383V71.5414" stroke="white" stroke-width="1.64062" stroke-miterlimit="10" stroke-linecap="round" stroke-linejoin="round"/>
<path id="Vector_26" d="M61.3625 32.1937L62.0938 30.3656C62.3375 29.8781 63.0688 29.8781 63.1906 30.3656L63.9219 32.1937C64.5313 33.6562 65.6281 34.7531 67.0906 35.3625L68.9188 36.0938C69.4063 36.3375 69.4063 37.0687 68.9188 37.1906L67.0906 37.9219C65.6281 38.5312 64.5313 39.6281 63.9219 41.0906L63.1906 42.9188C62.9469 43.4062 62.2156 43.4062 62.0938 42.9188L61.3625 41.0906C60.7531 39.6281 59.6563 38.5312 58.1938 37.9219L56.3656 37.1906C55.8781 36.9469 55.8781 36.2156 56.3656 36.0938L58.1938 35.3625C59.6563 34.7531 60.875 33.5344 61.3625 32.1937Z" fill="white"/>
<path id="Vector_27" d="M78.0003 66.4215L83.2409 69.2246C83.9721 69.5902 84.9471 68.9809 84.8253 68.1277L83.7284 62.1559L87.994 58.0121C88.6034 57.4027 88.2378 56.3059 87.3846 56.184L81.5346 55.3309L78.8534 49.9684C78.4878 49.2371 77.3909 49.2371 77.0253 49.9684L74.344 55.3309L68.494 56.184C67.6409 56.3059 67.2753 57.4027 67.8846 58.0121L72.1503 62.1559L71.1753 68.0059C71.0534 68.859 71.9065 69.4684 72.7596 69.1027L78.0003 66.4215Z" fill="#FEC632"/>
</g>
</svg>
