<svg width="32" height="32" viewBox="0 0 32 32" fill="none" xmlns="http://www.w3.org/2000/svg">
<g id="3933037771600677167(1)">
<g id="Group">
<g id="Group_2">
<path id="Vector" d="M19.0075 11.8393H7.11593C6.71536 11.8393 6.39062 11.5145 6.39062 11.114C6.39062 10.7134 6.71536 10.3887 7.11593 10.3887H19.0075C19.408 10.3887 19.7328 10.7134 19.7328 11.114C19.7328 11.5145 19.408 11.8393 19.0075 11.8393Z" fill="#191E3A"/>
</g>
<path id="Vector_2" d="M16.0328 17.6738H7.11593C6.71537 17.6738 6.39062 17.9986 6.39062 18.3991C6.39062 18.7997 6.71537 19.1244 7.11593 19.1244H15.4179L16.0328 17.6738Z" fill="#191E3A"/>
<path id="Vector_3" d="M17.5489 14.0977H7.11593C6.71537 14.0977 6.39062 14.4224 6.39062 14.823C6.39062 15.2235 6.71537 15.5482 7.11593 15.5482H16.934L17.5489 14.0977Z" fill="#191E3A"/>
<g id="Group_3">
<path id="Vector_4" d="M26.6861 6.8588L18.8789 14.666L20.8275 16.6146L28.6347 8.8074L26.6861 6.8588Z" fill="#191E3A"/>
<path id="Vector_5" d="M20.2368 17.0109L17.0273 18.3715L18.3879 15.1621L20.2368 17.0109Z" fill="#191E3A"/>
<g id="Group_4">
<path id="Vector_6" d="M29.6081 6.99977L28.4965 5.88813C28.2655 5.65708 27.8908 5.65708 27.6598 5.88813L27.1836 6.36433L29.1319 8.31268L29.6081 7.83649C29.8392 7.60543 29.8392 7.23082 29.6081 6.99977Z" fill="#191E3A"/>
</g>
</g>
<path id="Vector_7" d="M22.1725 20.5681C22.1725 21.0415 21.7887 21.4253 21.3153 21.4253H12.7153C12.6185 21.4253 12.5228 21.4446 12.4336 21.4821L3.95057 25.05V9.34053C3.95057 8.64864 4.51145 8.08778 5.20332 8.08778H20.9197C21.6116 8.08778 22.1725 8.64864 22.1725 9.34053V9.69423L23.6231 8.24388V6.61753C23.6231 5.79754 22.9583 5.13281 22.1384 5.13281H3.98471C3.16473 5.13281 2.5 5.79754 2.5 6.61753V26.142C2.5 26.3848 2.62161 26.6118 2.824 26.7461C2.94467 26.8263 3.08457 26.8673 3.22534 26.8673C3.32051 26.8673 3.41613 26.8486 3.50646 26.8105L12.8612 22.8758H21.3153C22.5899 22.8758 23.6231 21.8426 23.6231 20.5681V15.5005L22.1725 16.9511V20.5681Z" fill="#191E3A"/>
</g>
</g>
</svg>
