<svg width="24" height="24" viewBox="0 0 24 24" fill="none" xmlns="http://www.w3.org/2000/svg">
<g id="3338366461684489913 1">
<g id="Layer_x0020_1">
<path id="Vector" fill-rule="evenodd" clip-rule="evenodd" d="M16.1744 22.235H7.82244C7.57044 22.235 7.36644 22.043 7.34244 21.803L6.40644 11.687H17.5904L16.6544 21.803C16.6304 22.043 16.4264 22.235 16.1744 22.235ZM9.89844 6.31104L9.45444 4.09104L8.13444 2.55504C7.96644 2.35104 7.99044 2.05104 8.19444 1.87104C8.39844 1.70304 8.69844 1.72704 8.86644 1.93104L10.2584 3.56304C10.3064 3.62304 10.3424 3.70704 10.3664 3.77904L10.8224 6.04704C11.1584 5.79504 11.3504 5.38704 11.4104 4.81104C11.4224 4.63104 11.5424 4.47504 11.6984 4.40304C11.8664 4.34304 12.0584 4.36704 12.1904 4.48704C12.7424 4.94304 13.5344 5.15904 14.3744 5.37504C15.8024 5.75904 17.4104 6.19104 17.7104 8.07504H6.28644C6.32244 7.94304 6.35844 7.81104 6.41844 7.69104C7.12644 6.20304 8.44644 6.25104 9.40644 6.29904C9.58644 6.29904 9.74244 6.31104 9.89844 6.31104ZM18.1184 11.207H5.87844C5.60244 11.207 5.39844 11.003 5.39844 10.727V9.03504C5.39844 8.77104 5.60244 8.55504 5.87844 8.55504H18.1184C18.3944 8.55504 18.5984 8.77104 18.5984 9.03504V10.727C18.5984 11.003 18.3944 11.207 18.1184 11.207ZM13.9304 13.667C14.0624 13.667 14.1704 13.571 14.1704 13.427C14.1704 13.295 14.0624 13.187 13.9304 13.187H10.0664C9.92244 13.187 9.82644 13.295 9.82644 13.427C9.82644 13.571 9.92244 13.667 10.0664 13.667H13.9304ZM14.7344 15.431C14.8664 15.431 14.9744 15.323 14.9744 15.191C14.9744 15.047 14.8664 14.951 14.7344 14.951H9.26244C9.13044 14.951 9.02244 15.047 9.02244 15.191C9.02244 15.323 9.13044 15.431 9.26244 15.431H14.7344ZM14.2424 20.735C14.3624 20.735 14.4584 20.651 14.4824 20.531L14.9864 16.967C14.9984 16.907 14.9744 16.835 14.9264 16.775C14.8784 16.727 14.8184 16.703 14.7464 16.703H9.25044C9.17844 16.703 9.11844 16.727 9.07044 16.775C9.02244 16.835 8.99844 16.907 9.01044 16.967L9.51444 20.531C9.52644 20.651 9.63444 20.735 9.75444 20.735H14.2424ZM9.95844 20.255L9.52644 17.183H14.4704L14.0384 20.255H9.95844Z" fill="#3656BB"/>
</g>
</g>
</svg>
