<svg width="22" height="22" viewBox="0 0 22 22" fill="none" xmlns="http://www.w3.org/2000/svg">
<g id="16603648511687147922 1">
<g id="Group 1000003390">
<path id="Vector" d="M4.57141 16.0977L5.5 17.0262L5.26703 17.2592C5.01109 17.5152 4.59437 17.5152 4.33844 17.2592C4.0825 17.0033 4.0825 16.5866 4.33844 16.3306L4.57141 16.0977Z" fill="#191E3A"/>
<path id="Vector_2" d="M4.10777 12.8532L3.17969 13.7812L7.82008 18.4216L8.74815 17.4936L4.10777 12.8532Z" fill="#191E3A"/>
<path id="Vector_3" d="M8.51437 14.4745L10.1386 16.0987L9.21 17.0273L4.57031 12.3876L5.49891 11.459C6.24703 12.2071 7.76953 13.7296 8.51437 14.4745Z" fill="#191E3A"/>
<path id="Vector_4" d="M13.3888 7.28114L7.82031 12.8496L8.74839 13.7777L14.3169 8.20922L13.3888 7.28114Z" fill="#191E3A"/>
<path id="Vector_5" d="M17.5644 8.67289L16.6358 9.60148C15.2577 8.22336 13.3709 6.33664 11.9961 4.9618L12.9247 4.0332L17.5644 8.67289Z" fill="#191E3A"/>
<path id="Vector_6" d="M17.5653 4.96137L16.6367 4.03277L16.8697 3.7998C17.1158 3.55371 17.5489 3.55371 17.7983 3.7998C18.0477 4.0459 18.0509 4.4823 17.7983 4.7284L17.5653 4.96137Z" fill="#191E3A"/>
<path id="Vector_7" d="M14.3148 2.64223L13.3867 3.57031L18.0271 8.2107L18.9552 7.28262L14.3148 2.64223Z" fill="#191E3A"/>
</g>
</g>
</svg>
