<svg width="18" height="18" viewBox="0 0 18 18" fill="none" xmlns="http://www.w3.org/2000/svg">
<g id="edit(2) 1" clip-path="url(#clip0_2_32360)">
<path id="Vector" d="M2.99989 17.4708H13.5881C14.2444 17.4689 14.8731 17.2068 15.3363 16.7419C15.7995 16.277 16.0593 15.6473 16.0587 14.9911V9.67082C16.0587 9.48361 15.9843 9.30406 15.852 9.17168C15.7196 9.0393 15.54 8.96494 15.3528 8.96494C15.1656 8.96494 14.9861 9.0393 14.8537 9.17168C14.7213 9.30406 14.6469 9.48361 14.6469 9.67082V14.9911C14.6479 15.273 14.5369 15.5438 14.3384 15.744C14.1399 15.9443 13.8701 16.0576 13.5881 16.0591H2.99989C2.71794 16.0576 2.4481 15.9443 2.24959 15.744C2.05108 15.5438 1.94012 15.273 1.94106 14.9911V4.42117C1.94012 4.13922 2.05108 3.86841 2.24959 3.66819C2.4481 3.46796 2.71794 3.35467 2.99989 3.35317H8.294C8.48122 3.35317 8.66076 3.2788 8.79314 3.14642C8.92552 3.01404 8.99989 2.8345 8.99989 2.64729C8.99989 2.46008 8.92552 2.28053 8.79314 2.14815C8.66076 2.01578 8.48122 1.94141 8.294 1.94141H2.99989C2.34363 1.94328 1.71492 2.20543 1.25174 2.67033C0.788554 3.13524 0.528734 3.76491 0.529298 4.42117V14.9911C0.528734 15.6473 0.788554 16.277 1.25174 16.7419C1.71492 17.2068 2.34363 17.4689 2.99989 17.4708Z" fill="white"/>
<path id="Vector_2" d="M7.20398 7.97334L6.64704 10.5244C6.62183 10.6401 6.62614 10.7603 6.65957 10.8739C6.69299 10.9875 6.75447 11.0909 6.83833 11.1745C6.92335 11.256 7.02676 11.3158 7.13981 11.3489C7.25286 11.382 7.37221 11.3873 7.48774 11.3644L10.0332 10.806C10.1653 10.777 10.2864 10.7106 10.3819 10.6147L16.8153 4.18134C17.012 3.98469 17.168 3.75123 17.2744 3.49428C17.3809 3.23733 17.4356 2.96193 17.4356 2.68381C17.4356 2.40568 17.3809 2.13028 17.2744 1.87334C17.168 1.61639 17.012 1.38292 16.8153 1.18628C16.4121 0.800962 15.8758 0.585938 15.3181 0.585938C14.7604 0.585938 14.2241 0.800962 13.8209 1.18628L7.39739 7.62604C7.30098 7.72089 7.23385 7.84143 7.20398 7.97334ZM14.819 2.1851C14.9533 2.05645 15.1321 1.98463 15.3181 1.98463C15.5041 1.98463 15.6829 2.05645 15.8172 2.1851C15.9477 2.31825 16.0209 2.49731 16.0209 2.68381C16.0209 2.87031 15.9477 3.04936 15.8172 3.18251L15.3181 3.68157L14.32 2.68345L14.819 2.1851ZM8.53668 8.47734L13.3183 3.68369L14.3066 4.67687L9.5228 9.47192L8.25574 9.75004L8.53668 8.47734Z" fill="white"/>
</g>
<defs>
<clipPath id="clip0_2_32360">
<rect width="16.9412" height="16.9412" fill="white" transform="translate(0.529297 0.53125)"/>
</clipPath>
</defs>
</svg>
