<svg width="75" height="160" viewBox="0 0 75 160" fill="none" xmlns="http://www.w3.org/2000/svg">
<path fill-rule="evenodd" clip-rule="evenodd" d="M50.4228 15.9601C50.3942 16.4752 50.2797 16.9903 50.337 17.5054C50.4228 18.0777 50.5087 18.5928 49.965 18.9934C49.9363 19.0221 49.8791 19.0793 49.8791 19.0793C50.4515 20.1954 49.6502 21.0539 49.4212 22.0268C49.1637 23.1143 48.6772 24.03 48.1907 24.9744C47.6756 26.0618 46.5596 25.976 45.6724 26.2907C45.5866 26.3194 45.3863 26.1763 45.3863 26.1191C45.4149 25.9474 45.4721 25.7756 45.5866 25.6612C46.0731 25.2033 46.6168 24.7741 47.1319 24.3162C47.2177 24.2303 47.2177 24.0873 47.2464 23.9728C47.1319 23.9728 46.9888 23.8869 46.903 23.9442C46.674 24.0586 46.4737 24.2017 46.302 24.3734C45.6438 24.8885 45.1859 25.6612 44.2702 25.9187C43.984 25.976 43.8409 26.4911 43.612 26.8059C43.4117 27.1206 43.2114 27.4354 42.9538 27.7502C42.868 27.8647 42.5818 28.0078 42.5246 27.9792C41.9236 27.4068 41.2654 27.9505 40.6358 27.9219C40.0063 27.8933 39.3767 28.065 38.7471 28.0078C37.5166 27.8933 36.2861 27.7216 35.0555 27.5213C34.7121 27.464 34.3974 27.2637 34.1684 27.7216C34.1112 27.8361 33.8823 27.9791 33.7678 27.9505C32.6803 27.7216 31.5643 27.8074 30.5913 27.1206C29.5611 26.4052 28.4737 25.7184 27.5865 24.8599C27.1001 24.402 26.2702 23.8869 26.356 22.9426C26.3846 22.5706 26.1557 22.4847 25.7837 22.3989C25.2972 22.2558 24.8107 21.941 25.0969 21.1397C24.8107 19.7947 24.4387 18.3925 23.7805 17.0475C23.3512 16.1604 22.5786 13.499 22.6358 12.6691C22.6931 12.2399 22.8075 11.782 22.9792 11.3814C23.2654 10.6945 23.2654 9.9505 23.9808 9.34955C24.639 8.80583 24.8393 7.71838 25.2113 6.85988C25.7264 5.68658 26.3846 4.59914 27.1573 3.59755C27.2718 3.45447 27.4435 3.25415 27.5293 3.28276C28.3306 3.59755 28.4164 2.79628 28.8457 2.48149C29.7042 1.90916 30.7344 1.53713 31.7074 1.1365C31.8219 1.10788 32.0794 1.4799 32.2797 1.6516C32.3942 1.76607 32.4991 1.88054 32.5945 1.995C32.6231 1.85192 32.7376 1.6516 32.6803 1.56575C32.4514 1.25096 32.3656 0.936179 32.709 0.65001C33.1382 0.335224 33.5675 0.0204401 34.1398 0.249375C34.3688 0.363843 34.5977 0.535543 34.8266 0.592777C35.0842 0.621394 35.542 0.678629 35.6279 0.535544C36.0571 -0.0654106 36.5436 0.077673 37.1446 0.163524C37.7169 0.220758 38.3465 0.134909 38.9475 0.0490579C39.806 -0.0654097 40.6072 0.0204392 41.4657 0.306608C42.3529 0.621394 43.24 0.93618 43.9268 1.59437C43.984 1.6516 44.0699 1.73745 44.1557 1.73745C46.4451 1.73745 46.7313 3.88372 47.8759 5.14286C47.9904 5.28595 47.8473 5.60073 47.8187 5.85828C47.6756 5.77243 47.5039 5.65797 47.3322 5.60073C47.2464 5.5435 47.1033 5.57212 47.0174 5.57212C47.0174 5.65797 46.9888 5.74382 47.0174 5.80105C47.3894 6.31616 47.4467 7.03158 48.1907 7.34637C48.9061 7.66115 49.4212 8.26211 49.6216 9.12061C49.736 9.6071 50.0508 10.0364 50.2511 10.4942C50.4228 10.809 50.5659 11.1238 50.6804 11.4386C50.9379 12.1826 50.0508 12.8408 50.6231 13.7279C50.9093 14.243 50.5087 15.1874 50.4228 15.9601ZM24.8965 10.8949C24.8965 10.809 24.8107 10.6945 24.7249 10.4942C24.4959 10.7518 24.2097 10.9807 24.2384 11.1238C24.4387 11.9537 24.267 12.6119 23.7519 13.2701C23.6946 13.3273 23.9236 13.6421 24.038 13.8424C24.1525 13.7565 24.3242 13.6707 24.3814 13.5562C24.7821 12.7263 24.6676 11.782 24.8965 10.8949ZM25.0969 11.9537C25.0969 11.9346 25.0969 11.9155 25.0969 11.8965C25.0778 11.8965 25.0683 11.8965 25.0683 11.8965C25.0683 11.9155 25.0778 11.9346 25.0969 11.9537ZM25.6406 11.782C25.5547 11.782 25.4689 11.7247 25.383 11.7534C25.2972 11.7534 25.2113 11.8106 25.1255 11.8678C25.24 11.8964 25.3544 11.9251 25.4689 11.9251C25.5261 11.8965 25.5834 11.8392 25.6406 11.782ZM30.019 4.94254C29.647 4.94254 29.5325 4.94255 29.418 4.97116C29.3322 4.99978 29.2749 5.08563 29.1891 5.14286C29.2749 5.14286 29.3608 5.17148 29.4466 5.17148C29.5611 5.14286 29.647 5.08563 30.019 4.94254ZM38.3179 22.9998C38.1271 22.6182 37.9363 22.2272 37.7455 21.8265C37.6311 21.8838 37.4308 21.941 37.4308 21.9982C37.4308 22.3988 37.488 22.8281 37.5452 23.2287C37.5452 23.2574 37.5738 23.3146 37.6025 23.3146C37.7455 23.3718 37.9172 23.4863 38.0603 23.4291C38.1748 23.4004 38.2034 23.2001 38.3179 22.9998ZM39.0619 2.30979C39.0905 2.25256 39.0047 2.13809 38.9475 2.08085C38.8902 2.19532 38.7758 2.30979 38.7471 2.42426C38.7185 2.51011 38.8044 2.62458 38.8616 2.8249C38.9475 2.59596 39.0333 2.45288 39.0619 2.30979ZM44.2416 2.96798C44.0985 2.85351 43.9554 2.79628 43.8409 2.71043C43.7646 2.84397 43.6979 2.97752 43.6406 3.11106C43.7551 3.1683 43.8982 3.25415 44.0413 3.28276C44.0699 3.31138 44.1557 3.11106 44.2416 2.96798ZM47.1033 7.14604C47.1033 7.08881 47.0174 7.03158 46.9602 6.94573C46.903 7.03158 46.8171 7.08881 46.8171 7.14604C46.8171 7.20328 46.9316 7.28913 46.9602 7.34637C47.0174 7.28913 47.1033 7.20328 47.1033 7.14604ZM47.5898 22.5133C47.5898 22.4561 47.5325 22.3702 47.5039 22.2844C47.4467 22.4275 47.3894 22.5706 47.3608 22.7136C47.3608 22.7423 47.4467 22.8281 47.5325 22.914C47.5611 22.7709 47.5898 22.6278 47.5898 22.5133ZM48.3052 8.69136L48.248 8.71997L48.3052 8.74859V8.69136Z" fill="#848484"/>
<path fill-rule="evenodd" clip-rule="evenodd" d="M74.8332 80.7782C74.547 81.2075 74.2036 81.6081 73.8888 82.0373C73.7171 82.2949 73.5168 82.5524 73.3737 82.8672C72.9731 83.9547 72.3149 84.899 71.7712 85.9006C70.9986 87.3315 69.8825 87.589 68.4803 87.6176C67.7935 87.6462 67.1639 88.1327 66.3626 87.961C65.8475 87.8466 65.5327 87.7321 65.6472 87.1598C65.7903 86.5016 65.5041 86.1868 64.9318 85.8434C64.0732 85.3569 63.8443 84.3267 63.7012 83.4396C63.4723 81.9515 63.1289 80.5493 62.1559 79.376C62.0701 79.2901 62.0128 79.0898 62.0701 79.0326C62.7855 78.1168 62.0128 77.3156 61.7267 76.6001C61.3833 75.7702 61.1257 74.9403 60.9254 74.0532C60.6678 73.1375 60.353 72.1359 59.8093 71.3632C59.4087 70.7623 60.0669 70.2186 59.6376 69.8179C59.237 69.4173 58.9795 69.0739 59.0367 68.4729C59.0367 68.1009 58.8077 67.6717 58.5788 67.2996C58.2926 66.899 58.1782 66.5842 58.3213 66.0405C58.4357 65.5254 58.1782 64.8386 57.8634 64.3521C57.5772 63.8656 57.5486 63.1502 56.8618 62.9212C56.7187 62.864 56.5184 62.6065 56.5756 62.5492C57.148 61.3187 55.6313 60.6891 55.7171 59.5731C55.7457 59.2583 55.2592 58.8863 55.4882 58.3998C55.5168 58.3139 55.4882 58.1422 55.4309 58.0278C54.8014 56.9117 54.1432 55.7956 53.5136 54.6796C53.3419 54.3934 53.1416 54.0786 53.1416 53.7638C53.0844 52.4475 52.7123 51.2456 52.0828 50.1009C51.9969 49.9292 51.9969 49.6716 52.0542 49.4999C52.2259 48.8704 51.7966 48.7273 51.3673 48.6414C51.2529 48.6128 51.0526 48.6987 51.0526 48.7559C50.9953 49.2996 50.8809 49.8433 50.9667 50.3584C51.4818 53.1629 52.0255 55.9387 52.5693 58.7146C52.6265 59.1438 52.741 59.5731 52.9127 59.9737C53.3419 60.775 53.3705 61.6049 53.1988 62.4634C53.0844 63.0357 52.9985 63.5508 53.5136 64.0087C53.6853 64.1232 53.7998 64.3807 53.7998 64.581C53.7425 65.7257 54.4866 66.7273 54.1718 67.9864C54.0001 68.7305 54.5438 69.6176 54.7728 70.4475C55.1734 71.9737 55.5931 73.5 56.0319 75.0262C56.0891 75.2838 56.2608 75.4841 56.3467 75.713C56.6042 76.4857 57.2624 77.1152 57.0049 78.031C56.9763 78.1741 57.0907 78.3458 57.148 78.5175C57.7775 79.9769 58.1209 81.5222 58.636 83.0103C59.1511 84.527 59.3515 86.2154 60.4389 87.5318C60.7251 87.8466 60.7537 88.3903 60.8968 88.8195C60.954 89.0199 60.9826 89.2488 61.0685 89.4491C61.5263 90.7083 61.9556 91.996 62.4135 93.2552C62.8141 94.2854 63.1575 95.2583 63.1861 96.3458C63.1861 96.4602 63.2434 96.6033 63.3292 96.6892C64.3308 97.8339 64.4166 99.2361 64.5311 100.638C64.5597 100.953 64.7314 101.297 64.9318 101.583C65.7617 102.87 66.4198 104.244 66.5057 105.847C66.5343 106.591 67.0208 107.306 66.7632 108.079C66.6202 108.594 66.4771 109.138 65.7903 109.309C65.1321 109.481 65.0462 108.708 64.7028 108.68C64.3022 108.651 63.7585 109.338 63.5009 109.223C62.4707 108.737 61.5263 108.994 60.4961 109.08C59.3228 109.195 58.0923 109.023 56.8904 108.966C56.6329 108.966 56.3181 108.937 56.0605 109.052C55.574 109.223 55.1448 109.195 54.7155 108.88C54.2576 108.537 53.857 108.651 53.3133 108.766C52.4262 108.937 51.5677 109.595 50.5661 109.109C50.4516 109.052 49.8793 109.51 49.9079 109.681C50.0224 110.483 49.5072 111.198 49.6217 111.971C49.7934 113.115 49.9556 114.269 50.1082 115.433C50.1368 115.634 50.2513 115.863 50.1941 116.063C49.8507 117.236 50.0224 118.352 50.4802 119.468C49.9365 121.157 51.3101 122.845 50.3657 124.533C50.2513 124.762 50.3658 125.335 50.5947 125.564C51.024 126.107 50.9381 126.68 50.9667 127.252C51.0239 127.939 50.7378 128.597 50.9667 129.341C51.1384 129.942 50.7664 130.686 50.7378 131.373C50.6805 132.117 50.7378 132.861 50.7378 133.576C50.7378 133.634 50.7378 133.681 50.7378 133.719C50.7378 134.292 50.5375 134.721 49.9937 134.95C50.1654 135.351 50.5088 135.808 50.4516 136.152C50.3658 136.696 50.0223 136.095 49.7934 136.123H49.7362L49.822 136.152C49.5645 137.468 49.6789 137.812 50.795 138.298C51.3101 138.498 51.3387 138.756 51.1956 139.157C50.8809 140.044 50.8236 140.902 51.1384 141.789C51.1956 142.018 51.0812 142.305 51.0526 142.562C51.0239 142.905 50.9381 143.249 50.9953 143.592C51.167 144.823 51.4532 146.053 51.167 147.341C51.1384 147.484 51.2243 147.684 51.3101 147.828C51.6821 148.285 51.5104 148.772 51.2529 149.144C50.6233 150.088 50.8236 151.119 50.8522 152.12C50.9095 153.179 50.8809 154.266 50.795 155.297C50.7378 155.869 50.6233 156.413 49.8793 156.699C49.4214 156.871 49.2211 157.672 48.8204 158.072C48.2481 158.645 47.5899 159.103 46.9603 159.589C46.7028 159.789 46.3308 159.103 46.1018 159.675C45.3006 159.532 44.6424 160.161 43.8125 159.961C43.3546 159.847 42.9254 159.875 42.582 159.417C42.3816 159.131 41.8951 159.074 41.5517 158.902C41.4373 158.816 41.2083 158.731 41.2083 158.616C41.1797 157.586 40.4071 156.785 40.2354 155.783C40.0923 154.896 39.9206 154.009 39.5486 153.208C38.9762 152.034 38.9476 150.804 39.1479 149.573C39.2338 148.858 39.3482 148.2 38.4897 147.856C38.4039 147.828 38.3753 147.255 38.4325 147.227C39.1479 146.969 38.6614 146.568 38.547 146.282C38.318 145.767 38.0605 145.281 38.3466 144.68C38.4325 144.565 38.4897 144.336 38.4039 144.193C38.0319 143.535 38.2894 142.848 38.4325 142.19C38.547 141.761 38.6901 141.332 38.2036 141.045C38.1177 140.96 38.0033 140.788 38.0319 140.702C38.2894 139.557 37.8029 138.384 38.1463 137.211C38.2894 136.667 38.2608 136.037 38.2894 135.465C38.3467 134.406 38.5184 133.347 38.4325 132.289C38.3467 131.144 38.6328 129.999 38.2322 128.769C37.8888 127.71 37.7743 126.394 38.318 125.249C38.3753 125.106 38.5756 124.848 38.547 124.82C37.6885 124.076 38.4039 123.103 38.175 122.273C37.9746 121.529 37.9746 120.756 38.2608 119.983C38.3753 119.669 38.2894 119.239 38.2894 118.867C38.2608 118.696 38.2322 118.524 38.2322 118.352C38.2894 117.064 38.5756 115.777 38.3753 114.518C38.2322 113.516 38.4325 112.686 38.6328 111.77C38.7759 110.998 38.5184 110.139 38.4325 109.338C38.4039 109.223 38.2894 109.052 38.2322 109.052C37.4309 108.966 36.7727 108.25 35.8856 108.594C35.485 108.737 34.8554 108.537 34.6265 108.766C34.4261 108.994 34.6265 109.595 34.5692 110.025C34.3117 111.312 34.0541 112.572 34.3403 113.888C34.6837 115.548 34.4834 117.179 34.2831 118.839C34.2258 119.354 34.2831 119.897 34.2831 120.413C34.3117 121.7 34.4261 122.988 34.3117 124.276C34.1686 126.25 34.14 128.196 34.2831 130.171C34.3117 130.514 34.3117 130.858 34.2831 131.201C34.1972 131.774 34.2831 132.289 34.5406 132.832C34.7982 133.319 34.9412 134.12 34.7123 134.521C34.4261 135.036 34.4548 135.408 34.6837 135.78C35.1702 136.581 35.1702 137.411 35.0557 138.27C34.9126 139.328 34.9126 140.387 35.3991 141.417C35.7139 142.104 35.7139 142.905 35.485 143.707C35.2274 144.68 35.0557 145.71 35.2274 146.769C35.3991 147.656 35.3705 148.572 35.3419 149.487C35.3419 150.031 35.3991 150.632 34.6551 150.89C34.2831 151.004 34.3403 151.405 34.5692 151.634C35.1702 152.206 34.9699 152.75 34.6837 153.379C34.2258 154.438 33.8824 155.554 33.5676 156.67C33.167 158.044 32.5374 159.017 30.5915 159.16C30.477 159.16 30.3053 159.16 30.2195 159.217C29.3896 159.847 28.5597 159.618 27.6153 159.503C26.7282 159.389 26.0986 159.017 25.4118 158.588C25.0398 158.359 24.5819 158.158 24.2958 157.815C23.7807 157.185 23.3514 156.47 23.6948 155.611C23.8951 155.039 23.8951 154.638 23.2369 154.352C22.636 154.095 22.8363 153.494 23.0938 153.122C23.5803 152.349 23.4659 151.662 23.1225 150.918C23.008 150.632 22.8649 150.289 22.9508 150.031C23.2942 149.144 22.8077 148.371 22.7791 147.513C22.6932 146.082 22.3784 144.594 22.9221 143.163C23.1797 142.448 22.7218 141.789 22.7791 141.074C22.8077 140.902 22.6646 140.731 22.6646 140.559C22.636 139.615 22.2926 138.727 22.6932 137.697C22.9794 136.867 22.636 135.78 22.6074 134.807C22.5787 134.521 22.5215 134.177 22.636 133.92C22.8649 133.462 22.8649 133.09 22.636 132.603C22.4929 132.346 22.5787 131.888 22.7218 131.602C22.9508 131.144 22.7791 130.686 22.8363 130.285C23.1225 128.797 22.1781 127.309 22.8649 125.821C22.9794 125.564 22.8077 125.134 22.8077 124.791C22.8077 124.476 22.7791 124.076 22.9221 123.789C23.1797 123.303 23.38 122.874 22.8935 122.416C22.8077 122.33 22.8077 122.072 22.8363 121.929C23.0652 120.413 22.8363 118.953 22.6646 117.494C22.5215 116.12 22.7504 114.746 22.7791 113.344C22.8077 113.173 22.8935 113.001 22.8363 112.858C22.3784 111.713 22.4929 110.511 22.3212 109.366C22.264 109.138 21.9492 108.937 21.7202 108.766C21.663 108.708 21.4913 108.766 21.3768 108.794C21.3768 108.937 21.3768 109.109 21.4341 109.223C21.5199 109.424 21.663 109.595 21.7775 109.767C21.4341 109.91 21.0048 110.282 20.7759 110.168C19.202 109.481 17.5994 110.311 16.0541 110.082C15.8252 110.053 15.539 110.225 15.31 110.311C14.7091 110.568 14.2512 110.54 13.9364 109.853C13.6789 109.223 13.2782 109.109 12.7345 109.653C12.5914 109.824 12.1908 109.767 11.9046 109.824C11.7616 109.567 11.6471 109.195 11.4468 109.08C11.2178 108.994 10.8458 109.052 10.6169 109.195C10.5024 109.252 10.531 109.71 10.6455 109.882C10.7313 110.053 11.0461 110.111 11.2751 110.111C11.4754 110.111 11.6757 109.939 11.8474 109.853C11.8474 110.006 11.8379 110.158 11.8188 110.311C11.7043 110.311 11.5612 110.282 11.4468 110.282C10.531 110.254 9.61529 110.053 8.69954 110.025C7.24008 109.967 6.4388 108.451 7.01114 107.134C7.20192 106.696 7.37364 106.257 7.52626 105.818C7.81243 105.045 8.04136 104.244 9.04295 104.044C9.24327 104.015 9.52943 103.414 9.44358 103.128C9.35773 102.641 8.9571 102.813 8.6137 103.014C8.49923 103.099 8.35614 103.128 8.21305 103.157C8.18444 103.014 8.06997 102.813 8.12721 102.699C8.21306 102.355 8.29891 101.983 8.49922 101.726C9.04294 101.068 9.12879 100.266 9.30049 99.465C9.6439 97.7766 10.0445 96.1169 10.4452 94.4571C10.6455 93.6558 10.8744 92.8545 11.1892 92.0532C11.4754 91.252 11.8188 90.4698 12.2194 89.7067C12.4197 89.3633 12.3911 88.9054 12.5056 88.7051C13.0207 87.7607 12.2194 86.3585 13.593 85.7862C13.6789 85.7289 13.7933 85.4427 13.7361 85.3283C13.1065 83.783 14.0223 82.5811 14.6232 81.3219C14.7377 81.093 14.9094 80.8927 14.9953 80.6351C15.0811 80.4634 15.2528 80.1486 15.167 80.0342C14.5946 79.3474 15.2242 78.775 15.31 78.1454C15.3959 77.5445 15.5104 76.9721 15.4531 76.2853C15.3959 75.5699 15.911 74.7686 16.1972 74.0246C16.5692 73.1089 17.2274 72.1931 17.256 71.2774C17.3132 70.1327 18.2576 69.3028 18.0286 68.1009C17.9428 67.7289 18.4007 67.2424 18.6296 66.8418C19.0875 65.9833 19.2878 65.1248 19.345 64.1232C19.4023 63.236 19.8887 62.3775 20.1749 61.4904C20.69 60.0309 21.5199 58.6001 21.663 57.112C21.7775 55.7384 22.8363 54.8799 22.9794 53.5635C23.1511 51.9324 23.8093 50.3584 23.6948 48.67C23.6948 48.5842 23.7234 48.4697 23.7234 48.4125C23.6376 47.8688 23.5231 47.2678 22.9221 47.2106C22.3498 47.182 22.0064 47.5826 21.7775 48.1263C21.1479 49.4427 20.9476 50.9022 20.4897 52.2758C20.3752 52.6478 20.0891 52.9912 19.9174 53.3632C19.8029 53.6208 19.7171 53.9069 19.7171 54.1645C19.7743 54.9371 19.5454 55.5953 19.2878 56.3108C18.7155 57.8847 18.229 59.4872 17.857 61.1184C17.628 62.2058 17.3418 63.1788 16.7409 64.1232C16.2544 64.9244 15.7107 65.7257 16.1972 66.7559C16.3403 67.0421 16.3116 67.4713 16.2258 67.7861C15.8252 69.1311 15.3959 70.4761 14.938 71.7925C14.8522 71.9928 14.6519 72.1073 14.5088 72.279C14.3657 72.4793 14.0795 72.6796 14.0795 72.9086C14.0509 74.3966 12.9348 75.6272 12.849 77.0294C12.7059 79.3474 11.3037 81.2647 11.1034 83.554C11.0748 83.8116 10.8744 84.0691 10.7027 84.3267C10.5024 84.6987 10.1876 85.0135 10.0732 85.3855C9.87284 85.9578 9.55806 86.3299 8.9571 86.244C8.41338 86.1868 8.15582 86.4157 7.92689 86.845C7.49763 87.7607 6.46742 87.6749 5.72338 88.0183C5.63753 88.0469 5.52307 88.0183 5.46584 87.961C4.60733 87.1311 3.23372 87.0453 2.60415 85.9006C2.5183 85.7575 2.40383 85.6144 2.26074 85.5286C1.40224 85.0707 1.17331 84.4698 1.65979 83.6113C1.71703 83.4682 1.5167 83.1534 1.40224 82.9531C1.23053 82.6383 1.03022 82.3521 0.829897 82.066C0.686813 82.066 0.429261 82.0946 0.400644 82.0087C0.228942 81.6367 0 81.2074 0 80.8068C0 80.4634 0.314786 80.12 0.429254 79.7766C0.629572 79.2043 0.944361 79.3187 1.345 79.4618C1.37361 79.4618 1.65978 79.0612 1.63117 78.9181C1.54532 78.7178 1.28776 78.5461 1.05883 78.4602C0.600958 78.2599 0.3148 78.0596 0.658203 77.4873C0.801287 77.2869 0.82989 77.0008 0.858507 76.7718C0.944358 75.8847 0.915741 75.8847 1.71701 75.9133C2.06042 75.9419 2.66138 75.3696 2.77584 74.8831C2.80446 74.7114 2.71861 74.5397 2.69 74.368C2.60415 74.4825 2.48967 74.5969 2.43244 74.74C2.23212 75.0262 2.03181 75.3696 1.60256 75.1407C1.40224 75.0262 1.05884 74.7686 1.08746 74.6828C1.17331 74.3108 1.37361 73.996 1.57393 73.6812C1.63116 73.624 1.8315 73.6526 1.94596 73.624C2.94755 73.3378 3.06201 72.9658 2.34659 72.1073C2.34659 72.1073 2.34659 72.0977 2.34659 72.0787C2.34659 72.0787 2.3466 72.1073 2.37522 72.1073C2.40383 71.0484 1.77426 70.0469 2.1749 68.988C2.28936 68.616 2.34659 68.1581 2.97616 68.2154C3.7202 68.2726 3.74882 68.7305 3.69159 69.3028C3.66297 69.4173 3.77745 69.5604 3.80606 69.6748C3.89191 69.6176 3.97776 69.5318 4.03499 69.4459C4.09223 69.3314 4.09222 69.1883 4.14945 69.0739C4.69317 67.9578 4.63595 67.7575 3.37681 67.6144C2.80447 67.5286 2.83308 67.3855 3.0334 67.0135C3.80606 65.7257 3.74882 64.209 4.34977 62.8926C4.60732 62.2631 4.97934 61.6907 5.29413 61.0898C5.43721 60.8322 5.66615 60.4602 5.5803 60.2885C5.20828 59.5445 5.60892 59.058 5.89509 58.4856C6.18126 57.9419 6.55328 57.4268 6.26711 56.7686C6.20987 56.5397 6.2385 56.139 6.38158 56.0246C7.06839 55.5667 6.83944 54.794 7.15423 54.1931C7.55486 53.4491 7.89827 52.6764 8.35614 51.961C8.58507 51.589 9.01434 51.6462 9.38636 51.8465C9.67253 51.9896 10.0159 52.333 10.2162 51.7607C10.3593 51.2742 10.0445 51.2169 9.6439 51.1311C8.78539 51.0166 8.69954 50.8163 8.78539 49.9864C8.84263 49.4999 8.7854 48.9848 8.89987 48.4983C8.98572 48.2408 9.32911 48.0405 9.58666 47.8401C9.67251 47.7543 9.6439 47.7543 9.78698 47.2392C9.93007 46.7813 10.2449 46.3521 10.5024 45.8942C10.5883 45.7511 10.8172 45.6653 10.8172 45.5222C10.8172 43.8624 12.4484 42.9467 12.7631 41.43C12.849 41.0293 13.3355 40.7432 13.6217 40.3998C14.442 39.4077 15.2528 38.4157 16.0541 37.4236C16.3975 37.023 16.5978 36.5365 16.9984 36.2217C18.2862 35.2201 19.5453 34.1327 21.0907 33.4745C21.3768 33.36 21.9206 33.8751 21.8633 33.3314C21.7775 32.6446 22.1495 32.988 22.3498 32.9307C22.6932 32.8449 23.008 32.7304 23.3514 32.616C25.3546 32.0436 27.3578 31.4427 29.361 30.8989C29.7044 30.8131 30.1336 30.9276 30.5056 30.8989C31.078 30.8131 31.6789 30.5555 32.2226 30.6128C32.8236 30.6986 33.3387 30.7272 33.9683 30.5555C35.0557 30.2408 36.1718 29.8687 37.3737 30.298C37.7457 30.4125 38.318 29.9832 38.7473 30.0404C39.1765 30.0977 39.5486 30.5842 39.9492 30.67C40.4071 30.7272 40.8936 30.4983 41.3514 30.4125C42.7537 30.1549 44.1273 30.3552 45.5295 30.6414C46.7028 30.8417 47.9333 30.7272 49.1066 30.8417C49.9365 30.9276 50.8236 30.8417 51.5677 31.3854C51.768 31.5285 52.0828 31.4713 52.3117 31.5285C54.086 32.015 55.9747 32.3584 57.0335 34.104C57.0907 34.1899 57.1193 34.2757 57.2052 34.3044C57.7775 34.6478 58.6074 34.7908 58.9222 35.3059C59.2084 35.7924 59.2084 36.5079 59.6376 37.023C59.8379 37.2233 59.9524 37.6239 60.1814 37.7098C60.8968 38.0532 60.8395 38.1676 60.1241 38.3966C59.7521 38.511 59.6376 38.74 60.1814 38.9117C60.9826 39.1978 61.326 39.9991 61.4977 40.6859C61.7839 41.8878 62.5852 42.7177 63.2147 43.7193C63.272 43.8338 63.1861 44.0627 63.1861 44.2344C63.2052 44.2917 63.2243 44.3393 63.2434 44.3775C63.6726 45.1788 64.1305 45.98 64.5311 46.7813C64.7028 47.1247 64.8745 47.6112 64.7314 47.8974C64.4166 48.6414 64.7601 49.0421 65.1893 49.4999C65.2466 49.5572 65.361 49.643 65.361 49.7002C65.2179 50.7018 65.9047 51.36 66.2481 52.1613C66.6201 53.0198 66.9636 53.9069 66.9349 54.9658C66.9063 55.7384 67.5073 56.4538 67.4787 57.3696C67.4787 57.7988 68.1082 58.2281 68.3658 58.7146C68.5089 58.9149 68.5661 59.3728 68.4516 59.4872C67.7648 60.0882 68.1369 60.5174 68.6233 60.9467C68.8523 61.1756 69.1385 61.3759 69.3388 61.6621C69.5677 61.9769 70.0256 62.2631 69.6822 62.7782C70.2259 63.7225 69.768 64.953 70.6265 65.8402C71.0558 66.298 71.3706 66.9276 71.5423 67.5286C71.6567 67.872 71.2561 68.4157 71.3706 68.7305C71.485 69.0453 72.1146 69.1597 72.2863 69.5031C72.5725 69.9896 72.7156 70.5906 72.8586 71.1629C72.8873 71.2488 72.7728 71.4491 72.6583 71.5063C72.4294 71.6494 72.1718 71.7066 71.9715 71.8497C71.714 72.0214 71.6567 72.3934 71.9715 72.4507C72.6297 72.5651 72.6297 73.1089 72.8873 73.5095C73.1734 74.0246 73.1448 74.6542 73.7458 75.0548C74.2036 75.341 73.8888 75.8561 73.6599 76.1995C73.3737 76.6001 73.2307 76.8004 73.7458 77.2297C74.1178 77.5159 74.2895 78.1741 74.4039 78.6892C74.5184 79.2043 74.4039 79.7766 74.8904 80.2059C74.9763 80.2631 74.9477 80.6351 74.8332 80.7782ZM2.66139 70.562L2.60415 70.5047V70.5906L2.66139 70.562ZM1.23054 82.0946C1.17331 81.961 1.11606 81.8275 1.05883 81.6939C0.982517 81.8084 0.915741 81.9229 0.858507 82.0373C0.972975 82.0564 1.097 82.0755 1.23054 82.0946ZM1.88873 77.4014C1.85057 77.4014 1.80288 77.4109 1.74564 77.43C1.77426 77.4586 1.77426 77.4872 1.80288 77.5159C1.80288 77.5445 1.83148 77.5159 1.8601 77.5159C1.87918 77.4777 1.88873 77.4396 1.88873 77.4014ZM3.31957 79.3187C3.23372 79.1756 3.00478 78.8036 2.77584 78.4602C2.71861 78.3744 2.46106 78.3458 2.46106 78.3744C2.31798 78.7178 2.0318 79.147 2.14627 79.4046C2.28935 79.7766 2.74723 80.0628 3.06201 80.3776C3.14786 80.2917 3.26233 80.2345 3.29094 80.12C3.34818 79.9769 3.31957 79.8052 3.31957 79.3187ZM5.60892 65.554C5.58031 65.4109 5.55169 65.2106 5.52308 64.9817C5.37999 65.182 5.23689 65.3823 5.15104 65.5826C5.06519 65.7257 5.03657 65.8974 5.00796 66.0691C4.92211 66.4411 4.43563 66.7559 4.8935 67.1852C5.12244 66.8418 5.35137 66.4984 5.55169 66.1263C5.60892 65.9833 5.58031 65.7829 5.60892 65.554ZM6.58189 62.12C6.46742 62.0818 6.35297 62.0437 6.2385 62.0055C6.08588 62.5779 5.92371 63.1502 5.75201 63.7225C5.83786 63.7225 5.95233 63.7798 5.95233 63.7511C6.15265 63.236 6.35295 62.6923 6.58189 62.12ZM7.38317 59.6589C7.38317 59.6017 7.26869 59.5158 7.01114 59.2297C6.78221 59.5731 6.61051 59.8879 6.41019 60.1168C6.15264 60.403 5.89509 60.6891 6.26711 60.9753C6.66775 61.2901 7.01115 61.0039 7.18285 60.6319C7.29732 60.3457 7.35456 60.0023 7.38317 59.6589ZM8.32753 56.6541L8.27029 56.6828C8.27029 56.74 8.27029 56.7877 8.27029 56.8259C8.28937 56.7686 8.30845 56.7114 8.32753 56.6541ZM8.84263 54.4793C8.69954 54.3362 8.6137 54.1931 8.47061 54.1072C8.442 54.0786 8.35614 54.1359 8.27029 54.1645C8.38476 54.3076 8.4706 54.4507 8.58507 54.5651C8.58507 54.5937 8.69954 54.5365 8.84263 54.4793ZM11.3895 47.8115C11.3323 47.7829 11.2751 47.7543 11.1892 47.7257L11.132 47.8115C11.1606 47.8688 11.2178 47.926 11.2465 47.926C11.3037 47.926 11.3609 47.8688 11.3895 47.8115ZM16.9412 108.909C16.9126 108.88 16.8554 108.823 16.7981 108.823C16.7695 108.794 16.7123 108.88 16.655 108.909C16.7409 108.937 16.7981 108.966 16.8554 108.994C16.884 108.994 16.9126 108.937 16.9412 108.909ZM25.1829 74.7114C25.1829 74.6542 25.097 74.5969 25.0684 74.5111C25.0112 74.5683 24.9253 74.6256 24.9253 74.6828C24.9253 74.7686 25.0112 74.8259 25.0398 74.8831C25.097 74.8259 25.1829 74.7686 25.1829 74.7114ZM25.326 76.0564V75.9992L25.2687 76.0564H25.326ZM29.4754 153.894C29.1892 153.694 29.0175 153.551 28.8172 153.436C28.7886 153.408 28.5024 153.694 28.5311 153.751C28.6169 153.952 28.7886 154.152 28.9317 154.324C29.0748 154.209 29.2179 154.095 29.4754 153.894ZM32.5947 150.117C32.566 150.088 32.5374 150.088 32.5088 150.088L32.4802 150.146C32.5183 150.165 32.547 150.174 32.566 150.174C32.5851 150.155 32.5947 150.136 32.5947 150.117ZM38.6042 80.1486C38.6328 79.0898 38.7187 78.031 38.7759 76.9721C38.7759 76.8863 38.6614 76.8004 38.6042 76.686C38.5756 76.7718 38.4897 76.8291 38.4897 76.9149C38.3371 77.8879 38.1845 78.8513 38.0319 79.8052C38.0509 79.8243 38.07 79.8338 38.0891 79.8338C38.0891 80.5493 38.0605 81.2647 38.1177 82.0087C38.1177 82.1518 38.318 82.3235 38.4325 82.4952C38.5184 82.3521 38.6901 82.209 38.6901 82.066C38.6901 81.4364 38.5756 80.8068 38.6042 80.1486ZM49.2211 123.103L49.1925 123.131C49.0208 123.503 48.9635 123.875 49.45 124.076C49.5359 124.104 49.7076 123.99 49.7362 123.904C49.7934 123.503 49.7076 123.16 49.2211 123.103ZM54.6297 93.7416C54.6011 93.8561 54.6869 93.9706 54.7441 94.0851C54.8586 93.9897 54.9731 93.8943 55.0875 93.7989C55.0303 93.6844 54.9445 93.5986 54.83 93.4841C54.7441 93.5699 54.6297 93.6558 54.6297 93.7416ZM57.4914 56.8831C57.2624 56.5683 57.0049 56.2249 56.7759 55.9101C56.7473 55.8815 56.6329 55.9387 56.547 55.9673C56.795 56.3298 57.0335 56.6923 57.2624 57.0548C57.3197 57.0262 57.3769 56.9689 57.4914 56.8831ZM60.582 42.1168C60.6965 42.0309 60.8109 41.9164 60.9826 41.7734C60.7823 41.5444 60.6392 41.3727 60.4961 41.201C60.4103 41.2869 60.2386 41.43 60.2672 41.4872C60.3531 41.7161 60.4675 41.9165 60.582 42.1168ZM63.7012 48.7273C63.2434 48.0977 62.6996 47.5254 63.272 46.6669C63.3006 46.6382 63.272 46.4952 63.2147 46.4379C62.1845 45.7225 62.4135 44.0913 61.2116 43.4618C61.0685 43.4045 61.0685 43.0325 61.0399 42.8036C60.954 42.8036 60.9254 42.8036 60.8682 42.8036C60.8682 42.8894 60.8682 43.0039 60.8968 43.1184C61.2402 44.3203 61.5836 45.5508 62.0128 46.7527C62.3276 47.6684 62.8141 48.5556 63.2147 49.4427C63.3578 49.7289 63.5295 50.015 63.6726 50.3012C63.7298 49.9864 63.8157 49.6716 63.8443 49.3282C63.8443 49.1279 63.8157 48.8704 63.7012 48.7273ZM64.0732 51.6176C64.1496 51.6557 64.2259 51.7034 64.3022 51.7607C64.2449 51.6843 64.1877 51.5985 64.1305 51.5031C64.1305 51.5317 64.0732 51.589 64.0732 51.6176ZM64.4739 52.1327C64.4548 52.0564 64.4262 51.9801 64.388 51.9037C64.388 51.9801 64.388 52.0564 64.388 52.1327C64.4071 52.1327 64.4357 52.1327 64.4739 52.1327ZM64.8173 52.9053C64.7887 52.8481 64.7314 52.8195 64.6742 52.7622C64.6551 52.8576 64.6456 52.934 64.6456 52.9912C64.7028 52.9912 64.76 53.0198 64.8173 52.9912C64.8173 52.9912 64.8459 52.934 64.8173 52.9053ZM66.8491 57.341L66.7632 57.3123L66.7919 57.4268L66.8491 57.341ZM69.7108 67.5286C69.6535 67.5858 69.5105 67.7575 69.5105 67.7575C69.7776 68.0818 70.0542 68.3871 70.3404 68.6732C70.369 68.7019 70.4834 68.6446 70.5121 68.5874C70.6265 68.2154 70.1687 67.5572 69.7108 67.5286ZM70.6551 74.3108C70.7505 74.2535 70.8555 74.1868 70.9699 74.1105C70.8364 74.1486 70.7028 74.1868 70.5693 74.2249C70.5979 74.2535 70.6551 74.3108 70.6551 74.3108ZM71.5995 73.1375C71.5709 73.0516 71.4278 72.9944 71.3419 72.9086C71.3419 73.0993 71.3324 73.2901 71.3133 73.4809C71.3133 73.5381 71.3229 73.6049 71.3419 73.6812C71.8857 73.7671 71.6853 73.395 71.5995 73.1375ZM72.2005 78.0882C72.3149 78.1454 72.4008 78.2027 72.5152 78.2313C72.5439 78.2313 72.6297 78.0596 72.6297 78.031C72.5439 77.9451 72.4294 77.8879 72.3435 77.8307C72.3149 77.9165 72.2577 77.9737 72.2005 78.0882ZM72.83 79.147C72.6869 79.0612 72.6011 79.0039 72.5152 78.9753C72.4866 78.9753 72.3721 79.1184 72.4008 79.147C72.4294 79.2615 72.5152 79.3187 72.5725 79.4046C72.6583 79.3187 72.7155 79.2615 72.83 79.147Z" fill="#848484"/>
<path d="M1.71584 72.193C1.68723 72.2216 1.71584 72.3361 1.71584 72.3361C1.83031 72.3075 1.94479 72.3361 2.03064 72.3075C2.14511 72.2502 2.23095 72.1644 2.34542 72.1071C2.20233 72.0499 2.08787 71.9927 1.9734 72.0213C1.88755 72.0213 1.80169 72.1358 1.71584 72.193Z" fill="#848484"/>
</svg>
