<svg width="24" height="24" viewBox="0 0 24 24" fill="none" xmlns="http://www.w3.org/2000/svg">
<g id="fire 1">
<path id="Vector" d="M10.3871 0.539314C9.96714 0.284337 9.43467 0.329337 9.06718 0.651836C8.69218 0.966821 8.57216 1.49184 8.76717 1.94181C10.0797 5.02435 9.73465 6.49432 9.41216 7.09431C9.06719 7.72434 8.51215 7.88931 8.28716 7.92685C7.67965 8.03931 7.22216 6.83934 7.21466 6.83183C7.07216 6.41183 6.68965 6.11932 6.24717 6.08183C5.79714 6.05184 5.38466 6.26933 5.16717 6.65934C3.17966 10.2818 2.65464 13.6793 3.61467 16.7693C5.01717 21.2993 9.11964 23.4143 9.29217 23.5043C9.44964 23.5868 9.62968 23.6243 9.79466 23.6243C10.0722 23.6243 10.3347 23.5268 10.5447 23.3393C10.8897 23.0318 11.0172 22.5443 10.8596 22.1093C10.5147 21.1718 9.90717 18.4568 11.1672 17.1293C11.9396 16.3193 12.4797 15.5768 12.8472 14.9393C15.8622 19.6793 14.2497 21.1643 14.2197 21.2018C14.2122 21.2018 14.2122 21.2093 14.2047 21.2093C13.6947 21.5618 13.5746 22.2593 13.9197 22.7693C14.2722 23.2793 14.9622 23.4143 15.4797 23.0694C15.4797 23.0618 15.4872 23.0618 15.4946 23.0543C19.1472 20.4968 20.9472 17.5343 20.8421 14.2343C20.6172 6.87682 10.8071 0.794336 10.3871 0.539314Z" fill="#191E3A"/>
</g>
</svg>
