<svg width="24" height="18" viewBox="0 0 24 18" fill="none" xmlns="http://www.w3.org/2000/svg">
<path d="M12.1048 10.4961H9.9226C9.84485 10.4961 9.83095 10.4817 9.83052 10.4045C9.83052 10.2528 9.83052 10.0993 9.83052 9.94924C9.82791 9.57115 9.81618 9.19262 9.82183 8.8154C9.84572 7.23152 10.3361 5.81291 11.3334 4.58008C12.0931 3.62336 13.1487 2.94818 14.3334 2.66128C14.7268 2.56599 15.1302 2.51841 15.5349 2.51955C15.6152 2.51955 15.6291 2.53394 15.6274 2.61418C15.6117 3.26803 15.5962 3.92217 15.5809 4.57659C15.5809 4.64462 15.5661 4.65989 15.4988 4.67559C14.7535 4.85002 14.062 5.14133 13.4482 5.6062C13.0165 5.92376 12.6627 6.336 12.4136 6.81156C12.2018 7.21807 12.0981 7.67262 12.1126 8.13117C12.1148 8.2088 12.13 8.2245 12.2095 8.2245H14.2457H14.2978C14.3578 8.2245 14.376 8.24238 14.3764 8.30299C14.3764 8.43382 14.3764 8.56814 14.3764 8.70071C14.3764 9.25309 14.3764 9.80547 14.3764 10.3579C14.3764 10.4983 14.3764 10.4983 14.2401 10.4983H12.1048V10.4961Z" fill="#3656BB"/>
<path d="M6.25043 15.7132C6.25043 15.3475 6.25043 14.9813 6.25043 14.6147C6.25043 14.5423 6.26042 14.5319 6.32949 14.531C7.33979 14.5144 8.1707 14.111 8.84134 13.3588C9.37169 12.7648 9.68529 12.0688 9.8195 11.2869C9.83514 11.1958 9.83948 11.1914 9.92809 11.1914H11.9018C11.9852 11.1914 12.0017 11.2075 11.9947 11.2825C11.9497 11.8831 11.8075 12.4723 11.5738 13.0269C10.9896 14.3727 10.0601 15.404 8.77141 16.1018C8.0996 16.4672 7.37248 16.7191 6.6192 16.8475C6.53233 16.8628 6.44242 16.8828 6.35294 16.8933C6.26346 16.9038 6.25043 16.8911 6.25043 16.8061C6.24986 16.4403 6.24986 16.0761 6.25043 15.7132Z" fill="#3656BB"/>
<g clip-path="url(#clip0_2_23612)">
<path fill-rule="evenodd" clip-rule="evenodd" d="M19.9144 5.79019C19.8895 5.78313 19.8643 5.77742 19.8388 5.77308C19.6979 5.7505 19.553 5.77018 19.421 5.82979C19.289 5.88939 19.1755 5.98645 19.0939 6.10952C19.0123 6.23259 18.9659 6.37655 18.9603 6.52442C18.9547 6.6723 18.99 6.81794 19.0621 6.94418C20.4916 9.53504 19.6026 12.8528 17.0692 14.3819C16.9788 14.4313 16.8986 14.4989 16.8336 14.5807C16.7685 14.6624 16.7198 14.7567 16.6905 14.8577C16.6612 14.9587 16.6518 15.0644 16.663 15.1684C16.6742 15.2725 16.7056 15.3727 16.7555 15.463C16.8053 15.5534 16.8725 15.632 16.9531 15.6942C17.0336 15.7563 17.1258 15.8007 17.2241 15.8247C17.3223 15.8487 17.4247 15.8518 17.5249 15.8338C17.6252 15.8158 17.7213 15.777 17.8074 15.7199C21.0469 13.7646 22.1971 9.472 20.3692 6.15896C20.3217 6.06871 20.2569 5.98957 20.1788 5.92623C20.1007 5.8629 20.0108 5.81664 19.9144 5.79019ZM17.2958 7.36573C17.2728 7.35937 17.2495 7.35417 17.2259 7.35013C17.085 7.32756 16.94 7.34723 16.8081 7.40684C16.6761 7.46645 16.5626 7.56351 16.481 7.68658C16.3994 7.80965 16.353 7.9536 16.3474 8.10148C16.3418 8.24936 16.3771 8.39499 16.4492 8.52123C17.0643 9.63612 16.6851 11.0517 15.5949 11.7097C15.5069 11.7601 15.4291 11.8279 15.3662 11.9093C15.3033 11.9906 15.2565 12.0838 15.2285 12.1834C15.2004 12.2831 15.1918 12.387 15.2031 12.4893C15.2144 12.5916 15.2453 12.6902 15.2941 12.7792C15.3429 12.8682 15.4086 12.946 15.4873 13.0078C15.566 13.0697 15.6561 13.1144 15.7525 13.1394C15.8488 13.1645 15.9493 13.1693 16.0482 13.1536C16.1471 13.1379 16.2424 13.1019 16.3284 13.048C18.1248 11.9638 18.7656 9.57194 17.7521 7.73488C17.7044 7.64441 17.6395 7.56511 17.5611 7.5017C17.4827 7.43828 17.3925 7.39205 17.2958 7.36573Z" fill="#FC5921"/>
</g>
<path fill-rule="evenodd" clip-rule="evenodd" d="M4.08755 11.8934C4.11241 11.9005 4.13765 11.9062 4.16314 11.9105C4.30402 11.9331 4.44899 11.9134 4.58097 11.8538C4.71295 11.7942 4.82643 11.6971 4.90805 11.5741C4.98967 11.451 5.03602 11.307 5.04165 11.1592C5.04728 11.0113 5.01194 10.8657 4.93981 10.7394C3.51035 8.14855 4.39937 4.83076 6.93274 3.3017C7.02314 3.25231 7.1033 3.18469 7.16839 3.10292C7.23348 3.02116 7.28214 2.92693 7.31146 2.82592C7.34077 2.72491 7.35013 2.61921 7.33897 2.51518C7.3278 2.41114 7.29635 2.31093 7.2465 2.22058C7.19665 2.13022 7.12943 2.0516 7.0489 1.98943C6.96837 1.92727 6.87618 1.88285 6.7779 1.85885C6.67962 1.83485 6.57727 1.83178 6.47702 1.8498C6.37676 1.86783 6.28068 1.90659 6.19456 1.96374C2.95506 3.919 1.80483 8.2116 3.63272 11.5246C3.68028 11.6149 3.74503 11.694 3.82315 11.7574C3.90127 11.8207 3.99117 11.867 4.08755 11.8934ZM6.70611 10.3179C6.72915 10.3242 6.75249 10.3294 6.77605 10.3335C6.91694 10.356 7.0619 10.3364 7.19388 10.2768C7.32586 10.2171 7.43935 10.1201 7.52097 9.99702C7.60259 9.87395 7.64894 9.72999 7.65457 9.58211C7.66019 9.43424 7.62486 9.2886 7.55272 9.16236C6.93761 8.04747 7.31688 6.63192 8.40706 5.97393C8.49507 5.92352 8.57281 5.85566 8.63573 5.77431C8.69865 5.69295 8.74549 5.59975 8.7735 5.50014C8.80151 5.40054 8.81013 5.29655 8.79886 5.19425C8.78759 5.09195 8.75665 4.9934 8.70785 4.90438C8.65905 4.81535 8.59338 4.73764 8.51467 4.67578C8.43597 4.61393 8.34582 4.56918 8.2495 4.54415C8.15317 4.51912 8.05262 4.51432 7.95371 4.53003C7.85481 4.54574 7.75955 4.58165 7.67351 4.63564C5.87719 5.71982 5.23633 8.11166 6.24987 9.94871C6.29755 10.0392 6.3625 10.1185 6.44087 10.1819C6.51924 10.2453 6.60944 10.2915 6.70611 10.3179Z" fill="#FC5921"/>
<defs>
<clipPath id="clip0_2_23612">
<rect width="11.464" height="11.464" fill="white" transform="translate(14.2109 3.51953) rotate(15)"/>
</clipPath>
</defs>
</svg>
