<svg width="24" height="24" viewBox="0 0 24 24" fill="none" xmlns="http://www.w3.org/2000/svg">
<g id="food-time(1) 1" clip-path="url(#clip0_2_629)">
<path id="Vector" d="M3.0151 8.45996L3.6601 22.125C3.67197 22.3139 3.64571 22.5033 3.58287 22.6819C3.52003 22.8605 3.4219 23.0246 3.29432 23.1645C3.16675 23.3044 3.01233 23.4172 2.84026 23.4962C2.6682 23.5752 2.482 23.6187 2.29276 23.6242C2.10351 23.6298 1.91509 23.5972 1.7387 23.5284C1.56231 23.4596 1.40156 23.3561 1.26603 23.2239C1.13049 23.0917 1.02294 22.9336 0.949763 22.759C0.87659 22.5843 0.839296 22.3968 0.840101 22.2075V22.125L1.4851 8.45996H3.0151Z" fill="#191E3A"/>
<path id="Vector_2" d="M1.59009 22.2075V22.125L2.23509 8.45996H1.48509L0.84009 22.125V22.2075C0.839375 22.5823 0.987459 22.9422 1.25183 23.2079C1.51619 23.4737 1.87523 23.6237 2.25009 23.625C2.3773 23.6232 2.50367 23.604 2.62568 23.568C2.3282 23.4854 2.06593 23.3077 1.87893 23.062C1.69193 22.8163 1.59049 22.5162 1.59009 22.2075Z" fill="#191E3A"/>
<path id="Vector_3" d="M17.625 12C17.625 12.1253 17.6175 12.2505 17.6025 12.375C17.5304 13.605 17.047 14.7751 16.23 15.6975C16.0718 15.8932 15.8933 16.0717 15.6975 16.23C14.7752 17.047 13.6051 17.5303 12.375 17.6025C12.1259 17.6325 11.8741 17.6325 11.625 17.6025C10.395 17.5303 9.22486 17.047 8.30252 16.23C8.10677 16.0717 7.92828 15.8932 7.77002 15.6975C6.95302 14.7751 6.46965 13.605 6.39752 12.375C6.36749 12.1259 6.36749 11.8741 6.39752 11.625C6.46964 10.3949 6.95301 9.22481 7.77002 8.30248C7.92828 8.10673 8.10677 7.92824 8.30252 7.76998C9.22487 6.95299 10.395 6.46963 11.625 6.39748C11.8741 6.36751 12.1259 6.36751 12.375 6.39748C13.6051 6.46963 14.7752 6.95299 15.6975 7.76998C15.8933 7.92824 16.0718 8.10673 16.23 8.30248C17.047 9.22481 17.5304 10.3949 17.6025 11.625C17.6175 11.7494 17.625 11.8746 17.625 12Z" fill="white"/>
<path id="Vector_4" d="M8.52002 15.6975C7.70302 14.7751 7.21965 13.605 7.14752 12.375C7.11749 12.1259 7.11749 11.8741 7.14752 11.625C7.21964 10.3949 7.70301 9.22481 8.52002 8.30248C8.67828 8.10673 8.85677 7.92824 9.05252 7.76998C9.97487 6.95299 11.145 6.46963 12.375 6.39748C12.1259 6.36751 11.8741 6.36751 11.625 6.39748C10.395 6.46963 9.22487 6.95299 8.30252 7.76998C8.10677 7.92824 7.92828 8.10673 7.77002 8.30248C6.95301 9.22481 6.46964 10.3949 6.39752 11.625C6.36749 11.8741 6.36749 12.1259 6.39752 12.375C6.46965 13.605 6.95302 14.7751 7.77002 15.6975C7.92828 15.8932 8.10677 16.0717 8.30252 16.23C9.22486 17.047 10.395 17.5303 11.625 17.6025C11.8741 17.6325 12.1259 17.6325 12.375 17.6025C11.145 17.5303 9.97486 17.047 9.05252 16.23C8.85677 16.0717 8.67828 15.8932 8.52002 15.6975Z" fill="#191E3A"/>
<path id="Vector_5" d="M4.125 6.3154e-08C4.07575 -2.85289e-05 4.02697 0.00965162 3.98146 0.028487C3.93595 0.0473224 3.8946 0.0749436 3.85977 0.109771C3.82494 0.144599 3.79732 0.18595 3.77849 0.23146C3.75965 0.27697 3.74997 0.325746 3.75 0.375V5.25H2.625V0.375C2.625 0.275544 2.58549 0.180161 2.51516 0.109835C2.44484 0.0395089 2.34946 6.3154e-08 2.25 6.3154e-08C2.15054 6.3154e-08 2.05516 0.0395089 1.98484 0.109835C1.91451 0.180161 1.875 0.275544 1.875 0.375V5.25H0.75V0.375C0.75 0.275544 0.710491 0.180161 0.640165 0.109835C0.569839 0.0395089 0.474456 6.3154e-08 0.375 6.3154e-08C0.275544 6.3154e-08 0.180161 0.0395089 0.109835 0.109835C0.0395088 0.180161 0 0.275544 0 0.375L0 6.75C0 7.34674 0.237053 7.91903 0.65901 8.34099C1.08097 8.76295 1.65326 9 2.25 9C2.84674 9 3.41903 8.76295 3.84099 8.34099C4.26295 7.91903 4.5 7.34674 4.5 6.75V0.375C4.50003 0.325746 4.49035 0.27697 4.47151 0.23146C4.45268 0.18595 4.42506 0.144599 4.39023 0.109771C4.3554 0.0749436 4.31405 0.0473224 4.26854 0.028487C4.22303 0.00965162 4.17425 -2.85289e-05 4.125 6.3154e-08Z" fill="#191E3A"/>
<path id="Vector_6" d="M0.75 6.75V0.375C0.75 0.275544 0.710491 0.180161 0.640165 0.109835C0.569839 0.0395088 0.474456 0 0.375 0C0.275544 0 0.180161 0.0395088 0.109835 0.109835C0.0395088 0.180161 0 0.275544 0 0.375L0 6.75C0.000651147 7.34654 0.237913 7.91846 0.659729 8.34027C1.08154 8.76209 1.65346 8.99935 2.25 9C2.37585 8.99796 2.50129 8.98528 2.625 8.9621C2.10168 8.87393 1.62641 8.60351 1.28327 8.19868C0.940129 7.79385 0.751233 7.28069 0.75 6.75Z" fill="#191E3A"/>
<path id="Vector_7" d="M12 12C11.9507 12 11.9019 11.9903 11.8564 11.9715C11.8109 11.9527 11.7696 11.925 11.7347 11.8902C11.6999 11.8554 11.6723 11.814 11.6535 11.7685C11.6346 11.723 11.6249 11.6742 11.625 11.625V9.74998C11.625 9.65052 11.6645 9.55514 11.7348 9.48481C11.8051 9.41448 11.9005 9.37498 12 9.37498C12.0994 9.37498 12.1948 9.41448 12.2651 9.48481C12.3355 9.55514 12.375 9.65052 12.375 9.74998V11.625C12.375 11.6742 12.3653 11.723 12.3465 11.7685C12.3277 11.814 12.3 11.8554 12.2652 11.8902C12.2304 11.925 12.189 11.9527 12.1435 11.9715C12.098 11.9903 12.0492 12 12 12ZM12.375 5.64748V7.12498C12.375 7.22443 12.3355 7.31982 12.2651 7.39014C12.1948 7.46047 12.0994 7.49998 12 7.49998C11.9005 7.49998 11.8051 7.46047 11.7348 7.39014C11.6645 7.31982 11.625 7.22443 11.625 7.12498V5.64748C11.8741 5.61751 12.1259 5.61751 12.375 5.64748ZM12.375 16.875V18.3525C12.1259 18.3825 11.8741 18.3825 11.625 18.3525V16.875C11.625 16.7755 11.6645 16.6801 11.7348 16.6098C11.8051 16.5395 11.9005 16.5 12 16.5C12.0994 16.5 12.1948 16.5395 12.2651 16.6098C12.3355 16.6801 12.375 16.7755 12.375 16.875ZM7.77323 7.2429L8.81798 8.28765C8.88831 8.35798 8.92782 8.45336 8.92782 8.55281C8.92782 8.65227 8.88831 8.74765 8.81798 8.81798C8.74765 8.88831 8.65227 8.92782 8.55281 8.92782C8.45336 8.92782 8.35798 8.88831 8.28765 8.81798L7.2429 7.77323C7.39785 7.5759 7.5759 7.39785 7.77323 7.2429ZM15.7123 15.182L16.757 16.2267C16.6021 16.4241 16.4241 16.6021 16.2267 16.757L15.182 15.7123C15.1471 15.6775 15.1195 15.6361 15.1007 15.5906C15.0818 15.5451 15.0721 15.4964 15.0721 15.4471C15.0721 15.3979 15.0818 15.3491 15.1007 15.3036C15.1195 15.2581 15.1471 15.2168 15.182 15.182C15.2168 15.1471 15.2581 15.1195 15.3036 15.1007C15.3491 15.0818 15.3979 15.0721 15.4471 15.0721C15.4964 15.0721 15.5451 15.0818 15.5906 15.1007C15.6361 15.1195 15.6775 15.1471 15.7123 15.182ZM5.64748 11.625H7.12498C7.22443 11.625 7.31982 11.6645 7.39014 11.7348C7.46047 11.8051 7.49998 11.9005 7.49998 12C7.49998 12.0994 7.46047 12.1948 7.39014 12.2651C7.31982 12.3355 7.22443 12.375 7.12498 12.375H5.64748C5.61751 12.1259 5.61751 11.8741 5.64748 11.625ZM16.875 11.625H18.3525C18.3825 11.8741 18.3825 12.1259 18.3525 12.375H16.875C16.7755 12.375 16.6801 12.3355 16.6098 12.2651C16.5395 12.1948 16.5 12.0994 16.5 12C16.5 11.9005 16.5395 11.8051 16.6098 11.7348C16.6801 11.6645 16.7755 11.625 16.875 11.625ZM7.2429 16.2267L8.28765 15.182C8.32247 15.1472 8.36381 15.1195 8.40931 15.1007C8.45481 15.0818 8.50357 15.0721 8.55281 15.0721C8.60206 15.0721 8.65082 15.0818 8.69632 15.1007C8.74182 15.1195 8.78316 15.1472 8.81798 15.182C8.8528 15.2168 8.88043 15.2581 8.89927 15.3036C8.91812 15.3491 8.92782 15.3979 8.92782 15.4471C8.92782 15.4964 8.91812 15.5451 8.89927 15.5906C8.88043 15.6361 8.8528 15.6775 8.81798 15.7123L7.77323 16.7571C7.5759 16.6021 7.39785 16.4241 7.2429 16.2267ZM15.182 8.28766L16.2267 7.24291C16.4241 7.39782 16.6021 7.57587 16.757 7.77325L15.7123 8.818C15.6775 8.85282 15.6361 8.88044 15.5906 8.89929C15.5451 8.91813 15.4964 8.92783 15.4471 8.92783C15.3979 8.92783 15.3491 8.91813 15.3036 8.89929C15.2581 8.88044 15.2168 8.85282 15.182 8.818C15.1471 8.78317 15.1195 8.74183 15.1007 8.69634C15.0818 8.65084 15.0721 8.60208 15.0721 8.55283C15.0721 8.50358 15.0818 8.45482 15.1007 8.40932C15.1195 8.36383 15.1471 8.32249 15.182 8.28766ZM10.125 14.25C10.0508 14.25 9.97832 14.228 9.91666 14.1868C9.855 14.1456 9.80695 14.087 9.77857 14.0185C9.75019 13.95 9.74276 13.8746 9.75723 13.8018C9.77169 13.7291 9.8074 13.6623 9.85984 13.6098L11.2023 12.2673C11.2729 12.1982 11.3679 12.1597 11.4667 12.1602C11.5655 12.1607 11.6601 12.2001 11.7299 12.27C11.7998 12.3399 11.8392 12.4345 11.8397 12.5332C11.8402 12.632 11.8017 12.727 11.7326 12.7976L10.3901 14.1401C10.3553 14.175 10.314 14.2026 10.2685 14.2215C10.223 14.2403 10.1742 14.25 10.125 14.25Z" fill="#191E3A"/>
<path id="Vector_8" d="M23.625 14.625V22.1848C23.625 22.5668 23.4733 22.9331 23.2032 23.2032C22.9331 23.4733 22.5668 23.625 22.1848 23.625C21.986 23.625 21.7894 23.5838 21.6073 23.5041C21.4252 23.4244 21.2615 23.3079 21.1267 23.1618C20.9918 23.0157 20.8887 22.8433 20.8237 22.6555C20.7587 22.4676 20.7334 22.2683 20.7492 22.0701L21.3439 14.625" fill="#191E3A"/>
<path id="Vector_9" d="M21.4991 22.0701L22.0938 14.625H21.3438L20.7491 22.0701C20.7275 22.3007 20.7627 22.5331 20.8513 22.7471C20.94 22.9611 21.0796 23.1502 21.258 23.298C21.4364 23.4458 21.6481 23.5477 21.8749 23.5951C22.1016 23.6424 22.3365 23.6337 22.5591 23.5697C22.2352 23.4827 21.9519 23.2852 21.7583 23.0113C21.5647 22.7374 21.473 22.4045 21.4991 22.0701Z" fill="#191E3A"/>
<path id="Vector_10" d="M23.625 14.625H20.625V6.375C20.625 5.21066 20.8961 4.06231 21.4168 3.0209C21.9375 1.97948 22.6935 1.0736 23.625 0.375V14.625Z" fill="#191E3A"/>
<path id="Vector_11" d="M21.375 6.375C21.3758 5.37878 21.5753 4.39273 21.9616 3.47447C22.3479 2.55621 22.9134 1.72418 23.625 1.02699V0.375C22.6935 1.0736 21.9375 1.97948 21.4168 3.0209C20.8961 4.06231 20.625 5.21066 20.625 6.375V14.625H21.375V6.375Z" fill="#191E3A"/>
<path id="Vector_12" d="M12 12.75C12.4142 12.75 12.75 12.4142 12.75 12C12.75 11.5858 12.4142 11.25 12 11.25C11.5858 11.25 11.25 11.5858 11.25 12C11.25 12.4142 11.5858 12.75 12 12.75Z" fill="#A5A5A5"/>
<path id="Vector_13" d="M12 4.875C10.5908 4.875 9.21327 5.29287 8.04157 6.07578C6.86987 6.85869 5.95664 7.97146 5.41736 9.27338C4.87809 10.5753 4.73699 12.0079 5.01191 13.39C5.28683 14.7721 5.96542 16.0417 6.96187 17.0381C7.95832 18.0346 9.22787 18.7132 10.61 18.9881C11.9921 19.263 13.4247 19.1219 14.7266 18.5826C16.0285 18.0434 17.1413 17.1301 17.9242 15.9584C18.7071 14.7867 19.125 13.4092 19.125 12C19.1254 11.0642 18.9414 10.1375 18.5835 9.27289C18.2256 8.40826 17.7008 7.62264 17.0391 6.96094C16.3774 6.29924 15.5917 5.77443 14.7271 5.41651C13.8625 5.05859 12.9358 4.87458 12 4.875ZM16.23 15.6975C16.0717 15.8933 15.8933 16.0717 15.6975 16.23C14.7752 17.047 13.605 17.5304 12.375 17.6025C12.1259 17.6325 11.8741 17.6325 11.625 17.6025C10.395 17.5304 9.22484 17.047 8.3025 16.23C8.10675 16.0717 7.92826 15.8933 7.77 15.6975C6.953 14.7752 6.46963 13.605 6.3975 12.375C6.36747 12.1259 6.36747 11.8741 6.3975 11.625C6.46962 10.395 6.95299 9.22483 7.77 8.3025C7.92826 8.10675 8.10675 7.92826 8.3025 7.77C9.22485 6.95302 10.395 6.46965 11.625 6.3975C11.8741 6.36753 12.1259 6.36753 12.375 6.3975C13.605 6.46965 14.7752 6.95302 15.6975 7.77C15.8933 7.92826 16.0717 8.10675 16.23 8.3025C17.047 9.22483 17.5304 10.395 17.6025 11.625C17.6325 11.8741 17.6325 12.1259 17.6025 12.375C17.5304 13.605 17.047 14.7752 16.23 15.6975Z" fill="#A5A5A5"/>
<path id="Vector_14" d="M5.625 12C5.62505 10.1761 6.32543 8.42194 7.58153 7.09957C8.83764 5.7772 10.5536 4.98764 12.375 4.89391C12.25 4.8874 12.1266 4.875 12 4.875C10.1103 4.875 8.29806 5.62567 6.96186 6.96186C5.62567 8.29806 4.875 10.1103 4.875 12C4.875 13.8897 5.62567 15.7019 6.96186 17.0381C8.29806 18.3743 10.1103 19.125 12 19.125C12.1266 19.125 12.25 19.1126 12.375 19.1061C10.5536 19.0124 8.83764 18.2228 7.58153 16.9004C6.32543 15.5781 5.62505 13.8239 5.625 12Z" fill="#A5A5A5"/>
</g>
<defs>
<clipPath id="clip0_2_629">
<rect width="24" height="24" fill="white"/>
</clipPath>
</defs>
</svg>
