<svg width="22" height="22" viewBox="0 0 22 22" fill="none" xmlns="http://www.w3.org/2000/svg">
<g id="fork-and-spoon 1">
<path id="Vector" d="M16.8487 4.51444C16.8455 3.95492 16.7439 3.40034 16.5484 2.87605C16.3665 2.36326 16.0302 1.9194 15.5858 1.60549C15.1414 1.29159 14.6106 1.12305 14.0665 1.12305C13.5224 1.12305 12.9917 1.29159 12.5473 1.60549C12.1028 1.9194 11.7666 2.36326 11.5846 2.87605C11.3892 3.40034 11.2876 3.95492 11.2844 4.51444C11.2844 6.50419 11.9875 6.94238 12.5796 7.5911C13.0283 8.08284 13.417 8.63449 13.4069 9.51314C13.3743 12.3567 12.5688 15.4576 13.0565 18.7741C13.1857 19.6532 13.5441 19.9355 14.0665 19.9355C14.589 19.9355 14.9474 19.6531 15.0766 18.7741C15.5642 15.4576 14.7588 12.3567 14.7261 9.51314C14.7161 8.63449 15.1047 8.08284 15.5535 7.5911C16.1456 6.94238 16.8487 6.50419 16.8487 4.51444ZM9.52011 3.4836L9.31681 1.39911C9.30944 1.32352 9.2742 1.25338 9.21795 1.20235C9.1617 1.15131 9.08847 1.12305 9.01252 1.12305H8.99727C8.91618 1.12305 8.83841 1.15526 8.78107 1.21259C8.72374 1.26993 8.69152 1.3477 8.69152 1.42878V5.18846C8.69995 5.27262 8.67515 5.35675 8.62243 5.4229C8.56971 5.48905 8.49324 5.53198 8.40931 5.54255C8.32539 5.53198 8.24891 5.48905 8.19619 5.4229C8.14346 5.35675 8.11867 5.27262 8.12709 5.18846V1.42878C8.12687 1.34784 8.09456 1.27028 8.03725 1.21312C7.97994 1.15596 7.90229 1.12386 7.82135 1.12386C7.7404 1.12386 7.66276 1.15596 7.60544 1.21312C7.54813 1.27028 7.51582 1.34784 7.51561 1.42878V5.18846C7.52403 5.27262 7.49924 5.35675 7.44652 5.4229C7.3938 5.48905 7.31732 5.53198 7.2334 5.54255C7.14947 5.53198 7.073 5.48905 7.02028 5.4229C6.96756 5.35675 6.94276 5.27262 6.95119 5.18846V1.42878C6.95097 1.34784 6.91866 1.27028 6.86135 1.21312C6.80403 1.15596 6.72639 1.12386 6.64545 1.12386C6.5645 1.12386 6.48686 1.15596 6.42954 1.21312C6.37223 1.27028 6.33992 1.34784 6.3397 1.42878V5.18846C6.34812 5.27262 6.32333 5.35675 6.27061 5.4229C6.21789 5.48905 6.14141 5.53198 6.05749 5.54255C5.97356 5.53199 5.89708 5.48905 5.84436 5.4229C5.79163 5.35675 5.76684 5.27263 5.77526 5.18846V1.42878C5.77526 1.38863 5.76736 1.34888 5.75199 1.31178C5.73663 1.27469 5.71411 1.24099 5.68572 1.21259C5.65733 1.1842 5.62362 1.16168 5.58653 1.14632C5.54943 1.13095 5.50968 1.12305 5.46953 1.12305H5.45427C5.37832 1.12305 5.30509 1.15132 5.24885 1.20235C5.1926 1.25338 5.15736 1.32352 5.14999 1.39911L4.9467 3.4836C4.73469 5.65704 4.87965 6.54207 5.70507 7.37672C5.97786 7.62333 6.19484 7.92534 6.34149 8.26257C6.48815 8.59979 6.5611 8.96444 6.55547 9.33213C6.52189 12.2251 5.69405 15.3799 6.19523 18.7539C6.32789 19.6469 6.69642 19.9355 7.2334 19.9355C7.77038 19.9355 8.13871 19.6482 8.27156 18.7539C8.77274 15.3799 7.9449 12.2251 7.91133 9.33213C7.9057 8.96444 7.97865 8.59979 8.12531 8.26257C8.27196 7.92535 8.48894 7.62333 8.76173 7.37672C9.58715 6.54207 9.73211 5.65704 9.52011 3.4836Z" fill="white"/>
</g>
</svg>
