<svg width="14" height="14" viewBox="0 0 14 14" fill="none" xmlns="http://www.w3.org/2000/svg">
<g id="height(1) 1">
<path id="Vector" d="M9.2292 8.54592C9.00135 8.31807 8.63222 8.31807 8.40431 8.54592C8.1764 8.77377 8.17646 9.14291 8.40431 9.37081L9.50412 10.4706C9.55791 10.5245 9.62242 10.5671 9.69382 10.5967C9.76517 10.6262 9.84077 10.6417 9.91672 10.6417C9.99267 10.6417 10.0683 10.6262 10.1396 10.5967C10.211 10.5671 10.2755 10.5245 10.3293 10.4706L11.4291 9.37081C11.657 9.14296 11.657 8.77383 11.4291 8.54592C11.2013 8.31802 10.8321 8.31807 10.6042 8.54592L10.5001 8.65017V5.35013L10.6043 5.45437C10.7183 5.5683 10.8675 5.62529 11.0168 5.62529C11.166 5.62529 11.3153 5.5683 11.4292 5.45437C11.657 5.22652 11.657 4.85739 11.4292 4.62948L10.3294 3.52966C10.2756 3.47582 10.2111 3.43324 10.1397 3.40361C9.99704 3.34463 9.83645 3.34463 9.69382 3.40361C9.62242 3.43318 9.55791 3.47582 9.50412 3.52966L8.40431 4.62948C8.17646 4.85733 8.17646 5.22646 8.40431 5.45437C8.63216 5.68228 9.00129 5.68222 9.2292 5.45437L9.33344 5.35013V8.65017L9.2292 8.54592Z" fill="#3656BB"/>
<path id="Vector_2" d="M8.16377 1.82675C8.19341 1.50603 7.95698 1.22207 7.63627 1.19272C6.57582 1.0942 5.50144 1.23659 4.45587 1.57498C3.58257 1.8607 2.90835 2.64738 2.69642 3.62662C2.45522 4.73006 2.33301 5.86511 2.33301 7.00016C2.33301 8.13521 2.45522 9.27026 2.69619 10.3725C2.90841 11.3529 3.58257 12.1396 4.45786 12.4261C5.29442 12.6965 6.14947 12.8335 6.99967 12.8335C7.20991 12.8335 7.42609 12.827 7.63627 12.8076C7.95698 12.7782 8.19341 12.4943 8.16377 12.1736C8.13472 11.8528 7.85618 11.6184 7.52975 11.6461C6.62599 11.7284 5.7094 11.6048 4.81871 11.3168C4.33763 11.1593 3.96138 10.703 3.83632 10.1247C3.61302 9.10278 3.49967 8.05144 3.49967 7.00016C3.49967 5.94887 3.61302 4.89753 3.83661 3.87442C3.96138 3.29733 4.33763 2.84105 4.81672 2.68442C5.71022 2.39532 6.62599 2.27113 7.52975 2.35432C7.85671 2.38733 8.13472 2.14752 8.16377 1.82675Z" fill="#3656BB"/>
<path id="Vector_3" d="M6.99967 3.50033C6.99967 3.17821 6.73846 2.91699 6.41634 2.91699C6.09422 2.91699 5.83301 3.17821 5.83301 3.50033V4.66699C5.83301 4.98911 6.09422 5.25033 6.41634 5.25033C6.73846 5.25033 6.99967 4.98911 6.99967 4.66699V3.50033ZM6.41634 8.75033C6.09422 8.75033 5.83301 9.01154 5.83301 9.33366V10.5003C5.83301 10.8224 6.09422 11.0837 6.41634 11.0837C6.73846 11.0837 6.99967 10.8224 6.99967 10.5003V9.33366C6.99967 9.01154 6.73846 8.75033 6.41634 8.75033ZM6.99967 6.41699C6.99967 6.09488 6.73846 5.83366 6.41634 5.83366C6.09422 5.83366 5.83301 6.09488 5.83301 6.41699V7.58366C5.83301 7.90578 6.09422 8.16699 6.41634 8.16699C6.73846 8.16699 6.99967 7.90578 6.99967 7.58366V6.41699Z" fill="#3656BB"/>
</g>
</svg>
