<svg width="24" height="24" viewBox="0 0 24 24" fill="none" xmlns="http://www.w3.org/2000/svg">
<g id="history 1">
<path id="Vector" d="M15.3601 7.02034C15.3601 7.17947 15.2969 7.33209 15.1844 7.44461C15.0719 7.55713 14.9192 7.62034 14.7601 7.62034H10.8841C10.725 7.62034 10.5724 7.55713 10.4599 7.44461C10.3473 7.33209 10.2841 7.17947 10.2841 7.02034C10.2841 6.86121 10.3473 6.7086 10.4599 6.59608C10.5724 6.48356 10.725 6.42034 10.8841 6.42034H14.7601C14.9192 6.42034 15.0719 6.48356 15.1844 6.59608C15.2969 6.7086 15.3601 6.86121 15.3601 7.02034ZM8.78172 6.42034H8.16372C8.00459 6.42034 7.85197 6.48356 7.73945 6.59608C7.62693 6.7086 7.56372 6.86121 7.56372 7.02034C7.56372 7.17947 7.62693 7.33209 7.73945 7.44461C7.85197 7.55713 8.00459 7.62034 8.16372 7.62034H8.78172C8.94085 7.62034 9.09346 7.55713 9.20598 7.44461C9.3185 7.33209 9.38172 7.17947 9.38172 7.02034C9.38172 6.86121 9.3185 6.7086 9.20598 6.59608C9.09346 6.48356 8.94085 6.42034 8.78172 6.42034ZM14.7601 8.82034H10.8841C10.725 8.82034 10.5724 8.88356 10.4599 8.99608C10.3473 9.1086 10.2841 9.26121 10.2841 9.42034C10.2841 9.57947 10.3473 9.73209 10.4599 9.84461C10.5724 9.95713 10.725 10.0203 10.8841 10.0203H14.7601C14.9192 10.0203 15.0719 9.95713 15.1844 9.84461C15.2969 9.73209 15.3601 9.57947 15.3601 9.42034C15.3601 9.26121 15.2969 9.1086 15.1844 8.99608C15.0719 8.88356 14.9192 8.82034 14.7601 8.82034ZM8.78172 8.82034H8.16372C8.00459 8.82034 7.85197 8.88356 7.73945 8.99608C7.62693 9.1086 7.56372 9.26121 7.56372 9.42034C7.56372 9.57947 7.62693 9.73209 7.73945 9.84461C7.85197 9.95713 8.00459 10.0203 8.16372 10.0203H8.78172C8.94085 10.0203 9.09346 9.95713 9.20598 9.84461C9.3185 9.73209 9.38172 9.57947 9.38172 9.42034C9.38172 9.26121 9.3185 9.1086 9.20598 8.99608C9.09346 8.88356 8.94085 8.82034 8.78172 8.82034ZM14.7601 11.2203H10.8841C10.725 11.2203 10.5724 11.2836 10.4599 11.3961C10.3473 11.5086 10.2841 11.6612 10.2841 11.8203C10.2841 11.9795 10.3473 12.1321 10.4599 12.2446C10.5724 12.3571 10.725 12.4203 10.8841 12.4203H14.7601C14.9192 12.4203 15.0719 12.3571 15.1844 12.2446C15.2969 12.1321 15.3601 11.9795 15.3601 11.8203C15.3601 11.6612 15.2969 11.5086 15.1844 11.3961C15.0719 11.2836 14.9192 11.2203 14.7601 11.2203ZM8.78172 11.2203H8.16372C8.00459 11.2203 7.85197 11.2836 7.73945 11.3961C7.62693 11.5086 7.56372 11.6612 7.56372 11.8203C7.56372 11.9795 7.62693 12.1321 7.73945 12.2446C7.85197 12.3571 8.00459 12.4203 8.16372 12.4203H8.78172C8.94085 12.4203 9.09346 12.3571 9.20598 12.2446C9.3185 12.1321 9.38172 11.9795 9.38172 11.8203C9.38172 11.6612 9.3185 11.5086 9.20598 11.3961C9.09346 11.2836 8.94085 11.2203 8.78172 11.2203ZM19.3789 17.1711C19.3787 17.8492 19.1774 18.512 18.8005 19.0757C18.4235 19.6393 17.8879 20.0786 17.2614 20.3378C16.6349 20.5971 15.9455 20.6648 15.2805 20.5322C14.6155 20.3997 14.0047 20.073 13.5254 19.5933C13.0461 19.1137 12.7198 18.5027 12.5878 17.8376C12.4557 17.1725 12.5238 16.4832 12.7835 15.8568C13.0433 15.2305 13.4829 14.6952 14.0468 14.3187C14.6107 13.9421 15.2736 13.7413 15.9517 13.7415C16.8607 13.7428 17.732 14.1046 18.3746 14.7476C19.0171 15.3906 19.3783 16.2622 19.3789 17.1711ZM18.1789 17.1711C18.1789 16.7304 18.0482 16.2995 17.8033 15.933C17.5584 15.5665 17.2103 15.2809 16.803 15.1123C16.3958 14.9436 15.9476 14.8996 15.5153 14.9857C15.083 15.0717 14.686 15.2841 14.3744 15.5959C14.0628 15.9076 13.8506 16.3048 13.7648 16.7371C13.6789 17.1695 13.7232 17.6176 13.8921 18.0247C14.0609 18.4319 14.3467 18.7799 14.7134 19.0246C15.08 19.2693 15.5109 19.3998 15.9517 19.3995C16.5423 19.3986 17.1084 19.1635 17.526 18.7457C17.9435 18.328 18.1783 17.7618 18.1789 17.1711ZM10.8961 15.2943H6.42012C6.26099 15.2943 6.10837 15.2311 5.99585 15.1186C5.88333 15.0061 5.82012 14.8535 5.82012 14.6943V5.20234C5.82012 5.04321 5.88333 4.8906 5.99585 4.77808C6.10837 4.66556 6.26099 4.60234 6.42012 4.60234H16.5241C16.6832 4.60234 16.8359 4.66556 16.9484 4.77808C17.0609 4.8906 17.1241 5.04321 17.1241 5.20234V12.2703C17.1241 12.4295 17.1873 12.5821 17.2999 12.6946C17.4124 12.8071 17.565 12.8703 17.7241 12.8703C17.8832 12.8703 18.0359 12.8071 18.1484 12.6946C18.2609 12.5821 18.3241 12.4295 18.3241 12.2703V5.20234C18.3235 4.72515 18.1336 4.26768 17.7962 3.93025C17.4588 3.59282 17.0013 3.40298 16.5241 3.40234H6.42012C5.94292 3.40298 5.48545 3.59282 5.14803 3.93025C4.8106 4.26768 4.62075 4.72515 4.62012 5.20234V14.6943C4.62075 15.1715 4.8106 15.629 5.14803 15.9664C5.48545 16.3039 5.94292 16.4937 6.42012 16.4943H10.8961C11.0552 16.4943 11.2079 16.4311 11.3204 16.3186C11.4329 16.2061 11.4961 16.0535 11.4961 15.8943C11.4961 15.7352 11.4329 15.5826 11.3204 15.4701C11.2079 15.3576 11.0552 15.2943 10.8961 15.2943ZM15.9517 15.2943C15.7926 15.2943 15.64 15.3576 15.5275 15.4701C15.4149 15.5826 15.3517 15.7352 15.3517 15.8943V16.5711H15.0337C14.8746 16.5711 14.722 16.6344 14.6095 16.7469C14.4969 16.8594 14.4337 17.012 14.4337 17.1711C14.4337 17.3303 14.4969 17.4829 14.6095 17.5954C14.722 17.7079 14.8746 17.7711 15.0337 17.7711H15.9517C16.1108 17.7711 16.2635 17.7079 16.376 17.5954C16.4885 17.4829 16.5517 17.3303 16.5517 17.1711V15.8943C16.5517 15.7352 16.4885 15.5826 16.376 15.4701C16.2635 15.3576 16.1108 15.2943 15.9517 15.2943Z" fill="#191E3A"/>
</g>
</svg>
