<svg width="24" height="24" viewBox="0 0 24 24" fill="none" xmlns="http://www.w3.org/2000/svg">
<g id="home">
<path id="Icon" fill-rule="evenodd" clip-rule="evenodd" d="M13.5332 0.860502C12.5299 0.582958 11.4701 0.582958 10.4669 0.860502C9.86129 1.02804 9.31342 1.32406 8.70819 1.73949C8.11594 2.146 7.42925 2.69536 6.55686 3.39328L6.53394 3.41162L4.53394 5.01162L4.44404 5.08352L4.44403 5.08353C3.4273 5.8967 2.8015 6.3972 2.34453 7.0276C1.94025 7.58531 1.63947 8.21112 1.45653 8.8752C1.24973 9.62585 1.24984 10.4272 1.25001 11.7291L1.25002 11.8442V16.9992C1.25002 20.1749 3.82438 22.7492 7.00002 22.7492C8.5188 22.7492 9.75002 21.518 9.75002 19.9992V15.9992C9.75002 14.7565 10.7574 13.7492 12 13.7492C13.2427 13.7492 14.25 14.7565 14.25 15.9992V19.9992C14.25 21.518 15.4812 22.7492 17 22.7492C20.1757 22.7492 22.75 20.1749 22.75 16.9992V11.8442L22.75 11.7291C22.7502 10.4272 22.7503 9.62585 22.5435 8.8752C22.3606 8.21112 22.0598 7.58531 21.6555 7.0276C21.1985 6.39719 20.5727 5.89669 19.556 5.08352L19.4661 5.01162L17.4661 3.41162L17.4432 3.39329C16.5708 2.69537 15.8841 2.146 15.2918 1.73949C14.6866 1.32406 14.1388 1.02804 13.5332 0.860502Z" fill="#191E3A"/>
</g>
</svg>
