<svg width="54" height="53" viewBox="0 0 54 53" fill="none" xmlns="http://www.w3.org/2000/svg">
<g id="Property 1=dis_active" filter="url(#filter0_d_2_64287)">
<path id="Icon" fill-rule="evenodd" clip-rule="evenodd" d="M27.0207 13.2337C27.5968 12.6576 28.3781 12.334 29.1928 12.334C31.398 12.334 32.8848 14.5888 32.0161 16.6157L30.9681 19.0612C30.7322 19.6117 30.5752 19.9792 30.475 20.2639C30.3746 20.549 30.3671 20.656 30.368 20.6919C30.3774 21.074 30.6038 21.4173 30.9513 21.5765C30.984 21.5915 31.0853 21.6268 31.3869 21.6468C31.688 21.6668 32.0877 21.6673 32.6865 21.6673H34.2081H34.2543C35.5001 21.6673 36.4998 21.6673 37.3004 21.7364C38.1204 21.8071 38.8365 21.9567 39.477 22.3209C40.4858 22.8945 41.2637 23.8012 41.6772 24.8854C41.9398 25.5739 41.9787 26.3044 41.924 27.1257C41.8705 27.9275 41.7185 28.9154 41.5291 30.1467L41.5291 30.1467L41.522 30.1925L40.8246 34.7259L40.8187 34.7643C40.6755 35.6946 40.5596 36.4484 40.4178 37.0576C40.2713 37.6874 40.0822 38.2345 39.7572 38.7328C39.2371 39.5299 38.5002 40.1621 37.6333 40.5549C37.0914 40.8005 36.5219 40.9041 35.8771 40.9532C35.2535 41.0007 34.4909 41.0007 33.5498 41.0006H33.5106H24.068H24.0251H24.025C22.9413 41.0007 22.0672 41.0007 21.3593 40.9428C20.6305 40.8833 19.9903 40.7575 19.398 40.4557C18.4572 39.9763 17.6923 39.2114 17.2129 38.2706C16.9111 37.6783 16.7853 37.0381 16.7258 36.3093C16.668 35.6014 16.668 34.7273 16.668 33.6435V33.6435L16.668 33.6006V29.3026L16.668 29.1652C16.6678 27.3393 16.6677 26.2502 16.9166 25.2134C17.1371 24.295 17.5007 23.4171 17.9942 22.6119C18.5513 21.7027 19.3216 20.9326 20.6128 19.6416L20.7099 19.5445L27.0207 13.2337ZM14.668 22.6673C14.668 22.115 14.2203 21.6673 13.668 21.6673C13.1157 21.6673 12.668 22.115 12.668 22.6673L12.668 38.6673C12.668 39.2196 13.1157 39.6673 13.668 39.6673C14.2203 39.6673 14.668 39.2196 14.668 38.6673L14.668 22.6673Z" fill="#FC5921"/>
</g>
<defs>
<filter id="filter0_d_2_64287" x="-1" y="0" width="56" height="56" filterUnits="userSpaceOnUse" color-interpolation-filters="sRGB">
<feFlood flood-opacity="0" result="BackgroundImageFix"/>
<feColorMatrix in="SourceAlpha" type="matrix" values="0 0 0 0 0 0 0 0 0 0 0 0 0 0 0 0 0 0 127 0" result="hardAlpha"/>
<feOffset/>
<feGaussianBlur stdDeviation="6"/>
<feColorMatrix type="matrix" values="0 0 0 0 0 0 0 0 0 0 0 0 0 0 0 0 0 0 0.26 0"/>
<feBlend mode="normal" in2="BackgroundImageFix" result="effect1_dropShadow_2_64287"/>
<feBlend mode="normal" in="SourceGraphic" in2="effect1_dropShadow_2_64287" result="shape"/>
</filter>
</defs>
</svg>
