<svg width="54" height="53" viewBox="0 0 54 53" fill="none" xmlns="http://www.w3.org/2000/svg">
<g id="Property 1=dis_inactive" filter="url(#filter0_d_2_64278)">
<path id="Icon" fill-rule="evenodd" clip-rule="evenodd" d="M28.4349 14.6479C28.6359 14.4469 28.9085 14.334 29.1928 14.334C29.9622 14.334 30.4809 15.1207 30.1779 15.8279L29.1298 18.2734L29.1165 18.3044C28.8973 18.8157 28.7135 19.2446 28.5885 19.5995C28.4612 19.9611 28.3588 20.3411 28.3686 20.7412C28.3969 21.8874 29.076 22.9173 30.1184 23.3948C30.4823 23.5615 30.8719 23.617 31.2544 23.6424C31.6299 23.6673 32.0965 23.6673 32.6528 23.6673H32.6865H34.2081C35.5108 23.6673 36.424 23.6682 37.1284 23.729C37.8233 23.7889 38.2095 23.9008 38.4884 24.0595C39.0937 24.4036 39.5604 24.9476 39.8086 25.5982C39.9229 25.898 39.9748 26.2967 39.9284 26.9926C39.8813 27.6981 39.7434 28.6008 39.5453 29.8884L38.8478 34.4218C38.6974 35.3997 38.5923 36.078 38.4699 36.6044C38.3502 37.1184 38.2292 37.4146 38.0821 37.6399C37.7701 38.1182 37.328 38.4975 36.8078 38.7332C36.5628 38.8443 36.2516 38.9189 35.7253 38.959C35.1865 39 34.5001 39.0007 33.5106 39.0007H24.068C22.9314 39.0007 22.1391 38.9999 21.5222 38.9495C20.917 38.9 20.5694 38.8079 20.306 38.6737C19.7415 38.3861 19.2826 37.9271 18.9949 37.3626C18.8608 37.0993 18.7686 36.7516 18.7191 36.1464C18.6687 35.5296 18.668 34.7373 18.668 33.6007V29.3026C18.668 27.2983 18.6744 26.4591 18.8614 25.6802C19.0329 24.966 19.3157 24.2832 19.6995 23.6569C20.118 22.9739 20.7068 22.376 22.1241 20.9587L28.4349 14.6479ZM29.1928 12.334C28.3781 12.334 27.5968 12.6576 27.0207 13.2337L20.7099 19.5445L20.6128 19.6416L20.6128 19.6416C19.3216 20.9326 18.5513 21.7027 17.9942 22.6119C17.5007 23.4171 17.1371 24.295 16.9166 25.2134C16.6677 26.2502 16.6678 27.3394 16.668 29.1652L16.668 29.3026V33.6007L16.668 33.6435C16.668 34.7272 16.668 35.6014 16.7258 36.3093C16.7853 37.0381 16.9111 37.6783 17.2129 38.2706C17.6923 39.2114 18.4572 39.9763 19.398 40.4557C19.9903 40.7575 20.6305 40.8833 21.3593 40.9428C22.0672 41.0007 22.9414 41.0007 24.0251 41.0007H24.0252H24.068H33.5106H33.5497C34.4909 41.0007 35.2535 41.0007 35.8771 40.9532C36.5219 40.9041 37.0914 40.8005 37.6333 40.5549C38.5002 40.1621 39.2371 39.5299 39.7572 38.7328C40.0822 38.2345 40.2713 37.6874 40.4178 37.0576C40.5596 36.4485 40.6755 35.6948 40.8186 34.7646L40.8246 34.7259L41.522 30.1925L41.529 30.1469L41.529 30.1469C41.7185 28.9155 41.8705 27.9275 41.924 27.1257C41.9787 26.3044 41.9398 25.5739 41.6772 24.8854C41.2637 23.8012 40.4858 22.8945 39.477 22.3209C38.8365 21.9567 38.1204 21.8071 37.3004 21.7364C36.4998 21.6673 35.5002 21.6673 34.2544 21.6673H34.2081H32.6865C32.0877 21.6673 31.688 21.6668 31.3869 21.6468C31.0853 21.6268 30.984 21.5915 30.9513 21.5765C30.6038 21.4173 30.3774 21.074 30.368 20.6919C30.3671 20.656 30.3746 20.549 30.475 20.2639C30.5752 19.9792 30.7322 19.6117 30.9681 19.0612L32.0161 16.6157C32.8848 14.5888 31.398 12.334 29.1928 12.334ZM14.668 22.6673C14.668 22.115 14.2203 21.6673 13.668 21.6673C13.1157 21.6673 12.668 22.115 12.668 22.6673L12.668 38.6673C12.668 39.2196 13.1157 39.6673 13.668 39.6673C14.2203 39.6673 14.668 39.2196 14.668 38.6673L14.668 22.6673Z" fill="white"/>
</g>
<defs>
<filter id="filter0_d_2_64278" x="-1" y="0" width="56" height="56" filterUnits="userSpaceOnUse" color-interpolation-filters="sRGB">
<feFlood flood-opacity="0" result="BackgroundImageFix"/>
<feColorMatrix in="SourceAlpha" type="matrix" values="0 0 0 0 0 0 0 0 0 0 0 0 0 0 0 0 0 0 127 0" result="hardAlpha"/>
<feOffset/>
<feGaussianBlur stdDeviation="6"/>
<feColorMatrix type="matrix" values="0 0 0 0 0 0 0 0 0 0 0 0 0 0 0 0 0 0 0.26 0"/>
<feBlend mode="normal" in2="BackgroundImageFix" result="effect1_dropShadow_2_64278"/>
<feBlend mode="normal" in="SourceGraphic" in2="effect1_dropShadow_2_64278" result="shape"/>
</filter>
</defs>
</svg>
