<svg width="14" height="14" viewBox="0 0 14 14" fill="none" xmlns="http://www.w3.org/2000/svg">
<g id="thumbs-up">
<path id="Icon" fill-rule="evenodd" clip-rule="evenodd" d="M7.00785 0.540098C7.25988 0.288071 7.6017 0.146484 7.95812 0.146484C8.92291 0.146484 9.57339 1.13296 9.19334 2.01975L8.73481 3.08966C8.6316 3.33047 8.56294 3.49126 8.51908 3.6158C8.47515 3.74055 8.4719 3.78735 8.47229 3.80309C8.4764 3.97025 8.57544 4.12045 8.72746 4.19008C8.74178 4.19663 8.78608 4.21208 8.91804 4.22084C9.0498 4.22959 9.22463 4.22982 9.48662 4.22982H10.1523H10.1726C10.7176 4.22981 11.1549 4.22981 11.5052 4.26003C11.864 4.29099 12.1773 4.3564 12.4575 4.51575C12.8988 4.76671 13.2391 5.16338 13.4201 5.63775C13.535 5.93895 13.552 6.25855 13.528 6.61786C13.5046 6.96862 13.4381 7.40085 13.3552 7.93951L13.3552 7.93955L13.3522 7.9596L13.047 9.94293L13.0444 9.95986L13.0444 9.95992C12.9818 10.3669 12.9311 10.6966 12.8691 10.9631C12.805 11.2386 12.7223 11.478 12.58 11.696C12.3525 12.0447 12.0301 12.3213 11.6508 12.4931C11.4137 12.6006 11.1646 12.6459 10.8825 12.6674C10.6097 12.6882 10.2761 12.6882 9.8643 12.6882H9.86426H9.84717H5.71602H5.69728C5.22312 12.6882 4.84069 12.6882 4.53099 12.6629C4.21212 12.6368 3.93204 12.5818 3.67291 12.4497C3.26131 12.24 2.92666 11.9054 2.71694 11.4938C2.58491 11.2346 2.52986 10.9545 2.50381 10.6357C2.47851 10.326 2.47851 9.94353 2.47852 9.46938L2.47852 9.45065V7.57025L2.47851 7.51016C2.47845 6.71133 2.47841 6.23482 2.58731 5.78121C2.68376 5.37944 2.84286 4.99536 3.05874 4.64306C3.30249 4.24531 3.63946 3.90839 4.20436 3.34358L4.24686 3.30109L7.00785 0.540098ZM1.60352 4.66732C1.60352 4.42569 1.40764 4.22982 1.16602 4.22982C0.924391 4.22982 0.728516 4.42569 0.728516 4.66732L0.728516 11.6673C0.728516 11.9089 0.924391 12.1048 1.16602 12.1048C1.40764 12.1048 1.60352 11.9089 1.60352 11.6673L1.60352 4.66732Z" fill="white"/>
</g>
</svg>
