<svg width="24" height="24" viewBox="0 0 24 24" fill="none" xmlns="http://www.w3.org/2000/svg">
<g id="57187655316352404724514 1">
<path id="Vector" d="M22.6023 3.20165C22.4787 3.10841 22.3352 3.04514 22.183 3.01684C22.0308 2.98854 21.8742 2.99599 21.7254 3.03858L15.0227 4.95337L9.31619 3.05137C9.12508 2.9877 8.9192 2.98327 8.72556 3.03867L1.72534 5.03868C1.51638 5.09831 1.33253 5.2244 1.20164 5.39789C1.07076 5.57137 0.999972 5.78278 1 6.00009V20.0001C0.999948 20.1549 1.03585 20.3076 1.10486 20.4461C1.17387 20.5847 1.27412 20.7053 1.3977 20.7985C1.52128 20.8917 1.66481 20.955 1.817 20.9833C1.96918 21.0115 2.12586 21.0041 2.27467 20.9615L8.97733 19.0467L12.6839 20.2821C12.8086 20.3242 12.9404 20.3413 13.0718 20.3323C13.2032 20.3234 13.3315 20.2886 13.4493 20.2299C13.5672 20.1712 13.6723 20.0899 13.7587 19.9905C13.8451 19.8911 13.9109 19.7757 13.9525 19.6507C13.9942 19.5259 14.0107 19.394 14.0012 19.2626C13.9918 19.1313 13.9565 19.0032 13.8973 18.8855C13.8382 18.7679 13.7565 18.6631 13.6567 18.5771C13.557 18.4912 13.4413 18.4257 13.3162 18.3846L10 17.2793V5.38762L14 6.72089V8.00011C14 8.26533 14.1054 8.51967 14.2929 8.70722C14.4805 8.89476 14.7348 9.00014 15 9.00014C15.2652 9.00014 15.5196 8.89476 15.7072 8.70722C15.8947 8.51967 16 8.26533 16 8.00011V6.75426L21 5.32579V9.00009C21 9.26531 21.1054 9.51965 21.2929 9.7072C21.4804 9.89475 21.7348 10.0001 22 10.0001C22.2652 10.0001 22.5196 9.89475 22.7072 9.7072C22.8947 9.51965 23 9.26531 23 9.00009V4.00008C23 3.84529 22.9641 3.69261 22.8951 3.55406C22.8261 3.41552 22.7259 3.29488 22.6023 3.20165ZM3.00002 6.7545L8.00003 5.32598V17.2459L3.00002 18.6744V6.7545Z" fill="#3656BB"/>
<path id="Vector_2" d="M21.3335 16.9185C21.9257 15.9783 22.1507 14.8528 21.9654 13.7572C21.7802 12.6615 21.1977 11.6726 20.3292 10.9793C19.4608 10.2861 18.3674 9.93715 17.2579 9.99926C16.1484 10.0614 15.1008 10.5302 14.3152 11.316C13.5295 12.1018 13.061 13.1496 12.9992 14.2591C12.9374 15.3686 13.2866 16.4619 13.98 17.3302C14.6735 18.1984 15.6627 18.7807 16.7583 18.9656C17.854 19.1506 18.9794 18.9253 19.9195 18.3328L21.2939 19.7073C21.4814 19.8948 21.7357 20.0001 22.001 20.0001C22.2661 20.0001 22.5205 19.8948 22.708 19.7073C22.8955 19.5198 23.0009 19.2654 23.0009 19.0002C23.0009 18.735 22.8955 18.4807 22.708 18.2932L21.3335 16.9185ZM20.0009 14.5001C20.0009 14.9945 19.8543 15.4778 19.5796 15.889C19.3049 16.3001 18.9145 16.6205 18.4576 16.8097C18.0008 16.9989 17.4982 17.0484 17.0132 16.9519C16.5283 16.8555 16.0829 16.6174 15.7332 16.2678C15.3836 15.9181 15.1455 15.4727 15.049 14.9877C14.9526 14.5028 15.0021 14.0001 15.1913 13.5433C15.3805 13.0865 15.7009 12.6961 16.112 12.4214C16.5232 12.1466 17.0065 12 17.5009 12C17.8292 12 18.1543 12.0647 18.4576 12.1903C18.761 12.316 19.0365 12.5001 19.2687 12.7323C19.5008 12.9644 19.685 13.24 19.8106 13.5433C19.9363 13.8466 20.0009 14.1717 20.0009 14.5V14.5001Z" fill="#3656BB"/>
</g>
</svg>
