<svg width="106" height="137" viewBox="0 0 106 137" fill="none" xmlns="http://www.w3.org/2000/svg">
<g clip-path="url(#clip0_2_41133)">
<path d="M55.2947 0C55.6945 0.0926374 56.1047 0.132291 56.5148 0.117949C61.0488 0.4367 65.5194 1.36721 69.8059 2.88438C70.2891 3.05326 70.2838 3.06666 69.9287 3.44732C69.8443 3.53742 69.733 3.59742 69.6115 3.61823C69.4901 3.63903 69.3652 3.61949 69.2559 3.56258C68.033 3.15513 66.8022 2.75839 65.5553 2.44475C60.7306 1.16931 55.7383 0.651178 50.7557 0.908741C43.2078 1.3028 36.0176 3.09615 29.4148 6.84102C16.4548 14.2074 8.02306 25.0587 4.57347 39.6951C3.52895 44.1127 3.12696 48.6589 3.38 53.1921C4.03681 65.1103 8.30073 75.538 16.2706 84.4137C16.356 84.5102 16.4441 84.604 16.5376 84.7005C16.7752 84.9686 16.7565 85.1375 16.4842 85.376C16.4519 85.4156 16.4107 85.4467 16.3639 85.4669C16.3172 85.4871 16.2662 85.4958 16.2155 85.4921C16.1647 85.4884 16.1156 85.4725 16.0722 85.4458C16.0288 85.4191 15.9924 85.3823 15.9662 85.3385C9.07157 77.8615 4.56996 68.4795 3.04359 58.406C2.47963 54.7712 2.33717 51.0831 2.61906 47.4153C3.26252 39.1053 5.4866 31.251 9.98014 24.1848C16.6897 13.6311 25.8557 6.1655 37.8171 2.35629C41.4396 1.21049 45.1803 0.482909 48.9669 0.187646C49.5302 0.144755 50.0642 0.112587 50.6249 0.0696969C50.689 0.0696969 50.7798 0.112587 50.8145 0.0053613L55.2947 0Z" fill="#FA4C10"/>
<path d="M103.639 52.5613C103.546 52.9626 103.508 53.3747 103.524 53.7863C102.766 65.088 98.8867 75.1243 91.5096 83.748C86.9199 89.1093 81.5186 93.4412 75.1614 96.5239C70.6252 98.7195 65.7913 100.232 60.8158 101.011C57.1716 101.578 53.4765 101.742 49.7969 101.499C46.8066 101.3 43.8385 100.846 40.9246 100.143C40.6843 100.087 40.3906 100.06 40.4413 99.6764C40.492 99.2931 40.6149 99.1912 40.9913 99.285C45.4785 100.411 50.1005 100.901 54.7229 100.741C61.8304 100.499 68.6227 98.8936 74.9665 95.6474C88.2167 88.8903 96.9065 78.3205 101.036 63.938C101.931 60.7014 102.464 57.3747 102.625 54.0196C102.745 51.942 102.817 49.8619 102.742 47.7844C102.551 42.8418 101.547 37.9651 99.7705 33.3517C97.4385 27.3024 93.997 21.7458 89.6246 16.9703C89.5899 16.9301 89.5525 16.8899 89.5151 16.8523C89.1948 16.5441 89.1814 16.4502 89.4217 16.2036C89.662 15.957 89.8275 15.9355 90.1319 16.2787C97.0222 23.7369 101.522 33.1011 103.049 43.1576C103.341 44.989 103.519 46.8368 103.583 48.6904C103.583 48.7574 103.554 48.8432 103.642 48.8888L103.639 52.5613Z" fill="#FA4C10"/>
<path d="M57.3629 55.9342H43.9491C43.4712 55.9342 43.3857 55.8458 43.383 55.3713C43.383 54.4384 43.383 53.4949 43.383 52.5727C43.367 50.2486 43.2949 47.9218 43.3296 45.603C43.4765 35.8669 46.4909 27.1467 52.6211 19.5685C57.291 13.6876 63.7801 9.53724 71.0625 7.77368C73.4807 7.18794 75.9601 6.89544 78.4476 6.90247C78.9415 6.90247 79.027 6.99093 79.0163 7.48417C78.9202 11.5034 78.825 15.5243 78.7306 19.5471C78.7306 19.9653 78.6398 20.0591 78.226 20.1556C73.6444 21.2279 69.3938 23.0185 65.6211 25.8761C62.9675 27.8281 60.7924 30.3622 59.2613 33.2854C57.9591 35.7842 57.3218 38.5783 57.411 41.3971C57.4244 41.8742 57.5178 41.9707 58.0064 41.9707H70.5232H70.8436C71.212 41.9707 71.3242 42.0806 71.3268 42.4533C71.3268 43.2574 71.3268 44.0831 71.3268 44.898C71.3268 48.2935 71.3268 51.689 71.3268 55.0845C71.3268 55.9476 71.3268 55.9476 70.4885 55.9476H57.3629V55.9342Z" fill="#3656B9"/>
<path d="M21.3777 88.0066C21.3777 85.7584 21.3777 83.5076 21.3777 81.254C21.3777 80.8091 21.4391 80.7447 21.8636 80.7394C28.0739 80.6375 33.1816 78.1579 37.304 73.5338C40.564 69.8827 42.4917 65.6044 43.3167 60.798C43.4128 60.2377 43.4395 60.2109 43.9842 60.2109H56.1165C56.6291 60.2109 56.7306 60.3101 56.6879 60.7712C56.411 64.4627 55.5372 68.0843 54.1007 71.4938C50.5096 79.7663 44.7959 86.106 36.8741 90.3951C32.7445 92.6412 28.2749 94.1898 23.6445 94.979C23.1105 95.0728 22.5578 95.1961 22.0078 95.2604C21.4578 95.3248 21.3777 95.247 21.3777 94.7243C21.3741 92.4761 21.3741 90.2369 21.3777 88.0066Z" fill="#3656B9"/>
<path d="M76.5978 47.2026C76.5631 43.6883 76.6272 40.1713 76.6726 36.657C76.6847 35.8355 77.0019 35.0482 77.5619 34.4492C78.1219 33.8503 78.8845 33.4828 79.7003 33.4187C80.6919 33.3498 81.6877 33.375 82.6746 33.4938C84.0096 33.66 85.1977 34.9387 85.3286 36.2844C85.3563 36.5515 85.3705 36.8199 85.3713 37.0886C85.3713 37.5577 85.4781 37.6917 85.9427 37.6917C86.6592 37.68 87.375 37.7429 88.0786 37.8793C88.7964 38.0043 89.4467 38.3807 89.9141 38.9417C90.3814 39.5027 90.6355 40.212 90.6311 40.9433C90.6311 42.0451 90.7486 43.1468 90.6685 44.2486C90.6391 44.6855 90.8287 44.8517 91.2746 44.8169C91.848 44.7523 92.428 44.7767 92.994 44.8892C94.3904 45.2029 95.397 46.4655 95.3142 47.8004C95.2845 48.5087 94.999 49.182 94.5112 49.6945C94.0233 50.207 93.3664 50.5238 92.6629 50.5856C92.209 50.6312 91.7471 50.6366 91.2906 50.6446C90.834 50.6526 90.6765 50.7652 90.6711 51.2531C90.6578 52.2905 90.567 53.3333 90.6525 54.3707C90.7913 56.0327 89.2267 57.8287 87.4085 57.7188C86.8985 57.6894 86.3859 57.7188 85.8732 57.7188C85.4861 57.7188 85.39 57.8341 85.382 58.2255C85.3633 59.0833 85.2511 59.917 84.7358 60.6381C84.4592 61.0424 84.0907 61.3749 83.6608 61.6079C83.2309 61.841 82.7519 61.968 82.2635 61.9784C81.4437 62.0293 80.6215 62.0293 79.8018 61.9784C77.9328 61.8283 76.8354 60.6542 76.6886 58.7777C76.5791 57.3435 76.6245 55.9067 76.6138 54.4726C76.5818 52.0466 76.5978 49.6259 76.5978 47.2026Z" fill="#3656B9"/>
<path d="M37.8322 47.6027C37.8055 50.7658 37.8322 53.9263 37.8081 57.0895C37.8144 57.7649 37.7779 58.44 37.6987 59.1107C37.4904 60.6574 36.5266 61.7056 34.9753 61.912C33.8949 62.0603 32.799 62.0531 31.7206 61.8905C31.0325 61.7863 30.3998 61.4514 29.9252 60.9404C29.4507 60.4294 29.1622 59.7723 29.1068 59.0758C29.0774 58.8078 29.064 58.5397 29.056 58.2717C29.056 57.7811 28.9813 57.7087 28.5033 57.706C27.9693 57.706 27.4354 57.706 26.9014 57.706C26.208 57.6919 25.5385 57.4495 24.9958 57.016C24.4531 56.5825 24.0672 55.982 23.8977 55.3069C23.8377 55.0793 23.8054 54.8452 23.8015 54.6099C23.8015 53.5055 23.7695 52.401 23.7588 51.2966C23.7588 50.7069 23.668 50.6184 23.0913 50.6291C22.555 50.6483 22.0181 50.6115 21.4894 50.5192C20.7895 50.3935 20.1604 50.013 19.7225 49.4507C19.2845 48.8883 19.0685 48.1836 19.1158 47.4713C19.1869 46.7619 19.5088 46.1015 20.0231 45.6097C20.5373 45.118 21.21 44.8274 21.9192 44.7907C22.3224 44.7719 22.7202 44.7907 23.1341 44.7907C23.6494 44.8041 23.7508 44.7129 23.7508 44.1848C23.7508 43.4879 23.7295 42.7909 23.7508 42.0939C23.7329 41.4831 23.7794 40.8721 23.8897 40.2711C24.0418 39.5793 24.4192 38.9581 24.9622 38.5057C25.5051 38.0533 26.1828 37.7954 26.888 37.7727C27.4621 37.7352 28.0361 37.7003 28.6128 37.6574C29.016 37.628 29.0694 37.5824 29.0534 37.1642C29.0123 36.699 29.0638 36.2302 29.205 35.7851C29.3462 35.3401 29.5742 34.9277 29.8757 34.572C30.1448 34.2314 30.4846 33.9537 30.8715 33.7583C31.2583 33.5629 31.683 33.4546 32.1158 33.4408C33.0743 33.4167 34.0355 33.3282 34.9913 33.4569C35.7502 33.555 36.4482 33.9251 36.957 34.4989C37.4657 35.0727 37.7509 35.8117 37.7601 36.5798C37.7975 39.1211 37.8188 41.6597 37.8402 44.2009C37.8402 45.3321 37.8322 46.4687 37.8322 47.6027Z" fill="#3656B9"/>
<path d="M53.1643 5.14741C53.9893 5.12328 55.0119 5.19566 56.0345 5.23051C56.2107 5.23051 56.3282 5.28144 56.3175 5.48517C56.3068 5.6889 56.2721 5.83097 56.0505 5.8551C55.9759 5.8618 55.9009 5.8618 55.8263 5.8551C52.8742 5.68542 49.9127 5.81294 46.986 6.23575C42.1187 6.88179 37.4436 8.20335 33.0702 10.4497C23.2127 15.5135 15.9825 23.1024 11.585 33.3452C11.5185 33.4903 11.4675 33.6422 11.4329 33.7982C11.3928 33.9912 11.302 34.0904 11.1018 34.0341C10.9015 33.9778 10.7387 33.8733 10.8134 33.624C10.8557 33.5033 10.9047 33.3852 10.9603 33.2701C13.7252 26.6211 18.015 20.7217 23.4806 16.0522C28.9461 11.3828 35.4328 8.07538 42.4124 6.39927C45.9318 5.54161 49.5428 5.12117 53.1643 5.14741Z" fill="#FA4C10"/>
<path d="M53.1029 96.3902C51.6531 96.3902 50.2034 96.3178 48.7589 96.1838C48.524 96.1597 48.4011 96.0685 48.4198 95.8219C48.4385 95.5753 48.6201 95.5351 48.8337 95.5538C52.2117 95.8894 55.6175 95.821 58.9795 95.3501C66.0896 94.4333 72.6363 92.0073 78.5289 87.8845C83.5164 84.3997 87.7563 80.1508 91.035 74.9798C91.1082 74.8741 91.1733 74.763 91.2299 74.6474C91.3421 74.4115 91.5103 74.3794 91.7319 74.4786C91.9535 74.5777 91.9695 74.685 91.844 74.878C89.8028 78.1248 87.3709 81.1068 84.6031 83.7563C76.1084 91.8752 64.8258 96.3977 53.0976 96.3848L53.1029 96.3902Z" fill="#FA4C10"/>
<path d="M11.9641 119.355H5.90061L4.29863 127.781H0L3.5991 108.748H15.3736L14.9945 110.71H7.5186L6.25304 117.412H12.3432L11.9641 119.355Z" fill="#3656BA"/>
<path d="M20.8413 115.091L19.298 123.31C19.2312 123.595 19.1954 123.888 19.1912 124.181C19.1912 124.942 19.4342 125.789 20.3019 125.789C21.5194 125.789 22.7369 124.05 23.9811 120.763L25.5244 121.658C24.144 125.411 22.1415 128.092 18.6492 128.092C16.2676 128.092 15.1035 126.679 15.1035 124.639C15.1557 123.459 15.3094 122.286 15.5627 121.133L16.6895 115.091H20.8413ZM19.84 109.22C20.073 109.21 20.3055 109.249 20.5228 109.334C20.7402 109.419 20.9377 109.548 21.103 109.713C21.2682 109.878 21.3976 110.076 21.4831 110.294C21.5686 110.512 21.6082 110.745 21.5995 110.979C21.589 111.648 21.3158 112.286 20.8394 112.754C20.363 113.223 19.7218 113.483 19.0551 113.48C18.819 113.494 18.5825 113.459 18.361 113.376C18.1395 113.292 17.938 113.163 17.7695 112.997C17.601 112.83 17.4694 112.629 17.3831 112.408C17.2968 112.187 17.2579 111.95 17.2689 111.713C17.2737 111.38 17.3442 111.051 17.4762 110.745C17.6082 110.438 17.7992 110.162 18.0381 109.93C18.2771 109.698 18.5593 109.516 18.8685 109.395C19.1777 109.273 19.5079 109.213 19.84 109.22Z" fill="#3656BA"/>
<path d="M25.0651 112.562H29.2062L28.7176 115.09H31.8574L31.5077 117.074H28.3411L27.177 123.309C27.1231 123.569 27.0954 123.834 27.0942 124.1C27.0942 125.132 27.5828 125.783 28.4746 125.783C30.0445 125.783 31.4116 123.937 32.589 120.757L34.1322 121.653C33.7317 122.941 33.1189 124.154 32.3193 125.239C30.7174 127.25 29.0967 128.094 26.8513 128.094C24.2534 128.094 22.9531 126.486 22.9531 124.507C23.0024 123.345 23.1561 122.189 23.4124 121.055L24.2133 117.087H22.9932L23.3723 115.104H24.5631L25.0651 112.562Z" fill="#3656BA"/>
<path d="M49.7263 121.64C49.1322 123.106 48.2051 124.412 47.0189 125.455C45.3662 127.004 42.9045 128.093 39.543 128.093C34.4541 128.093 31.6934 124.94 31.6934 120.809C31.6934 113.84 36.1575 108.443 41.9513 108.443C45.4436 108.443 47.0403 110.183 47.0403 111.976C47.0403 113.443 46.0924 113.987 44.9283 113.987C44.5324 113.989 44.1389 113.925 43.7642 113.797C43.9454 113.328 44.0465 112.832 44.0633 112.33C44.0633 111.052 43.3317 110.4 41.978 110.4C39.0811 110.4 36.0507 114.829 36.0507 120.699C36.0507 124.015 37.7568 126.136 40.8567 126.136C44.0606 126.136 46.9468 123.825 48.167 120.756L49.7263 121.64Z" fill="#3656BA"/>
<path d="M52.892 115.091L51.3488 123.31C51.281 123.595 51.2443 123.887 51.2393 124.181C51.2393 124.942 51.485 125.789 52.35 125.789C53.5675 125.789 54.785 124.049 56.0319 120.763L57.5751 121.658C56.1948 125.411 54.1896 128.092 50.7 128.092C48.3157 128.092 47.1543 126.679 47.1543 124.639C47.2052 123.459 47.3588 122.286 47.6135 121.133L48.7509 115.101L52.892 115.091ZM51.8908 109.22C52.1244 109.211 52.3574 109.25 52.5751 109.335C52.7928 109.421 52.9906 109.551 53.1559 109.717C53.3212 109.882 53.4504 110.081 53.5355 110.3C53.6206 110.518 53.6597 110.752 53.6503 110.987C53.6398 111.656 53.3666 112.294 52.8902 112.762C52.4138 113.231 51.7726 113.491 51.1058 113.488C50.8697 113.503 50.633 113.467 50.4113 113.384C50.1897 113.301 49.9879 113.172 49.8194 113.005C49.6508 112.839 49.5191 112.638 49.433 112.417C49.3469 112.196 49.3083 111.958 49.3196 111.721C49.3231 111.387 49.3925 111.057 49.524 110.75C49.6554 110.442 49.8462 110.164 50.0853 109.932C50.3244 109.699 50.6071 109.517 50.9171 109.394C51.227 109.272 51.5579 109.213 51.8908 109.22Z" fill="#3656BA"/>
<path d="M59.1425 115.715C58.7364 117.716 58.2212 119.694 57.5992 121.639L57.5725 121.72L56.0293 120.824L56.056 120.744C56.6673 118.892 57.1201 116.992 57.4097 115.063C56.8757 114.846 56.299 114.436 56.299 113.621C56.3083 113.124 56.5075 112.65 56.8553 112.296C57.2032 111.942 57.6731 111.736 58.1679 111.721C59.0864 111.721 59.6017 112.318 59.6017 113.214C59.5961 113.423 59.5782 113.631 59.5483 113.838L62.9044 115.307C64.5812 116.042 65.2059 117.074 65.2059 118.323C65.2059 120.497 63.4464 122.13 63.4464 124.33C63.4389 124.515 63.4682 124.699 63.5326 124.872C63.597 125.044 63.6951 125.202 63.8212 125.337C63.9474 125.471 64.0989 125.578 64.2671 125.653C64.4352 125.727 64.6164 125.767 64.8001 125.77C66.3407 125.77 67.5315 124.357 68.8851 120.744L70.4284 121.639C69.4538 124.247 67.8038 128.073 63.3103 128.073C60.7124 128.073 59.3587 126.604 59.3587 124.43C59.3587 121.658 61.3612 119.294 61.3612 117.554C61.3612 116.822 61.0622 116.495 60.4668 116.251L59.1425 115.715Z" fill="#3656BA"/>
<path d="M76.6035 120.144C76.7854 119.619 76.8941 119.07 76.9265 118.514C76.9265 117.319 76.4139 116.804 75.5195 116.804C73.8134 116.804 71.9471 119.112 71.9471 122.291C71.9471 124.575 73.0845 126.152 75.5729 126.152C78.9584 126.152 81.583 123.651 82.7471 120.745L84.2903 121.64C83.7563 122.999 83.0167 124.141 81.5563 125.581C80.2026 126.921 77.9572 128.082 74.3821 128.082C70.297 128.082 67.8594 126.042 67.8594 122.538C67.8594 118.134 71.1087 114.791 75.4394 114.791C78.0907 114.791 79.9036 116.367 79.9036 118.297C79.9036 119.466 79.2815 120.335 77.7943 120.335C77.3895 120.339 76.9869 120.275 76.6035 120.144Z" fill="#3656BA"/>
<path d="M88.9196 107.494L85.9133 123.31C85.8421 123.65 85.8063 123.997 85.8065 124.345C85.8065 125.267 86.1295 125.784 86.9145 125.784C88.132 125.784 89.3522 124.044 90.5964 120.758L92.1396 121.653C90.6498 125.674 88.431 128.087 85.2645 128.087C82.8268 128.087 81.7188 126.591 81.7188 124.471C81.7188 123.667 81.935 122.433 82.178 121.128L84.7492 107.494H88.9196Z" fill="#3656BA"/>
<path d="M97.1761 114.791C100.07 114.791 101.614 116.314 101.614 118.297C101.614 120.852 99.3121 122.699 95.3071 122.699C94.7731 122.699 94.3326 122.672 93.6838 122.645C93.7906 124.902 95.1443 126.152 97.4725 126.152C100.506 126.152 103.266 123.597 104.457 120.745L106 121.64C104.97 124.248 102.156 128.074 96.255 128.074C92.1139 128.074 89.5801 126.063 89.5801 122.557C89.5801 118.027 92.9255 114.791 97.1761 114.791ZM93.7906 120.898H94.6049C97.0399 120.898 98.3936 119.458 98.3936 117.962C98.3936 117.204 97.9878 116.74 97.2562 116.74C95.7957 116.748 94.2525 118.351 93.7906 120.898Z" fill="#3656BA"/>
<path d="M5.5793 132.961L4.77831 136.773C4.77044 136.818 4.74567 136.859 4.70899 136.887C4.67232 136.915 4.62648 136.928 4.58074 136.923H4.00402C3.95808 136.924 3.91348 136.907 3.87854 136.877C3.86058 136.865 3.84541 136.848 3.83394 136.829C3.82246 136.81 3.81493 136.789 3.81179 136.767L3.19503 133.792C3.19503 133.738 3.16833 133.663 3.14964 133.564L3.10158 133.339H2.98143L2.89599 133.792L2.28724 136.767C2.27768 136.812 2.25197 136.851 2.21515 136.877C2.1777 136.907 2.13173 136.923 2.08432 136.923H1.51028C1.4639 136.924 1.41861 136.909 1.38213 136.88C1.36397 136.868 1.34847 136.852 1.33654 136.834C1.32461 136.815 1.31651 136.794 1.31271 136.773L0.511719 132.961H1.04571L1.66514 136.049C1.66514 136.108 1.67849 136.197 1.70519 136.317C1.72388 136.435 1.73456 136.51 1.7399 136.542H1.87073C1.9001 136.365 1.93214 136.202 1.96418 136.052L2.5756 133.13C2.58097 133.082 2.6041 133.039 2.64031 133.008C2.67651 132.977 2.72306 132.961 2.7705 132.964H3.32051C3.36783 132.961 3.41442 132.976 3.45034 133.007C3.48626 133.038 3.50866 133.082 3.51275 133.13L4.12684 136.052C4.16422 136.23 4.19092 136.394 4.20694 136.542H4.34845C4.38583 136.296 4.41253 136.135 4.42588 136.057L5.04798 132.961H5.5793Z" fill="#FB490C"/>
<path d="M10.2154 136.934H9.71349V135.033H7.89258V136.934H7.39062V132.961H7.89258V134.585H9.71349V132.961H10.2154V136.934Z" fill="#FB490C"/>
<path d="M13.0715 132.96C13.8511 132.96 14.4064 132.96 14.7669 132.992L14.7429 133.392H13.1596C13.1114 133.387 13.0626 133.392 13.0166 133.407C12.9706 133.422 12.9283 133.447 12.8926 133.48C12.8285 133.562 12.7979 133.666 12.8071 133.77V134.628H14.5106V135.035H12.8151V136.121C12.8151 136.378 12.93 136.507 13.1596 136.507H14.7429L14.7669 136.895C14.4144 136.917 13.8511 136.93 13.0715 136.93C12.8706 136.94 12.6734 136.874 12.5188 136.745C12.45 136.681 12.396 136.603 12.3605 136.516C12.325 136.429 12.3088 136.335 12.3132 136.241V133.646C12.3088 133.552 12.325 133.459 12.3605 133.372C12.396 133.285 12.45 133.206 12.5188 133.142C12.6737 133.014 12.871 132.949 13.0715 132.96Z" fill="#FB490C"/>
<path d="M18.0485 132.921C18.3958 132.888 18.744 132.974 19.0363 133.165C19.2286 133.328 19.322 133.629 19.322 134.063C19.3406 134.319 19.281 134.574 19.1512 134.795C19.0846 134.881 19.0003 134.952 18.904 135.002C18.8077 135.053 18.7016 135.082 18.5931 135.087V135.106C18.7214 135.146 18.8361 135.221 18.9243 135.323C19.0125 135.425 19.0707 135.549 19.0924 135.682L19.4742 136.934H18.9402L18.5931 135.693C18.5699 135.57 18.5027 135.461 18.4043 135.384C18.3059 135.308 18.1831 135.271 18.0591 135.28H17.1834V136.939H16.6895V132.961C17.0392 132.937 17.4904 132.921 18.0485 132.921ZM18.0485 133.355C17.6293 133.355 17.3463 133.355 17.1967 133.355V134.838H18.0244C18.2394 134.861 18.4557 134.806 18.6332 134.682C18.699 134.599 18.7477 134.504 18.7766 134.402C18.8054 134.299 18.8139 134.193 18.8014 134.087C18.8138 133.983 18.8053 133.878 18.7764 133.778C18.7475 133.677 18.6988 133.584 18.6332 133.503C18.454 133.383 18.2383 133.331 18.0244 133.355H18.0485Z" fill="#FB490C"/>
<path d="M22.0853 132.96C22.8623 132.96 23.4203 132.96 23.7781 132.992L23.754 133.392H22.1707C22.1226 133.387 22.074 133.393 22.028 133.408C21.982 133.423 21.9397 133.448 21.9037 133.48C21.8406 133.563 21.811 133.666 21.821 133.77V134.628H23.5244V135.035H21.829V136.121C21.829 136.389 21.9438 136.507 22.1707 136.507H23.754L23.7781 136.895C23.4283 136.917 22.8623 136.93 22.0853 136.93C21.8845 136.94 21.6872 136.874 21.5326 136.745C21.4634 136.682 21.4091 136.604 21.3736 136.516C21.338 136.429 21.3221 136.335 21.327 136.241V133.646C21.3221 133.552 21.338 133.458 21.3736 133.371C21.4091 133.284 21.4634 133.206 21.5326 133.142C21.6876 133.014 21.8848 132.949 22.0853 132.96Z" fill="#FB490C"/>
<path d="M28.972 132.961C29.7223 132.961 30.267 132.961 30.6087 132.998L30.5793 133.39H29.0975C28.9924 133.381 28.8881 133.414 28.8065 133.481C28.7727 133.521 28.7472 133.567 28.7316 133.616C28.716 133.666 28.7106 133.719 28.7157 133.77V134.685H30.3631V135.105H28.705V136.939H28.2031V133.679C28.1957 133.581 28.21 133.481 28.2451 133.389C28.2801 133.296 28.3351 133.212 28.406 133.143C28.5644 133.012 28.767 132.947 28.972 132.961Z" fill="#FB490C"/>
<path d="M32.932 136.934H32.4434V132.961H32.9453L32.932 136.934Z" fill="#FB490C"/>
<path d="M37.7476 133.419H36.474V136.934H35.9721V133.419H34.7012V132.961H37.7476V133.419Z" fill="#FB490C"/>
<path d="M42.5613 132.961V136.714C42.5653 136.741 42.5629 136.769 42.5544 136.795C42.546 136.821 42.5316 136.844 42.5124 136.864C42.4933 136.883 42.4699 136.898 42.4441 136.907C42.4183 136.916 42.3908 136.919 42.3638 136.915H41.8752C41.8263 136.912 41.7792 136.895 41.7392 136.866C41.6992 136.838 41.6677 136.799 41.6482 136.754L40.3132 133.947C40.2271 133.778 40.1513 133.603 40.0863 133.425H39.9955C40.0129 133.598 40.0209 133.773 40.0195 133.947V136.915H39.5176V133.162C39.5135 133.135 39.5158 133.107 39.5243 133.081C39.5328 133.056 39.5472 133.032 39.5665 133.013C39.5857 132.993 39.6092 132.979 39.635 132.97C39.6608 132.962 39.6883 132.96 39.7152 132.964H40.1931C40.2416 132.966 40.2885 132.982 40.3279 133.011C40.3673 133.039 40.3975 133.079 40.4147 133.124L41.7043 135.864C41.8324 136.132 41.9232 136.322 41.9713 136.435H42.0674C42.0674 136.231 42.054 136.03 42.054 135.835V132.961H42.5613Z" fill="#FB490C"/>
<path d="M45.4193 132.961C46.1989 132.961 46.7641 132.971 47.1147 132.993L47.0907 133.39H45.5074C45.459 133.385 45.4102 133.39 45.3641 133.406C45.3181 133.422 45.2759 133.447 45.2404 133.481C45.1763 133.563 45.1458 133.666 45.155 133.77V134.628H46.8611V135.033H45.155V136.118C45.155 136.386 45.2698 136.507 45.4994 136.507H47.0827L47.1067 136.896C46.7507 136.917 46.1856 136.928 45.4113 136.928C45.2108 136.939 45.0136 136.874 44.8586 136.746C44.7899 136.682 44.7359 136.604 44.7004 136.517C44.6648 136.429 44.6487 136.336 44.653 136.242V133.647C44.6487 133.553 44.6648 133.459 44.7004 133.372C44.7359 133.285 44.7899 133.207 44.8586 133.143C45.0157 133.013 45.2161 132.948 45.4193 132.961Z" fill="#FB490C"/>
<path d="M50.1314 132.904C50.5251 132.902 50.9179 132.94 51.3036 133.02L51.2715 133.384C50.8256 133.366 50.4545 133.355 50.1555 133.355C49.9873 133.355 49.8645 133.355 49.7844 133.355C49.7022 133.362 49.6224 133.386 49.5494 133.424C49.5129 133.443 49.4806 133.468 49.4544 133.5C49.4282 133.531 49.4087 133.568 49.3972 133.607C49.368 133.718 49.3554 133.832 49.3598 133.947C49.3438 134.024 49.3446 134.102 49.3622 134.179C49.3797 134.255 49.4136 134.326 49.4614 134.387C49.5092 134.449 49.5698 134.499 49.6389 134.535C49.7081 134.57 49.7841 134.59 49.8618 134.593L50.6628 134.797C50.9084 134.839 51.1294 134.972 51.2822 135.17C51.4127 135.394 51.474 135.653 51.4584 135.912C51.4638 136.099 51.4395 136.285 51.3863 136.464C51.3434 136.598 51.2569 136.713 51.1407 136.791C51.0176 136.869 50.8807 136.922 50.7375 136.947C50.5387 136.977 50.3378 136.99 50.1368 136.987C49.7268 136.989 49.3175 136.953 48.9139 136.88L48.9487 136.507C49.6188 136.526 50.0166 136.537 50.1555 136.537C50.3738 136.552 50.5922 136.508 50.7883 136.411C50.8951 136.332 50.9485 136.161 50.9485 135.896C50.9638 135.736 50.9242 135.575 50.8363 135.44C50.73 135.337 50.5951 135.268 50.4492 135.242L49.6482 135.038C49.4091 134.994 49.1954 134.861 49.0501 134.666C48.9189 134.445 48.8566 134.19 48.8712 133.934C48.8676 133.778 48.8846 133.622 48.922 133.47C48.9475 133.36 48.9957 133.257 49.0635 133.167C49.1335 133.083 49.2262 133.022 49.3305 132.99C49.4451 132.949 49.5644 132.922 49.6856 132.91C49.7977 132.912 49.9419 132.904 50.1314 132.904Z" fill="#FB490C"/>
<path d="M57.5172 132.927C57.8737 132.895 58.2318 132.97 58.5451 133.144C58.6518 133.247 58.7334 133.373 58.7834 133.512C58.8334 133.652 58.8506 133.801 58.8335 133.949C58.8504 134.177 58.7952 134.405 58.676 134.6C58.6144 134.678 58.5365 134.741 58.4479 134.785C58.3593 134.829 58.2622 134.853 58.1633 134.855V134.876C58.2804 134.877 58.3958 134.904 58.5008 134.956C58.6059 135.008 58.6977 135.083 58.7694 135.176C58.9041 135.404 58.9673 135.668 58.951 135.932C58.9678 136.079 58.9514 136.227 58.9028 136.367C58.8543 136.506 58.7749 136.632 58.6706 136.736C58.3769 136.911 58.0359 136.988 57.6961 136.956C57.0553 136.956 56.5694 136.94 56.2383 136.913V132.959C56.5346 132.943 56.9592 132.927 57.5172 132.927ZM57.4932 133.353H56.7402V134.694H57.5839C57.7945 134.714 58.006 134.666 58.1874 134.557C58.254 134.486 58.3039 134.401 58.3335 134.308C58.363 134.216 58.3715 134.117 58.3582 134.021C58.372 133.924 58.3627 133.824 58.3311 133.731C58.2996 133.638 58.2467 133.554 58.1767 133.485C57.9666 133.375 57.7289 133.329 57.4932 133.353ZM56.7296 135.069V136.538C56.8844 136.538 57.1781 136.538 57.6133 136.538C57.8405 136.561 58.069 136.512 58.2675 136.399C58.3356 136.326 58.3868 136.239 58.4172 136.144C58.4477 136.049 58.4568 135.948 58.4437 135.849C58.4573 135.738 58.4477 135.625 58.4155 135.518C58.3834 135.411 58.3293 135.312 58.2568 135.227C58.0574 135.093 57.8174 135.033 57.5786 135.058L56.7296 135.069Z" fill="#FB490C"/>
<path d="M61.6441 132.961C62.4211 132.961 62.9791 132.961 63.3369 132.993L63.3128 133.39H61.7295C61.6812 133.385 61.6325 133.391 61.5865 133.407C61.5405 133.423 61.4983 133.448 61.4625 133.481C61.3994 133.563 61.3698 133.667 61.3798 133.77V134.628H63.0832V135.033H61.3798V136.118C61.3798 136.386 61.4946 136.507 61.7215 136.507H63.3048L63.3288 136.896C62.9791 136.917 62.413 136.928 61.6361 136.928C61.4356 136.939 61.2384 136.874 61.0834 136.746C61.0142 136.682 60.9599 136.604 60.9244 136.517C60.8888 136.43 60.8729 136.336 60.8778 136.242V133.647C60.8729 133.553 60.8888 133.459 60.9244 133.372C60.9599 133.285 61.0142 133.206 61.0834 133.143C61.2404 133.013 61.4409 132.948 61.6441 132.961Z" fill="#FB490C"/>
<path d="M68.8468 132.961V136.116C68.8417 136.168 68.8471 136.22 68.8627 136.27C68.8783 136.32 68.9038 136.366 68.9376 136.406C69.0197 136.472 69.1239 136.503 69.2286 136.494H70.6517L70.6758 136.888C70.3447 136.912 69.8347 136.926 69.1459 136.926C69.0365 136.936 68.9263 136.923 68.822 136.888C68.7178 136.854 68.6217 136.798 68.5398 136.725C68.4102 136.577 68.3423 136.385 68.3502 136.188V132.961H68.8468Z" fill="#FB490C"/>
<path d="M72.9414 136.934H72.4395V132.961H72.9414V136.934Z" fill="#FB490C"/>
<path d="M75.825 132.96C76.5725 132.96 77.1199 132.96 77.4616 132.997L77.4323 133.389H75.9638C75.8587 133.38 75.7544 133.413 75.6728 133.48C75.6391 133.519 75.6138 133.565 75.5982 133.614C75.5826 133.663 75.5771 133.715 75.582 133.767V134.683H77.2267V135.104H75.582V136.938H75.08V133.678C75.0726 133.579 75.0869 133.48 75.122 133.387C75.1571 133.295 75.212 133.211 75.283 133.142C75.4351 133.016 75.6281 132.951 75.825 132.96Z" fill="#FB490C"/>
<path d="M80.0177 132.961C80.7973 132.961 81.3616 132.971 81.7104 132.993L81.6891 133.39H80.1031C80.0547 133.385 80.0058 133.39 79.9597 133.406C79.9137 133.422 79.8715 133.447 79.8361 133.481C79.7724 133.562 79.7419 133.665 79.7507 133.768V134.625H81.4541V135.033H79.7507V136.119C79.7507 136.387 79.8655 136.507 80.0924 136.507H81.6784L81.6998 136.896C81.3438 136.917 80.7795 136.928 80.007 136.928C79.8065 136.939 79.6093 136.874 79.4543 136.746C79.3856 136.682 79.3316 136.604 79.2961 136.517C79.2605 136.43 79.2444 136.336 79.2487 136.242V133.647C79.2444 133.553 79.2605 133.459 79.2961 133.372C79.3316 133.285 79.3856 133.207 79.4543 133.143C79.612 133.012 79.8136 132.947 80.0177 132.961Z" fill="#FB490C"/>
<path d="M84.7281 132.905C85.1227 132.9 85.5165 132.939 85.9029 133.02L85.8682 133.384C85.4249 133.366 85.0538 133.355 84.7548 133.355C84.5866 133.355 84.4611 133.355 84.381 133.355C84.2997 133.362 84.2207 133.386 84.1487 133.425C84.1111 133.441 84.0778 133.466 84.0514 133.498C84.025 133.53 84.0062 133.567 83.9965 133.607C83.9661 133.718 83.9525 133.833 83.9565 133.947C83.9417 134.105 83.9813 134.263 84.0686 134.395C84.1732 134.503 84.3102 134.572 84.4584 134.593L85.2594 134.797C85.5049 134.84 85.7257 134.973 85.8788 135.17C86.009 135.394 86.0703 135.651 86.055 135.91C86.0606 136.097 86.0363 136.285 85.983 136.465C85.94 136.598 85.8535 136.713 85.7373 136.792C85.6144 136.869 85.4773 136.921 85.3342 136.944C85.1347 136.977 84.9328 136.991 84.7307 136.987C84.3216 136.989 83.9132 136.953 83.5106 136.88L83.5453 136.507C84.2128 136.526 84.6133 136.537 84.7521 136.537C84.9704 136.552 85.1888 136.508 85.3849 136.411C85.489 136.333 85.5424 136.162 85.5424 135.896C85.5571 135.736 85.5186 135.576 85.4329 135.44C85.3266 135.337 85.1917 135.268 85.0458 135.242L84.2395 135.052C84.0013 135.006 83.7884 134.873 83.6414 134.679C83.5122 134.458 83.45 134.204 83.4625 133.947C83.4601 133.791 83.4772 133.635 83.5132 133.484C83.541 133.374 83.59 133.271 83.6574 133.181C83.7271 133.097 83.82 133.035 83.9244 133.004C84.0392 132.963 84.1584 132.936 84.2795 132.923C84.4287 132.91 84.5783 132.904 84.7281 132.905Z" fill="#FB490C"/>
<path d="M90.6636 133.419H89.3874V136.934H88.8854V133.419H87.6172V132.961H90.6636V133.419Z" fill="#FB490C"/>
<path d="M93.8147 135.541V136.933H93.318V135.536L92.0098 132.971H92.5438L93.3741 134.643C93.4413 134.789 93.501 134.937 93.553 135.088H93.585C93.6346 134.938 93.6944 134.791 93.7639 134.649L94.5889 132.971H95.1229L93.8147 135.541Z" fill="#FB490C"/>
<path d="M97.5554 132.961C98.3351 132.961 98.9002 132.971 99.2509 132.993L99.2268 133.39H97.6435C97.5952 133.385 97.5464 133.391 97.5004 133.407C97.4544 133.422 97.4122 133.448 97.3765 133.481C97.3138 133.562 97.2842 133.665 97.2938 133.767V134.625H98.9972V135.033H97.2938V136.118C97.2938 136.386 97.4059 136.507 97.6355 136.507H99.2188L99.2428 136.896C98.8868 136.917 98.3217 136.928 97.5474 136.928C97.3471 136.938 97.1503 136.873 96.9947 136.746C96.9265 136.682 96.873 136.603 96.8379 136.516C96.8029 136.429 96.7871 136.335 96.7918 136.242V133.647C96.7871 133.553 96.8029 133.459 96.8379 133.372C96.873 133.285 96.9265 133.207 96.9947 133.143C97.1518 133.013 97.3522 132.948 97.5554 132.961Z" fill="#FB490C"/>
<path d="M101.658 132.961V136.116C101.653 136.168 101.659 136.221 101.675 136.27C101.691 136.32 101.717 136.366 101.752 136.406C101.833 136.471 101.936 136.503 102.04 136.494H103.463L103.487 136.888C103.153 136.912 102.643 136.926 101.954 136.926C101.845 136.936 101.735 136.923 101.631 136.888C101.526 136.854 101.43 136.798 101.348 136.725C101.219 136.577 101.151 136.385 101.159 136.188V132.961H101.658Z" fill="#FB490C"/>
</g>
<defs>
<clipPath id="clip0_2_41133">
<rect width="106" height="137" fill="white"/>
</clipPath>
</defs>
</svg>
