<svg width="106" height="137" viewBox="0 0 106 137" fill="none" xmlns="http://www.w3.org/2000/svg">
<g clip-path="url(#clip0_1669_95358)">
<path d="M55.2966 0C55.6965 0.0926374 56.1067 0.132291 56.5168 0.117949C61.0508 0.4367 65.5213 1.36721 69.8078 2.88438C70.2911 3.05326 70.2858 3.06666 69.9306 3.44732C69.8463 3.53742 69.7349 3.59742 69.6135 3.61823C69.4921 3.63903 69.3672 3.61949 69.2578 3.56258C68.035 3.15513 66.8041 2.75839 65.5573 2.44475C60.7325 1.16931 55.7403 0.651178 50.7577 0.908741C43.2097 1.3028 36.0195 3.09615 29.4167 6.84102C16.4567 14.2074 8.02501 25.0587 4.57542 39.6951C3.5309 44.1127 3.12891 48.6589 3.38195 53.1921C4.03876 65.1103 8.30269 75.538 16.2725 84.4137C16.3579 84.5102 16.4461 84.604 16.5395 84.7005C16.7771 84.9686 16.7584 85.1375 16.4861 85.376C16.4539 85.4156 16.4126 85.4467 16.3659 85.4669C16.3191 85.4871 16.2682 85.4958 16.2174 85.4921C16.1667 85.4884 16.1175 85.4725 16.0741 85.4458C16.0308 85.4191 15.9944 85.3823 15.9681 85.3385C9.07352 77.8615 4.57191 68.4795 3.04554 58.406C2.48158 54.7712 2.33913 51.0831 2.62102 47.4153C3.26448 39.1053 5.48855 31.251 9.98209 24.1848C16.6917 13.6311 25.8577 6.1655 37.8191 2.35629C41.4415 1.21049 45.1822 0.482909 48.9688 0.187646C49.5322 0.144755 50.0662 0.112587 50.6269 0.0696969C50.6909 0.0696969 50.7817 0.112587 50.8164 0.0053613L55.2966 0Z" fill="#FA4C10"/>
<path d="M103.641 52.5623C103.548 52.9636 103.51 53.3756 103.526 53.7873C102.768 65.0889 98.8887 75.1253 91.5116 83.7489C86.9219 89.1102 81.5206 93.4422 75.1634 96.5249C70.6272 98.7205 65.7933 100.233 60.8177 101.012C57.1736 101.579 53.4785 101.743 49.7988 101.5C46.8085 101.301 43.8404 100.847 40.9265 100.144C40.6862 100.088 40.3925 100.061 40.4433 99.6774C40.494 99.294 40.6168 99.1922 40.9933 99.286C45.4804 100.412 50.1025 100.902 54.7249 100.742C61.8323 100.5 68.6247 98.8946 74.9685 95.6483C88.2186 88.8913 96.9084 78.3215 101.038 63.9389C101.933 60.7024 102.466 57.3757 102.627 54.0205C102.747 51.943 102.819 49.8628 102.744 47.7853C102.553 42.8428 101.549 37.966 99.7724 33.3527C97.4404 27.3033 93.999 21.7468 89.6266 16.9713C89.5919 16.931 89.5545 16.8908 89.5171 16.8533C89.1967 16.545 89.1834 16.4512 89.4236 16.2046C89.6639 15.958 89.8295 15.9365 90.1339 16.2796C97.0241 23.7379 101.524 33.1021 103.051 43.1585C103.343 44.99 103.521 46.8378 103.585 48.6914C103.585 48.7584 103.556 48.8442 103.644 48.8898L103.641 52.5623Z" fill="#FA4C10"/>
<path d="M57.3669 55.9342H43.953C43.4751 55.9342 43.3896 55.8458 43.387 55.3713C43.387 54.4384 43.387 53.4949 43.387 52.5727C43.3709 50.2486 43.2988 47.9218 43.3336 45.603C43.4804 35.8669 46.4948 27.1467 52.625 19.5685C57.2949 13.6876 63.784 9.53724 71.0664 7.77368C73.4846 7.18794 75.964 6.89544 78.4515 6.90247C78.9454 6.90247 79.0309 6.99093 79.0202 7.48417C78.9241 11.5034 78.8289 15.5243 78.7345 19.5471C78.7345 19.9653 78.6437 20.0591 78.2299 20.1556C73.6483 21.2279 69.3977 23.0185 65.625 25.8761C62.9714 27.8281 60.7963 30.3622 59.2652 33.2854C57.963 35.7842 57.3257 38.5783 57.4149 41.3971C57.4283 41.8742 57.5217 41.9707 58.0103 41.9707H70.5271H70.8475C71.2159 41.9707 71.3281 42.0806 71.3307 42.4533C71.3307 43.2574 71.3307 44.0831 71.3307 44.898C71.3307 48.2935 71.3307 51.689 71.3307 55.0845C71.3307 55.9476 71.3307 55.9476 70.4924 55.9476H57.3669V55.9342Z" fill="white"/>
<path d="M21.3816 88.0056C21.3816 85.7574 21.3816 83.5066 21.3816 81.2531C21.3816 80.8081 21.443 80.7437 21.8675 80.7384C28.0778 80.6365 33.1855 78.1569 37.3079 73.5328C40.5679 69.8817 42.4956 65.6034 43.3206 60.797C43.4167 60.2368 43.4434 60.21 43.9881 60.21H56.1204C56.633 60.21 56.7345 60.3091 56.6918 60.7702C56.4149 64.4617 55.5411 68.0834 54.1046 71.4928C50.5135 79.7653 44.7998 86.105 36.878 90.3941C32.7484 92.6402 28.2788 94.1888 23.6484 94.978C23.1144 95.0718 22.5617 95.1951 22.0117 95.2595C21.4617 95.3238 21.3816 95.2461 21.3816 94.7233C21.378 92.4752 21.378 90.2359 21.3816 88.0056Z" fill="white"/>
<path d="M76.5998 47.2036C76.565 43.6893 76.6291 40.1723 76.6745 36.6579C76.6867 35.8365 77.0038 35.0492 77.5639 34.4502C78.1239 33.8512 78.8865 33.4837 79.7022 33.4197C80.6938 33.3508 81.6897 33.3759 82.6766 33.4948C84.0116 33.661 85.1997 34.9396 85.3305 36.2853C85.3582 36.5525 85.3725 36.8209 85.3732 37.0895C85.3732 37.5586 85.48 37.6927 85.9446 37.6927C86.6611 37.681 87.377 37.7438 88.0806 37.8803C88.7983 38.0053 89.4487 38.3817 89.916 38.9427C90.3834 39.5037 90.6374 40.2129 90.6331 40.9443C90.6331 42.0461 90.7505 43.1478 90.6704 44.2495C90.6411 44.6865 90.8306 44.8527 91.2765 44.8178C91.85 44.7533 92.4299 44.7777 92.996 44.8902C94.3924 45.2039 95.3989 46.4664 95.3162 47.8014C95.2864 48.5097 95.001 49.183 94.5131 49.6955C94.0253 50.208 93.3683 50.5247 92.6649 50.5866C92.211 50.6322 91.7491 50.6375 91.2925 50.6456C90.836 50.6536 90.6784 50.7662 90.6731 51.2541C90.6598 52.2915 90.569 53.3343 90.6544 54.3717C90.7932 56.0337 89.2287 57.8297 87.4104 57.7198C86.9004 57.6903 86.3878 57.7198 85.8752 57.7198C85.488 57.7198 85.3919 57.8351 85.3839 58.2265C85.3652 59.0843 85.2531 59.9179 84.7378 60.639C84.4612 61.0434 84.0927 61.3759 83.6628 61.6089C83.2329 61.842 82.7539 61.969 82.2654 61.9794C81.4456 62.0303 80.6235 62.0303 79.8037 61.9794C77.9347 61.8293 76.8374 60.6551 76.6905 58.7787C76.5811 57.3445 76.6265 55.9077 76.6158 54.4735C76.5837 52.0476 76.5998 49.6269 76.5998 47.2036Z" fill="white"/>
<path d="M37.8361 47.6031C37.8094 50.7663 37.8361 53.9268 37.8121 57.09C37.8183 57.7654 37.7818 58.4405 37.7026 59.1112C37.4943 60.6579 36.5305 61.7061 34.9792 61.9125C33.8988 62.0608 32.8029 62.0536 31.7245 61.891C31.0365 61.7868 30.4037 61.4519 29.9291 60.9409C29.4546 60.4299 29.1661 59.7728 29.1107 59.0763C29.0813 58.8083 29.0679 58.5402 29.0599 58.2721C29.0599 57.7816 28.9852 57.7092 28.5072 57.7065C27.9733 57.7065 27.4393 57.7065 26.9053 57.7065C26.2119 57.6924 25.5424 57.45 24.9997 57.0165C24.457 56.583 24.0711 55.9825 23.9016 55.3073C23.8416 55.0798 23.8093 54.8457 23.8055 54.6104C23.8055 53.5059 23.7734 52.4015 23.7627 51.2971C23.7627 50.7073 23.672 50.6189 23.0952 50.6296C22.5589 50.6488 22.022 50.612 21.4933 50.5197C20.7934 50.3939 20.1643 50.0135 19.7264 49.4511C19.2884 48.8888 19.0724 48.1841 19.1197 47.4718C19.1908 46.7624 19.5127 46.102 20.027 45.6102C20.5412 45.1185 21.2139 44.8279 21.9231 44.7911C22.3263 44.7724 22.7241 44.7911 23.138 44.7911C23.6533 44.8045 23.7547 44.7134 23.7547 44.1853C23.7547 43.4883 23.7334 42.7914 23.7547 42.0944C23.7368 41.4836 23.7833 40.8726 23.8936 40.2716C24.0457 39.5798 24.4231 38.9586 24.9661 38.5062C25.509 38.0538 26.1867 37.7959 26.8919 37.7732C27.466 37.7357 28.04 37.7008 28.6167 37.6579C29.0199 37.6284 29.0733 37.5829 29.0573 37.1647C29.0162 36.6995 29.0677 36.2306 29.2089 35.7856C29.3501 35.3406 29.5781 34.9282 29.8796 34.5725C30.1487 34.2318 30.4885 33.9542 30.8754 33.7588C31.2622 33.5634 31.6869 33.4551 32.1197 33.4413C33.0782 33.4171 34.0394 33.3287 34.9952 33.4574C35.7541 33.5555 36.4522 33.9255 36.9609 34.4994C37.4696 35.0732 37.7548 35.8122 37.764 36.5803C37.8014 39.1216 37.8227 41.6601 37.8441 44.2014C37.8441 45.3326 37.8361 46.4692 37.8361 47.6031Z" fill="white"/>
<path d="M53.1663 5.14692C53.9913 5.12279 55.0139 5.19517 56.0365 5.23002C56.2127 5.23002 56.3302 5.28095 56.3195 5.48468C56.3088 5.68841 56.2741 5.83048 56.0525 5.85461C55.9779 5.86131 55.9028 5.86131 55.8282 5.85461C52.8762 5.68493 49.9147 5.81245 46.988 6.23526C42.1206 6.8813 37.4455 8.20286 33.0722 10.4492C23.2147 15.513 15.9844 23.1019 11.587 33.3447C11.5204 33.4898 11.4694 33.6417 11.4348 33.7977C11.3948 33.9907 11.304 34.0899 11.1037 34.0336C10.9035 33.9773 10.7406 33.8728 10.8154 33.6235C10.8577 33.5028 10.9067 33.3847 10.9622 33.2696C13.7271 26.6206 18.017 20.7212 23.4825 16.0518C28.948 11.3823 35.4347 8.07489 42.4143 6.39878C45.9338 5.54112 49.5448 5.12068 53.1663 5.14692Z" fill="#FA4C10"/>
<path d="M53.1029 96.3907C51.6531 96.3907 50.2034 96.3183 48.7589 96.1843C48.524 96.1602 48.4011 96.069 48.4198 95.8224C48.4385 95.5758 48.6201 95.5356 48.8337 95.5543C52.2117 95.8899 55.6175 95.8215 58.9795 95.3506C66.0896 94.4338 72.6363 92.0078 78.5289 87.885C83.5164 84.4001 87.7563 80.1513 91.035 74.9803C91.1082 74.8746 91.1733 74.7635 91.2299 74.6479C91.3421 74.412 91.5103 74.3799 91.7319 74.4791C91.9535 74.5782 91.9695 74.6855 91.844 74.8785C89.8028 78.1253 87.3709 81.1073 84.6031 83.7568C76.1084 91.8757 64.8258 96.3982 53.0976 96.3853L53.1029 96.3907Z" fill="#FA4C10"/>
<path d="M11.9641 119.356H5.90061L4.29863 127.781H0L3.5991 108.749H15.3736L14.9945 110.711H7.5186L6.25304 117.412H12.3432L11.9641 119.356Z" fill="white"/>
<path d="M20.8432 115.091L19.3 123.31C19.2332 123.595 19.1974 123.888 19.1932 124.181C19.1932 124.942 19.4361 125.789 20.3039 125.789C21.5214 125.789 22.7389 124.05 23.9831 120.763L25.5263 121.658C24.1459 125.411 22.1435 128.092 18.6512 128.092C16.2696 128.092 15.1055 126.679 15.1055 124.639C15.1577 123.459 15.3113 122.286 15.5647 121.133L16.6914 115.091H20.8432ZM19.842 109.22C20.075 109.21 20.3074 109.249 20.5248 109.334C20.7421 109.419 20.9396 109.548 21.1049 109.713C21.2702 109.878 21.3996 110.076 21.4851 110.294C21.5705 110.512 21.6102 110.745 21.6015 110.979C21.5909 111.648 21.3178 112.286 20.8414 112.754C20.3649 113.223 19.7237 113.483 19.057 113.48C18.8209 113.494 18.5845 113.459 18.363 113.376C18.1415 113.292 17.9399 113.163 17.7715 112.997C17.603 112.83 17.4713 112.629 17.3851 112.408C17.2988 112.187 17.2599 111.95 17.2708 111.713C17.2757 111.38 17.3461 111.051 17.4782 110.745C17.6102 110.438 17.8011 110.162 18.0401 109.93C18.279 109.698 18.5612 109.516 18.8705 109.395C19.1797 109.273 19.5099 109.213 19.842 109.22Z" fill="white"/>
<path d="M25.0651 112.563H29.2062L28.7176 115.091H31.8574L31.5077 117.075H28.3411L27.177 123.31C27.1231 123.57 27.0954 123.835 27.0942 124.101C27.0942 125.133 27.5828 125.784 28.4746 125.784C30.0445 125.784 31.4116 123.937 32.589 120.758L34.1322 121.653C33.7317 122.942 33.1189 124.154 32.3193 125.24C30.7174 127.25 29.0967 128.095 26.8513 128.095C24.2534 128.095 22.9531 126.486 22.9531 124.508C23.0024 123.346 23.1561 122.19 23.4124 121.055L24.2133 117.088H22.9932L23.3723 115.104H24.5631L25.0651 112.563Z" fill="white"/>
<path d="M49.7243 121.64C49.1303 123.106 48.2032 124.412 47.017 125.454C45.3643 127.004 42.9026 128.092 39.5411 128.092C34.4521 128.092 31.6914 124.94 31.6914 120.809C31.6914 113.839 36.1556 108.443 41.9494 108.443C45.4417 108.443 47.0383 110.183 47.0383 111.976C47.0383 113.442 46.0905 113.986 44.9264 113.986C44.5305 113.989 44.137 113.925 43.7623 113.796C43.9434 113.328 44.0445 112.832 44.0613 112.33C44.0613 111.051 43.3298 110.4 41.9761 110.4C39.0792 110.4 36.0488 114.828 36.0488 120.699C36.0488 124.015 37.7549 126.135 40.8547 126.135C44.0586 126.135 46.9449 123.824 48.165 120.755L49.7243 121.64Z" fill="white"/>
<path d="M52.8901 115.091L51.3468 123.31C51.2791 123.596 51.2424 123.888 51.2374 124.181C51.2374 124.943 51.483 125.79 52.3481 125.79C53.5656 125.79 54.7831 124.05 56.03 120.763L57.5732 121.659C56.1928 125.412 54.1877 128.092 50.698 128.092C48.3138 128.092 47.1523 126.68 47.1523 124.64C47.2032 123.46 47.3569 122.286 47.6116 121.133L48.749 115.102L52.8901 115.091ZM51.8888 109.221C52.1224 109.211 52.3554 109.25 52.5732 109.336C52.7909 109.421 52.9886 109.551 53.1539 109.717C53.3192 109.883 53.4485 110.082 53.5336 110.3C53.6187 110.519 53.6578 110.753 53.6483 110.987C53.6378 111.656 53.3647 112.295 52.8882 112.763C52.4118 113.231 51.7706 113.492 51.1039 113.488C50.8677 113.503 50.6311 113.468 50.4094 113.385C50.1877 113.302 49.986 113.173 49.8174 113.006C49.6488 112.839 49.5172 112.639 49.4311 112.417C49.345 112.196 49.3063 111.959 49.3177 111.722C49.3211 111.387 49.3906 111.057 49.522 110.75C49.6534 110.443 49.8442 110.165 50.0834 109.932C50.3225 109.7 50.6052 109.517 50.9151 109.395C51.225 109.273 51.556 109.214 51.8888 109.221Z" fill="white"/>
<path d="M59.1405 115.716C58.7344 117.717 58.2192 119.695 57.5973 121.64L57.5706 121.721L56.0273 120.825L56.054 120.745C56.6653 118.893 57.1182 116.993 57.4077 115.064C56.8737 114.847 56.297 114.437 56.297 113.622C56.3064 113.125 56.5055 112.651 56.8534 112.297C57.2012 111.943 57.6711 111.737 58.166 111.722C59.0844 111.722 59.5997 112.319 59.5997 113.215C59.5941 113.424 59.5763 113.632 59.5464 113.839L62.9025 115.308C64.5792 116.043 65.204 117.075 65.204 118.324C65.204 120.498 63.4445 122.131 63.4445 124.331C63.437 124.516 63.4663 124.7 63.5306 124.873C63.595 125.045 63.6931 125.203 63.8193 125.338C63.9454 125.472 64.097 125.579 64.2651 125.654C64.4332 125.728 64.6145 125.768 64.7982 125.771C66.3387 125.771 67.5295 124.358 68.8832 120.745L70.4264 121.64C69.4519 124.248 67.8019 128.074 63.3083 128.074C60.7105 128.074 59.3568 126.605 59.3568 124.431C59.3568 121.659 61.3593 119.295 61.3593 117.555C61.3593 116.823 61.0602 116.496 60.4648 116.252L59.1405 115.716Z" fill="white"/>
<path d="M76.6035 120.144C76.7854 119.619 76.8941 119.07 76.9265 118.514C76.9265 117.319 76.4139 116.804 75.5195 116.804C73.8134 116.804 71.9471 119.112 71.9471 122.291C71.9471 124.575 73.0845 126.152 75.5729 126.152C78.9584 126.152 81.583 123.651 82.7471 120.745L84.2903 121.64C83.7563 122.999 83.0167 124.141 81.5563 125.581C80.2026 126.921 77.9572 128.082 74.3821 128.082C70.297 128.082 67.8594 126.042 67.8594 122.538C67.8594 118.134 71.1087 114.791 75.4394 114.791C78.0907 114.791 79.9036 116.367 79.9036 118.297C79.9036 119.466 79.2815 120.335 77.7943 120.335C77.3895 120.339 76.9869 120.275 76.6035 120.144Z" fill="white"/>
<path d="M88.9196 107.494L85.9133 123.31C85.8421 123.65 85.8063 123.997 85.8065 124.345C85.8065 125.267 86.1295 125.784 86.9145 125.784C88.132 125.784 89.3522 124.044 90.5964 120.758L92.1396 121.653C90.6498 125.674 88.431 128.087 85.2645 128.087C82.8268 128.087 81.7188 126.591 81.7188 124.471C81.7188 123.667 81.935 122.433 82.178 121.128L84.7492 107.494H88.9196Z" fill="white"/>
<path d="M97.1742 114.791C100.068 114.791 101.612 116.314 101.612 118.297C101.612 120.852 99.3101 122.699 95.3052 122.699C94.7712 122.699 94.3306 122.672 93.6818 122.645C93.7886 124.902 95.1423 126.152 97.4705 126.152C100.504 126.152 103.264 123.597 104.455 120.745L105.998 121.64C104.968 124.248 102.154 128.074 96.253 128.074C92.1119 128.074 89.5781 126.063 89.5781 122.557C89.5781 118.027 92.9236 114.791 97.1742 114.791ZM93.7886 120.898H94.603C97.038 120.898 98.3917 119.458 98.3917 117.962C98.3917 117.204 97.9858 116.74 97.2543 116.74C95.7938 116.748 94.2505 118.351 93.7886 120.898Z" fill="white"/>
<path d="M5.5793 132.96L4.77831 136.772C4.77044 136.818 4.74567 136.859 4.70899 136.886C4.67232 136.914 4.62648 136.927 4.58074 136.922H4.00402C3.95808 136.923 3.91348 136.907 3.87854 136.877C3.86058 136.864 3.84541 136.848 3.83394 136.829C3.82246 136.81 3.81493 136.789 3.81179 136.767L3.19503 133.791C3.19503 133.738 3.16833 133.663 3.14964 133.564L3.10158 133.338H2.98143L2.89599 133.791L2.28724 136.767C2.27768 136.811 2.25197 136.851 2.21515 136.877C2.1777 136.906 2.13173 136.922 2.08432 136.922H1.51028C1.4639 136.923 1.41861 136.908 1.38213 136.88C1.36397 136.867 1.34847 136.851 1.33654 136.833C1.32461 136.815 1.31651 136.794 1.31271 136.772L0.511719 132.96H1.04571L1.66514 136.049C1.66514 136.108 1.67849 136.197 1.70519 136.317C1.72388 136.435 1.73456 136.51 1.7399 136.542H1.87073C1.9001 136.365 1.93214 136.201 1.96418 136.051L2.5756 133.129C2.58097 133.082 2.6041 133.038 2.64031 133.008C2.67651 132.977 2.72306 132.961 2.7705 132.963H3.32051C3.36783 132.96 3.41442 132.976 3.45034 133.007C3.48626 133.038 3.50866 133.082 3.51275 133.129L4.12684 136.051C4.16422 136.23 4.19092 136.393 4.20694 136.542H4.34845C4.38583 136.295 4.41253 136.134 4.42588 136.057L5.04798 132.96H5.5793Z" fill="#FB490C"/>
<path d="M10.2154 136.933H9.71349V135.033H7.89258V136.933H7.39062V132.96H7.89258V134.585H9.71349V132.96H10.2154V136.933Z" fill="#FB490C"/>
<path d="M13.0715 132.96C13.8511 132.96 14.4064 132.96 14.7669 132.992L14.7429 133.392H13.1596C13.1114 133.387 13.0626 133.392 13.0166 133.407C12.9706 133.422 12.9283 133.447 12.8926 133.48C12.8285 133.562 12.7979 133.666 12.8071 133.77V134.628H14.5106V135.035H12.8151V136.121C12.8151 136.378 12.93 136.507 13.1596 136.507H14.7429L14.7669 136.895C14.4144 136.917 13.8511 136.93 13.0715 136.93C12.8706 136.94 12.6734 136.874 12.5188 136.745C12.45 136.681 12.396 136.603 12.3605 136.516C12.325 136.429 12.3088 136.335 12.3132 136.241V133.646C12.3088 133.552 12.325 133.459 12.3605 133.372C12.396 133.285 12.45 133.206 12.5188 133.142C12.6737 133.014 12.871 132.949 13.0715 132.96Z" fill="#FB490C"/>
<path d="M18.0504 132.92C18.3977 132.887 18.7459 132.973 19.0383 133.164C19.2305 133.327 19.324 133.628 19.324 134.062C19.3425 134.318 19.2829 134.573 19.1531 134.794C19.0866 134.88 19.0023 134.951 18.906 135.001C18.8096 135.052 18.7036 135.081 18.5951 135.086V135.105C18.7234 135.145 18.8381 135.22 18.9263 135.322C19.0144 135.424 19.0727 135.548 19.0944 135.681L19.4762 136.933H18.9422L18.5951 135.692C18.5719 135.569 18.5047 135.46 18.4062 135.384C18.3078 135.307 18.185 135.27 18.0611 135.279H17.1853V136.938H16.6914V132.96C17.0412 132.936 17.4924 132.92 18.0504 132.92ZM18.0504 133.354C17.6312 133.354 17.3482 133.354 17.1987 133.354V134.837H18.0264C18.2414 134.86 18.4576 134.805 18.6351 134.681C18.7009 134.598 18.7496 134.503 18.7785 134.401C18.8074 134.298 18.8158 134.192 18.8033 134.086C18.8157 133.982 18.8072 133.877 18.7783 133.777C18.7494 133.676 18.7007 133.583 18.6351 133.502C18.456 133.382 18.2403 133.33 18.0264 133.354H18.0504Z" fill="#FB490C"/>
<path d="M22.0873 132.96C22.8642 132.96 23.4222 132.96 23.78 132.992L23.756 133.392H22.1727C22.1245 133.387 22.0759 133.393 22.03 133.408C21.984 133.423 21.9417 133.448 21.9057 133.48C21.8425 133.563 21.813 133.666 21.8229 133.77V134.628H23.5264V135.035H21.8309V136.121C21.8309 136.389 21.9458 136.507 22.1727 136.507H23.756L23.78 136.895C23.4302 136.917 22.8642 136.93 22.0873 136.93C21.8864 136.94 21.6892 136.874 21.5346 136.745C21.4654 136.682 21.4111 136.604 21.3755 136.516C21.34 136.429 21.3241 136.335 21.329 136.241V133.646C21.3241 133.552 21.34 133.458 21.3755 133.371C21.4111 133.284 21.4654 133.206 21.5346 133.142C21.6895 133.014 21.8868 132.949 22.0873 132.96Z" fill="#FB490C"/>
<path d="M28.9701 132.96C29.7203 132.96 30.265 132.96 30.6068 132.998L30.5774 133.389H29.0956C28.9905 133.381 28.8862 133.414 28.8045 133.481C28.7707 133.52 28.7452 133.566 28.7296 133.616C28.714 133.666 28.7086 133.718 28.7138 133.77V134.684H30.3611V135.105H28.7031V136.939H28.2011V133.679C28.1937 133.58 28.208 133.481 28.2431 133.388C28.2782 133.295 28.3331 133.212 28.404 133.143C28.5624 133.011 28.7651 132.946 28.9701 132.96Z" fill="#FB490C"/>
<path d="M32.93 136.933H32.4414V132.96H32.9434L32.93 136.933Z" fill="#FB490C"/>
<path d="M37.7495 133.419H36.476V136.933H35.974V133.419H34.7031V132.96H37.7495V133.419Z" fill="#FB490C"/>
<path d="M42.5613 132.96V136.713C42.5653 136.74 42.5629 136.768 42.5544 136.794C42.546 136.82 42.5316 136.844 42.5124 136.863C42.4933 136.883 42.4699 136.898 42.4441 136.906C42.4183 136.915 42.3908 136.918 42.3638 136.914H41.8752C41.8263 136.911 41.7792 136.894 41.7392 136.866C41.6992 136.838 41.6677 136.799 41.6482 136.754L40.3132 133.947C40.2271 133.777 40.1513 133.603 40.0863 133.424H39.9955C40.0129 133.598 40.0209 133.772 40.0195 133.947V136.914H39.5176V133.161C39.5135 133.135 39.5158 133.107 39.5243 133.081C39.5328 133.055 39.5472 133.032 39.5665 133.012C39.5857 132.993 39.6092 132.978 39.635 132.97C39.6608 132.961 39.6883 132.959 39.7152 132.963H40.1931C40.2416 132.965 40.2885 132.982 40.3279 133.01C40.3673 133.039 40.3975 133.078 40.4147 133.124L41.7043 135.864C41.8324 136.132 41.9232 136.322 41.9713 136.435H42.0674C42.0674 136.231 42.054 136.03 42.054 135.834V132.96H42.5613Z" fill="#FB490C"/>
<path d="M45.4193 132.96C46.1989 132.96 46.7641 132.971 47.1147 132.992L47.0907 133.389H45.5074C45.459 133.384 45.4102 133.39 45.3641 133.406C45.3181 133.421 45.2759 133.447 45.2404 133.48C45.1763 133.562 45.1458 133.666 45.155 133.77V134.627H46.8611V135.032H45.155V136.118C45.155 136.386 45.2698 136.507 45.4994 136.507H47.0827L47.1067 136.895C46.7507 136.917 46.1856 136.927 45.4113 136.927C45.2108 136.938 45.0136 136.873 44.8586 136.745C44.7899 136.681 44.7359 136.603 44.7004 136.516C44.6648 136.429 44.6487 136.335 44.653 136.241V133.646C44.6487 133.552 44.6648 133.459 44.7004 133.372C44.7359 133.285 44.7899 133.206 44.8586 133.142C45.0157 133.012 45.2161 132.947 45.4193 132.96Z" fill="#FB490C"/>
<path d="M50.1295 132.904C50.5231 132.901 50.916 132.94 51.3016 133.019L51.2696 133.384C50.8237 133.365 50.4526 133.354 50.1535 133.354C49.9853 133.354 49.8625 133.354 49.7824 133.354C49.7003 133.362 49.6204 133.385 49.5474 133.424C49.511 133.442 49.4786 133.468 49.4524 133.499C49.4262 133.531 49.4068 133.567 49.3953 133.606C49.3661 133.717 49.3535 133.832 49.3579 133.947C49.3419 134.023 49.3427 134.102 49.3602 134.178C49.3778 134.254 49.4116 134.325 49.4594 134.387C49.5072 134.448 49.5678 134.499 49.637 134.534C49.7061 134.57 49.7822 134.59 49.8598 134.593L50.6608 134.796C50.9065 134.839 51.1275 134.971 51.2802 135.169C51.4108 135.394 51.4721 135.652 51.4565 135.912C51.4619 136.098 51.4375 136.285 51.3844 136.464C51.3414 136.597 51.2549 136.713 51.1387 136.791C51.0156 136.868 50.8787 136.921 50.7356 136.946C50.5368 136.977 50.3358 136.99 50.1348 136.987C49.7248 136.988 49.3155 136.952 48.912 136.879L48.9467 136.507C49.6169 136.526 50.0147 136.536 50.1535 136.536C50.3718 136.551 50.5902 136.508 50.7863 136.41C50.8931 136.332 50.9465 136.16 50.9465 135.896C50.9619 135.735 50.9223 135.575 50.8344 135.44C50.728 135.336 50.5931 135.267 50.4472 135.241L49.6462 135.038C49.4071 134.994 49.1934 134.861 49.0482 134.665C48.917 134.445 48.8547 134.19 48.8693 133.933C48.8656 133.777 48.8827 133.621 48.92 133.47C48.9455 133.36 48.9937 133.257 49.0615 133.167C49.1315 133.083 49.2243 133.021 49.3285 132.99C49.4432 132.949 49.5624 132.922 49.6836 132.909C49.7958 132.912 49.9399 132.904 50.1295 132.904Z" fill="#FB490C"/>
<path d="M57.5172 132.928C57.8737 132.896 58.2318 132.971 58.5451 133.145C58.6518 133.248 58.7334 133.374 58.7834 133.513C58.8334 133.653 58.8506 133.802 58.8335 133.95C58.8504 134.178 58.7952 134.406 58.676 134.601C58.6144 134.679 58.5365 134.742 58.4479 134.786C58.3593 134.83 58.2622 134.854 58.1633 134.856V134.877C58.2804 134.878 58.3958 134.905 58.5008 134.957C58.6059 135.009 58.6977 135.084 58.7694 135.177C58.9041 135.405 58.9673 135.669 58.951 135.933C58.9678 136.08 58.9514 136.228 58.9028 136.368C58.8543 136.507 58.7749 136.633 58.6706 136.737C58.3769 136.912 58.0359 136.989 57.6961 136.957C57.0553 136.957 56.5694 136.941 56.2383 136.914V132.96C56.5346 132.944 56.9592 132.928 57.5172 132.928ZM57.4932 133.354H56.7402V134.695H57.5839C57.7945 134.715 58.006 134.667 58.1874 134.558C58.254 134.487 58.3039 134.402 58.3335 134.309C58.363 134.217 58.3715 134.118 58.3582 134.022C58.372 133.925 58.3627 133.825 58.3311 133.732C58.2996 133.639 58.2467 133.555 58.1767 133.486C57.9666 133.376 57.7289 133.33 57.4932 133.354ZM56.7296 135.07V136.539C56.8844 136.539 57.1781 136.539 57.6133 136.539C57.8405 136.562 58.069 136.513 58.2675 136.4C58.3356 136.327 58.3868 136.24 58.4172 136.145C58.4477 136.05 58.4568 135.949 58.4437 135.85C58.4573 135.739 58.4477 135.626 58.4155 135.519C58.3834 135.412 58.3293 135.313 58.2568 135.228C58.0574 135.094 57.8174 135.034 57.5786 135.059L56.7296 135.07Z" fill="#FB490C"/>
<path d="M61.6421 132.96C62.4191 132.96 62.9771 132.96 63.3349 132.992L63.3109 133.389H61.7276C61.6792 133.385 61.6305 133.391 61.5845 133.406C61.5386 133.422 61.4964 133.447 61.4606 133.48C61.3974 133.563 61.3678 133.666 61.3778 133.77V134.627H63.0813V135.032H61.3778V136.118C61.3778 136.386 61.4926 136.507 61.7196 136.507H63.3029L63.3269 136.895C62.9771 136.917 62.4111 136.927 61.6341 136.927C61.4337 136.938 61.2364 136.873 61.0815 136.745C61.0123 136.682 60.958 136.603 60.9224 136.516C60.8869 136.429 60.871 136.335 60.8759 136.241V133.646C60.871 133.552 60.8869 133.458 60.9224 133.371C60.958 133.284 61.0123 133.206 61.0815 133.142C61.2385 133.012 61.439 132.947 61.6421 132.96Z" fill="#FB490C"/>
<path d="M68.8488 132.96V136.116C68.8437 136.167 68.8491 136.22 68.8647 136.27C68.8803 136.319 68.9057 136.365 68.9396 136.405C69.0216 136.471 69.1259 136.503 69.2306 136.494H70.6537L70.6777 136.888C70.3466 136.912 69.8367 136.925 69.1478 136.925C69.0385 136.935 68.9282 136.922 68.824 136.888C68.7197 136.853 68.6237 136.798 68.5418 136.724C68.4122 136.577 68.3443 136.385 68.3522 136.188V132.96H68.8488Z" fill="#FB490C"/>
<path d="M72.9395 136.933H72.4375V132.96H72.9395V136.933Z" fill="#FB490C"/>
<path d="M75.825 132.96C76.5725 132.96 77.1199 132.96 77.4616 132.998L77.4323 133.389H75.9638C75.8587 133.381 75.7544 133.413 75.6728 133.48C75.6391 133.519 75.6138 133.565 75.5982 133.614C75.5826 133.664 75.5771 133.716 75.582 133.767V134.684H77.2267V135.105H75.582V136.938H75.08V133.679C75.0726 133.58 75.0869 133.48 75.122 133.388C75.1571 133.295 75.212 133.211 75.283 133.142C75.4351 133.017 75.6281 132.952 75.825 132.96Z" fill="#FB490C"/>
<path d="M80.0196 132.96C80.7993 132.96 81.3635 132.971 81.7124 132.992L81.691 133.389H80.1051C80.0567 133.384 80.0078 133.39 79.9617 133.406C79.9156 133.421 79.8735 133.447 79.8381 133.48C79.7744 133.562 79.7438 133.664 79.7526 133.767V134.625H81.4561V135.032H79.7526V136.118C79.7526 136.386 79.8675 136.507 80.0944 136.507H81.6804L81.7017 136.895C81.3457 136.917 80.7815 136.928 80.009 136.928C79.8085 136.939 79.6112 136.874 79.4563 136.745C79.3875 136.681 79.3335 136.603 79.298 136.516C79.2625 136.429 79.2463 136.335 79.2507 136.241V133.647C79.2463 133.553 79.2625 133.459 79.298 133.372C79.3335 133.285 79.3875 133.206 79.4563 133.143C79.614 133.012 79.8156 132.947 80.0196 132.96Z" fill="#FB490C"/>
<path d="M84.7281 132.904C85.1227 132.9 85.5165 132.939 85.9029 133.019L85.8682 133.384C85.4249 133.365 85.0538 133.354 84.7548 133.354C84.5866 133.354 84.4611 133.354 84.381 133.354C84.2997 133.362 84.2207 133.386 84.1487 133.424C84.1111 133.441 84.0778 133.466 84.0514 133.497C84.025 133.529 84.0062 133.566 83.9965 133.606C83.9661 133.717 83.9525 133.832 83.9565 133.947C83.9417 134.105 83.9813 134.263 84.0686 134.395C84.1732 134.502 84.3102 134.572 84.4584 134.593L85.2594 134.797C85.5049 134.839 85.7257 134.972 85.8788 135.169C86.009 135.393 86.0703 135.65 86.055 135.909C86.0606 136.097 86.0363 136.284 85.983 136.464C85.94 136.598 85.8535 136.713 85.7373 136.791C85.6144 136.868 85.4773 136.92 85.3342 136.944C85.1347 136.976 84.9328 136.991 84.7307 136.987C84.3216 136.988 83.9132 136.952 83.5106 136.88L83.5453 136.507C84.2128 136.526 84.6133 136.536 84.7521 136.536C84.9704 136.551 85.1888 136.508 85.3849 136.41C85.489 136.333 85.5424 136.161 85.5424 135.896C85.5571 135.736 85.5186 135.576 85.4329 135.44C85.3266 135.336 85.1917 135.267 85.0458 135.242L84.2395 135.051C84.0013 135.005 83.7884 134.872 83.6414 134.679C83.5122 134.457 83.45 134.203 83.4625 133.947C83.4601 133.791 83.4772 133.635 83.5132 133.483C83.541 133.374 83.59 133.271 83.6574 133.18C83.7271 133.096 83.82 133.035 83.9244 133.003C84.0392 132.962 84.1584 132.935 84.2795 132.923C84.4287 132.909 84.5783 132.903 84.7281 132.904Z" fill="#FB490C"/>
<path d="M90.6636 133.419H89.3874V136.933H88.8854V133.419H87.6172V132.96H90.6636V133.419Z" fill="#FB490C"/>
<path d="M93.8127 135.542V136.933H93.3161V135.537L92.0078 132.971H92.5418L93.3722 134.644C93.4393 134.789 93.499 134.938 93.551 135.089H93.5831C93.6327 134.938 93.6925 134.792 93.762 134.649L94.587 132.971H95.121L93.8127 135.542Z" fill="#FB490C"/>
<path d="M97.5535 132.96C98.3331 132.96 98.8982 132.971 99.2489 132.992L99.2249 133.389H97.6416C97.5932 133.385 97.5444 133.39 97.4984 133.406C97.4525 133.422 97.4103 133.447 97.3746 133.48C97.3118 133.562 97.2823 133.664 97.2918 133.767V134.625H98.9952V135.032H97.2918V136.118C97.2918 136.386 97.404 136.507 97.6336 136.507H99.2169L99.2409 136.895C98.8849 136.917 98.3198 136.927 97.5455 136.927C97.3452 136.937 97.1484 136.872 96.9928 136.745C96.9245 136.681 96.871 136.603 96.836 136.516C96.8009 136.429 96.7852 136.335 96.7899 136.241V133.646C96.7852 133.553 96.8009 133.459 96.836 133.372C96.871 133.285 96.9245 133.207 96.9928 133.142C97.1498 133.012 97.3503 132.947 97.5535 132.96Z" fill="#FB490C"/>
<path d="M101.66 132.96V136.116C101.655 136.168 101.661 136.22 101.677 136.27C101.693 136.32 101.719 136.366 101.754 136.405C101.835 136.471 101.938 136.502 102.042 136.494H103.465L103.489 136.888C103.155 136.912 102.645 136.925 101.956 136.925C101.847 136.935 101.737 136.922 101.633 136.888C101.528 136.853 101.432 136.798 101.35 136.724C101.221 136.577 101.153 136.385 101.161 136.188V132.96H101.66Z" fill="#FB490C"/>
</g>
<defs>
<clipPath id="clip0_1669_95358">
<rect width="106" height="137" fill="white"/>
</clipPath>
</defs>
</svg>
