<svg width="66" height="160" viewBox="0 0 66 160" fill="none" xmlns="http://www.w3.org/2000/svg">
<path d="M17.4805 13.8567C17.4998 13.8567 17.5191 13.8663 17.5383 13.8856C17.5383 13.8663 17.5287 13.8471 17.5094 13.8278C17.5094 13.8278 17.5191 13.8181 17.5383 13.7988C17.5191 13.7988 17.5094 13.7988 17.5094 13.7988L17.4805 13.8567Z" fill="white"/>
<path fill-rule="evenodd" clip-rule="evenodd" d="M45.2885 17.2611C45.1741 17.3183 45.0596 17.5758 45.0882 17.6903C45.3457 18.663 44.8022 19.4927 44.6877 20.3796C44.6877 20.5798 44.5161 20.9232 44.3444 20.9518C43.6578 21.1234 44.0583 21.8101 43.8008 22.0962C43.5433 22.3536 42.9425 21.8959 42.6564 22.4395C42.4085 22.9163 42.1414 23.3931 41.8553 23.87C41.7123 24.1275 41.6265 24.4994 41.369 24.6138C40.8254 24.9571 40.4535 25.3577 40.2532 25.9585C40.1674 26.1874 39.8527 26.3876 39.5952 26.5021C38.6797 26.874 37.7928 27.3031 36.9345 27.7895C36.0189 28.2759 34.8746 28.3331 33.816 28.562C33.5871 28.6192 33.2724 28.5047 33.0721 28.5906C32.0136 29.1628 30.955 28.9339 29.8965 28.705C29.5531 28.6478 29.1812 28.5906 28.8665 28.6764C27.6649 28.9339 26.6349 28.6478 25.4619 28.2473C24.1459 27.7895 23.2304 27.1029 22.4865 26.0157C22.1146 25.5007 21.6282 25.0716 21.1132 24.6997C20.5411 24.2705 20.255 23.7555 20.2263 23.0689C20.2263 22.8972 20.0261 22.6111 19.9689 22.6111C19.1678 22.697 19.082 22.182 18.8817 21.6098C18.5098 20.5226 17.9948 19.4927 17.5656 18.4341C17.5084 18.2624 17.4798 18.0336 17.4798 17.8333C17.4798 17.633 17.6229 17.3469 17.537 17.2039C16.879 16.2598 17.4798 15.6017 18.0234 14.9151C18.1664 14.6862 18.1092 14.2571 18.052 13.9424C18.052 13.8565 17.7373 13.8565 17.537 13.7993C17.6229 13.7421 17.7087 13.6849 17.7659 13.5991C18.052 13.2271 18.3095 12.8266 17.537 12.7408C16.9648 12.6835 16.8504 12.3688 17.0793 11.9397C17.5656 10.9956 17.394 9.70812 18.6528 9.22176C18.4811 8.53512 19.2536 8.30624 19.3967 7.84848C19.6541 7.0188 20.3694 6.78992 20.9702 6.41799C21.3993 6.1319 21.7141 5.73136 22.086 5.44526C22.8012 4.84445 23.3734 4.12921 24.0314 3.4998C24.4606 3.09926 25.1758 2.95621 25.7766 2.84177C26.2058 2.78455 26.4061 2.67011 26.4633 2.24096C26.5205 1.64016 26.8352 1.35406 27.5218 1.41128C27.7507 1.43989 28.0082 1.21101 28.2657 1.06796C28.8093 0.810475 29.3529 0.581596 29.8678 0.266888C30.5831 -0.162259 31.1553 -0.105041 31.5844 0.667423C31.7561 0.953521 31.8419 0.839082 32.0422 0.667423C32.5572 0.123837 33.5299 0.123837 33.8732 0.724642C34.4168 1.72598 35.2465 2.0693 36.305 2.09791C36.5625 2.09791 36.9058 2.18375 37.0489 2.3554C37.7641 3.38536 38.9085 3.38536 39.9385 3.70006C40.1101 3.72867 40.196 3.98616 40.3104 4.15782C40.339 4.18643 40.3676 4.21504 40.3962 4.21504C42.3703 4.55836 42.8853 6.07467 43.1714 7.73404C43.2572 8.1918 43.3144 8.62095 43.9152 8.62095C44.0297 8.62095 44.2013 8.70678 44.23 8.82121C44.5161 9.50785 44.9166 10.2231 44.9738 10.9383C45.031 11.8252 45.1455 12.6549 45.6318 13.3988C45.7463 13.5991 45.8321 13.9996 45.7177 14.1426C45.3171 14.6576 45.6604 15.1154 45.7463 15.5731C45.8607 16.2311 46.0324 16.8606 45.2885 17.2611ZM22.2004 20.2365C22.0574 19.4355 22.1146 18.663 21.3993 18.2338C21.2849 18.1766 21.1132 18.1194 21.056 18.1766C20.9988 18.2338 20.9416 18.4055 20.9702 18.4913C21.2563 19.0921 21.5424 19.6929 21.8571 20.2937C21.8857 20.351 22.0002 20.3796 22.0574 20.4368C22.1146 20.351 22.1718 20.2365 22.2004 20.2365ZM32.1852 19.1207C32.1662 19.0445 32.1471 18.9682 32.128 18.8919C32.0708 18.9205 31.9564 18.9491 31.9277 18.9777C31.9277 19.0349 31.985 19.1207 32.0136 19.2066C32.0708 19.1684 32.128 19.1398 32.1852 19.1207ZM33.1294 23.87C32.9291 23.8127 32.8147 23.7269 32.7288 23.7555C32.6144 23.7555 32.5286 23.8127 32.4141 23.87C32.4999 23.9844 32.5572 24.0988 32.643 24.1847C32.7002 24.2133 32.8433 24.0702 33.1294 23.87ZM34.331 20.7515C34.2737 20.6657 34.2451 20.5226 34.2165 20.5226C34.1021 20.5226 33.9877 20.5798 33.8732 20.6084C33.9018 20.6657 33.9304 20.8087 33.959 20.8087C34.0735 20.8087 34.2165 20.7801 34.331 20.7515ZM40.2246 4.24365C40.1292 4.31994 40.0243 4.39623 39.9099 4.47253C39.948 4.51067 39.9766 4.53928 39.9957 4.55836C40.072 4.44392 40.1483 4.33901 40.2246 4.24365ZM42.9997 8.04875C42.8281 7.93431 42.7136 7.81987 42.6278 7.84848C42.5134 7.87709 42.4561 8.02014 42.3703 8.10597C42.4561 8.1918 42.542 8.30624 42.6278 8.30624C42.7136 8.30624 42.7995 8.1918 42.9997 8.04875Z" fill="white"/>
<path d="M36.074 1.6697C36.0454 1.61248 36.0168 1.55527 35.9882 1.49805C35.9596 1.52666 35.9023 1.55527 35.9023 1.55527C35.931 1.64109 35.9596 1.69831 35.9882 1.75553C36.0168 1.72692 36.074 1.69831 36.074 1.6697Z" fill="white"/>
<path d="M17.5363 14.6009C17.5363 14.6009 17.4791 14.5723 17.4505 14.5723C17.4505 14.6009 17.4219 14.6295 17.4219 14.6581C17.4219 14.6867 17.4791 14.6867 17.5077 14.6867C17.5077 14.6581 17.5363 14.6295 17.5363 14.6009Z" fill="white"/>
<path fill-rule="evenodd" clip-rule="evenodd" d="M65.2017 80.203C64.9728 81.2901 65.402 82.4059 64.8298 83.4645C64.6581 83.8078 64.4865 84.4658 64.6581 84.6661C65.2875 85.3527 64.8298 85.696 64.372 86.1538C64.2004 86.3255 64.1145 86.6402 64.0287 86.9263C63.8284 87.7273 63.5709 88.557 63.4565 89.3867C63.3707 89.9875 63.714 90.6169 63.1418 91.1605C62.6268 91.6183 62.2549 92.1905 61.7685 92.6768C61.6827 92.7913 61.3966 92.9057 61.3108 92.8485C60.4239 92.2763 59.7372 92.9629 59.1936 93.3348C57.8776 94.3362 56.4185 94.0787 54.988 94.0501C54.2728 94.0501 53.7578 93.6496 53.5003 92.8199C53.3 92.0474 52.7564 91.3322 52.5276 90.5311C52.3273 89.8158 52.3273 89.0148 52.2701 88.2709C52.2129 87.4985 52.1556 86.726 52.127 85.9535C52.0698 84.9808 52.0698 83.9795 52.0698 83.0067C52.0698 82.8351 52.2129 82.6062 52.1556 82.5203C51.4118 81.5762 52.127 80.7465 52.2701 79.8596C52.499 78.5722 52.4417 77.2275 52.1842 75.9115C52.1556 75.7112 52.0126 75.4823 52.0698 75.3107C52.5848 73.9374 51.8982 72.6786 51.7265 71.3911C51.6121 70.3898 51.8123 69.3312 51.7265 68.3299C51.6407 67.4716 51.8695 66.5275 51.326 65.7264C51.1543 65.4975 51.0685 65.1256 51.1257 64.8967C51.5834 63.266 51.469 61.6066 51.3546 59.9472C51.2687 58.86 51.2687 57.8015 51.6407 56.7429C51.8409 56.228 51.8123 55.7988 51.3832 55.341C51.1543 55.0549 51.1257 54.5686 51.0399 54.168C50.9254 53.51 51.0399 52.8234 50.6393 52.1654C50.296 51.6504 49.8382 51.5073 49.3233 51.4787C49.0944 51.4501 48.6366 51.7362 48.6366 51.9079C48.5794 53.367 48.0644 54.7402 48.2361 56.2852C48.4078 57.9159 48.8655 59.5753 48.4364 61.2919C48.2647 61.8927 48.4936 62.6079 48.5508 63.2946C48.5508 63.6665 48.6939 64.0956 48.5794 64.439C48.3219 65.1828 48.0358 65.8694 48.6366 66.5847C48.7225 66.6705 48.6939 66.928 48.608 67.0711C48.1217 67.7863 48.2933 68.5015 48.4936 69.274C48.6652 69.789 48.5794 70.4184 48.465 70.962C48.2933 72.0206 48.1217 73.0505 48.3792 74.1377C48.465 74.481 48.3792 74.9101 48.2933 75.2821C48.0931 75.9687 48.0931 76.5981 48.5508 77.2275C48.6652 77.3706 48.6939 77.7711 48.5794 77.9142C48.3219 78.2575 48.2933 78.515 48.5508 78.8297C48.608 78.9155 48.6366 79.1444 48.5794 79.2016C47.6353 79.8596 48.5794 80.6035 48.4936 81.2901C48.465 81.7479 48.6939 82.3201 48.4936 82.6634C48.0358 83.4931 48.465 84.2942 48.4078 85.0666C48.3219 85.7533 49.3519 86.0966 48.98 86.8118C48.6652 87.4698 48.6939 88.1565 48.9513 88.7287C49.6094 90.2164 49.2947 91.7899 49.6094 93.3062C49.638 93.5637 49.5808 93.8212 49.5235 94.0787C49.3805 94.9084 49.0944 95.6236 49.638 96.5105C50.0099 97.14 49.8669 98.0841 49.9241 98.8852C49.9241 98.9996 49.7238 99.1426 49.638 99.2571C49.5521 99.1712 49.4663 99.0854 49.4377 98.971C49.4091 98.8565 49.4377 98.6277 49.3805 98.6277C48.3505 98.2271 48.2361 97.4261 48.3792 96.5105C48.3792 96.5105 48.3887 96.5105 48.4078 96.5105C48.3219 96.3961 48.2361 96.253 48.1503 96.11C48.0931 95.9956 48.0644 95.8811 48.0072 95.7953C47.95 95.8811 47.807 95.9669 47.8356 96.0528C47.8928 96.9111 47.3778 97.798 47.95 98.6849C48.1789 99.0854 48.0644 99.7148 48.1217 100.23C48.1503 100.344 48.1789 100.459 48.2361 100.602C48.2647 100.487 48.2933 100.373 48.3792 100.287C48.7511 99.7148 48.98 99.6862 49.4091 100.23C49.9241 100.859 50.2674 101.46 50.1816 102.404C50.0671 103.606 49.9813 104.865 50.4104 106.066C50.4963 106.295 50.4104 106.581 50.3532 106.839C50.1816 107.583 49.9527 108.326 50.3532 109.07C50.4104 109.185 50.4104 109.328 50.3818 109.442C50.2674 111.044 50.5249 112.646 50.3818 114.22C50.2674 115.336 50.6107 116.251 50.9254 117.167C51.0685 117.567 51.1543 117.853 51.0113 118.254C50.811 118.826 50.7252 119.427 50.5821 119.999C50.5535 120.085 50.4963 120.171 50.5249 120.228C51.326 121.83 50.4104 123.518 50.8682 125.149C50.9826 125.492 50.9826 125.893 51.0399 126.265C51.0685 126.436 51.2115 126.637 51.1543 126.751C50.5249 128.096 51.1257 129.526 50.8682 130.871C50.7538 131.443 50.7252 131.958 51.2115 132.387C51.3832 132.53 51.469 132.931 51.3832 133.102C50.7824 134.447 51.0685 135.849 51.2401 137.165C51.4118 138.567 51.0399 139.912 51.2115 141.313C51.2687 141.857 51.7265 142.63 50.8968 143.116C50.8396 143.116 50.8396 143.373 50.8968 143.459C51.6979 144.518 50.7538 144.947 50.1816 145.519C50.048 145.634 49.9241 145.748 49.8096 145.862C49.9527 146.005 50.1243 146.263 50.2674 146.234C50.7252 146.177 50.7824 146.149 50.5821 146.664C50.153 147.693 49.4091 148.666 49.6666 149.925C49.6952 150.039 49.5235 150.183 49.4377 150.297C49.3233 150.554 49.2088 150.783 49.123 151.041C49.0372 151.298 49.0086 151.584 48.9227 151.842C48.8369 152.099 48.5794 152.357 48.6366 152.557C48.9513 153.816 48.2647 154.731 47.6353 155.704C47.3778 156.105 47.1489 156.591 47.1489 157.02C47.1489 157.678 46.777 158.079 46.3765 158.451C45.7757 158.937 45.1462 159.452 44.4596 159.767C43.7444 160.11 42.9433 160.053 42.1994 159.738C41.7703 159.567 41.2839 159.309 40.8262 159.338C39.5959 159.423 38.8521 158.737 38.1082 157.964C37.7077 157.535 37.3644 157.106 36.9638 156.706C36.4203 156.162 35.9911 155.676 36.0769 154.731C36.1342 153.673 35.7622 152.614 35.6192 151.556C35.5047 150.697 35.4761 149.839 35.4189 148.981C35.4189 148.809 35.4475 148.638 35.3903 148.466C34.7609 146.578 34.6751 144.661 35.0184 142.687C35.047 142.401 34.9325 142.086 34.9039 141.8C34.8467 141.514 34.7323 141.17 34.8181 140.913C35.2759 139.482 34.9039 138.052 34.8467 136.621C34.8467 136.478 34.6751 136.25 34.7323 136.135C35.0756 135.391 35.3045 134.733 34.9612 133.818C34.6751 133.131 34.9612 132.244 34.8467 131.472C34.7609 130.842 35.3045 130.213 34.7895 129.612C34.7323 129.526 34.8181 129.24 34.9325 129.154C35.6764 128.639 35.5047 128.01 35.2186 127.352C35.1328 127.123 35.2186 126.837 35.2473 126.608C35.2759 126.408 35.4475 126.122 35.3617 126.007C34.7323 124.949 35.2759 123.89 35.3045 122.832C35.3045 122.803 35.3617 122.746 35.3617 122.717C35.3903 122.174 34.4748 121.859 34.9612 121.201C35.3617 120.714 35.3617 120.199 35.1328 119.627C35.0756 119.484 35.047 119.227 35.1328 119.112C35.6764 118.483 35.562 117.796 35.3617 117.052C35.2759 116.795 35.3045 116.423 35.4475 116.194C35.705 115.794 35.7336 115.536 35.3331 115.221C35.19 115.136 35.1328 114.849 35.1614 114.649C35.2186 113.648 35.3331 112.618 35.3617 111.617C35.3903 110.644 35.4189 109.671 35.2186 108.727C35.047 108.012 34.9898 107.325 35.1042 106.581C35.1614 106.295 35.2473 105.866 35.1042 105.694C34.4462 104.979 34.8753 104.235 34.9039 103.491C34.9325 102.919 34.8467 102.347 34.9039 101.775C34.9898 101.174 35.1328 100.602 34.7895 100.001C34.6751 99.7721 34.7323 99.4287 34.7323 99.1426C34.7609 98.6277 34.9039 98.0841 34.7609 97.6263C34.4176 96.625 34.3031 95.595 34.3317 94.5651C34.3317 94.3648 34.2745 94.1359 34.1887 93.9357C34.1601 93.8498 33.9884 93.8212 33.9026 93.7354C33.8168 94.4792 32.9299 94.1932 32.701 94.7081C32.6438 94.794 32.6724 94.8798 32.6438 94.9656C32.186 95.8811 31.3849 96.7966 31.3849 97.7122C31.3849 98.6849 31.7283 99.7148 31.5852 100.745C31.4708 101.574 31.2991 102.404 31.2133 103.234C31.1561 103.663 31.1847 104.092 31.2133 104.521C31.2991 106.009 31.4422 107.468 31.4994 108.927C31.528 110.215 31.4422 111.502 31.4708 112.79C31.4708 113.333 31.6424 113.877 31.7283 114.42C31.7855 114.678 31.9571 114.935 31.8999 115.164C31.5852 116.251 31.6424 117.31 31.8713 118.368C31.8999 118.397 31.8427 118.454 31.8427 118.511C32.0143 119.255 31.3563 119.456 30.9558 119.828C31.3277 120.171 31.7283 120.486 32.043 120.857C32.1288 120.972 32.043 121.287 31.9857 121.487C31.7283 122.231 31.4708 122.946 31.8141 123.718C31.8713 123.833 31.8427 124.062 31.7855 124.09C30.6983 124.548 31.4708 125.149 31.6996 125.664C31.9571 126.265 32.186 126.837 31.6996 127.466C31.5852 127.638 31.6138 127.953 31.6138 128.182C31.5566 129.212 31.5852 130.241 31.4994 131.271C31.4422 132.273 31.0988 133.246 31.7283 134.161C31.8713 134.361 31.8713 134.676 31.8141 134.905C31.5566 135.82 31.1847 136.707 30.9558 137.594C30.8414 137.995 30.8127 138.452 30.9558 138.824C31.1274 139.254 31.1274 139.54 30.8986 139.912C30.5839 140.369 30.6697 140.827 31.1274 141.142C31.7283 141.542 31.8141 142.057 31.7283 142.715C31.6138 143.545 31.671 144.375 31.7283 145.176C31.7569 145.605 31.9571 145.977 31.4708 146.32C31.3563 146.406 31.4422 146.864 31.528 147.121C31.8141 148.037 32.1002 148.895 31.4994 149.839C31.2419 150.268 31.3849 150.955 31.3563 151.499C31.3563 152.128 31.3277 152.7 30.7555 153.101C30.498 153.272 30.5266 153.444 30.7841 153.702C31.4994 154.474 31.2419 156.219 30.3836 156.82C30.2119 156.934 30.0403 157.077 29.8972 157.249C28.7814 158.708 27.0649 159.109 25.4627 159.28C24.4614 159.366 23.317 159.452 22.2298 158.937C21.5718 158.622 20.8279 158.508 20.1985 158.022C19.5977 157.592 19.1686 157.077 18.8538 156.477C18.1958 155.189 17.5664 153.873 17.0228 152.529C16.8226 151.985 16.8512 151.327 16.8226 150.726C16.7939 149.954 16.8798 149.181 16.4506 148.466C16.3362 148.266 16.3076 147.922 16.3934 147.722C16.7081 146.835 16.3648 146.12 16.1359 145.29C15.907 144.346 15.8784 143.345 15.8212 142.372C15.764 141.714 16.1645 142.515 16.2504 142.229C16.5651 141.17 16.9084 140.055 16.1073 139.053C15.6782 138.538 15.5923 138.052 15.7354 137.394C15.8498 136.85 15.7926 136.278 15.8498 135.706C15.8784 135.506 16.0501 135.22 16.2218 135.134C16.5937 134.991 16.4792 134.848 16.3362 134.59C16.0501 134.132 15.764 133.646 15.5923 133.131C15.4779 132.788 15.3635 132.33 16.1359 132.559C16.5651 132.702 16.6223 132.158 16.5078 131.844C16.2504 131.157 15.9357 130.499 15.6496 129.841C15.5637 129.612 15.3635 129.326 15.4207 129.154C15.8212 128.067 15.6209 126.98 15.6209 125.864C15.5923 125.178 15.7926 124.977 16.4792 125.349C16.9942 125.578 16.8512 125.292 16.8798 125.092C16.937 124.691 16.9942 124.291 16.9942 123.89C16.9656 123.461 16.8226 123.06 16.7939 122.631C16.7939 122.517 16.9656 122.374 17.0514 122.231C16.3648 122.231 16.5651 123.003 16.1645 123.289C15.907 123.461 15.9643 123.575 15.8212 123.347C15.6209 122.975 15.3062 122.66 15.5923 122.174C15.7068 121.945 15.5637 121.573 15.5637 121.287C15.5923 121.001 15.6496 120.714 15.6782 120.457C15.9643 120.571 16.2217 120.657 16.4792 120.8C16.6509 120.857 16.8226 120.972 16.9656 121.058C16.9656 120.886 16.937 120.714 16.9084 120.543C16.8798 120.085 16.8226 119.627 16.7939 119.17C16.7939 118.969 16.8512 118.769 16.8798 118.569C16.7081 118.702 16.5365 118.845 16.3648 118.998C16.2504 119.084 16.1073 119.427 16.0215 118.941C15.8784 118.254 15.6782 117.539 15.5637 116.823C15.5351 116.652 15.6782 116.423 15.7354 116.223C15.764 115.994 15.907 115.708 15.8212 115.536C15.5351 114.935 15.4493 114.392 15.907 113.848C15.9929 113.734 15.9643 113.448 15.8784 113.362C15.3062 112.818 15.4779 112.189 15.764 111.674C16.0787 111.102 15.907 110.615 15.7926 110.072C15.7068 109.785 15.5637 109.442 15.6782 109.213C16.1645 108.212 15.6782 107.01 16.3362 106.038C16.3362 106.038 16.279 105.952 16.2504 105.952C16.1931 105.971 16.1455 105.99 16.1073 106.009L16.0501 106.038C16.0501 106.019 16.0501 105.999 16.0501 105.98C16.0692 105.98 16.0882 105.99 16.1073 106.009C15.8784 105.294 15.7926 104.607 16.1931 103.92C16.2217 103.835 16.279 103.749 16.279 103.692C15.9643 102.833 15.9357 102.061 16.7081 101.403C16.5746 101.269 16.4411 101.126 16.3076 100.974C16.2217 100.573 16.0787 100.173 15.9929 99.772C15.9643 99.6004 15.9356 99.3143 16.0501 99.1999C16.4506 98.7421 16.6509 98.313 15.9643 97.941C15.907 97.9124 15.8784 97.6263 15.907 97.5977C16.5937 97.2544 16.0501 96.5105 16.3934 96.11C16.8226 95.6809 16.6223 95.2803 16.5365 94.8226C16.4506 94.1931 16.422 93.5351 16.4506 92.9057C16.4506 91.8757 16.5078 90.8458 16.5365 89.8158C16.5365 89.0148 16.2504 88.2137 16.6223 87.4126C16.1073 86.3255 16.6795 85.2955 16.7939 84.2083C16.937 82.8064 16.6795 81.376 16.7939 79.9741C16.8798 78.9441 17.3947 77.9714 16.6795 76.9987C17.2517 76.2834 16.7939 75.511 16.7939 74.7385C16.8226 74.3666 16.6795 73.9946 16.6223 73.6227C16.5651 73.2794 16.422 72.8788 16.5651 72.65C16.9942 71.8775 16.6795 71.1623 16.6509 70.3898C16.5651 68.9021 16.5937 67.3858 16.5651 65.8694C16.5365 65.1828 16.3934 64.5248 16.3362 63.8382C16.3076 63.5234 16.1931 63.1801 16.3076 62.9226C16.6795 62.0643 16.5365 61.1488 16.6223 60.2619C16.6509 59.7756 16.7367 59.375 16.4506 58.9173C16.3076 58.717 16.3648 58.3451 16.3648 58.059C16.3648 56.1707 16.3934 54.2825 16.3934 52.3942C16.3934 52.0509 16.2504 51.7076 16.0501 51.4215C15.8212 51.021 15.4493 50.8493 14.9915 51.2212C14.1332 51.9079 13.7041 52.8234 13.6755 53.9106C13.6755 54.1108 13.8471 54.3969 13.7613 54.54C12.9888 55.8846 13.4752 57.3723 13.2177 58.7742C13.0461 59.5467 12.9316 60.3478 13.1891 61.1774C13.3894 61.8355 13.0175 62.2932 12.4739 62.6651C11.8731 63.0943 12.388 63.2373 12.6741 63.409C12.6932 63.409 12.7027 63.409 12.7027 63.409L12.7314 63.4376H12.7027C12.7027 63.9907 12.7027 64.5439 12.7027 65.097C12.7027 66.0983 12.7314 67.1283 12.7314 68.1296C12.7314 68.3013 12.6741 68.4729 12.6455 68.6446C12.5311 70.8475 12.4166 73.0505 12.3022 75.2535C12.2736 76.3406 12.3594 77.4564 12.1305 78.4864C11.9017 79.5735 12.0161 80.5177 12.3022 81.5476C12.5883 82.5776 12.7027 83.722 12.0161 84.7233C11.9303 84.8664 11.8445 85.1238 11.9303 85.2097C12.5883 86.0966 11.8731 87.0979 12.2164 87.9848C12.245 88.0707 12.3022 88.1851 12.2736 88.2423C11.4153 89.4153 11.587 91.1033 10.3567 92.1046C9.95621 92.4193 9.78455 92.9343 9.41262 93.249C8.92625 93.6209 8.35406 94.0501 7.78186 94.1645C7.20966 94.279 6.52303 94.7653 5.97945 94.0215C5.89362 93.907 5.57891 93.8498 5.40725 93.8784C4.80644 93.9929 4.46313 93.6496 3.97676 93.4493C2.08851 92.5338 1.97407 90.7314 1.60215 89.0434C1.57354 88.8431 1.83103 88.557 1.91685 88.2995C1.94546 88.1565 1.88825 87.9562 1.88825 87.7846C0.944122 88.2709 1.14439 87.3268 1.02995 86.9835C0.772464 86.211 0.600805 85.4099 0.457756 84.6089C0.114439 83.0353 0 81.4046 0 79.7452C0.0286098 78.1144 0.286097 76.5409 0.371926 74.9388C0.400536 74.5668 0.257487 74.1663 0.200268 73.7944C0.0858285 72.9647 0.314706 72.3067 1.08717 71.8775C1.63076 71.5628 1.57354 71.2195 1.02995 70.9048C0.457756 70.5901 0.400537 70.1323 0.686635 69.5887C0.743855 69.4743 0.944122 69.3026 1.05856 69.3312C1.31605 69.3598 1.60215 69.7318 1.77381 69.2168C1.92639 68.6827 2.07898 68.1487 2.23156 67.6147C2.23156 67.586 2.14573 67.5002 2.08851 67.4144C2.03129 67.4716 1.94546 67.5288 1.94546 67.586C1.88824 67.7577 1.94547 67.958 1.85964 68.101C1.80242 68.1868 1.4591 68.2441 1.4591 68.2155C1.25883 67.8721 1.02995 67.5288 0.972733 67.1569C0.886904 66.3272 0.886903 65.4689 0.886903 64.6106C0.886903 64.1815 0.572196 63.6379 1.25883 63.409C1.31605 63.3804 1.34466 63.2087 1.34466 63.2087C0.629414 62.751 1.14439 62.1502 1.14439 61.6066C1.14439 61.0058 1.173 60.4336 1.11578 59.8614C1.02995 59.1748 1.80242 58.7456 1.57354 57.9445C1.48771 57.6012 1.83103 57.0862 1.4591 56.6571C1.40188 56.5427 1.40188 56.2566 1.4591 56.1707C2.17434 55.2552 1.83103 54.168 2.11712 53.1667C2.23156 52.7662 1.94546 52.2226 2.03129 51.7934C2.23156 50.9065 2.28878 49.9624 2.46044 49.0755C2.74654 47.2445 3.31873 45.4707 3.60483 43.6396C3.89093 41.7228 4.92088 40.1206 5.52169 38.3468C5.77918 37.5744 6.78052 37.0594 7.26689 36.3155C7.95352 35.1997 9.09791 34.5703 10.0706 33.7979C10.7287 33.2543 11.7014 33.1112 12.5311 32.8251C13.0175 32.6535 13.4752 32.4818 13.9616 32.3674C14.8485 32.1671 15.764 31.738 16.5651 31.9382C18.0528 32.2529 19.4547 32.0813 20.8851 31.8524C22.0009 31.6521 23.1167 31.3374 24.2897 31.6235C24.4041 31.6521 24.5758 31.6235 24.6616 31.5377C25.2911 30.9083 26.0635 31.2516 26.7501 31.3088C28.152 31.4805 29.5253 31.8524 30.9844 31.6807C31.4708 31.6235 31.9857 31.881 32.5007 31.9955C32.6724 32.0241 32.9013 32.1671 32.9871 32.1099C33.874 31.2802 34.8753 32.0241 35.7908 31.9096C36.6777 31.7952 37.5074 31.5377 38.3943 31.4233C38.9093 31.366 39.4815 31.4519 40.0251 31.5091C40.1395 31.5091 40.2826 31.5949 40.397 31.5949C41.6272 31.5377 42.8575 31.4233 44.1163 31.4233C44.8029 31.4233 45.4896 31.4805 46.1476 31.6807C47.2062 31.9668 48.3219 31.9096 49.1802 32.8824C49.5521 33.3115 50.5821 33.2543 51.2974 33.2543C51.8695 33.2257 52.3845 33.3401 52.8995 33.4259C53.7578 33.5404 54.33 33.9981 54.9594 34.3987C55.2741 34.5703 55.5888 34.7992 55.9035 34.8278C56.8476 34.8564 57.334 35.4859 57.849 36.1439C59.165 37.8891 60.3094 39.6629 60.6814 41.8944C60.7672 42.4094 61.3108 42.9244 61.7685 43.2391C62.3407 43.611 62.0832 43.983 61.9402 44.3549C61.7971 44.8126 61.5396 45.0129 61.0819 44.6696C60.9675 44.6124 60.7958 44.6696 60.6814 44.6696C60.7386 44.8413 60.7958 45.0415 60.9388 45.1846C60.9675 45.2418 61.1677 45.1846 61.2822 45.156C61.6827 45.0415 61.7113 45.1846 61.7971 45.5851C61.883 46.0715 61.6541 46.7295 62.2549 47.0728C62.3407 47.1014 62.3693 47.3303 62.3121 47.4161C61.6827 48.5891 62.3407 49.7049 62.3407 50.8493C62.3407 51.6504 61.9974 52.4801 61.6827 53.2525C61.5396 53.6245 61.4538 53.7103 61.7399 54.0822C62.6268 55.2838 62.9988 56.7143 62.9988 58.202C62.9988 58.2592 63.0274 58.3165 63.0274 58.3165C62.3121 59.232 63.1418 60.0331 63.199 60.8913C63.2562 61.2633 63.2848 61.6352 63.2276 62.0071C63.1704 62.4077 63.0274 62.8082 63.5709 62.9799C63.6282 62.9799 63.714 63.0943 63.714 63.1801C63.6854 64.0098 63.6282 64.8681 63.5709 65.7264C63.5423 65.8694 63.2848 66.0983 63.3421 66.1555C64.0859 67.0997 63.3421 68.2441 63.857 69.2454C64.1145 69.7318 63.9429 70.1895 63.4279 70.4184C62.9129 70.6473 62.9701 70.8762 63.3707 71.1337C64.3148 71.7917 64.4865 72.7644 64.6009 73.8516C64.7153 74.8243 64.229 75.8829 65.0014 76.7984C65.2017 77.0273 65.0587 77.5422 65.0873 77.9142C65.1159 78.6866 65.3447 79.4877 65.2017 80.203ZM48.3792 96.5105C48.3792 96.4915 48.3792 96.4915 48.3792 96.5105V96.5105ZM2.17434 61.5494C2.17434 61.4922 2.08851 61.4349 2.0599 61.3777C2.00268 61.4063 1.94547 61.4635 1.85964 61.5208C1.93593 61.6161 2.01222 61.702 2.08851 61.7782C2.11712 61.721 2.17434 61.6352 2.17434 61.5494ZM1.60215 81.8051L1.57354 81.7193L1.51632 81.8051H1.60215ZM1.77381 76.5409C1.65937 76.2262 1.7452 75.797 1.71659 75.4251C1.31605 75.3965 1.08717 75.6254 1.14439 76.0259C1.20161 76.5409 1.37327 77.0273 0.858294 77.4564C0.772464 77.5422 0.772464 77.8856 0.858294 78.0286C1.28744 78.7725 1.23022 79.5163 1.05856 80.2888C1.02995 80.4318 1.05856 80.6321 1.11578 80.7752C1.173 80.861 1.28744 80.9754 1.40188 81.004C1.48771 81.004 1.65937 80.9182 1.71659 80.8324C1.80242 80.6321 1.91686 80.4318 1.88825 80.2316C1.7452 79.0013 2.28878 77.7711 1.77381 76.5409ZM2.17434 72.8216C2.17434 72.7072 2.08851 72.5641 2.03129 72.5355C1.91686 72.5069 1.7452 72.5927 1.68798 72.65C1.173 73.3366 2.0599 74.2521 1.28744 74.9101C1.28744 74.9101 1.40188 75.0818 1.4591 75.1676C1.54493 75.2535 1.63076 75.3107 1.71659 75.3965C2.20295 74.5954 2.28878 73.7085 2.17434 72.8216ZM2.28878 71.3625C2.14573 71.3053 2.03129 71.1909 1.91685 71.1909C1.85964 71.1909 1.7452 71.4198 1.77381 71.477C1.85964 71.62 2.00269 71.6772 2.11712 71.7917C2.14573 71.6772 2.20295 71.5628 2.28878 71.3625ZM9.21235 38.6901C9.17421 38.6711 9.1456 38.652 9.12652 38.6329C9.08838 38.6901 9.05976 38.7474 9.04069 38.8046C9.09791 38.7664 9.15513 38.7283 9.21235 38.6901ZM13.9902 48.1314C13.9616 48.0169 13.8471 47.8739 13.7613 47.7594C13.6755 47.8453 13.5324 47.9311 13.5324 48.0169C13.561 48.16 13.6469 48.303 13.7899 48.5605C13.9044 48.3316 13.9902 48.2172 13.9902 48.1314ZM15.1632 46.987C15.1632 46.9584 15.106 46.9584 15.0774 46.9298C15.0583 46.987 15.0392 47.0442 15.0201 47.1014C15.0583 47.1014 15.0964 47.1014 15.1346 47.1014C15.1346 47.0728 15.1632 47.0156 15.1632 46.987ZM15.1632 37.4027C15.1346 37.3169 15.0774 37.2024 15.0201 37.088C14.9629 37.1452 14.8771 37.2024 14.8771 37.231C14.9057 37.3169 14.9629 37.4027 15.0201 37.4599C15.0487 37.4599 15.1346 37.4313 15.1632 37.4027ZM16.8512 105.694C16.937 105.895 17.0514 106.038 17.1659 106.209C17.2231 106.152 17.2517 106.095 17.3661 106.009C17.2326 105.856 17.0991 105.694 16.9656 105.523C16.937 105.58 16.8226 105.666 16.8512 105.694ZM16.8512 121.973C16.9084 122.05 16.9656 122.126 17.0228 122.202C16.9847 122.088 16.9465 121.983 16.9084 121.887C16.8798 121.916 16.8512 121.945 16.8512 121.973ZM17.1945 113.304C17.0514 113.419 16.8226 113.562 16.8226 113.705C16.7653 114.249 16.7653 114.792 16.7653 115.336C16.7939 115.736 16.8226 116.137 16.8512 116.566C17.0228 116.194 17.2803 115.822 17.3375 115.422C17.4234 114.706 17.8525 113.963 17.1945 113.304ZM17.1945 113.219C17.7095 112.589 17.452 111.874 17.3375 111.159C17.0228 111.674 16.9656 112.561 17.1945 113.219ZM17.6236 109.099C17.452 108.984 17.3089 108.841 17.2803 108.87C17.1659 108.984 17.0228 109.127 16.937 109.271C16.937 109.299 17.1659 109.528 17.1659 109.499C17.3375 109.414 17.452 109.271 17.6236 109.099ZM18.5391 59.7756C18.4533 59.6897 18.3961 59.5753 18.2817 59.5181C18.253 59.5181 18.1386 59.6039 18.0814 59.6325C18.1768 59.747 18.2721 59.8519 18.3675 59.9472C18.4247 59.89 18.4819 59.8614 18.5391 59.7756ZM20.1413 152.214C20.1127 152.185 20.0841 152.128 20.0555 152.128C20.0268 152.128 19.9982 152.157 19.9696 152.185C19.9982 152.214 20.0268 152.271 20.0555 152.271C20.0841 152.271 20.1127 152.214 20.1413 152.214ZM22.6303 144.174C22.6589 144.403 22.8592 144.604 22.9737 144.832C23.0881 144.604 23.2311 144.346 23.3742 144.089C23.2311 143.659 23.0881 143.288 22.945 142.916C22.9164 142.887 22.7162 142.916 22.7162 142.944C22.6876 143.345 22.6017 143.774 22.6303 144.174ZM23.1453 139.482C23.1453 139.54 23.1453 139.568 23.1167 139.626C23.1739 139.606 23.2311 139.587 23.2884 139.568C23.2693 139.53 23.2502 139.492 23.2311 139.454C23.2025 139.482 23.1739 139.482 23.1453 139.482ZM23.2598 138.853C23.2407 138.815 23.2311 138.777 23.2311 138.739C23.2121 138.796 23.193 138.843 23.1739 138.882C23.193 138.863 23.2216 138.853 23.2598 138.853ZM22.945 141.743C22.9164 141.771 23.0023 141.857 23.0309 141.943C23.1262 141.867 23.2121 141.8 23.2884 141.743C23.2598 141.628 23.2311 141.542 23.2025 141.485C23.1167 141.542 23.0023 141.628 22.945 141.743ZM23.0595 140.713C23.0595 140.598 22.945 140.512 22.8878 140.398C22.8306 140.541 22.7448 140.684 22.7162 140.827C22.7162 140.942 22.802 141.027 22.9737 141.285C23.0309 140.999 23.0881 140.856 23.0595 140.713ZM22.802 145.948C22.8592 146.263 22.9737 146.52 23.0595 146.807C23.1167 146.549 23.1739 146.292 23.1739 146.005C23.1739 145.862 23.0595 145.719 23.0023 145.576C22.9164 145.691 22.7734 145.834 22.802 145.948ZM23.0881 146.892C23.1835 147.312 23.2788 147.732 23.3742 148.151C23.4028 148.294 23.4314 148.409 23.4314 148.523C23.46 148.409 23.4886 148.294 23.5459 148.208C23.8033 147.608 23.6889 147.178 23.0881 146.892ZM24.5758 40.8931C24.6044 40.8645 24.633 40.8359 24.6616 40.7787C24.5758 40.75 24.49 40.6928 24.4328 40.7214C23.7747 40.9217 23.2598 40.7501 22.802 40.2637C22.7734 40.2351 22.287 40.5212 22.3156 40.607C22.4301 41.0934 22.6303 41.5797 22.802 42.0375C22.8306 42.1233 23.0595 42.1805 23.1167 42.1233C23.6031 41.7228 24.0894 41.3222 24.5758 40.8931ZM25.4055 81.004C25.3197 80.7179 25.148 80.4604 25.005 80.1743C24.9287 80.4032 24.8524 80.6226 24.7761 80.8324C24.7189 81.0612 24.6616 81.2615 24.5758 81.5476C24.633 81.6621 24.6902 81.8337 24.7761 82.034C24.9191 81.8909 25.0622 81.7479 25.148 81.5762C25.2624 81.4046 25.4341 81.1757 25.4055 81.004ZM31.013 148.237C31.1084 148.18 31.1942 148.123 31.2705 148.065C31.2323 148.027 31.1847 147.98 31.1274 147.922C31.0702 147.951 30.9844 147.98 30.9558 148.008C30.9558 148.065 31.013 148.151 31.013 148.237ZM34.4748 77.1131C34.4748 77.0845 34.3317 76.97 34.3031 76.97C34.2173 77.0273 34.0456 77.0845 34.0456 77.1703C33.9026 77.7425 33.8168 78.2861 33.7309 78.8583C33.9026 78.8011 34.2173 78.7439 34.2459 78.6294C34.3604 78.1431 34.389 77.6281 34.4748 77.1131ZM38.6232 100.03C38.6232 100.049 38.6137 100.058 38.5946 100.058L38.6518 100.087L38.6232 100.03ZM38.7376 100.373C38.6995 100.277 38.6614 100.182 38.6232 100.087C38.6041 100.182 38.5851 100.277 38.566 100.373C38.6232 100.373 38.6804 100.373 38.7376 100.373ZM40.2826 63.4376C40.254 63.3804 40.2254 63.3232 40.1967 63.2373C40.1681 63.266 40.1395 63.2946 40.1395 63.3232C40.1395 63.3804 40.1681 63.4376 40.1967 63.5234C40.2254 63.4948 40.2826 63.4662 40.2826 63.4376ZM45.4609 60.6625C45.4609 60.6815 45.4705 60.7006 45.4896 60.7197C45.4896 60.7006 45.4991 60.672 45.5182 60.6339C45.4991 60.6529 45.48 60.6625 45.4609 60.6625ZM45.5468 63.6379C45.5468 63.6379 45.5563 63.6379 45.5754 63.6379C45.5468 63.266 45.5468 62.8654 45.5182 62.4935C45.4896 62.4077 45.3179 62.3791 45.2035 62.2932C44.9174 62.9513 44.2593 63.409 44.4024 64.2387C44.4882 64.8109 44.8888 64.7537 45.2321 64.8395C45.2893 64.8395 45.5182 64.4962 45.5468 64.2673C45.604 64.067 45.5468 63.8382 45.5468 63.6379ZM48.6366 111.388C48.6176 111.369 48.5985 111.34 48.5794 111.302C48.5413 111.34 48.5127 111.369 48.4936 111.388C48.5317 111.426 48.5699 111.464 48.608 111.502C48.608 111.464 48.6176 111.426 48.6366 111.388ZM48.8083 107.01C48.8369 106.953 48.8941 106.867 48.8941 106.81C48.8655 106.638 48.8083 106.495 48.7511 106.352C48.7225 106.495 48.6652 106.638 48.6366 106.781C48.6366 106.867 48.7511 106.925 48.8083 107.01ZM48.8369 115.422C48.9323 115.345 49.0276 115.279 49.123 115.221C49.0658 115.107 49.0086 115.05 48.98 114.992C48.8941 115.05 48.8083 115.107 48.7797 115.193C48.7511 115.25 48.8083 115.336 48.8369 115.422ZM48.8369 114.449C48.8751 114.392 48.9227 114.334 48.98 114.277C48.9418 114.22 48.9037 114.153 48.8655 114.077C48.8083 114.134 48.6939 114.191 48.7225 114.22C48.7225 114.306 48.8083 114.363 48.8369 114.449ZM49.0086 124.291C49.123 124.233 49.2374 124.176 49.2374 124.148C49.2374 123.976 49.2088 123.833 49.1802 123.661C49.0944 123.718 48.98 123.747 48.9513 123.804C48.9513 123.947 48.98 124.119 49.0086 124.291ZM49.8096 133.961C49.6666 134.218 49.4949 134.504 49.3233 134.819C49.4949 135.077 49.638 135.248 49.781 135.42C49.9527 135.22 50.296 134.991 50.296 134.79C50.2674 134.504 49.9813 134.247 49.8096 133.961ZM49.3805 131.901C49.4091 131.901 49.4091 131.815 49.4091 131.786C49.3805 131.758 49.3519 131.701 49.2947 131.643C49.2661 131.758 49.2374 131.815 49.2374 131.901C49.2947 131.901 49.3519 131.901 49.3805 131.901ZM49.7524 131.5C49.8096 131.5 49.8669 131.529 49.9527 131.5C49.9527 131.5 49.9813 131.414 49.9527 131.414C49.9241 131.357 49.8669 131.329 49.8096 131.3C49.7906 131.376 49.7715 131.443 49.7524 131.5ZM49.7524 130.184C49.6952 129.87 49.638 129.526 49.5235 129.24C49.4663 129.04 49.2947 128.868 49.1802 128.697C49.1516 128.925 49.0086 129.154 49.0372 129.355C49.123 129.669 49.2661 129.984 49.4091 130.299C49.4377 130.356 49.5235 130.413 49.6094 130.499C49.6666 130.385 49.781 130.27 49.7524 130.184ZM49.3519 125.292C49.3519 125.263 49.3805 125.235 49.3805 125.178C49.3805 125.178 49.3233 125.178 49.2947 125.149C49.2947 125.178 49.2661 125.235 49.2661 125.263C49.2661 125.263 49.3233 125.292 49.3519 125.292ZM49.4663 127.724L49.5808 127.695L49.4663 127.638V127.724ZM49.4663 122.689C49.4282 122.04 49.371 121.401 49.2947 120.772C49.2374 120.514 49.123 120.285 49.0658 120.028C49.0086 120.285 48.8941 120.543 48.8655 120.829C48.8655 120.972 48.9227 121.144 48.9513 121.315C48.9323 121.315 48.9227 121.315 48.9227 121.315C48.9513 121.802 48.9513 122.288 49.0086 122.746C49.0372 122.832 49.1802 122.917 49.2947 123.003C49.3519 122.889 49.4663 122.774 49.4663 122.689ZM49.2374 118.368C49.2374 118.397 49.2947 118.426 49.3233 118.483C49.3519 118.426 49.4377 118.368 49.4377 118.311C49.4377 118.283 49.3519 118.225 49.3233 118.168C49.2947 118.254 49.2374 118.311 49.2374 118.368ZM48.8083 108.098C48.7797 108.155 48.7225 108.241 48.7225 108.269C48.8083 108.498 48.9227 108.698 49.0086 108.927C49.0944 108.87 49.1516 108.841 49.2374 108.813C49.0849 108.565 48.9418 108.326 48.8083 108.098ZM48.3792 103.405C48.3219 103.405 48.2361 103.52 48.2361 103.606C48.1503 104.55 48.0644 105.494 48.7797 106.295C48.8083 105.923 48.9227 105.551 48.8941 105.179C48.8655 104.636 48.7511 104.092 48.6652 103.577C48.6366 103.491 48.465 103.434 48.3792 103.405ZM48.1503 101.946C48.1503 102.061 48.2647 102.175 48.3219 102.29C48.3791 102.175 48.465 102.089 48.5508 101.975C48.465 101.861 48.4078 101.775 48.3219 101.66C48.2647 101.775 48.1503 101.861 48.1503 101.946ZM47.9214 85.4672C47.9023 85.4672 47.8833 85.4767 47.8642 85.4958C47.8833 85.4958 47.8928 85.5053 47.8928 85.5244C47.9119 85.5053 47.9214 85.4862 47.9214 85.4672ZM48.0931 93.8212C48.0644 93.7926 48.0644 93.764 48.0358 93.7354C48.0072 93.7354 47.9786 93.764 47.95 93.7926C47.9691 93.8308 47.9977 93.8784 48.0358 93.9357C48.0549 93.8975 48.074 93.8594 48.0931 93.8212ZM52.5848 40.8073C52.6706 40.464 52.1556 39.9204 51.7265 39.8631C51.6979 39.8345 51.6693 39.8345 51.4976 39.8345C51.4404 39.949 51.2973 40.2065 51.326 40.2351C51.6979 40.4926 52.0698 40.7214 52.4703 40.9789C52.4703 40.9789 52.5848 40.8645 52.5848 40.8073ZM60.853 46.8439C60.9102 46.8439 60.9675 46.7867 61.0247 46.7867C60.9865 46.7295 60.9293 46.6627 60.853 46.5865C60.8244 46.6437 60.7958 46.7009 60.7672 46.7581C60.7672 46.7867 60.8244 46.8439 60.853 46.8439ZM61.2249 48.2172C61.2249 48.0742 61.1391 47.9311 61.0819 47.645C60.9388 47.8739 60.8244 47.9597 60.8244 48.0455C60.8244 48.16 60.9102 48.2744 60.9675 48.3889C61.0533 48.3316 61.2249 48.2744 61.2249 48.2172ZM61.4252 56.1707C61.3871 56.1517 61.3585 56.123 61.3394 56.0849C61.3108 56.1135 61.2536 56.1421 61.2536 56.1707C61.2536 56.1993 61.3108 56.2279 61.3394 56.2566C61.3585 56.2375 61.3871 56.2089 61.4252 56.1707ZM63.6568 75.5682C63.5709 75.4251 63.5137 75.3393 63.4279 75.2248C63.3421 75.3107 63.199 75.3679 63.1704 75.4823C63.1418 75.5396 63.2562 75.6826 63.3135 75.7684C63.3993 75.7112 63.5137 75.654 63.6568 75.5682Z" fill="white"/>
<path d="M16.0234 105.98C16.0427 105.98 16.0524 105.98 16.0524 105.98C16.0717 105.98 16.0813 105.97 16.0813 105.951C16.062 105.951 16.0427 105.961 16.0234 105.98Z" fill="white"/>
<path d="M16.25 100.945L16.3368 101.003C16.3368 101.003 16.3272 100.994 16.3079 100.974L16.25 100.945Z" fill="white"/>
</svg>
