<svg width="20" height="22" viewBox="0 0 20 22" fill="none" xmlns="http://www.w3.org/2000/svg">
<path id="Icon" d="M10.0005 0.25C13.8467 0.250062 17.1583 2.96484 17.9126 6.73633L19.1665 13.0049C19.5692 15.0183 18.5003 17.043 16.6333 17.873C15.9516 18.176 15.2514 18.4283 14.5395 18.6328L14.436 18.8682C13.657 20.6207 11.9184 21.7499 10.0005 21.75C8.08256 21.75 6.34395 20.6207 5.56494 18.8682L5.46044 18.6328C4.74887 18.4284 4.0491 18.1759 3.36767 17.873C1.50054 17.043 0.431765 15.0184 0.834467 13.0049L2.08837 6.73633C2.84272 2.96482 6.15426 0.25 10.0005 0.25ZM12.5513 19.0723C10.8624 19.3363 9.13754 19.3364 7.44873 19.0723C8.07582 19.8075 9.00289 20.25 10.0005 20.25C10.9979 20.25 11.9242 19.8073 12.5513 19.0723Z" fill="#191E3A"/>
</svg>
