<svg width="24" height="24" viewBox="0 0 24 24" fill="none" xmlns="http://www.w3.org/2000/svg">
<g id="olive-oil 1">
<path id="Vector" d="M4.29754 8.9859V9.7359C4.30562 10.2286 5.03943 10.229 5.04754 9.73588C5.04754 9.7359 5.04754 8.9859 5.04754 8.9859C5.03946 8.49314 4.30564 8.49282 4.29754 8.9859ZM3.92437 7.862C3.92437 7.862 3.17437 7.862 3.17439 7.862C2.68129 7.8701 2.68163 8.6039 3.17437 8.612H3.92437C4.41745 8.60387 4.4171 7.87008 3.92437 7.862ZM5.0479 6.73883C5.03982 6.24607 4.306 6.24575 4.2979 6.73883V7.48883C4.30598 7.98157 5.0398 7.98191 5.0479 7.48881C5.0479 7.48883 5.0479 6.73883 5.0479 6.73883ZM5.42107 8.61236H6.17107C6.66415 8.60424 6.66381 7.87045 6.17107 7.86236C6.17107 7.86236 5.42107 7.86236 5.42109 7.86236C4.92799 7.87047 4.92833 8.60426 5.42107 8.61236ZM14.4244 12.3526C15.1406 12.1501 15.5531 11.1788 15.5494 10.4888C15.5494 9.24758 14.5406 8.23883 13.2994 8.23883C12.5981 8.23883 11.6344 8.65132 11.4244 9.37507V10.3951C11.4244 10.5601 11.5331 10.7063 11.6906 10.7551C12.6131 11.0363 13.4681 11.5538 14.1619 12.2438C14.2331 12.3188 14.3306 12.3526 14.4244 12.3526ZM12.1744 9.50633C13.5094 8.04758 15.6881 9.94132 14.4281 11.4676C13.7719 10.8751 12.9994 10.4176 12.1744 10.1251V9.50633ZM11.2369 13.8638C12.971 13.8089 12.9714 11.2941 11.2369 11.2388C9.50277 11.2938 9.50235 13.8086 11.2369 13.8638ZM8.23687 14.2388C9.47287 14.2068 9.4731 12.3961 8.23689 12.3638C7.00086 12.3959 7.00063 14.2066 8.23687 14.2388Z" fill="#FC5921"/>
<path id="Vector_2" d="M11.0465 20.9887C10.5534 20.9793 10.554 20.2454 11.0465 20.2387C11.0465 20.2387 11.6431 20.2387 11.6431 20.2387C11.7163 19.9695 11.8157 19.7346 11.9314 19.5348C10.6759 18.4372 10.0511 16.6533 10.4006 15.084C10.2449 14.7976 10.4122 14.2551 9.92527 14.2387C9.71902 14.2387 9.55027 14.4074 9.55027 14.6137C9.55027 15.2324 9.04402 15.7387 8.42526 15.7387C7.80651 15.7387 7.30026 15.2324 7.30026 14.6137C7.29276 14.1224 6.55777 14.1187 6.55026 14.6137C6.50902 16.0949 4.34151 16.0986 4.30027 14.6137C4.30027 14.5612 4.28527 14.5162 4.27026 14.4749C4.88902 12.7236 6.29902 11.3249 8.15901 10.7549C8.31652 10.7061 8.42526 10.5599 8.42526 10.3949V6.36366H11.4253V7.46991C11.4178 7.73615 11.729 7.93116 11.969 7.80364C15.187 6.22482 17.9533 10.6571 15.1302 12.8624C14.9765 12.9787 14.939 13.1924 15.0403 13.3537C15.2653 13.7136 15.4453 14.0811 15.584 14.4561C15.5615 14.5012 15.5503 14.5536 15.5503 14.6137C15.5316 15.352 14.9845 15.7216 14.4345 15.7252C14.844 16.3296 15.1297 17.0305 15.2393 17.7609C15.5609 17.5628 15.9183 17.4199 16.2977 17.3383C16.3034 16.7307 16.4182 16.1249 16.6217 15.5501C16.515 14.7667 16.2646 13.9857 15.8428 13.2411C18.7528 10.5299 15.9853 5.7449 12.1753 6.91114V6.36366C14.1467 6.30122 14.1543 3.46212 12.2079 3.36771C12.2677 2.97923 12.3467 2.46681 12.3466 2.46681C12.5033 1.58761 11.7565 0.71767 10.8639 0.738659C10.8639 0.738659 8.98667 0.738659 8.98669 0.738659C8.09382 0.717509 7.34755 1.58772 7.50388 2.46681L7.64253 3.36698C5.68212 3.46828 5.71437 6.3039 7.67526 6.36366V10.1249C-0.668602 13.2664 3.76013 25.6012 12.1633 22.872C11.7573 22.3588 11.4996 21.6924 11.528 20.9887L11.0465 20.9887ZM7.67526 4.11366H12.1753C13.1631 4.13938 13.1649 5.5875 12.1752 5.61366C11.7158 5.61361 8.13495 5.61368 7.67529 5.61366C6.68542 5.5875 6.68766 4.1392 7.67526 4.11366ZM6.92526 16.8637C6.93202 16.3713 7.666 16.3704 7.67526 16.8637V17.6137C7.666 18.1066 6.93204 18.1063 6.92526 17.6136C6.92526 17.6137 6.92526 16.8637 6.92526 16.8637ZM6.55026 18.7387H5.80027C5.3073 18.7294 5.30762 17.9954 5.80029 17.9887C5.80027 17.9887 6.55026 17.9887 6.55026 17.9887C7.04264 17.9954 7.04348 18.7294 6.55026 18.7387ZM7.67526 19.8599C7.66602 20.3528 6.93204 20.3526 6.92526 19.8599C6.92526 19.8599 6.92526 19.1099 6.92526 19.1099C6.92526 18.9037 7.09027 18.7349 7.30026 18.7349C7.50651 18.7349 7.67526 18.9037 7.67526 19.1099V19.8599ZM7.67151 18.3637C7.67151 18.1537 7.84027 17.9887 8.04651 17.9887H8.79651C9.00276 17.9887 9.17151 18.1537 9.17151 18.3637C9.17151 18.5699 9.00276 18.7387 8.79651 18.7387H8.04651C7.84027 18.7387 7.67151 18.5699 7.67151 18.3637ZM9.55027 20.9887H8.80026C8.3073 20.9794 8.30762 20.2454 8.80029 20.2387C8.80027 20.2387 9.55027 20.2387 9.55027 20.2387C10.0426 20.2454 10.0435 20.9794 9.55027 20.9887ZM10.6753 22.1099C10.666 22.6028 9.93204 22.6026 9.92527 22.1099C9.92527 22.1099 9.92527 21.3599 9.92527 21.3599C9.92527 21.1537 10.0903 20.9849 10.3003 20.9849C10.5065 20.9849 10.6753 21.1537 10.6753 21.3599V22.1099ZM10.6753 19.8637C10.666 20.3566 9.93204 20.3563 9.92527 19.8636C9.92527 19.8637 9.92527 19.1137 9.92527 19.1137C9.93202 18.6213 10.666 18.6204 10.6753 19.1137V19.8637Z" fill="#FC5921"/>
<path id="Vector_3" d="M20.9589 12.9918C20.897 12.8105 20.7084 12.7061 20.521 12.7472C18.2985 13.1976 16.756 15.7851 17.0932 18.0085C16.3162 17.9967 15.5347 18.3035 15.0209 18.933C14.8543 18.8926 14.6832 18.8725 14.5117 18.8692C14.7401 17.0572 13.4805 14.9883 11.6769 14.6221C11.4916 14.5808 11.3012 14.6848 11.239 14.8668C10.636 16.5208 11.4965 18.5283 13.0129 19.3882C11.0406 21.2071 13.3481 24.3425 15.6921 22.8555C18.6011 24.4898 21.1522 20.5933 18.6783 18.5524C20.5978 17.547 21.7073 15.0469 20.9589 12.9918ZM14.4621 22.4842C12.3541 22.3682 12.7469 19.3921 14.6271 19.6155C14.2499 20.4823 14.4273 21.6626 15.0846 22.3455C14.9046 22.428 14.6984 22.4767 14.4621 22.4842ZM18.9246 20.613C18.8684 22.2255 17.3384 22.7917 16.2509 22.308C15.106 21.8549 14.8015 20.1091 15.7484 19.2592C16.857 18.1516 18.932 18.9278 18.9246 20.613Z" fill="#FC5921"/>
</g>
</svg>
