<svg width="15" height="14" viewBox="0 0 15 14" fill="none" xmlns="http://www.w3.org/2000/svg">
<g id="calendar 1" clip-path="url(#clip0_2_5353)">
<g id="Layer 2">
<g id="calendar">
<path id="Vector" d="M11 2.33366H10.4167V1.75033C10.4167 1.59562 10.3552 1.44724 10.2458 1.33785C10.1364 1.22845 9.98804 1.16699 9.83333 1.16699C9.67862 1.16699 9.53025 1.22845 9.42085 1.33785C9.31146 1.44724 9.25 1.59562 9.25 1.75033V2.33366H5.75V1.75033C5.75 1.59562 5.68854 1.44724 5.57915 1.33785C5.46975 1.22845 5.32138 1.16699 5.16667 1.16699C5.01196 1.16699 4.86358 1.22845 4.75419 1.33785C4.64479 1.44724 4.58333 1.59562 4.58333 1.75033V2.33366H4C3.53587 2.33366 3.09075 2.51803 2.76256 2.84622C2.43437 3.17441 2.25 3.61953 2.25 4.08366V11.0837C2.25 11.5478 2.43437 11.9929 2.76256 12.3211C3.09075 12.6493 3.53587 12.8337 4 12.8337H11C11.4641 12.8337 11.9092 12.6493 12.2374 12.3211C12.5656 11.9929 12.75 11.5478 12.75 11.0837V4.08366C12.75 3.61953 12.5656 3.17441 12.2374 2.84622C11.9092 2.51803 11.4641 2.33366 11 2.33366ZM5.16667 9.91699C5.05129 9.91699 4.93851 9.88278 4.84258 9.81868C4.74666 9.75459 4.67189 9.66348 4.62774 9.55689C4.58359 9.4503 4.57203 9.33301 4.59454 9.21986C4.61705 9.1067 4.67261 9.00276 4.75419 8.92118C4.83577 8.8396 4.93971 8.78404 5.05286 8.76153C5.16602 8.73903 5.28331 8.75058 5.3899 8.79473C5.49649 8.83888 5.58759 8.91365 5.65169 9.00958C5.71579 9.1055 5.75 9.21829 5.75 9.33366C5.75 9.48837 5.68854 9.63674 5.57915 9.74614C5.46975 9.85553 5.32138 9.91699 5.16667 9.91699ZM9.83333 9.91699H7.5C7.34529 9.91699 7.19692 9.85553 7.08752 9.74614C6.97812 9.63674 6.91667 9.48837 6.91667 9.33366C6.91667 9.17895 6.97812 9.03058 7.08752 8.92118C7.19692 8.81178 7.34529 8.75033 7.5 8.75033H9.83333C9.98804 8.75033 10.1364 8.81178 10.2458 8.92118C10.3552 9.03058 10.4167 9.17895 10.4167 9.33366C10.4167 9.48837 10.3552 9.63674 10.2458 9.74614C10.1364 9.85553 9.98804 9.91699 9.83333 9.91699ZM11.5833 6.41699H3.41667V4.08366C3.41667 3.92895 3.47812 3.78058 3.58752 3.67118C3.69692 3.56178 3.84529 3.50033 4 3.50033H4.58333V4.08366C4.58333 4.23837 4.64479 4.38674 4.75419 4.49614C4.86358 4.60553 5.01196 4.66699 5.16667 4.66699C5.32138 4.66699 5.46975 4.60553 5.57915 4.49614C5.68854 4.38674 5.75 4.23837 5.75 4.08366V3.50033H9.25V4.08366C9.25 4.23837 9.31146 4.38674 9.42085 4.49614C9.53025 4.60553 9.67862 4.66699 9.83333 4.66699C9.98804 4.66699 10.1364 4.60553 10.2458 4.49614C10.3552 4.38674 10.4167 4.23837 10.4167 4.08366V3.50033H11C11.1547 3.50033 11.3031 3.56178 11.4125 3.67118C11.5219 3.78058 11.5833 3.92895 11.5833 4.08366V6.41699Z" fill="#27AE60"/>
</g>
</g>
</g>
<defs>
<clipPath id="clip0_2_5353">
<rect width="14" height="14" fill="white" transform="translate(0.5)"/>
</clipPath>
</defs>
</svg>
