<svg width="24" height="24" viewBox="0 0 24 24" fill="none" xmlns="http://www.w3.org/2000/svg">
<g id="food 1">
<path id="Vector" d="M18.9642 17.7812H18.5176V18.2279H18.9642V17.7812Z" fill="#27AE60"/>
<path id="Vector_2" d="M21.2142 9.70117H20.7676V10.1478H21.2142V9.70117Z" fill="#27AE60"/>
<path id="Vector_3" d="M16.3724 10.0137H15.9258V10.4602H16.3724V10.0137Z" fill="#27AE60"/>
<path id="Vector_4" d="M21.4368 19.8906H20.9902V20.3372H21.4368V19.8906Z" fill="#27AE60"/>
<path id="Vector_5" d="M17.3665 20.3145H16.9199V20.761H17.3665V20.3145Z" fill="#27AE60"/>
<path id="Vector_6" d="M20.6178 5.172C20.4077 5.05777 20.2772 4.83834 20.2772 4.59933V3.92686C20.5323 3.88359 20.7275 3.66159 20.7275 3.39427V2.62087C20.7275 2.3227 20.4849 2.08008 20.1867 2.08008H16.4542C16.156 2.08008 15.9135 2.3227 15.9135 2.62087V3.39427C15.9135 3.6615 16.1085 3.88355 16.3636 3.92681V4.59933C16.3636 4.71642 16.3319 4.83155 16.2719 4.93219C16.2118 5.03311 16.1256 5.11612 16.0229 5.17195C14.6151 5.93691 13.7405 7.40747 13.7405 9.0098V9.46748H3.92833C3.24906 9.46748 2.68159 9.97673 2.60842 10.652L2.1543 14.8399L2.62028 14.8905L3.07441 10.7025C3.1218 10.2657 3.48888 9.93623 3.92833 9.93623H14.1898C14.6293 9.93623 14.9964 10.2657 15.0437 10.7025L15.4975 14.8867L15.9635 14.8361L15.7047 12.4495H20.0159V16.3472H17.1985V16.816H20.4847V10.9097H15.5377L15.5097 10.652C15.4372 9.9832 14.8798 9.47756 14.2092 9.46795V9.00984C14.2092 8.8238 14.2227 8.63981 14.2485 8.45888C14.7182 8.5118 14.9858 8.70117 15.2875 8.91595C15.6555 9.17798 16.0727 9.47503 16.8719 9.47503C17.671 9.47503 18.0882 9.17798 18.4564 8.91595C18.8123 8.66259 19.1196 8.44378 19.769 8.44378C20.4184 8.44378 20.7257 8.66259 21.0816 8.91595C21.4117 9.15098 21.7823 9.41339 22.4316 9.46519V20.5387C22.4316 21.0265 22.035 21.4233 21.5476 21.4233H15.8466V21.892H21.5476C22.2935 21.892 22.9004 21.285 22.9004 20.5387V9.01031C22.9004 7.40761 22.0258 5.93691 20.6178 5.172ZM20.0159 11.3784V11.9807H15.6539L15.5885 11.3784H20.0159ZM16.3823 2.62087C16.3823 2.58112 16.4146 2.54883 16.4543 2.54883H20.1867C20.2265 2.54883 20.2588 2.58112 20.2588 2.62087V3.39427C20.2588 3.43402 20.2265 3.46631 20.1867 3.46631H16.4543C16.4146 3.46631 16.3823 3.43402 16.3823 3.39427V2.62087ZM21.3535 8.53402C20.9854 8.27194 20.5682 7.97494 19.769 7.97494C18.9698 7.97494 18.5526 8.27194 18.1845 8.53402C17.8286 8.78738 17.5213 9.00619 16.8719 9.00619C16.2225 9.00619 15.9152 8.78738 15.5593 8.53402C15.2524 8.31553 14.9106 8.07342 14.3426 7.9987C14.6156 6.98067 15.2943 6.10125 16.2469 5.5837C16.4236 5.48756 16.5715 5.3452 16.6747 5.17205C16.7124 5.10863 16.7435 5.04188 16.768 4.97283H18.963V4.50408H16.8323V3.93511H19.8084V4.59933C19.8084 5.01028 20.0328 5.38748 20.394 5.58384C21.6465 6.26437 22.426 7.57064 22.4313 8.99555C21.9369 8.94909 21.6635 8.7547 21.3535 8.53402Z" fill="#27AE60"/>
<path id="Vector_7" d="M4.97852 6.66797H4.50977V7.37334H4.97852V6.66797Z" fill="#27AE60"/>
<path id="Vector_8" d="M4.97852 7.87305H4.50977V8.57842H4.97852V7.87305Z" fill="#27AE60"/>
<path id="Vector_9" d="M4.49444 7.38867H3.78906V7.85742H4.49444V7.38867Z" fill="#27AE60"/>
<path id="Vector_10" d="M5.69952 7.38867H4.99414V7.85742H5.69952V7.38867Z" fill="#27AE60"/>
<path id="Vector_11" d="M12.8613 3.19336H12.3926V3.89873H12.8613V3.19336Z" fill="#27AE60"/>
<path id="Vector_12" d="M12.8613 4.39844H12.3926V5.10381H12.8613V4.39844Z" fill="#27AE60"/>
<path id="Vector_13" d="M12.3773 3.91406H11.6719V4.38281H12.3773V3.91406Z" fill="#27AE60"/>
<path id="Vector_14" d="M13.5823 3.91406H12.877V4.38281H13.5823V3.91406Z" fill="#27AE60"/>
<path id="Vector_15" d="M16.2621 18.7773C16.6834 18.7719 17.0245 18.4278 17.0245 18.0052C17.0245 17.5826 16.6833 17.2386 16.2619 17.2331C16.2619 17.2318 16.2621 17.2305 16.2621 17.2292C16.2621 16.62 16.0194 15.9388 15.6128 15.4069C15.1583 14.8123 14.5769 14.4849 13.9758 14.4849C13.8049 14.4849 13.6357 14.5123 13.4704 14.5638C13.0359 13.6742 12.2831 13.1109 11.5047 13.1109C10.7303 13.1109 9.97858 13.6714 9.54264 14.5562C9.38528 14.5096 9.22445 14.4849 9.06208 14.4849C8.88803 14.4849 8.71581 14.5132 8.54772 14.5666C8.11328 13.6752 7.36005 13.1109 6.58061 13.1109C5.80811 13.1109 5.05741 13.6693 4.62152 14.551C4.46955 14.5076 4.31439 14.4849 4.15787 14.4849C3.55661 14.4849 2.97522 14.8123 2.52077 15.4069C2.11431 15.9387 1.87164 16.6199 1.87164 17.2292C1.87164 17.2303 1.87173 17.2315 1.87173 17.2327C1.44597 17.233 1.09961 17.5794 1.09961 18.0052C1.09961 18.431 1.44578 18.7773 1.87145 18.7777V19.6906C1.87145 20.9166 2.86886 21.914 4.09492 21.914C5.0162 21.914 5.80839 21.3507 6.14528 20.5505H7.01537C7.35067 21.3542 8.1445 21.9206 9.06826 21.9206C9.99208 21.9206 10.7859 21.3542 11.1212 20.5505H11.9882C12.286 21.258 12.9398 21.7798 13.7239 21.8914V21.8928C13.727 21.8928 13.7301 21.8926 13.7332 21.8926C13.8331 21.9063 13.9349 21.914 14.0385 21.914C15.2645 21.914 16.262 20.9166 16.262 19.6905V18.7773H16.2621ZM13.9758 14.9537C14.9547 14.9537 15.7933 16.2049 15.7933 17.2292C15.7933 17.2303 15.7932 17.2315 15.7932 17.2327H12.1585C12.1585 17.2315 12.1584 17.2303 12.1584 17.2292C12.1584 16.2049 12.997 14.9537 13.9758 14.9537ZM11.5048 13.5797C12.171 13.5797 12.7351 14.1448 13.0432 14.7585C12.7882 14.9134 12.5497 15.1309 12.3388 15.407C11.9323 15.9388 11.6896 16.62 11.6896 17.2292C11.6896 17.2303 11.6897 17.2315 11.6897 17.2327H11.3482C11.3482 17.2315 11.3483 17.2303 11.3483 17.2292C11.3483 16.6201 11.1056 15.9388 10.699 15.407C10.4821 15.1231 10.236 14.9009 9.97281 14.7454C10.2824 14.1379 10.8445 13.5797 11.5048 13.5797ZM9.06208 14.9537C10.0409 14.9537 10.8795 16.2049 10.8795 17.2292C10.8795 17.2303 10.8794 17.2315 10.8794 17.2327H7.24469C7.24469 17.2315 7.24459 17.2303 7.24459 17.2292C7.24464 16.2049 8.08333 14.9537 9.06208 14.9537ZM6.58066 13.5797C7.24867 13.5797 7.81375 14.1473 8.12153 14.7633C7.86953 14.9178 7.6338 15.1338 7.42501 15.407C7.01856 15.9388 6.77589 16.62 6.77589 17.2292C6.77589 17.2303 6.77598 17.2315 6.77598 17.2327H6.44406C6.44406 17.2315 6.44416 17.2303 6.44416 17.2292C6.44416 16.6201 6.20144 15.9388 5.79484 15.407C5.57373 15.1177 5.32253 14.8923 5.0537 14.7364C5.36355 14.1331 5.92375 13.5797 6.58066 13.5797ZM4.15792 14.9537C5.13672 14.9537 5.97536 16.2049 5.97536 17.2292C5.97536 17.2303 5.97527 17.2315 5.97527 17.2327H2.34058C2.34058 17.2315 2.34048 17.2303 2.34048 17.2292C2.34048 16.2049 3.17913 14.9537 4.15792 14.9537ZM2.3403 19.6907V18.7779H2.63402V19.6829C2.63402 20.2157 2.78425 20.705 3.03405 21.0871C2.61278 20.7662 2.3403 20.2598 2.3403 19.6907ZM6.28333 20.0819C6.30597 19.9548 6.31848 19.8242 6.31848 19.6907V19.5743C6.31848 19.43 6.43586 19.3127 6.58319 19.3127C6.72747 19.3127 6.84484 19.43 6.84484 19.5743V19.6972C6.84484 19.8285 6.85694 19.9568 6.87883 20.0819H6.28333ZM11.2578 20.0819C11.2797 19.9568 11.2918 19.8285 11.2918 19.6972V19.5743C11.2918 19.43 11.4092 19.3127 11.5534 19.3127C11.6977 19.3127 11.8151 19.43 11.8151 19.5743V19.6907C11.8151 19.8242 11.8276 19.9548 11.8502 20.0819H11.2578ZM15.0071 19.6829C15.0071 20.6268 14.4507 21.3971 13.7597 21.423C12.9243 21.289 12.2839 20.5633 12.2839 19.6907V19.5743C12.2839 19.1716 11.9562 18.8439 11.5535 18.8439C11.1507 18.8439 10.8231 19.1716 10.8231 19.5743V19.6972C10.8231 20.6648 10.036 21.452 9.06836 21.452C8.10081 21.452 7.31364 20.6648 7.31364 19.6972V19.5743C7.31364 19.1716 6.98598 18.8439 6.58014 18.8439C6.17744 18.8439 5.84978 19.1716 5.84978 19.5743V19.6907C5.84978 20.5646 5.20745 21.2913 4.37008 21.4237C3.66986 21.412 3.10281 20.6358 3.10281 19.6829V18.7779H15.0071V19.6829H15.0071ZM15.7933 19.6907C15.7933 20.2809 15.5001 20.8036 15.052 21.1218C15.3159 20.7348 15.4758 20.2322 15.4758 19.6829V18.7779H15.7933V19.6907ZM1.8723 18.3091C1.70477 18.3091 1.5685 18.1728 1.5685 18.0053C1.5685 17.8378 1.70477 17.7015 1.8723 17.7015H16.252C16.4195 17.7015 16.5558 17.8378 16.5558 18.0053C16.5558 18.1728 16.4195 18.3091 16.252 18.3091H1.8723ZM4.77156 10.9243C4.77156 10.5859 4.49627 10.3105 4.15783 10.3105C3.81939 10.3105 3.54405 10.5859 3.54405 10.9243C3.54405 11.2628 3.81939 11.5381 4.15783 11.5381C4.49627 11.5381 4.77156 11.2628 4.77156 10.9243ZM4.01284 10.9243C4.01284 10.8444 4.07791 10.7793 4.15787 10.7793C4.2378 10.7793 4.30286 10.8444 4.30286 10.9243C4.30286 11.0043 4.2378 11.0694 4.15787 11.0694C4.07786 11.0694 4.01284 11.0043 4.01284 10.9243ZM13.9757 11.5381C14.3142 11.5381 14.5895 11.2628 14.5895 10.9243C14.5895 10.5859 14.3142 10.3105 13.9757 10.3105C13.6374 10.3105 13.362 10.5859 13.362 10.9243C13.362 11.2628 13.6374 11.5381 13.9757 11.5381ZM13.9757 10.7793C14.0557 10.7793 14.1208 10.8444 14.1208 10.9243C14.1208 11.0043 14.0557 11.0694 13.9757 11.0694C13.8958 11.0694 13.8307 11.0043 13.8307 10.9243C13.8307 10.8444 13.8958 10.7793 13.9757 10.7793Z" fill="#27AE60"/>
<path id="Vector_16" d="M12.8009 10.7148H11.8848V11.1836H12.8009V10.7148Z" fill="#27AE60"/>
<path id="Vector_17" d="M11.339 10.7148H5.36523V11.1836H11.339V10.7148Z" fill="#27AE60"/>
<path id="Vector_18" d="M21.7676 17.5234H21.2988V18.258H21.7676V17.5234Z" fill="#27AE60"/>
<path id="Vector_19" d="M21.7676 10.8906H21.2988V16.8547H21.7676V10.8906Z" fill="#27AE60"/>
</g>
</svg>
