<svg width="24" height="24" viewBox="0 0 24 24" fill="none" xmlns="http://www.w3.org/2000/svg">
<g id="chat-bubbles 1">
<g id="Glyph">
<path id="Vector" d="M2.25 14.2125V16.3463C2.25062 16.4941 2.29494 16.6385 2.3774 16.7613C2.45985 16.884 2.57675 16.9797 2.71341 17.0362C2.85007 17.0927 3.00038 17.1075 3.14545 17.0789C3.29052 17.0502 3.42387 16.9793 3.52875 16.875L6.15375 14.25H11.625C12.1223 14.25 12.5992 14.0525 12.9508 13.7008C13.3025 13.3492 13.5 12.8723 13.5 12.375V4.875C13.5 4.37772 13.3025 3.90081 12.9508 3.54917C12.5992 3.19754 12.1223 3 11.625 3H2.625C2.12772 3 1.65081 3.19754 1.29917 3.54917C0.947544 3.90081 0.75 4.37772 0.75 4.875V12.375C0.750545 12.8071 0.900034 13.2258 1.17327 13.5605C1.4465 13.8952 1.82678 14.1255 2.25 14.2125ZM4.5 6.9375C4.5 6.44022 4.69754 5.96331 5.04917 5.61167C5.40081 5.26004 5.87772 5.0625 6.375 5.0625H7.5C7.99728 5.0625 8.47419 5.26004 8.82582 5.61167C9.17746 5.96331 9.375 6.44022 9.375 6.9375V10.2863L9.945 10.95C10.0743 11.1012 10.1382 11.2975 10.1228 11.4958C10.1073 11.6942 10.0137 11.8782 9.8625 12.0075C9.71133 12.1368 9.51498 12.2007 9.31666 12.1853C9.11834 12.1698 8.93429 12.0762 8.805 11.925L8.67 11.7675C8.33947 12.0371 7.92654 12.1853 7.5 12.1875H6.375C5.87772 12.1875 5.40081 11.99 5.04917 11.6383C4.69754 11.2867 4.5 10.8098 4.5 10.3125V6.9375Z" fill="#3656BB"/>
<path id="Vector_2" d="M21.375 7.20375H14.4375C14.3878 7.20375 14.3401 7.2235 14.3049 7.25867C14.2698 7.29383 14.25 7.34152 14.25 7.39125V12.375C14.25 13.0712 13.9734 13.7389 13.4812 14.2312C12.9889 14.7234 12.3212 15 11.625 15H10.6875C10.6378 15 10.5901 15.0198 10.5549 15.0549C10.5198 15.0901 10.5 15.1378 10.5 15.1875V16.5787C10.5008 17.0758 10.6986 17.5522 11.0501 17.9037C11.4015 18.2552 11.878 18.453 12.375 18.4537H17.8463L20.4713 21.0787C20.5764 21.1832 20.7101 21.2542 20.8555 21.2828C21.0009 21.3113 21.1515 21.2962 21.2883 21.2392C21.4251 21.1822 21.542 21.086 21.6242 20.9627C21.7063 20.8394 21.7501 20.6944 21.75 20.5462V18.4162C22.173 18.3287 22.5529 18.0983 22.8261 17.7637C23.0992 17.4291 23.2489 17.0107 23.25 16.5787V9.07875C23.25 8.58147 23.0525 8.10455 22.7008 7.75292C22.3492 7.40129 21.8723 7.20375 21.375 7.20375ZM19.5 15.5625C19.5 15.7614 19.421 15.9522 19.2803 16.0928C19.1397 16.2335 18.9489 16.3125 18.75 16.3125C18.5511 16.3125 18.3603 16.2335 18.2197 16.0928C18.079 15.9522 18 15.7614 18 15.5625V14.0625H16.125V15.5625C16.125 15.7614 16.046 15.9522 15.9053 16.0928C15.7647 16.2335 15.5739 16.3125 15.375 16.3125C15.1761 16.3125 14.9853 16.2335 14.8447 16.0928C14.704 15.9522 14.625 15.7614 14.625 15.5625V11.625C14.625 10.9785 14.8818 10.3585 15.3389 9.90143C15.796 9.44431 16.416 9.1875 17.0625 9.1875C17.709 9.1875 18.329 9.44431 18.7861 9.90143C19.2432 10.3585 19.5 10.9785 19.5 11.625V15.5625ZM8.625 17.625V18.75C8.625 18.8495 8.66451 18.9448 8.73483 19.0152C8.80516 19.0855 8.90054 19.125 9 19.125C9.09946 19.125 9.19484 19.0855 9.26517 19.0152C9.33549 18.9448 9.375 18.8495 9.375 18.75V17.625C9.375 17.5255 9.33549 17.4302 9.26517 17.3598C9.19484 17.2895 9.09946 17.25 9 17.25C8.90054 17.25 8.80516 17.2895 8.73483 17.3598C8.66451 17.4302 8.625 17.5255 8.625 17.625ZM6.375 15.75C6.27554 15.75 6.18016 15.7895 6.10983 15.8598C6.03951 15.9302 6 16.0255 6 16.125C6 16.2245 6.03951 16.3198 6.10983 16.3902C6.18016 16.4605 6.27554 16.5 6.375 16.5H7.5C7.59946 16.5 7.69484 16.4605 7.76517 16.3902C7.83549 16.3198 7.875 16.2245 7.875 16.125C7.875 16.0255 7.83549 15.9302 7.76517 15.8598C7.69484 15.7895 7.59946 15.75 7.5 15.75H6.375ZM15.75 4.5V3.375C15.75 3.27554 15.7105 3.18016 15.6402 3.10984C15.5698 3.03951 15.4745 3 15.375 3C15.2755 3 15.1802 3.03951 15.1098 3.10984C15.0395 3.18016 15 3.27554 15 3.375V4.5C15 4.59946 15.0395 4.69484 15.1098 4.76516C15.1802 4.83549 15.2755 4.875 15.375 4.875C15.4745 4.875 15.5698 4.83549 15.6402 4.76516C15.7105 4.69484 15.75 4.59946 15.75 4.5ZM18 6.375C18.0995 6.375 18.1948 6.33549 18.2652 6.26517C18.3355 6.19484 18.375 6.09946 18.375 6C18.375 5.90054 18.3355 5.80516 18.2652 5.73483C18.1948 5.66451 18.0995 5.625 18 5.625H16.875C16.7755 5.625 16.6802 5.66451 16.6098 5.73483C16.5395 5.80516 16.5 5.90054 16.5 6C16.5 6.09946 16.5395 6.19484 16.6098 6.26517C16.6802 6.33549 16.7755 6.375 16.875 6.375H18Z" fill="#3656BB"/>
<path id="Vector_3" d="M17.0625 10.6875C16.8139 10.6875 16.5754 10.7863 16.3996 10.9621C16.2238 11.1379 16.125 11.3764 16.125 11.625V12.5625H18V11.625C18 11.5019 17.9758 11.38 17.9286 11.2662C17.8815 11.1525 17.8125 11.0491 17.7254 10.9621C17.6384 10.875 17.535 10.806 17.4213 10.7589C17.3075 10.7117 17.1856 10.6875 17.0625 10.6875Z" fill="#3656BB"/>
<path id="Vector_4" d="M7.5 6.5625H6.375C6.16789 6.5625 6 6.73039 6 6.9375V10.3125C6 10.5196 6.16789 10.6875 6.375 10.6875H7.5C7.70711 10.6875 7.875 10.5196 7.875 10.3125V6.9375C7.875 6.73039 7.70711 6.5625 7.5 6.5625Z" fill="#3656BB"/>
</g>
</g>
</svg>
