<svg width="18" height="18" viewBox="0 0 18 18" fill="none" xmlns="http://www.w3.org/2000/svg">
<g id="report(2) 1">
<path id="Vector" d="M13.7812 2.8125H12.3463C12.2815 2.49496 12.109 2.20956 11.858 2.00456C11.607 1.79957 11.2928 1.68756 10.9688 1.6875H10.6875C10.6875 1.23995 10.5097 0.810725 10.1932 0.494257C9.87678 0.17779 9.44755 0 9 0C8.55245 0 8.12322 0.17779 7.80676 0.494257C7.49029 0.810725 7.3125 1.23995 7.3125 1.6875H7.03125C6.70716 1.68756 6.39304 1.79957 6.14203 2.00456C5.89101 2.20956 5.7185 2.49496 5.65369 2.8125H4.21875C3.84579 2.8125 3.4881 2.96066 3.22438 3.22438C2.96066 3.4881 2.8125 3.84579 2.8125 4.21875V16.5938C2.8125 16.9667 2.96066 17.3244 3.22438 17.5881C3.4881 17.8518 3.84579 18 4.21875 18H13.7812C14.1542 18 14.5119 17.8518 14.7756 17.5881C15.0393 17.3244 15.1875 16.9667 15.1875 16.5938V4.21875C15.1875 3.84579 15.0393 3.4881 14.7756 3.22438C14.5119 2.96066 14.1542 2.8125 13.7812 2.8125ZM7.03125 2.25H7.59375C7.66834 2.25 7.73988 2.22037 7.79262 2.16762C7.84537 2.11488 7.875 2.04334 7.875 1.96875V1.6875C7.875 1.38913 7.99353 1.10298 8.2045 0.892005C8.41548 0.681026 8.70163 0.5625 9 0.5625C9.29837 0.5625 9.58452 0.681026 9.7955 0.892005C10.0065 1.10298 10.125 1.38913 10.125 1.6875V1.96875C10.125 2.04334 10.1546 2.11488 10.2074 2.16762C10.2601 2.22037 10.3317 2.25 10.4062 2.25H10.9688C11.1925 2.25 11.4071 2.33889 11.5654 2.49713C11.7236 2.65536 11.8125 2.86997 11.8125 3.09375C11.8125 3.31753 11.7236 3.53214 11.5654 3.69037C11.4071 3.84861 11.1925 3.9375 10.9688 3.9375H7.03125C6.80747 3.9375 6.59286 3.84861 6.43463 3.69037C6.27639 3.53214 6.1875 3.31753 6.1875 3.09375C6.1875 2.86997 6.27639 2.65536 6.43463 2.49713C6.59286 2.33889 6.80747 2.25 7.03125 2.25ZM14.625 16.5938C14.625 16.8175 14.5361 17.0321 14.3779 17.1904C14.2196 17.3486 14.005 17.4375 13.7812 17.4375H4.21875C3.99497 17.4375 3.78036 17.3486 3.62213 17.1904C3.46389 17.0321 3.375 16.8175 3.375 16.5938V4.21875C3.375 3.99497 3.46389 3.78036 3.62213 3.62213C3.78036 3.46389 3.99497 3.375 4.21875 3.375H5.65369C5.7185 3.69254 5.89101 3.97794 6.14203 4.18294C6.39304 4.38793 6.70716 4.49994 7.03125 4.5H10.9688C11.2928 4.49994 11.607 4.38793 11.858 4.18294C12.109 3.97794 12.2815 3.69254 12.3463 3.375H13.7812C14.005 3.375 14.2196 3.46389 14.3779 3.62213C14.5361 3.78036 14.625 3.99497 14.625 4.21875V16.5938ZM5.34375 11.25H7.59375C7.81753 11.25 8.03214 11.1611 8.19037 11.0029C8.34861 10.8446 8.4375 10.63 8.4375 10.4062V9.84375C8.4375 9.76916 8.40787 9.69762 8.35512 9.64488C8.30238 9.59213 8.23084 9.5625 8.15625 9.5625C8.08166 9.5625 8.01012 9.59213 7.95738 9.64488C7.90463 9.69762 7.875 9.76916 7.875 9.84375V10.4062C7.875 10.4808 7.84537 10.5524 7.79262 10.6051C7.73988 10.6579 7.66834 10.6875 7.59375 10.6875H5.34375C5.26916 10.6875 5.19762 10.6579 5.14488 10.6051C5.09213 10.5524 5.0625 10.4808 5.0625 10.4062V8.15625C5.0625 8.08166 5.09213 8.01012 5.14488 7.95738C5.19762 7.90463 5.26916 7.875 5.34375 7.875H7.59375C7.66834 7.875 7.73988 7.84537 7.79262 7.79262C7.84537 7.73988 7.875 7.66834 7.875 7.59375C7.875 7.51916 7.84537 7.44762 7.79262 7.39488C7.73988 7.34213 7.66834 7.3125 7.59375 7.3125H5.34375C5.11997 7.3125 4.90536 7.40139 4.74713 7.55963C4.58889 7.71786 4.5 7.93247 4.5 8.15625V10.4062C4.5 10.63 4.58889 10.8446 4.74713 11.0029C4.90536 11.1611 5.11997 11.25 5.34375 11.25ZM8.53988 7.67587L6.75 9.46575L6.08512 8.80087C6.03208 8.74964 5.96104 8.72129 5.88729 8.72194C5.81355 8.72258 5.74301 8.75216 5.69086 8.8043C5.63872 8.85645 5.60914 8.92699 5.6085 9.00073C5.60786 9.07447 5.63621 9.14552 5.68744 9.19856L6.55144 10.062C6.60418 10.1147 6.6757 10.1443 6.75028 10.1443C6.82486 10.1443 6.89638 10.1147 6.94913 10.062L8.93813 8.07356C8.98936 8.02052 9.0177 7.94947 9.01706 7.87573C9.01642 7.80199 8.98685 7.73145 8.9347 7.6793C8.88255 7.62716 8.81201 7.59758 8.73827 7.59694C8.66453 7.59629 8.59292 7.62464 8.53988 7.67587ZM8.15625 14.625C8.08166 14.625 8.01012 14.6546 7.95738 14.7074C7.90463 14.7601 7.875 14.8317 7.875 14.9062V15.4688C7.875 15.5433 7.84537 15.6149 7.79262 15.6676C7.73988 15.7204 7.66834 15.75 7.59375 15.75H5.34375C5.26916 15.75 5.19762 15.7204 5.14488 15.6676C5.09213 15.6149 5.0625 15.5433 5.0625 15.4688V13.2188C5.0625 13.1442 5.09213 13.0726 5.14488 13.0199C5.19762 12.9671 5.26916 12.9375 5.34375 12.9375H7.59375C7.66834 12.9375 7.73988 12.9079 7.79262 12.8551C7.84537 12.8024 7.875 12.7308 7.875 12.6562C7.875 12.5817 7.84537 12.5101 7.79262 12.4574C7.73988 12.4046 7.66834 12.375 7.59375 12.375H5.34375C5.11997 12.375 4.90536 12.4639 4.74713 12.6221C4.58889 12.7804 4.5 12.995 4.5 13.2188V15.4688C4.5 15.6925 4.58889 15.9071 4.74713 16.0654C4.90536 16.2236 5.11997 16.3125 5.34375 16.3125H7.59375C7.81753 16.3125 8.03214 16.2236 8.19037 16.0654C8.34861 15.9071 8.4375 15.6925 8.4375 15.4688V14.9062C8.4375 14.8317 8.40787 14.7601 8.35512 14.7074C8.30238 14.6546 8.23084 14.625 8.15625 14.625ZM8.53988 12.7384L6.75 14.5282L6.08512 13.8634C6.03208 13.8121 5.96104 13.7838 5.88729 13.7844C5.81355 13.7851 5.74301 13.8147 5.69086 13.8668C5.63872 13.9189 5.60914 13.9895 5.6085 14.0632C5.60786 14.137 5.63621 14.208 5.68744 14.2611L6.55144 15.1245C6.60418 15.1772 6.6757 15.2068 6.75028 15.2068C6.82486 15.2068 6.89638 15.1772 6.94913 15.1245L8.93813 13.1361C8.98936 13.083 9.0177 13.012 9.01706 12.9382C9.01642 12.8645 8.98685 12.7939 8.9347 12.7418C8.88255 12.6897 8.81201 12.6601 8.73827 12.6594C8.66453 12.6588 8.59292 12.6871 8.53988 12.7384ZM7.03125 6.1875H10.4062C10.4808 6.1875 10.5524 6.15787 10.6051 6.10512C10.6579 6.05238 10.6875 5.98084 10.6875 5.90625C10.6875 5.83166 10.6579 5.76012 10.6051 5.70738C10.5524 5.65463 10.4808 5.625 10.4062 5.625H7.03125C6.95666 5.625 6.88512 5.65463 6.83238 5.70738C6.77963 5.76012 6.75 5.83166 6.75 5.90625C6.75 5.98084 6.77963 6.05238 6.83238 6.10512C6.88512 6.15787 6.95666 6.1875 7.03125 6.1875ZM13.2188 8.4375H9.84375C9.76916 8.4375 9.69762 8.46713 9.64488 8.51988C9.59213 8.57262 9.5625 8.64416 9.5625 8.71875C9.5625 8.79334 9.59213 8.86488 9.64488 8.91762C9.69762 8.97037 9.76916 9 9.84375 9H13.2188C13.2933 9 13.3649 8.97037 13.4176 8.91762C13.4704 8.86488 13.5 8.79334 13.5 8.71875C13.5 8.64416 13.4704 8.57262 13.4176 8.51988C13.3649 8.46713 13.2933 8.4375 13.2188 8.4375ZM13.2188 9.5625H9.84375C9.76916 9.5625 9.69762 9.59213 9.64488 9.64488C9.59213 9.69762 9.5625 9.76916 9.5625 9.84375C9.5625 9.91834 9.59213 9.98988 9.64488 10.0426C9.69762 10.0954 9.76916 10.125 9.84375 10.125H13.2188C13.2933 10.125 13.3649 10.0954 13.4176 10.0426C13.4704 9.98988 13.5 9.91834 13.5 9.84375C13.5 9.76916 13.4704 9.69762 13.4176 9.64488C13.3649 9.59213 13.2933 9.5625 13.2188 9.5625ZM13.2188 13.5H9.84375C9.76916 13.5 9.69762 13.5296 9.64488 13.5824C9.59213 13.6351 9.5625 13.7067 9.5625 13.7812C9.5625 13.8558 9.59213 13.9274 9.64488 13.9801C9.69762 14.0329 9.76916 14.0625 9.84375 14.0625H13.2188C13.2933 14.0625 13.3649 14.0329 13.4176 13.9801C13.4704 13.9274 13.5 13.8558 13.5 13.7812C13.5 13.7067 13.4704 13.6351 13.4176 13.5824C13.3649 13.5296 13.2933 13.5 13.2188 13.5ZM13.2188 14.625H9.84375C9.76916 14.625 9.69762 14.6546 9.64488 14.7074C9.59213 14.7601 9.5625 14.8317 9.5625 14.9062C9.5625 14.9808 9.59213 15.0524 9.64488 15.1051C9.69762 15.1579 9.76916 15.1875 9.84375 15.1875H13.2188C13.2933 15.1875 13.3649 15.1579 13.4176 15.1051C13.4704 15.0524 13.5 14.9808 13.5 14.9062C13.5 14.8317 13.4704 14.7601 13.4176 14.7074C13.3649 14.6546 13.2933 14.625 13.2188 14.625Z" fill="#191E3A"/>
</g>
</svg>
