<svg width="22" height="22" viewBox="0 0 22 22" fill="none" xmlns="http://www.w3.org/2000/svg">
<path fill-rule="evenodd" clip-rule="evenodd" d="M11 0.25H10.9622C9.12495 0.249995 7.69502 0.249991 6.55249 0.353543C5.39182 0.458738 4.45433 0.675516 3.625 1.15433C2.59887 1.74676 1.74676 2.59887 1.15433 3.625C0.675516 4.45433 0.458738 5.39182 0.353543 6.55249C0.249991 7.69502 0.249995 9.12495 0.25 10.9622V11V11.0378C0.249995 12.875 0.249991 14.305 0.353543 15.4475C0.458738 16.6082 0.675516 17.5457 1.15433 18.375C1.74676 19.4011 2.59887 20.2532 3.625 20.8457C4.45433 21.3245 5.39182 21.5413 6.55249 21.6465C7.69502 21.75 9.12494 21.75 10.9621 21.75H11H14.1716H14.1952H14.1952H14.1953L14.25 21.75V19L14.25 18.948C14.25 18.0495 14.2499 17.3003 14.3299 16.7055C14.4143 16.0777 14.6 15.5109 15.0555 15.0555C15.5109 14.6 16.0777 14.4143 16.7055 14.3299C17.3003 14.2499 18.0495 14.25 18.948 14.25H18.948L19 14.25H21.75L21.75 14.1953V14.1952V14.1952V14.1716V11V10.9621C21.75 9.12494 21.75 7.69502 21.6465 6.55249C21.5413 5.39182 21.3245 4.45433 20.8457 3.625C20.2532 2.59887 19.4011 1.74676 18.375 1.15433C17.5457 0.675516 16.6082 0.458738 15.4475 0.353543C14.305 0.249991 12.875 0.249995 11.0378 0.25H11ZM19.022 20.0246C18.0957 20.8555 16.9624 21.4103 15.75 21.636V19C15.75 18.036 15.7516 17.3884 15.8165 16.9054C15.8786 16.4439 15.9858 16.2464 16.1161 16.1161C16.2464 15.9858 16.4439 15.8786 16.9054 15.8165C17.3884 15.7516 18.036 15.75 19 15.75H21.636C21.4103 16.9624 20.8555 18.0957 20.0246 19.022C19.9023 19.1584 19.7697 19.291 19.5471 19.5135L19.5471 19.5136L19.5303 19.5303L19.5136 19.5471L19.5135 19.5471C19.291 19.7697 19.1584 19.9023 19.022 20.0246ZM7 6.25C6.58579 6.25 6.25 6.58579 6.25 7C6.25 7.41421 6.58579 7.75 7 7.75H15C15.4142 7.75 15.75 7.41421 15.75 7C15.75 6.58579 15.4142 6.25 15 6.25H7ZM6.25 11C6.25 10.5858 6.58579 10.25 7 10.25H13C13.4142 10.25 13.75 10.5858 13.75 11C13.75 11.4142 13.4142 11.75 13 11.75H7C6.58579 11.75 6.25 11.4142 6.25 11ZM7 14.25C6.58579 14.25 6.25 14.5858 6.25 15C6.25 15.4142 6.58579 15.75 7 15.75H9C9.41421 15.75 9.75 15.4142 9.75 15C9.75 14.5858 9.41421 14.25 9 14.25H7Z" fill="#DCDCDC"/>
</svg>
