<svg width="12" height="12" viewBox="0 0 12 12" fill="none" xmlns="http://www.w3.org/2000/svg">
<path d="M6.58255 8.99981C6.5078 8.99981 6.43405 8.98306 6.36665 8.95081C6.2992 8.91851 6.2399 8.87156 6.19305 8.81331L5.64305 8.12981L6.27505 7.32181L6.57505 7.69631L10.1045 3.19183C10.1441 3.1376 10.1941 3.09188 10.2517 3.0574C10.3092 3.02291 10.3731 3.00037 10.4396 2.99111C10.5061 2.98185 10.5737 2.98607 10.6385 3.0035C10.7033 3.02094 10.7639 3.05124 10.8168 3.0926C10.8696 3.13396 10.9136 3.18553 10.9461 3.24425C10.9786 3.30296 10.9989 3.36761 11.0059 3.43435C11.0129 3.50109 11.0063 3.56855 10.9867 3.63272C10.967 3.69688 10.9347 3.75643 10.8915 3.80783L6.97605 8.80781C6.9297 8.86711 6.87055 8.91516 6.803 8.94841C6.7355 8.98166 6.6613 8.99926 6.58605 8.99981H6.58255ZM4.08255 8.99981C4.00773 8.99991 3.93385 8.98316 3.86635 8.95091C3.79885 8.91861 3.73946 8.87161 3.69255 8.81331L1.60855 6.22431C1.53438 6.12031 1.50282 5.99186 1.52036 5.86536C1.53791 5.73881 1.60321 5.62381 1.70288 5.54391C1.80255 5.46401 1.92903 5.42526 2.05634 5.43566C2.18366 5.44606 2.30217 5.50481 2.38755 5.59981L4.07705 7.69981L7.60455 3.19183C7.6879 3.09254 7.80655 3.02951 7.9355 3.01603C8.06445 3.00256 8.1936 3.03969 8.29565 3.11959C8.39775 3.1995 8.4648 3.31593 8.4827 3.44433C8.5006 3.57273 8.4679 3.70306 8.39155 3.80783L4.47605 8.80781C4.42969 8.86711 4.37054 8.91516 4.30301 8.94841C4.23548 8.98166 4.16132 8.99926 4.08605 8.99981H4.08255ZM4.10805 6.22481C4.06371 6.17406 4.03009 6.11481 4.00923 6.05071C3.98837 5.98656 3.98069 5.91891 3.98666 5.85176C3.99263 5.78456 4.01212 5.71931 4.04395 5.65991C4.07579 5.60046 4.11932 5.54806 4.17192 5.50591C4.22453 5.46371 4.28512 5.43261 4.35005 5.41446C4.41498 5.39631 4.48292 5.39146 4.54977 5.40026C4.61662 5.40901 4.68101 5.43121 4.73905 5.46551C4.7971 5.49981 4.84761 5.54551 4.88755 5.59981L4.98755 5.72431L4.35455 6.53031L4.10805 6.22481Z" fill="#3656BB"/>
</svg>
