<svg width="24" height="24" viewBox="0 0 24 24" fill="none" xmlns="http://www.w3.org/2000/svg">
<g id="Iconly/Bulk/Send">
<g id="Send">
<path id="Fill 1" d="M21.4274 2.5783C20.9274 2.0673 20.1874 1.8783 19.4974 2.0783L3.40742 6.7273C2.67942 6.9293 2.16342 7.5063 2.02442 8.2383C1.88242 8.9843 2.37842 9.9323 3.02642 10.3283L8.05742 13.4003C8.57342 13.7163 9.23942 13.6373 9.66642 13.2093L15.4274 7.4483C15.7174 7.1473 16.1974 7.1473 16.4874 7.4483C16.7774 7.7373 16.7774 8.2083 16.4874 8.5083L10.7164 14.2693C10.2884 14.6973 10.2084 15.3613 10.5234 15.8783L13.5974 20.9283C13.9574 21.5273 14.5774 21.8683 15.2574 21.8683C15.3374 21.8683 15.4274 21.8683 15.5074 21.8573C16.2874 21.7583 16.9074 21.2273 17.1374 20.4773L21.9074 4.5083C22.1174 3.8283 21.9274 3.0883 21.4274 2.5783Z" fill="white"/>
<path id="Combined Shape" opacity="0.4" fill-rule="evenodd" clip-rule="evenodd" d="M3.01147 16.8084C2.81947 16.8084 2.62747 16.7354 2.48147 16.5884C2.18847 16.2954 2.18847 15.8214 2.48147 15.5284L3.84647 14.1624C4.13947 13.8704 4.61447 13.8704 4.90747 14.1624C5.19947 14.4554 5.19947 14.9304 4.90747 15.2234L3.54147 16.5884C3.39547 16.7354 3.20347 16.8084 3.01147 16.8084ZM6.77265 18.0008C6.58065 18.0008 6.38865 17.9278 6.24265 17.7808C5.94965 17.4878 5.94965 17.0138 6.24265 16.7208L7.60765 15.3548C7.90065 15.0628 8.37565 15.0628 8.66865 15.3548C8.96065 15.6478 8.96065 16.1228 8.66865 16.4158L7.30265 17.7808C7.15665 17.9278 6.96465 18.0008 6.77265 18.0008ZM7.02649 21.5689C7.17249 21.7159 7.36449 21.7889 7.55649 21.7889C7.74849 21.7889 7.94049 21.7159 8.08649 21.5689L9.45249 20.2039C9.74449 19.9109 9.74449 19.4359 9.45249 19.1429C9.15949 18.8509 8.68449 18.8509 8.39149 19.1429L7.02649 20.5089C6.73349 20.8019 6.73349 21.2759 7.02649 21.5689Z" fill="white"/>
</g>
</g>
</svg>
