<svg width="8" height="6" viewBox="0 0 8 6" fill="none" xmlns="http://www.w3.org/2000/svg">
<path d="M2.9302 5.99995C2.86191 6 2.79434 5.98605 2.73165 5.95895C2.66896 5.93185 2.61248 5.8922 2.5657 5.84245L0.134204 3.25295C0.0476492 3.15565 0.00248419 3.0284 0.00831419 2.8983C0.0141492 2.7682 0.0705192 2.6455 0.165439 2.5563C0.260354 2.4671 0.386324 2.4185 0.516544 2.42075C0.646764 2.42305 0.770959 2.47605 0.862704 2.56845L2.9252 4.76395L7.12921 0.163969C7.17306 0.114074 7.22646 0.0734236 7.28621 0.0443936C7.34596 0.0153636 7.41091 -0.00146642 7.47726 -0.00510642C7.54361 -0.00875142 7.61001 0.000863595 7.67256 0.0231686C7.73516 0.0454786 7.79266 0.0800386 7.84176 0.124829C7.89081 0.169614 7.93046 0.223734 7.95841 0.284019C7.98631 0.344309 8.00196 0.409554 8.00436 0.475949C8.00676 0.542344 7.99591 0.608554 7.97246 0.670714C7.94901 0.732869 7.91341 0.789729 7.86771 0.837969L3.29921 5.83795C3.25271 5.88865 3.19626 5.9292 3.13336 5.9571C3.07046 5.98495 3.00251 5.99955 2.9337 5.99995H2.9302Z" fill="#A5A5A5"/>
</svg>
