<svg width="24" height="24" viewBox="0 0 24 24" fill="none" xmlns="http://www.w3.org/2000/svg">
<g id="gear-2">
<path id="Icon" d="M17.752 2.045L17.6043 1.3097L17.6041 1.30974L17.752 2.045ZM18.8575 2.13679L19.1243 1.43585L19.1242 1.43583L18.8575 2.13679ZM20.2794 3.31062L20.8097 2.78029L20.2794 3.31062ZM20.6886 3.7198L21.2189 3.18947L20.6886 3.7198ZM21.8624 5.1407L22.5633 4.8739L22.5633 4.87376L21.8624 5.1407ZM21.9532 6.24714L22.6884 6.39516L22.6885 6.39506L21.9532 6.24714ZM21.0294 7.84187L21.6395 8.278L21.6397 8.2778L21.0294 7.84187ZM20.2413 8.94441L20.8514 9.38067L20.8514 9.38054L20.2413 8.94441ZM19.8927 10.6866L19.1529 10.81L19.1529 10.8101L19.8927 10.6866ZM20.0011 12.0001L20.7511 12.0001V12.0001L20.0011 12.0001ZM19.8927 13.3116L19.1528 13.1884L19.1528 13.1885L19.8927 13.3116ZM20.2413 15.0528L19.631 15.4888L19.6311 15.4889L20.2413 15.0528ZM21.0313 16.1583L21.6416 15.7223L21.6415 15.7222L21.0313 16.1583ZM21.9552 17.754L22.6904 17.6061L22.6904 17.606L21.9552 17.754ZM21.8643 18.8594L22.5653 19.1263L22.5653 19.1261L21.8643 18.8594ZM20.6905 20.2813L20.1602 19.751L20.6905 20.2813ZM20.2813 20.6905L20.8117 21.2208L20.2813 20.6905ZM18.8594 21.8643L19.1261 22.5653L19.1263 22.5653L18.8594 21.8643ZM17.754 21.9552L17.606 22.6904L17.6061 22.6904L17.754 21.9552ZM16.1583 21.0313L16.5942 20.421L16.1583 21.0313ZM15.0509 20.2403L14.6148 20.8505L14.6149 20.8506L15.0509 20.2403ZM13.3106 19.8917L13.1874 19.1519L13.1873 19.1519L13.3106 19.8917ZM12.0011 20.0001L12.001 20.7501H12.0011L12.0011 20.0001ZM10.6895 19.8917L10.5659 20.6314L10.566 20.6314L10.6895 19.8917ZM8.94734 20.2393L8.5112 19.6292L8.51105 19.6293L8.94734 20.2393ZM7.83992 21.0313L8.27585 21.6416L8.2762 21.6414L7.83992 21.0313ZM6.24519 21.9552L6.39311 22.6904L6.39321 22.6904L6.24519 21.9552ZM5.13875 21.8643L4.8718 22.5652L4.87194 22.5653L5.13875 21.8643ZM3.71785 20.6905L4.24818 20.1602L3.71785 20.6905ZM3.30867 20.2813L2.77834 20.8117H2.77834L3.30867 20.2813ZM2.13484 18.8594L1.43388 19.1262L1.4339 19.1263L2.13484 18.8594ZM2.04304 17.754L1.30779 17.606L1.30775 17.6062L2.04304 17.754ZM2.96785 16.1583L3.57815 16.5942L3.57818 16.5942L2.96785 16.1583ZM3.76082 15.0479L4.37115 15.4838L4.37133 15.4836L3.76082 15.0479ZM4.10847 13.3087L4.84839 13.1861L4.84839 13.1861L4.10847 13.3087ZM4.00105 12.0001L3.25105 12.0001V12.0001L4.00105 12.0001ZM4.10847 10.6895L4.84842 10.8119L4.84842 10.8119L4.10847 10.6895ZM3.75984 8.94929L4.37023 8.51349L4.37021 8.51347L3.75984 8.94929ZM2.9698 7.84285L3.58017 7.40702L3.5801 7.40692L2.9698 7.84285ZM2.045 6.24714L1.30971 6.39498L1.30973 6.39508L2.045 6.24714ZM2.13679 5.14168L1.43586 4.87485L1.4358 4.87502L2.13679 5.14168ZM3.31062 3.7198L2.78029 3.18947L3.31062 3.7198ZM3.7198 3.31062L3.18947 2.78029L3.7198 3.31062ZM5.14168 2.13679L4.87505 1.43579L4.87485 1.43586L5.14168 2.13679ZM6.24714 2.045L6.39508 1.30973L6.395 1.30971L6.24714 2.045ZM7.84187 2.9698L7.40594 3.5801L7.40604 3.58017L7.84187 2.9698ZM8.94832 3.75984L8.51249 4.37021L8.51263 4.37031L8.94832 3.75984ZM10.6886 4.10847L10.8112 4.84838L10.8113 4.84836L10.6886 4.10847ZM12.0011 4.00007L12.0011 3.25007H12.001L12.0011 4.00007ZM13.3106 4.1075L13.1881 4.84742L13.1881 4.84743L13.3106 4.1075ZM15.0499 3.75984L15.4855 4.37039L15.4857 4.37021L15.0499 3.75984ZM16.1563 2.9698L16.5922 3.58017L16.5923 3.5801L16.1563 2.9698ZM12.0011 9.00007L12.0011 8.25007H12.0011V9.00007ZM9.00105 12.0001H8.25105V12.0001L9.00105 12.0001ZM12.0011 15.0001V15.7501H12.0011L12.0011 15.0001ZM15.0011 12.0001L15.7511 12.0001V12.0001H15.0011ZM17.752 2.045L17.8998 2.78029C18.1306 2.73392 18.3702 2.75382 18.5908 2.83776L18.8575 2.13679L19.1242 1.43583C18.6399 1.25153 18.1129 1.20747 17.6043 1.3097L17.752 2.045ZM18.8575 2.13679L18.5907 2.83773C18.6777 2.87086 18.7876 2.93392 18.9744 3.09434C19.1682 3.26087 19.4007 3.49257 19.749 3.84095L20.2794 3.31062L20.8097 2.78029C20.4771 2.44773 20.1987 2.16865 19.9518 1.95657C19.6979 1.73839 19.4373 1.55499 19.1243 1.43585L18.8575 2.13679ZM20.2794 3.31062L19.749 3.84095L20.1582 4.25013L20.6886 3.7198L21.2189 3.18947L20.8097 2.78029L20.2794 3.31062ZM20.6886 3.7198L20.1582 4.25013C20.5066 4.5985 20.7383 4.83077 20.9049 5.02456C21.0655 5.21123 21.1285 5.32088 21.1615 5.40764L21.8624 5.1407L22.5633 4.87376C22.444 4.56064 22.2604 4.30015 22.0422 4.04649C21.8302 3.79996 21.5511 3.52171 21.2189 3.18947L20.6886 3.7198ZM21.8624 5.1407L21.1614 5.4075C21.2449 5.62689 21.2646 5.867 21.2179 6.09923L21.9532 6.24714L22.6885 6.39506C22.7906 5.88751 22.7483 5.35975 22.5633 4.8739L21.8624 5.1407ZM21.9532 6.24714L21.218 6.09913C21.1996 6.1904 21.1555 6.30901 21.028 6.5194C20.8957 6.73786 20.7054 7.00507 20.4191 7.40594L21.0294 7.84187L21.6397 8.2778C21.9129 7.89525 22.1424 7.57488 22.3109 7.29671C22.4843 7.01048 22.6224 6.72344 22.6884 6.39516L21.9532 6.24714ZM21.0294 7.84187L20.4192 7.40574L19.6311 8.50828L20.2413 8.94441L20.8514 9.38054L21.6395 8.278L21.0294 7.84187ZM20.2413 8.94441L19.6312 8.50815C19.1311 9.20758 19.0273 10.0568 19.1529 10.81L19.8927 10.6866L20.6324 10.5632C20.5556 10.1027 20.6358 9.6821 20.8514 9.38067L20.2413 8.94441ZM19.8927 10.6866L19.1529 10.8101C19.2174 11.1966 19.251 11.5943 19.2511 12.0001L20.0011 12.0001L20.7511 12.0001C20.751 11.5112 20.7105 11.031 20.6324 10.5631L19.8927 10.6866ZM20.0011 12.0001L19.2511 12.0001C19.251 12.4048 19.2172 12.802 19.1528 13.1884L19.8927 13.3116L20.6325 13.4348C20.7102 12.9681 20.751 12.4886 20.7511 12.0001L20.0011 12.0001ZM19.8927 13.3116L19.1528 13.1885C19.0276 13.9412 19.1317 14.7899 19.631 15.4888L20.2413 15.0528L20.8515 14.6168C20.6362 14.3154 20.5559 13.8947 20.6325 13.4347L19.8927 13.3116ZM20.2413 15.0528L19.6311 15.4889L20.4211 16.5944L21.0313 16.1583L21.6415 15.7222L20.8515 14.6167L20.2413 15.0528ZM21.0313 16.1583L20.421 16.5942C20.7073 16.995 20.8976 17.2625 21.0299 17.481C21.1573 17.6916 21.2015 17.8105 21.2199 17.902L21.9552 17.754L22.6904 17.606C22.6244 17.2779 22.4865 16.9908 22.3131 16.7043C22.1445 16.4258 21.9151 16.1052 21.6416 15.7223L21.0313 16.1583ZM21.9552 17.754L21.2199 17.9019C21.2665 18.1337 21.2468 18.3733 21.1633 18.5928L21.8643 18.8594L22.5653 19.1261C22.75 18.6407 22.7925 18.1137 22.6904 17.6061L21.9552 17.754ZM21.8643 18.8594L21.1634 18.5926C21.1303 18.6797 21.0672 18.7896 20.9068 18.9763C20.7402 19.1702 20.5085 19.4026 20.1602 19.751L20.6905 20.2813L21.2208 20.8117C21.5534 20.4791 21.8325 20.2007 22.0445 19.9538C22.2627 19.6998 22.4461 19.4392 22.5653 19.1263L21.8643 18.8594ZM20.6905 20.2813L20.1602 19.751L19.751 20.1602L20.2813 20.6905L20.8117 21.2208L21.2208 20.8117L20.6905 20.2813ZM20.2813 20.6905L19.751 20.1602C19.4026 20.5086 19.1701 20.7403 18.9763 20.9068C18.7896 21.0672 18.6797 21.1303 18.5926 21.1634L18.8594 21.8643L19.1263 22.5653C19.4392 22.4461 19.6998 22.2627 19.9538 22.0446C20.2006 21.8325 20.4791 21.5534 20.8117 21.2208L20.2813 20.6905ZM18.8594 21.8643L18.5928 21.1633C18.3733 21.2469 18.1338 21.2665 17.9019 21.2199L17.754 21.9552L17.6061 22.6904C18.1137 22.7925 18.6406 22.75 19.1261 22.5653L18.8594 21.8643ZM17.754 21.9552L17.902 21.2199C17.8105 21.2015 17.6916 21.1573 17.481 21.0299C17.2625 20.8976 16.995 20.7073 16.5942 20.421L16.1583 21.0313L15.7223 21.6416C16.1052 21.9151 16.4258 22.1445 16.7043 22.3131C16.9908 22.4865 17.2779 22.6244 17.606 22.6904L17.754 21.9552ZM16.1583 21.0313L16.5942 20.421L15.4868 19.63L15.0509 20.2403L14.6149 20.8506L15.7223 21.6416L16.1583 21.0313ZM15.0509 20.2403L15.4869 19.6301C14.7883 19.1309 13.9403 19.0264 13.1874 19.1519L13.3106 19.8917L13.4339 20.6315C13.8933 20.5549 14.3134 20.6351 14.6148 20.8505L15.0509 20.2403ZM13.3106 19.8917L13.1873 19.1519C12.8014 19.2162 12.4051 19.2501 12.001 19.2501L12.0011 20.0001L12.0011 20.7501C12.4891 20.7501 12.9679 20.7091 13.4339 20.6315L13.3106 19.8917ZM12.0011 20.0001L12.0011 19.2501C11.5959 19.2501 11.1991 19.2164 10.8131 19.1519L10.6895 19.8917L10.566 20.6314C11.0332 20.7095 11.5126 20.7501 12.001 20.7501L12.0011 20.0001ZM10.6895 19.8917L10.8131 19.1519C10.0607 19.0262 9.21093 19.129 8.5112 19.6292L8.94734 20.2393L9.38348 20.8495C9.68443 20.6344 10.1052 20.5544 10.5659 20.6314L10.6895 19.8917ZM8.94734 20.2393L8.51105 19.6293L7.40363 20.4213L7.83992 21.0313L8.2762 21.6414L9.38362 20.8494L8.94734 20.2393ZM7.83992 21.0313L7.40399 20.421C7.00312 20.7074 6.7359 20.8976 6.51745 21.03C6.30706 21.1574 6.18845 21.2015 6.09718 21.2199L6.24519 21.9552L6.39321 22.6904C6.72148 22.6243 7.00852 22.4863 7.29475 22.3129C7.57292 22.1443 7.8933 21.9149 8.27585 21.6416L7.83992 21.0313ZM6.24519 21.9552L6.09728 21.2199C5.86504 21.2666 5.62494 21.2469 5.40555 21.1634L5.13875 21.8643L4.87194 22.5653C5.3578 22.7502 5.88555 22.7925 6.39311 22.6904L6.24519 21.9552ZM5.13875 21.8643L5.40569 21.1634C5.31893 21.1304 5.20927 21.0674 5.02261 20.9069C4.82882 20.7402 4.59655 20.5085 4.24818 20.1602L3.71785 20.6905L3.18752 21.2208C3.51975 21.5531 3.798 21.8321 4.04454 22.0442C4.2982 22.2623 4.55869 22.446 4.8718 22.5652L5.13875 21.8643ZM3.71785 20.6905L4.24818 20.1602L3.839 19.751L3.30867 20.2813L2.77834 20.8117L3.18752 21.2208L3.71785 20.6905ZM3.30867 20.2813L3.839 19.751C3.49062 19.4026 3.25892 19.1701 3.09239 18.9763C2.93196 18.7896 2.86891 18.6797 2.83578 18.5926L2.13484 18.8594L1.4339 19.1263C1.55304 19.4392 1.73643 19.6998 1.95462 19.9538C2.1667 20.2006 2.44578 20.4791 2.77834 20.8117L3.30867 20.2813ZM2.13484 18.8594L2.8358 18.5927C2.75187 18.3721 2.73197 18.1325 2.77834 17.9018L2.04304 17.754L1.30775 17.6062C1.20552 18.1149 1.24958 18.6419 1.43388 19.1262L2.13484 18.8594ZM2.04304 17.754L2.7783 17.902C2.79662 17.8109 2.84075 17.6922 2.96854 17.4815C3.10117 17.2627 3.29167 16.9953 3.57815 16.5942L2.96785 16.1583L2.35755 15.7223C2.08428 16.1049 1.85461 16.4255 1.68588 16.7038C1.51232 16.9901 1.37392 17.2774 1.30779 17.606L2.04304 17.754ZM2.96785 16.1583L3.57818 16.5942L4.37115 15.4838L3.76082 15.0479L3.15048 14.612L2.35751 15.7224L2.96785 16.1583ZM3.76082 15.0479L4.37133 15.4836C4.86992 14.7848 4.97278 13.9372 4.84839 13.1861L4.10847 13.3087L3.36855 13.4312C3.44479 13.8916 3.36494 14.3115 3.1503 14.6123L3.76082 15.0479ZM4.10847 13.3087L4.84839 13.1861C4.78452 12.8005 4.75106 12.4043 4.75105 12.0001L4.00105 12.0001L3.25105 12.0001C3.25106 12.4872 3.29139 12.9654 3.36855 13.4312L4.10847 13.3087ZM4.00105 12.0001L4.75105 12.0001C4.75106 11.5951 4.78452 11.1983 4.84842 10.8119L4.10847 10.6895L3.36852 10.5672C3.29138 11.0336 3.25106 11.5123 3.25105 12.0001L4.00105 12.0001ZM4.10847 10.6895L4.84842 10.8119C4.97276 10.0601 4.86913 9.21225 4.37023 8.51349L3.75984 8.94929L3.14945 9.3851C3.36455 9.68637 3.44468 10.1067 3.36852 10.5672L4.10847 10.6895ZM3.75984 8.94929L4.37021 8.51347L3.58017 7.40702L2.9698 7.84285L2.35943 8.27867L3.14947 9.38512L3.75984 8.94929ZM2.9698 7.84285L3.5801 7.40692C3.29363 7.00586 3.10312 6.73841 2.97049 6.51965C2.84269 6.30888 2.79857 6.19021 2.78026 6.09921L2.045 6.24714L1.30973 6.39508C1.37585 6.7237 1.51427 7.01108 1.68784 7.29735C1.85656 7.57563 2.08624 7.89622 2.3595 8.27878L2.9698 7.84285ZM2.045 6.24714L2.78028 6.09931C2.73392 5.86871 2.75382 5.62906 2.83779 5.40834L2.13679 5.14168L1.4358 4.87502C1.25162 5.35919 1.20742 5.88619 1.30971 6.39498L2.045 6.24714ZM2.13679 5.14168L2.83772 5.40851C2.87086 5.32145 2.93392 5.21155 3.09435 5.02482C3.26088 4.83098 3.49258 4.5985 3.84095 4.25013L3.31062 3.7198L2.78029 3.18947C2.44773 3.52203 2.16866 3.80048 1.95658 4.04734C1.73839 4.3013 1.55501 4.56188 1.43586 4.87485L2.13679 5.14168ZM3.31062 3.7198L3.84095 4.25013L4.25013 3.84095L3.7198 3.31062L3.18947 2.78029L2.78029 3.18947L3.31062 3.7198ZM3.7198 3.31062L4.25013 3.84095C4.59847 3.49261 4.83096 3.26091 5.0248 3.09437C5.21156 2.93392 5.32147 2.87086 5.4085 2.83772L5.14168 2.13679L4.87485 1.43586C4.56187 1.55501 4.30129 1.73841 4.04732 1.95659C3.80046 2.16868 3.52201 2.44775 3.18947 2.78029L3.7198 3.31062ZM5.14168 2.13679L5.4083 2.8378C5.62908 2.75383 5.86876 2.73392 6.09929 2.78028L6.24714 2.045L6.395 1.30971C5.88617 1.2074 5.35916 1.25166 4.87505 1.43579L5.14168 2.13679ZM6.24714 2.045L6.09921 2.78026C6.18999 2.79853 6.30833 2.84254 6.51892 2.97035C6.73757 3.10305 7.00476 3.29354 7.40594 3.5801L7.84187 2.9698L8.2778 2.3595C7.8955 2.08643 7.57512 1.85673 7.29717 1.68804C7.01117 1.51446 6.72389 1.37589 6.39508 1.30973L6.24714 2.045ZM7.84187 2.9698L7.40604 3.58017L8.51249 4.37021L8.94832 3.75984L9.38414 3.14947L8.2777 2.35943L7.84187 2.9698ZM8.94832 3.75984L8.51263 4.37031C9.21117 4.86885 10.0589 4.97306 10.8112 4.84838L10.6886 4.10847L10.5659 3.36857C10.106 3.44479 9.68556 3.36459 9.384 3.14937L8.94832 3.75984ZM10.6886 4.10847L10.8113 4.84836C11.1986 4.78412 11.5962 4.75008 12.0011 4.75007L12.0011 4.00007L12.001 3.25007C11.512 3.25008 11.0323 3.29121 10.5658 3.36858L10.6886 4.10847ZM12.0011 4.00007L12.001 4.75007C12.4056 4.75008 12.8022 4.78353 13.1881 4.84742L13.3106 4.1075L13.4331 3.36757C12.967 3.29039 12.4885 3.25008 12.0011 3.25007L12.0011 4.00007ZM13.3106 4.1075L13.1881 4.84743C13.9392 4.97175 14.7867 4.86889 15.4855 4.37039L15.0499 3.75984L14.6143 3.14929C14.3135 3.36392 13.8935 3.44378 13.4331 3.36757L13.3106 4.1075ZM15.0499 3.75984L15.4857 4.37021L16.5922 3.58017L16.1563 2.9698L15.7205 2.35943L14.6141 3.14947L15.0499 3.75984ZM16.1563 2.9698L16.5923 3.5801C16.9933 3.29363 17.2608 3.10312 17.4795 2.97049C17.6903 2.8427 17.809 2.79857 17.9 2.78025L17.752 2.045L17.6041 1.30974C17.2755 1.37587 16.9881 1.51427 16.7018 1.68783C16.4236 1.85656 16.103 2.08623 15.7204 2.3595L16.1563 2.9698ZM12.0011 9.00007V8.25007C9.92998 8.25007 8.25105 9.92901 8.25105 12.0001H9.00105H9.75105C9.75105 10.7574 10.7584 9.75007 12.0011 9.75007V9.00007ZM9.00105 12.0001L8.25105 12.0001C8.2512 14.071 9.93 15.7501 12.0011 15.7501V15.0001V14.2501C10.7585 14.2501 9.75114 13.2427 9.75105 12L9.00105 12.0001ZM12.0011 15.0001L12.0011 15.7501C14.072 15.75 15.7509 14.071 15.7511 12.0001L15.0011 12.0001L14.2511 12C14.251 13.2426 13.2435 14.25 12.001 14.2501L12.0011 15.0001ZM15.0011 12.0001H15.7511C15.7511 9.92901 14.0721 8.25013 12.0011 8.25007L12.0011 9.00007L12.001 9.75007C13.2437 9.75011 14.2511 10.7575 14.2511 12.0001H15.0011Z" fill="#191E3A"/>
</g>
</svg>
