<svg width="61" height="61" viewBox="0 0 61 61" fill="none" xmlns="http://www.w3.org/2000/svg">
<g id="share" filter="url(#filter0_d_678_4556)">
<path id="Icon" fill-rule="evenodd" clip-rule="evenodd" d="M37.6326 19.341C38.846 19.0013 39.6894 18.7661 40.3332 18.648C40.9837 18.5286 41.2637 18.5644 41.4114 18.6204C41.858 18.7895 42.2106 19.1421 42.3797 19.5887C42.4357 19.7364 42.4715 20.0164 42.3521 20.6669C42.2339 21.3107 41.9988 22.1541 41.659 23.3675L37.8413 37.002C37.3079 38.9067 36.9245 40.2729 36.5663 41.2359C36.1867 42.2565 35.9257 42.5484 35.8022 42.6237C35.3174 42.9192 34.7155 42.9475 34.2051 42.6989C34.0751 42.6356 33.7878 42.3695 33.3139 41.3891C32.8668 40.464 32.3567 39.14 31.6466 37.2938L30.2813 33.7438L30.2441 33.647C30.0913 33.2488 29.9617 32.9111 29.8018 32.6125L33.3744 29.0399C33.7649 28.6494 33.7649 28.0162 33.3744 27.6257C32.9839 27.2352 32.3507 27.2352 31.9602 27.6257L28.3876 31.1983C28.089 31.0384 27.7514 30.9088 27.3532 30.7559L27.3531 30.7559L27.2563 30.7187L23.7061 29.3533C21.86 28.6432 20.536 28.1331 19.6109 27.686C18.6305 27.2121 18.3644 26.9248 18.3011 26.7948C18.0525 26.2843 18.0808 25.6825 18.3763 25.1976C18.4516 25.0742 18.7435 24.8132 19.7641 24.4336C20.7272 24.0754 22.0932 23.692 23.998 23.1587L37.6326 19.341ZM42.1197 16.75C41.4479 16.4956 40.7209 16.5434 39.9721 16.6808C39.2272 16.8176 38.2951 17.0786 37.1425 17.4013L37.1425 17.4013L37.0933 17.4151L23.4588 21.2328L23.4089 21.2467L23.4089 21.2467C21.5646 21.7631 20.1176 22.1683 19.067 22.559C18.0645 22.9318 17.1399 23.3834 16.6685 24.1568C16.0185 25.2233 15.9561 26.5475 16.503 27.6705C16.8995 28.4848 17.7776 29.0212 18.7406 29.4867C19.7498 29.9745 21.1522 30.5138 22.9398 31.2014L22.9398 31.2014L22.9882 31.22L26.5384 32.5854C27.2379 32.8545 27.4223 32.9332 27.5696 33.038C27.7215 33.146 27.8541 33.2786 27.9621 33.4305C28.0668 33.5778 28.1456 33.7621 28.4146 34.4617L29.7799 38.0117L29.7985 38.06C30.486 39.8476 31.0254 41.2501 31.5132 42.2594C31.9786 43.2224 32.5151 44.1004 33.3294 44.497C34.4524 45.0439 35.7765 44.9816 36.8431 44.3315C37.6165 43.8601 38.068 42.9355 38.4409 41.9331C38.8316 40.8824 39.2368 39.4354 39.7532 37.591L39.7672 37.5412L43.585 23.9068L43.5988 23.8575C43.9215 22.7049 44.1825 21.7728 44.3192 21.028C44.4567 20.2792 44.5045 19.5522 44.2501 18.8804C43.878 17.8978 43.1023 17.1221 42.1197 16.75Z" fill="white"/>
</g>
<defs>
<filter id="filter0_d_678_4556" x="-2" y="-1" width="64" height="64" filterUnits="userSpaceOnUse" color-interpolation-filters="sRGB">
<feFlood flood-opacity="0" result="BackgroundImageFix"/>
<feColorMatrix in="SourceAlpha" type="matrix" values="0 0 0 0 0 0 0 0 0 0 0 0 0 0 0 0 0 0 127 0" result="hardAlpha"/>
<feOffset/>
<feGaussianBlur stdDeviation="8"/>
<feColorMatrix type="matrix" values="0 0 0 0 0 0 0 0 0 0 0 0 0 0 0 0 0 0 0.5 0"/>
<feBlend mode="normal" in2="BackgroundImageFix" result="effect1_dropShadow_678_4556"/>
<feBlend mode="normal" in="SourceGraphic" in2="effect1_dropShadow_678_4556" result="shape"/>
</filter>
</defs>
</svg>
