<svg width="24" height="24" viewBox="0 0 24 24" fill="none" xmlns="http://www.w3.org/2000/svg">
<g id="chart-column">
<path id="Icon" fill-rule="evenodd" clip-rule="evenodd" d="M9.96644 1.25H10H14H14.0336C15.4053 1.25 16.4807 1.24999 17.3451 1.32061C18.2252 1.39252 18.9523 1.54138 19.6104 1.87671C20.6924 2.42798 21.572 3.30762 22.1233 4.38955C22.4586 5.04769 22.6075 5.77479 22.6794 6.65494C22.75 7.51924 22.75 8.59461 22.75 9.96623V9.96628V9.96632V9.96637V9.96642V10V14V14.0336V14.0336V14.0337V14.0337V14.0338C22.75 15.4054 22.75 16.4808 22.6794 17.3451C22.6075 18.2252 22.4586 18.9523 22.1233 19.6104C21.572 20.6924 20.6924 21.572 19.6104 22.1233C18.9523 22.4586 18.2252 22.6075 17.3451 22.6794C16.4808 22.75 15.4054 22.75 14.0338 22.75H14.0337H14.0337H14.0336H14.0336H14H10H9.96642H9.96637H9.96632H9.96627H9.96623C8.59461 22.75 7.51924 22.75 6.65494 22.6794C5.77479 22.6075 5.04769 22.4586 4.38955 22.1233C3.30762 21.572 2.42798 20.6924 1.87671 19.6104C1.54138 18.9523 1.39252 18.2252 1.32061 17.3451C1.24999 16.4807 1.25 15.4053 1.25 14.0336V14V10V9.96644C1.25 8.59472 1.24999 7.51929 1.32061 6.65494C1.39252 5.77479 1.54138 5.04769 1.87671 4.38955C2.42798 3.30762 3.30762 2.42798 4.38955 1.87671C5.04769 1.54138 5.77479 1.39252 6.65494 1.32061C7.51929 1.24999 8.59472 1.25 9.96644 1.25ZM7.74988 10C7.74988 9.58579 7.41409 9.25 6.99988 9.25C6.58566 9.25 6.24988 9.58579 6.24988 10V16C6.24988 16.4142 6.58566 16.75 6.99988 16.75C7.41409 16.75 7.74988 16.4142 7.74988 16V10ZM11.9999 7.25C12.4141 7.25 12.7499 7.58579 12.7499 8V16C12.7499 16.4142 12.4141 16.75 11.9999 16.75C11.5857 16.75 11.2499 16.4142 11.2499 16V8C11.2499 7.58579 11.5857 7.25 11.9999 7.25ZM17.7499 12C17.7499 11.5858 17.4141 11.25 16.9999 11.25C16.5857 11.25 16.2499 11.5858 16.2499 12V16C16.2499 16.4142 16.5857 16.75 16.9999 16.75C17.4141 16.75 17.7499 16.4142 17.7499 16V12Z" fill="#191E3A"/>
</g>
</svg>
