<svg width="32" height="32" viewBox="0 0 32 32" fill="none" xmlns="http://www.w3.org/2000/svg">
<path d="M16 0.000106447C7.163 0.000106447 0 7.18511 0 16.0001C0 24.8451 7.163 32.0001 16 32.0001C24.837 32.0001 32 24.8451 32 16.0001C32 7.15511 24.838 -0.0318936 16 0.000106447ZM16 1.00011C24.296 0.970106 31 7.69411 31 16.0001C31 24.3061 24.297 31.0001 16 31.0001C7.703 31.0001 1 24.3061 1 16.0001C1 7.72611 7.703 1.00011 16 1.00011ZM21.625 6.00011L10.344 6.03111C10.2167 6.03097 10.0906 6.05595 9.97302 6.1046C9.8554 6.15325 9.74853 6.22462 9.65852 6.31463C9.56851 6.40463 9.49714 6.51151 9.44849 6.62913C9.39984 6.74675 9.37487 6.87282 9.375 7.00011C9.375 7.53611 9.808 8.00011 10.344 8.00011V11.2501C10.344 12.4701 11.149 13.5851 12.25 14.0311C12.845 14.2691 13.626 14.3851 14.281 14.5941C14.609 14.6831 14.884 14.8511 15.062 15.0001C15.242 15.1491 15.344 15.2931 15.344 15.5311V16.3121C15.344 16.5511 15.241 16.7261 15.063 16.8751C14.883 17.0241 14.609 17.1311 14.281 17.2501C13.656 17.4581 12.875 17.5741 12.25 17.8131C11.119 18.2591 10.344 19.4361 10.344 20.6561V24.0631C10.0871 24.0631 9.8408 24.1651 9.65917 24.3468C9.47754 24.5284 9.3755 24.7747 9.3755 25.0316C9.3755 25.2885 9.47754 25.5348 9.65917 25.7164C9.8408 25.8981 10.0871 26.0001 10.344 26.0001H21.625C22.161 26.0001 22.625 25.5671 22.625 25.0311C22.625 24.4961 22.161 24.0631 21.625 24.0631H21.531V20.6561C21.531 19.4661 20.942 18.2591 19.781 17.8131C19.126 17.5741 18.375 17.4271 17.75 17.2191C17.4784 17.1431 17.2238 17.0158 17 16.8441C16.821 16.6941 16.719 16.5511 16.719 16.3121V15.5001C16.719 15.2621 16.821 15.1181 17 14.9691C17.179 14.8191 17.452 14.6821 17.75 14.5631C18.375 14.3541 19.156 14.2071 19.781 13.9691C20.912 13.5221 21.531 12.3761 21.531 11.1561V7.97011H21.625C22.161 7.97011 22.625 7.53511 22.625 6.97011C22.625 6.43411 22.161 6.00011 21.625 6.00011ZM11.156 11.0631H20.812C20.902 11.0631 21 11.1611 21 11.2501C21 11.8451 20.698 12.2981 20.281 12.6251C19.865 12.9521 19.286 13.1671 18.75 13.3751C18.185 13.5541 17.632 13.6961 17.156 13.8751C16.68 14.0541 16.336 14.2631 16.188 14.5311C16.128 14.6211 15.966 14.6511 15.906 14.5621C15.698 14.2951 15.32 14.0851 14.844 13.9061C14.368 13.7281 13.815 13.5851 13.25 13.4061C12.714 13.1981 12.167 12.9841 11.75 12.6561C11.333 12.3291 11.062 11.8761 11.062 11.2811C11.003 11.1621 11.067 11.0631 11.156 11.0631ZM16 15.0631C16.09 15.0631 16.125 15.0981 16.125 15.1871C16.125 15.2771 16.089 15.3441 16 15.3441C15.9794 15.3445 15.9589 15.3408 15.9398 15.3331C15.9207 15.3254 15.9034 15.3139 15.8888 15.2993C15.8742 15.2848 15.8627 15.2674 15.855 15.2483C15.8473 15.2292 15.8436 15.2087 15.844 15.1881C15.814 15.0981 15.881 15.0631 16 15.0631ZM16 16.3751C16.09 16.3751 16.125 16.4421 16.125 16.5311C16.125 16.6211 16.089 16.6881 16 16.6881C15.9793 16.6885 15.9588 16.6847 15.9396 16.677C15.9204 16.6692 15.903 16.6577 15.8884 16.643C15.8738 16.6283 15.8624 16.6108 15.8547 16.5916C15.8471 16.5724 15.8435 16.5518 15.844 16.5311C15.814 16.4421 15.881 16.3751 16 16.3751ZM16 17.6881C16.09 17.6881 16.125 17.7541 16.125 17.8441C16.125 17.9331 16.089 18.0001 16 18.0001C15.9794 18.0005 15.9589 17.9968 15.9398 17.9891C15.9207 17.9814 15.9034 17.9699 15.8888 17.9553C15.8742 17.9408 15.8627 17.9234 15.855 17.9043C15.8473 17.8852 15.8436 17.8647 15.844 17.8441C15.814 17.7841 15.881 17.6881 16 17.6881ZM16 19.0311C16.09 19.0311 16.125 19.1281 16.125 19.1881C16.125 19.2471 16.089 19.3441 16 19.3441C15.9793 19.3445 15.9588 19.3407 15.9396 19.333C15.9204 19.3252 15.903 19.3137 15.8884 19.299C15.8738 19.2843 15.8624 19.2668 15.8547 19.2476C15.8471 19.2284 15.8435 19.2078 15.844 19.1871C15.814 19.0981 15.881 19.0311 16 19.0311ZM15.969 19.9061C16.058 19.9061 16.095 19.9401 16.125 20.0001C16.304 20.2981 16.679 20.4801 17.125 20.6881C17.601 20.8961 18.153 21.0731 18.719 21.2811C19.284 21.4901 19.833 21.6731 20.25 22.0001C20.667 22.3271 20.969 22.8111 20.969 23.4061C20.969 23.4961 20.871 23.5941 20.781 23.5941H11.188C11.098 23.5941 11 23.4961 11 23.4061C11 22.8111 11.302 22.3271 11.719 22.0001C12.135 21.6731 12.683 21.4901 13.219 21.2811C13.7552 21.1078 14.2867 20.9204 14.813 20.7191C15.289 20.5401 15.665 20.2981 15.843 20.0001C15.873 19.9701 15.879 19.9361 15.969 19.9061Z" fill="white"/>
</svg>
