<svg width="21" height="20" viewBox="0 0 21 20" fill="none" xmlns="http://www.w3.org/2000/svg">
<g id="trash">
<path id="Icon" fill-rule="evenodd" clip-rule="evenodd" d="M9.69184 1.04217L9.60118 1.04208C9.17401 1.04144 8.79909 1.04088 8.46501 1.17227C8.1729 1.28716 7.9143 1.47355 7.71293 1.71434C7.48264 1.98972 7.36461 2.34558 7.23014 2.75103L7.20155 2.83707L6.96652 3.54217H4.08366H2.41699C2.07181 3.54217 1.79199 3.82199 1.79199 4.16717C1.79199 4.51235 2.07181 4.79217 2.41699 4.79217H3.49434L3.99777 13.3504L3.99933 13.377C4.04997 14.2379 4.09016 14.9212 4.16673 15.4715C4.24512 16.0349 4.36747 16.5099 4.60998 16.941C5.00421 17.6419 5.60257 18.2061 6.32541 18.5585C6.77006 18.7753 7.25137 18.8696 7.81845 18.9147C8.37224 18.9588 9.05665 18.9588 9.91905 18.9588H9.9191H9.91914H9.91919H9.94582H11.5548H11.5815H11.5815H11.5816H11.5816C12.444 18.9588 13.1284 18.9588 13.6822 18.9147C14.2493 18.8696 14.7306 18.7753 15.1752 18.5585C15.8981 18.2061 16.4964 17.6419 16.8907 16.941C17.1332 16.5099 17.2555 16.0349 17.3339 15.4715C17.4105 14.9212 17.4507 14.2379 17.5013 13.3769L17.5029 13.3504L18.0063 4.79217H19.0837C19.4288 4.79217 19.7087 4.51235 19.7087 4.16717C19.7087 3.82199 19.4288 3.54217 19.0837 3.54217H17.417H14.5341L14.2991 2.83707L14.2705 2.75103C14.136 2.34558 14.018 1.98972 13.7877 1.71434C13.5864 1.47355 13.3278 1.28716 13.0356 1.17227C12.7016 1.04088 12.3266 1.04144 11.8995 1.04208L11.8088 1.04217H9.69184ZM14.0691 4.79217C14.0787 4.7924 14.0884 4.7924 14.0981 4.79217H16.7541L16.255 13.277C16.2025 14.1705 16.1648 14.804 16.0959 15.2992C16.028 15.7869 15.9358 16.0889 15.8012 16.3282C15.5314 16.8078 15.122 17.1938 14.6275 17.4349C14.3807 17.5553 14.0737 17.6296 13.5829 17.6687C13.0846 17.7084 12.4498 17.7088 11.5548 17.7088H9.94582C9.0508 17.7088 8.4161 17.7084 7.91772 17.6687C7.42692 17.6296 7.11999 17.5553 6.87318 17.4349C6.3786 17.1938 5.9692 16.8078 5.69946 16.3282C5.56485 16.0889 5.47265 15.7869 5.4048 15.2992C5.3359 14.804 5.29817 14.1705 5.24561 13.277L4.7465 4.79217H7.40258C7.41227 4.7924 7.42194 4.7924 7.43158 4.79217H14.0691ZM13.2165 3.54217L13.1132 3.23236C12.9325 2.69 12.8864 2.5851 12.8288 2.51623C12.7617 2.43596 12.6755 2.37383 12.5781 2.33554C12.4946 2.30267 12.3805 2.29217 11.8088 2.29217H9.69184C9.12015 2.29217 9.00608 2.30267 8.92252 2.33554C8.82515 2.37383 8.73895 2.43596 8.67183 2.51623C8.61423 2.5851 8.56819 2.69 8.3874 3.23236L8.28413 3.54217H13.2165ZM9.70866 8.33384C9.70866 7.98866 9.42884 7.70884 9.08366 7.70884C8.73848 7.70884 8.45866 7.98866 8.45866 8.33384V14.1672C8.45866 14.5123 8.73848 14.7922 9.08366 14.7922C9.42884 14.7922 9.70866 14.5123 9.70866 14.1672V8.33384ZM12.417 7.70884C12.7622 7.70884 13.042 7.98866 13.042 8.33384V11.6672C13.042 12.0123 12.7622 12.2922 12.417 12.2922C12.0718 12.2922 11.792 12.0123 11.792 11.6672V8.33384C11.792 7.98866 12.0718 7.70884 12.417 7.70884Z" fill="#C32B43"/>
</g>
</svg>
