<svg width="18" height="18" viewBox="0 0 18 18" fill="none" xmlns="http://www.w3.org/2000/svg">
<path fill-rule="evenodd" clip-rule="evenodd" d="M11.25 0.9375C10.9393 0.9375 10.6875 1.18934 10.6875 1.5C10.6875 1.81066 10.9393 2.0625 11.25 2.0625C12.5962 2.0625 13.6875 3.15381 13.6875 4.5C13.6875 5.84619 12.5962 6.9375 11.25 6.9375C10.9393 6.9375 10.6875 7.18934 10.6875 7.5C10.6875 7.81066 10.9393 8.0625 11.25 8.0625C13.2175 8.0625 14.8125 6.46751 14.8125 4.5C14.8125 2.53249 13.2175 0.9375 11.25 0.9375ZM12.75 9.9375C12.4393 9.9375 12.1875 10.1893 12.1875 10.5C12.1875 10.8107 12.4393 11.0625 12.75 11.0625H13.65C15.3276 11.0625 16.6875 12.4224 16.6875 14.1C16.6875 15.1148 15.8648 15.9375 14.85 15.9375H12.75C12.4393 15.9375 12.1875 16.1893 12.1875 16.5C12.1875 16.8107 12.4393 17.0625 12.75 17.0625H14.85C16.4861 17.0625 17.8125 15.7361 17.8125 14.1C17.8125 11.8011 15.9489 9.9375 13.65 9.9375H12.75ZM2.4375 4.5C2.4375 2.53249 4.03249 0.9375 6 0.9375C7.96751 0.9375 9.5625 2.53249 9.5625 4.5C9.5625 6.46751 7.96751 8.0625 6 8.0625C4.03249 8.0625 2.4375 6.46751 2.4375 4.5ZM4.35 9.9375C2.05111 9.9375 0.1875 11.8011 0.1875 14.1C0.1875 15.7361 1.51386 17.0625 3.15 17.0625H8.85C10.4861 17.0625 11.8125 15.7361 11.8125 14.1C11.8125 11.8011 9.94888 9.9375 7.65 9.9375H4.35Z" fill="#A5A5A5"/>
</svg>
