<svg width="24" height="24" viewBox="0 0 24 24" fill="none" xmlns="http://www.w3.org/2000/svg">
<g id="volume-slash">
<path id="Icon" fill-rule="evenodd" clip-rule="evenodd" d="M3.53038 2.46967C3.23748 2.17678 2.76261 2.17678 2.46972 2.46967C2.17682 2.76256 2.17682 3.23744 2.46972 3.53033L6.18939 7.25L6.00005 7.25L5.88425 7.24998L5.88425 7.24998L5.88424 7.24998L5.88424 7.24998C5.06628 7.24971 4.50813 7.24952 4.02948 7.37778C2.73538 7.72453 1.72458 8.73533 1.37783 10.0294C1.24957 10.5081 1.24975 11.0662 1.25002 11.8842L1.25005 12L1.25002 12.1158C1.24975 12.9338 1.24957 13.4919 1.37783 13.9706C1.72458 15.2647 2.73538 16.2755 4.02948 16.6222C4.50814 16.7505 5.06629 16.7503 5.88425 16.75L6.00005 16.75L6.49172 16.75C6.94963 16.75 7.07327 16.7536 7.17932 16.7752C7.41807 16.8238 7.63739 16.9412 7.81032 17.1129C7.88712 17.1891 7.95868 17.29 8.21268 17.671L8.22706 17.6926C8.8135 18.5723 9.27178 19.2597 9.64355 19.7551C9.99525 20.2238 10.3593 20.6504 10.7783 20.8581C12.0796 21.5035 13.6584 21.0255 14.3832 19.7666C14.6166 19.3613 14.6829 18.8045 14.7155 18.2194C14.749 17.6193 14.75 16.8234 14.75 15.8107L20.4697 21.5303C20.7626 21.8232 21.2375 21.8232 21.5304 21.5303C21.8233 21.2374 21.8233 20.7626 21.5304 20.4697L14.5304 13.4697L8.33084 7.27013L3.53038 2.46967ZM14.3832 4.23335C13.6584 2.97454 12.0796 2.49651 10.7783 3.14186C10.4569 3.30122 10.1827 3.57888 9.93648 3.8731C9.67948 4.18023 9.39033 4.58409 9.05356 5.07675C8.84995 5.3746 8.88727 5.77521 9.14239 6.03033L13.4697 10.3577C13.6842 10.5722 14.0068 10.6363 14.2871 10.5202C14.5673 10.4042 14.75 10.1307 14.75 9.82733L14.75 8.30833L14.75 8.28237L14.75 8.28233L14.75 8.28229L14.75 8.28225C14.75 7.2251 14.7501 6.39897 14.7155 5.78056C14.6829 5.1955 14.6166 4.63866 14.3832 4.23335ZM16.3763 9.58348C16.6064 9.23902 17.0721 9.14625 17.4166 9.37629C18.2402 9.92635 18.75 10.9167 18.75 12C18.75 12.457 18.6599 12.8943 18.4955 13.2886C18.3361 13.6709 17.897 13.8516 17.5147 13.6923C17.1323 13.5329 16.9516 13.0937 17.111 12.7114C17.1989 12.5006 17.25 12.2595 17.25 12C17.25 11.3741 16.9555 10.8721 16.5835 10.6237C16.2391 10.3937 16.1463 9.92795 16.3763 9.58348ZM18.4166 5.37629C18.0721 5.14625 17.6064 5.23902 17.3763 5.58348C17.1463 5.92795 17.2391 6.39367 17.5835 6.62371C19.1511 7.67052 20.25 9.66489 20.25 12C20.25 12.976 20.0575 13.8955 19.7174 14.7114C19.5859 15.0267 19.4326 15.3263 19.2599 15.6077C19.0432 15.9607 19.1537 16.4225 19.5068 16.6392C19.8598 16.8559 20.3216 16.7453 20.5383 16.3923C20.7521 16.0439 20.9409 15.6748 21.1019 15.2886C21.5185 14.2891 21.75 13.1734 21.75 12C21.75 9.20742 20.4358 6.72479 18.4166 5.37629Z" fill="#A5A5A5"/>
</g>
</svg>
