<svg width="24" height="24" viewBox="0 0 24 24" fill="none" xmlns="http://www.w3.org/2000/svg">
<g id="volume-high">
<path id="Icon" fill-rule="evenodd" clip-rule="evenodd" d="M14.3832 4.23372C13.6584 2.97491 12.0796 2.49688 10.7783 3.14222C10.3593 3.35001 9.99525 3.77656 9.64355 4.24525C9.27178 4.74068 8.81351 5.42809 8.22707 6.30775L8.21268 6.32933C7.95868 6.71034 7.88712 6.81124 7.81032 6.88748C7.63739 7.05914 7.41807 7.17652 7.17932 7.22518C7.07327 7.2468 6.94963 7.25036 6.49172 7.25036L6.00005 7.25036L5.88425 7.25034C5.06629 7.25007 4.50814 7.24989 4.02948 7.37814C2.73538 7.72489 1.72458 8.7357 1.37783 10.0298C1.24957 10.5085 1.24975 11.0666 1.25002 11.8846L1.25005 12.0004L1.25002 12.1162C1.24975 12.9341 1.24957 13.4923 1.37783 13.9709C1.72458 15.265 2.73538 16.2758 4.02948 16.6226C4.50813 16.7508 5.06627 16.7507 5.88421 16.7504L5.88426 16.7504L6.00005 16.7504L6.49172 16.7504C6.94963 16.7504 7.07327 16.7539 7.17932 16.7755C7.41807 16.8242 7.63739 16.9416 7.81032 17.1132C7.88712 17.1895 7.95868 17.2904 8.21268 17.6714L8.2271 17.693C8.81352 18.5727 9.27179 19.2601 9.64355 19.7555C9.99525 20.2242 10.3593 20.6507 10.7783 20.8585C12.0796 21.5039 13.6584 21.0258 14.3832 19.767C14.6166 19.3617 14.6829 18.8049 14.7155 18.2198C14.7501 17.6014 14.7501 16.7752 14.75 15.718L14.75 15.718L14.75 15.692L14.75 8.30869L14.75 8.28273L14.75 8.28269C14.75 7.2255 14.7501 6.39935 14.7155 5.78092C14.6829 5.19586 14.6166 4.63902 14.3832 4.23372ZM11.4447 4.48606C12.0362 4.19272 12.7539 4.41 13.0833 4.98219C13.1167 5.04021 13.1838 5.2546 13.2179 5.86451C13.2498 6.43599 13.25 7.22007 13.25 8.30869L13.25 15.692C13.25 16.7807 13.2498 17.5647 13.2179 18.1362C13.1838 18.7461 13.1167 18.9605 13.0833 19.0185C12.7539 19.5907 12.0362 19.808 11.4447 19.5147C11.3847 19.4849 11.21 19.3438 10.8433 18.8552C10.4998 18.3974 10.0646 17.7451 9.46075 16.8393L9.42532 16.7861C9.22347 16.483 9.06518 16.2454 8.86708 16.0487C8.48665 15.6711 8.00414 15.4128 7.47889 15.3058C7.20538 15.25 6.91981 15.2502 6.55566 15.2503L6.55564 15.2503L6.49172 15.2504L6.00005 15.2504C5.02179 15.2504 4.67979 15.2439 4.41771 15.1737C3.64125 14.9656 3.03477 14.3592 2.82671 13.5827C2.75649 13.3206 2.75005 12.9786 2.75005 12.0004C2.75005 11.0221 2.75649 10.6801 2.82671 10.418C3.03477 9.64156 3.64125 9.03508 4.4177 8.82703C4.67979 8.75681 5.02179 8.75036 6.00005 8.75036L6.49172 8.75036L6.55566 8.75038L6.55566 8.75038C6.9198 8.75057 7.20538 8.75071 7.47889 8.69497C8.00414 8.58791 8.48665 8.32968 8.86708 7.95203C9.06517 7.75538 9.22346 7.51769 9.4253 7.2146L9.46075 7.16139C10.0646 6.2556 10.4998 5.60336 10.8433 5.14555C11.21 4.65696 11.3847 4.5158 11.4447 4.48606ZM17.3763 5.58385C17.6064 5.23938 18.0721 5.14662 18.4166 5.37666C20.4359 6.72515 21.75 9.20778 21.75 12.0004C21.75 14.7929 20.4359 17.2756 18.4166 18.6241C18.0721 18.8541 17.6064 18.7613 17.3763 18.4169C17.1463 18.0724 17.2391 17.6067 17.5835 17.3767C19.1511 16.3298 20.25 14.3355 20.25 12.0004C20.25 9.66526 19.1511 7.67088 17.5835 6.62407C17.2391 6.39404 17.1463 5.92831 17.3763 5.58385ZM16.3763 9.58385C16.6064 9.23938 17.0721 9.14662 17.4166 9.37666C18.2402 9.92672 18.75 10.917 18.75 12.0004C18.75 13.0837 18.2402 14.074 17.4166 14.6241C17.0721 14.8541 16.6064 14.7613 16.3763 14.4169C16.1463 14.0724 16.2391 13.6067 16.5835 13.3767C16.9555 13.1283 17.25 12.6262 17.25 12.0004C17.25 11.3745 16.9555 10.8724 16.5835 10.6241C16.2391 10.394 16.1463 9.92831 16.3763 9.58385Z" fill="#22272F"/>
</g>
</svg>
