<svg width="12" height="12" viewBox="0 0 12 12" fill="none" xmlns="http://www.w3.org/2000/svg">
<path fill-rule="evenodd" clip-rule="evenodd" d="M10.052 9.55548C10.0226 10.0854 9.58432 10.5 9.0536 10.5H2.94557C2.41483 10.5 1.97654 10.0854 1.9471 9.55548L1.55821 2.55547C1.52637 1.98227 1.98259 1.5 2.55667 1.5H9.44247C10.0166 1.5 10.4728 1.98227 10.4409 2.55547L10.052 9.55548ZM8.56062 4.44465C8.76557 4.30963 8.81712 4.04192 8.64892 3.86775C8.3678 3.57665 8.03432 3.33263 7.66267 3.14738C7.15715 2.89543 6.59527 2.75942 6.02305 2.75047C5.45082 2.74152 4.88445 2.8599 4.37027 3.09593C3.99225 3.26945 3.65032 3.50292 3.35905 3.78507C3.18475 3.9539 3.2268 4.22305 3.42687 4.36443L4.50485 5.12605C4.70492 5.2674 4.98675 5.2217 5.19405 5.08985C5.24712 5.0561 5.3028 5.0258 5.3607 4.99923C5.5435 4.9153 5.74372 4.87072 5.94685 4.86853L6.7951 3.89322C6.8857 3.78905 7.0436 3.77805 7.1478 3.86865C7.25197 3.95925 7.26297 4.11718 7.17237 4.22135L6.51477 4.97745C6.54545 4.99012 6.57567 5.00387 6.60537 5.01867C6.6623 5.04705 6.71687 5.07907 6.76872 5.11447C6.97125 5.2527 7.25127 5.3072 7.45625 5.17217L8.56062 4.44465Z" fill="#A5A5A5"/>
</svg>
